<?xml version="1.0" encoding="utf-8"?>
<!-- Generator: Adobe Illustrator 27.0.1, SVG Export Plug-In . SVG Version: 6.00 Build 0)  -->
<svg version="1.1" id="Layer_1" xmlns="http://www.w3.org/2000/svg" xmlns:xlink="http://www.w3.org/1999/xlink" x="0px" y="0px"
	 width="76px" height="76px" viewBox="0 0 76 76" style="enable-background:new 0 0 76 76;" xml:space="preserve">
<style type="text/css">
	.st0{fill:#A4DBE8;}
</style>
<path class="st0" d="M38,76C17.047,76,0,58.953,0,38S17.047,0,38,0s38,17.047,38,38S58.953,76,38,76z M38,3C18.701,3,3,18.701,3,38
	s15.701,35,35,35s35-15.701,35-35S57.299,3,38,3z"/>
<path class="st0" d="M43.64,42.794c-0.385-0.396-1.019-0.401-1.414-0.018l-3.021,2.943V34.096c0-0.552-0.448-1-1-1s-1,0.448-1,1
	v11.662l-3.012-2.977c-0.392-0.39-1.026-0.385-1.415,0.008c-0.388,0.393-0.384,1.026,0.008,1.414l5.381,5.319l0.642-0.625
	c0.061-0.047,0.114-0.098,0.162-0.158l4.65-4.531C44.018,43.823,44.025,43.189,43.64,42.794z"/>
<path class="st0" d="M33.289,55.376c-0.205,0-0.413-0.042-0.611-0.131c-1.025-0.458-1.993-1.046-2.877-1.746
	c-0.649-0.515-0.758-1.458-0.244-2.107c0.514-0.648,1.458-0.76,2.107-0.244c0.688,0.545,1.441,1.003,2.239,1.359
	c0.756,0.338,1.095,1.226,0.757,1.981C34.41,55.046,33.862,55.376,33.289,55.376z M45.578,53.903c-0.448,0-0.892-0.2-1.188-0.582
	c-0.507-0.655-0.387-1.597,0.269-2.104c0.692-0.536,1.317-1.157,1.858-1.848c0.511-0.651,1.453-0.767,2.105-0.256
	s0.767,1.453,0.256,2.105c-0.693,0.886-1.495,1.683-2.384,2.371C46.222,53.801,45.898,53.903,45.578,53.903z M27.557,50.011
	c-0.538,0-1.057-0.289-1.327-0.797c-0.528-0.995-0.93-2.055-1.194-3.147c-0.195-0.806,0.3-1.616,1.105-1.811
	c0.806-0.192,1.616,0.301,1.811,1.105c0.206,0.85,0.518,1.672,0.929,2.446c0.388,0.731,0.11,1.64-0.622,2.028
	C28.034,49.955,27.793,50.011,27.557,50.011z M49.888,47.34c-0.122,0-0.246-0.015-0.37-0.046c-0.803-0.204-1.289-1.021-1.085-1.823
	c0.193-0.761,0.301-1.545,0.32-2.337l-0.001-0.263c0-0.783-0.126-1.598-0.385-2.488c-0.231-0.796,0.227-1.628,1.021-1.859
	c0.799-0.232,1.628,0.226,1.859,1.021c0.183,0.629,0.314,1.234,0.397,1.826c0,0,0.11,0.645,0.11,1.5s-0.14,2.252-0.415,3.338
	C51.168,46.888,50.558,47.34,49.888,47.34z M26.41,42.266c-0.113,0-0.227-0.013-0.341-0.039c-0.807-0.188-1.309-0.994-1.121-1.801
	c0.23-0.989,0.593-2.007,1.11-3.113c0.351-0.75,1.243-1.075,1.994-0.724c0.75,0.351,1.074,1.244,0.724,1.994
	c-0.427,0.914-0.724,1.739-0.906,2.522C27.708,41.798,27.092,42.266,26.41,42.266z M47.773,36.911c-0.521,0-1.029-0.273-1.306-0.76
	c-0.42-0.74-0.902-1.534-1.518-2.497c-0.446-0.698-0.242-1.625,0.456-2.072c0.696-0.446,1.625-0.242,2.071,0.457
	c0.645,1.008,1.152,1.843,1.6,2.63c0.409,0.72,0.156,1.636-0.563,2.045C48.279,36.847,48.024,36.911,47.773,36.911z M29.912,35.12
	c-0.281,0-0.565-0.079-0.818-0.244c-0.694-0.452-0.89-1.382-0.437-2.076c0.531-0.815,1.095-1.65,1.675-2.508
	c0.465-0.687,1.4-0.871,2.085-0.407c0.687,0.464,0.869,1.393,0.405,2.079c-0.576,0.852-1.13,1.672-1.653,2.475
	C30.882,34.88,30.402,35.12,29.912,35.12z M43.467,30.167c-0.487,0-0.967-0.238-1.255-0.676c-0.546-0.831-1.097-1.681-1.642-2.551
	c-0.439-0.702-0.227-1.628,0.476-2.067c0.7-0.438,1.628-0.228,2.067,0.476c0.533,0.852,1.072,1.683,1.606,2.496
	c0.455,0.692,0.262,1.622-0.43,2.077C44.036,30.088,43.75,30.167,43.467,30.167z M34.327,28.446c-0.271,0-0.546-0.073-0.793-0.228
	c-0.703-0.439-0.916-1.364-0.477-2.067c0.552-0.884,1.041-1.708,1.493-2.518c0.404-0.723,1.316-0.982,2.042-0.578
	c0.723,0.404,0.981,1.318,0.578,2.042c-0.477,0.853-0.99,1.717-1.568,2.644C35.316,28.196,34.827,28.446,34.327,28.446z
	 M39.34,23.317c-0.54,0-1.062-0.293-1.33-0.804c-0.229-0.438-0.451-0.876-0.662-1.312c-0.677-0.356-0.984-1.176-0.688-1.898
	l1.461-3.628l1.447,3.199c0.333,0.735,0.702,1.491,1.099,2.247c0.384,0.733,0.101,1.64-0.633,2.024
	C39.812,23.262,39.574,23.317,39.34,23.317z M37.224,56.093c-0.352-0.278-0.576-0.709-0.572-1.192
	c0.008-0.828,0.685-1.493,1.514-1.486c0.876,0.008,1.751-0.093,2.603-0.3c0.804-0.195,1.616,0.298,1.812,1.103
	c0.196,0.805-0.298,1.616-1.103,1.812c-1.093,0.266-2.216,0.395-3.34,0.386C37.793,56.411,37.475,56.292,37.224,56.093z"/>
</svg>
