<?xml version="1.0" encoding="utf-8"?>
<!-- Generator: Adobe Illustrator 27.0.1, SVG Export Plug-In . SVG Version: 6.00 Build 0)  -->
<svg version="1.1" id="Layer_1" xmlns="http://www.w3.org/2000/svg" xmlns:xlink="http://www.w3.org/1999/xlink" x="0px" y="0px"
	 width="76px" height="76px" viewBox="0 0 76 76" style="enable-background:new 0 0 76 76;" xml:space="preserve">
<style type="text/css">
	.st0{fill:#A4DBE8;}
</style>
<path class="st0" d="M38,76C17.047,76,0,58.953,0,38S17.047,0,38,0s38,17.047,38,38S58.953,76,38,76z M38,3C18.701,3,3,18.701,3,38
	s15.701,35,35,35s35-15.701,35-35S57.299,3,38,3z"/>
<path class="st0" d="M48.5,47.999c-1.48,0-2.823,0.591-3.812,1.545l-6.626-5.421C38.658,43.048,39,41.813,39,40.499
	c0-1.644-0.538-3.161-1.438-4.398l8.423-8.423c0.887,0.519,1.915,0.821,3.015,0.821c3.309,0,6-2.691,6-6s-2.691-6-6-6s-6,2.691-6,6
	c0,1.305,0.423,2.51,1.133,3.495l-8.354,8.354c-1.215-0.848-2.689-1.349-4.279-1.349c-0.654,0-1.285,0.093-1.89,0.251l-0.995-2.487
	C30.652,29.42,32,27.115,32,24.499c0-4.136-3.364-7.5-7.5-7.5s-7.5,3.364-7.5,7.5s3.364,7.5,7.5,7.5c0.63,0,1.239-0.087,1.824-0.234
	l1.002,2.506C25.322,35.619,24,37.907,24,40.499c0,3.852,2.919,7.031,6.661,7.45v5.142c-1.804,0.387-3.161,1.99-3.161,3.908
	c0,2.206,1.794,4,4,4s4-1.794,4-4c0-1.612-0.963-2.995-2.339-3.628v-5.567c1.262-0.289,2.405-0.892,3.337-1.729l6.825,5.584
	C43.118,52.235,43,52.853,43,53.499c0,3.032,2.468,5.5,5.5,5.5s5.5-2.468,5.5-5.5S51.532,47.999,48.5,47.999z M49,18.999
	c1.93,0,3.5,1.57,3.5,3.5s-1.57,3.5-3.5,3.5s-3.5-1.57-3.5-3.5S47.07,18.999,49,18.999z M19.5,24.499c0-2.757,2.243-5,5-5
	s5,2.243,5,5s-2.243,5-5,5S19.5,27.256,19.5,24.499z M31.5,58.499c-0.827,0-1.5-0.673-1.5-1.5s0.673-1.5,1.5-1.5s1.5,0.673,1.5,1.5
	S32.327,58.499,31.5,58.499z M31.5,45.499c-2.757,0-5-2.243-5-5s2.243-5,5-5s5,2.243,5,5S34.257,45.499,31.5,45.499z M48.5,56.499
	c-1.654,0-3-1.346-3-3s1.346-3,3-3s3,1.346,3,3S50.154,56.499,48.5,56.499z"/>
</svg>
