<?xml version="1.0" encoding="utf-8"?>
<!-- Generator: Adobe Illustrator 27.0.1, SVG Export Plug-In . SVG Version: 6.00 Build 0)  -->
<svg version="1.1" id="Layer_1" xmlns="http://www.w3.org/2000/svg" xmlns:xlink="http://www.w3.org/1999/xlink" x="0px" y="0px"
	 width="76px" height="76px" viewBox="0 0 76 76" style="enable-background:new 0 0 76 76;" xml:space="preserve">
<style type="text/css">
	.st0{fill:#A4DBE8;}
</style>
<path class="st0" d="M38,76C17.047,76,0,58.953,0,38S17.047,0,38,0s38,17.047,38,38S58.953,76,38,76z M38,3C18.701,3,3,18.701,3,38
	s15.701,35,35,35s35-15.701,35-35S57.299,3,38,3z"/>
<path class="st0" d="M44.824,55.351l-1.038-0.582c4.342-4.496,6.778-10.503,6.778-16.762c0.115-6.224-2.292-12.23-6.673-16.653
	l-0.02-0.02l2.559-1.488c0.716-0.417,0.959-1.334,0.543-2.051c-0.417-0.717-1.336-0.957-2.051-0.543l-34.14,19.849
	c-0.025,0.015-0.045,0.034-0.069,0.05c-0.047,0.031-0.094,0.063-0.137,0.1c-0.037,0.031-0.07,0.064-0.103,0.098
	c-0.034,0.035-0.068,0.069-0.099,0.108c-0.035,0.043-0.065,0.089-0.095,0.136c-0.016,0.025-0.036,0.046-0.05,0.072
	c-0.007,0.012-0.01,0.026-0.017,0.038c-0.026,0.05-0.047,0.102-0.067,0.154c-0.016,0.041-0.033,0.081-0.046,0.123
	c-0.014,0.049-0.022,0.099-0.032,0.149c-0.008,0.046-0.018,0.091-0.023,0.137c-0.005,0.05-0.003,0.1-0.002,0.151
	c0.001,0.046-0.001,0.091,0.004,0.136c0.005,0.05,0.017,0.099,0.027,0.149c0.009,0.046,0.018,0.091,0.031,0.136
	c0.014,0.045,0.033,0.088,0.051,0.132c0.02,0.048,0.04,0.096,0.065,0.143c0.007,0.013,0.011,0.028,0.019,0.041
	c0.011,0.018,0.027,0.031,0.038,0.049c0.049,0.078,0.106,0.15,0.17,0.218c0.023,0.025,0.045,0.051,0.07,0.074
	c0.079,0.073,0.165,0.14,0.261,0.196c0.008,0.005,0.016,0.012,0.024,0.017l32.551,18.261c0.232,0.13,0.484,0.191,0.733,0.191
	c0.524,0,1.034-0.275,1.31-0.766C45.804,56.671,45.546,55.756,44.824,55.351z M47.573,45.843
	c-2.178-4.952-2.188-10.588-0.026-15.547C49.411,35.309,49.42,40.824,47.573,45.843z M46.662,28.243
	c-3.283,6.143-3.27,13.522,0.033,19.655c-1.101,2.248-2.562,4.299-4.321,6.078l-0.303-0.17c-8.546-8.724-8.564-22.699,0.014-31.433
	l0.274-0.159C44.107,23.98,45.562,26.014,46.662,28.243z M14.562,38.375l23.414-13.613c-5.41,8.112-5.39,18.691,0.067,26.785
	L14.562,38.375z"/>
<path class="st0" d="M53.836,53.099c-0.151,0-0.306-0.034-0.451-0.108c-0.492-0.249-0.689-0.851-0.439-1.344l0.459-0.898
	c0.252-0.49,0.856-0.686,1.347-0.431c0.49,0.252,0.684,0.855,0.431,1.347l-0.453,0.887C54.553,52.898,54.201,53.099,53.836,53.099z
	 M56.967,43.751c-0.021,0-0.042-0.001-0.062-0.002c-0.552-0.034-0.971-0.509-0.937-1.06c0.02-0.312,0.036-0.642,0.054-0.986
	c0.028-0.553,0.491-0.989,1.049-0.949c0.552,0.028,0.977,0.498,0.949,1.049c-0.018,0.354-0.036,0.689-0.056,1.01
	C57.932,43.343,57.491,43.751,56.967,43.751z M56.9,33.783c-0.464,0-0.88-0.324-0.978-0.796c-0.065-0.312-0.138-0.622-0.217-0.928
	c-0.139-0.535,0.183-1.08,0.717-1.219c0.535-0.136,1.08,0.183,1.219,0.718c0.087,0.336,0.167,0.677,0.238,1.021
	c0.113,0.541-0.233,1.07-0.774,1.183C57.036,33.776,56.968,33.783,56.9,33.783z M52.896,24.676c-0.321,0-0.637-0.154-0.83-0.44
	c-0.323-0.48-0.533-0.752-0.543-0.766c-0.338-0.436-0.258-1.063,0.178-1.401c0.438-0.338,1.064-0.259,1.402,0.176
	c0,0,0.242,0.311,0.621,0.872c0.309,0.458,0.188,1.079-0.27,1.388C53.283,24.621,53.089,24.676,52.896,24.676z"/>
</svg>
