<?xml version="1.0" encoding="utf-8"?>
<!-- Generator: Adobe Illustrator 27.0.1, SVG Export Plug-In . SVG Version: 6.00 Build 0)  -->
<svg version="1.1" id="Layer_1" xmlns="http://www.w3.org/2000/svg" xmlns:xlink="http://www.w3.org/1999/xlink" x="0px" y="0px"
	 width="80px" height="68px" viewBox="0 0 80 68" style="enable-background:new 0 0 80 68;" xml:space="preserve">
<style type="text/css">
	.st0{fill:#A4DBE8;}
</style>
<path class="st0" d="M7.484,26.895h-6.28h0C0.54,26.895,0,27.434,0,28.097v10.737c0.005,4.381,3.574,7.951,7.957,7.956h2.893
	l0.07,0.401c0.426,2.448,1.779,4.583,3.812,6.014c2.032,1.43,4.501,1.982,6.947,1.558c3.857-0.671,6.899-3.713,7.57-7.571
	l0.07-0.401h19.908l0.069,0.401c0.88,5.053,5.708,8.442,10.76,7.571c3.857-0.671,6.9-3.713,7.571-7.571l0.069-0.401h9.477
	c1.557-0.002,2.825-1.27,2.827-2.828v-9.111c-0.005-4.384-3.575-7.953-7.96-7.956H61.774l-0.141-0.134
	c-1.739-1.662-3.215-3.455-4.642-5.189c-3.707-4.504-6.908-8.395-13.25-8.395H23.402c-0.01,0-0.02,0-0.03,0
	c-4.449,0-8.531,2.235-10.927,5.984L7.484,26.895z M20.082,52.491L20.082,52.491c-3.79-0.003-6.887-3.09-6.904-6.88
	c0.007-1.893,0.731-3.623,2.039-4.924c1.303-1.294,3.029-2.005,4.865-2.005c0.008,0,0.016,0,0.025,0
	c3.807,0.013,6.894,3.121,6.88,6.929C26.973,49.405,23.876,52.491,20.082,52.491z M58.462,52.491L58.462,52.491
	c-3.809,0.001-6.906-3.097-6.906-6.904s3.098-6.905,6.905-6.905c3.801,0,6.9,3.093,6.905,6.894
	C65.355,49.395,62.257,52.487,58.462,52.491z M72.04,29.299c3.057,0.003,5.546,2.492,5.549,5.548l0.067,9.531h-9.961l-0.069-0.403
	c-0.864-5.053-5.68-8.465-10.732-7.597c-3.881,0.663-6.934,3.716-7.597,7.597l-0.069,0.403H29.315l-0.069-0.403
	c-0.419-2.448-1.765-4.586-3.793-6.021c-2.027-1.435-4.492-1.996-6.939-1.576c-3.881,0.663-6.934,3.716-7.598,7.597l-0.069,0.403
	H7.956c-3.056,0-5.547-2.487-5.552-5.543v-9.536H72.04z M35.509,15.586h8.232c5.161,0,7.818,3.228,10.631,6.645
	c1.058,1.286,2.153,2.616,3.423,3.83l0.873,0.834H35.509V15.586z M23.382,15.586c0.008,0,0.016,0,0.024,0h9.701v11.31H10.343
	l4.13-6.431C16.426,17.408,19.755,15.586,23.382,15.586z"/>
</svg>
