<?xml version="1.0" encoding="utf-8"?>
<!-- Generator: Adobe Illustrator 27.0.1, SVG Export Plug-In . SVG Version: 6.00 Build 0)  -->
<svg version="1.1" id="Layer_1" xmlns="http://www.w3.org/2000/svg" xmlns:xlink="http://www.w3.org/1999/xlink" x="0px" y="0px"
	 width="104px" height="68px" viewBox="0 0 104 68" style="enable-background:new 0 0 104 68;" xml:space="preserve">
<style type="text/css">
	.st0{fill:#A4DBE8;}
</style>
<path class="st0" d="M52,0C33.252,0,18,15.252,18,34c0,18.748,15.252,34,34,34c18.748,0,34-15.252,34-34C86,15.252,70.748,0,52,0z
	 M52,65c-17.093,0-31-13.906-31-31c0-7.78,2.887-14.894,7.638-20.342l14.55,14.712c-1.56,0.572-2.666,2.056-2.661,3.796v5.003
	v11.609v5.003c0.003,2.254,1.83,4.081,4.084,4.084l14.864,0.001c2.255-0.003,4.083-1.83,4.086-4.086l0-4.812l8.523,8.617
	C66.67,62.204,59.657,65,52,65z M57.307,24.707l0.001,3.378l-10.183-0.001l-0.338-0.342v-3.034h1.209L57.307,24.707z M49.476,22.219
	l1.851-10.873c0.068-0.398,0.446-0.665,0.844-0.597c0.306,0.052,0.545,0.292,0.597,0.597l1.855,10.872l-2.229,0L49.476,22.219z
	 M59.48,30.58c0.877,0.005,1.586,0.714,1.592,1.59l0.001,3.761l-6.186,0.001l-5.293-5.352H59.48z M61.073,42.187l-3.725-3.766h3.725
	V42.187z M44.617,55.385c-0.879-0.001-1.59-0.713-1.592-1.592v-3.762l18.045,0.001v3.762c-0.004,0.878-0.715,1.589-1.593,1.593
	l0.004-0.002L44.617,55.385z M43.025,47.538v-9.117h10.104l7.944,8.032v1.085H43.025z M50.668,35.932l-7.643,0.001v-3.762
	c0.001-0.879,0.713-1.59,1.592-1.592h0.757L50.668,35.932z M74.271,55.532l-10.71-10.829l0-12.546
	c0.008-2.131-1.637-3.904-3.763-4.055v-4.654c0-0.688-0.558-1.246-1.246-1.246l-1.405,0.001l-1.923-11.278
	c-0.301-1.754-1.967-2.933-3.721-2.632c-1.347,0.231-2.401,1.286-2.632,2.633l-1.925,11.29H45.54c-0.688,0-1.246,0.558-1.246,1.246
	v1.76L30.716,11.493C36.273,6.235,43.764,3,52,3c17.094,0,31,13.907,31,31C83,42.359,79.669,49.95,74.271,55.532z"/>
</svg>
