<?xml version="1.0" encoding="utf-8"?>
<!-- Generator: Adobe Illustrator 27.0.1, SVG Export Plug-In . SVG Version: 6.00 Build 0)  -->
<svg version="1.1" id="Layer_1" xmlns="http://www.w3.org/2000/svg" xmlns:xlink="http://www.w3.org/1999/xlink" x="0px" y="0px"
	 width="68px" height="68px" viewBox="0 0 68 68" style="enable-background:new 0 0 68 68;" xml:space="preserve">
<style type="text/css">
	.st0{fill:#FFFFFF;}
</style>
<path id="Path_92362" class="st0" d="M25.503,17.698c-1.285,0.004-2.326,1.045-2.33,2.33v25.624c0.004,1.285,1.045,2.326,2.33,2.33
	H44.14c1.285-0.004,2.326-1.045,2.33-2.33V24.085c0-0.014,0-0.027,0-0.041s0-0.012,0-0.018c-0.018-0.159-0.1-0.304-0.228-0.4
	l-5.69-5.687l-0.009-0.011c-0.112-0.15-0.289-0.237-0.476-0.234L25.503,17.698z M25.503,18.863h13.978v3.494
	c0.004,1.285,1.045,2.326,2.33,2.33h3.494v20.965c0.008,0.635-0.5,1.157-1.135,1.165c-0.01,0-0.02,0-0.03,0H25.503
	c-0.635,0.008-1.157-0.5-1.165-1.135c0-0.01,0-0.02,0-0.03V20.027c-0.008-0.635,0.5-1.157,1.135-1.165
	C25.483,18.862,25.493,18.862,25.503,18.863L25.503,18.863z M40.645,19.686l3.836,3.836H41.81c-0.635,0.008-1.157-0.5-1.165-1.135
	c0-0.01,0-0.02,0-0.03V19.686z M28.365,30.511c-0.322,0.016-0.569,0.29-0.553,0.612c0.016,0.322,0.29,0.569,0.612,0.553h12.8
	c0.322,0,0.583-0.261,0.583-0.582c0-0.322-0.261-0.583-0.583-0.583h-12.8C28.404,30.51,28.385,30.51,28.365,30.511z M28.365,32.841
	c-0.322,0.016-0.569,0.29-0.553,0.612c0.016,0.322,0.29,0.569,0.612,0.553h12.8c0.322,0,0.583-0.261,0.583-0.582
	c0-0.322-0.261-0.583-0.583-0.583h-12.8C28.404,32.84,28.385,32.84,28.365,32.841z M28.365,35.171
	c-0.322,0.016-0.569,0.29-0.553,0.612c0.016,0.322,0.29,0.569,0.612,0.553h12.8c0.322,0,0.583-0.261,0.583-0.582
	c0-0.322-0.261-0.583-0.583-0.583h-12.8C28.404,35.17,28.385,35.17,28.365,35.171z M28.365,37.501
	c-0.322,0.016-0.569,0.29-0.553,0.612c0.016,0.322,0.29,0.569,0.612,0.553h8.149c0.322,0,0.583-0.261,0.583-0.582
	c0-0.322-0.261-0.583-0.583-0.583h-8.144c-0.02-0.001-0.039-0.001-0.059,0H28.365z M38.84,37.501
	c-0.374,0.016-0.663,0.332-0.647,0.706c0.016,0.374,0.332,0.663,0.706,0.647s0.663-0.332,0.647-0.706
	c-0.015-0.351-0.296-0.632-0.647-0.647c-0.02-0.002-0.04-0.003-0.06-0.003L38.84,37.501z"/>
<path class="st0" d="M33.809,67.619C15.167,67.619,0,52.452,0,33.81C0,15.167,15.167,0.001,33.809,0.001
	c18.642,0,33.809,15.167,33.809,33.809C67.618,52.452,52.451,67.619,33.809,67.619z M33.809,2.001C16.27,2.001,2,16.271,2,33.81
	s14.27,31.809,31.809,31.809S65.618,51.35,65.618,33.81S51.349,2.001,33.809,2.001z"/>
</svg>
