<?xml version="1.0" encoding="utf-8"?>
<!-- Generator: Adobe Illustrator 27.0.1, SVG Export Plug-In . SVG Version: 6.00 Build 0)  -->
<svg version="1.1" id="Layer_1" xmlns="http://www.w3.org/2000/svg" xmlns:xlink="http://www.w3.org/1999/xlink" x="0px" y="0px"
	 width="80px" height="68px" viewBox="0 0 80 68" style="enable-background:new 0 0 80 68;" xml:space="preserve">
<style type="text/css">
	.st0{fill:#A4DBE8;}
</style>
<path id="Path_92131" class="st0" d="M69.948,55.219h-59.8c-2.288-0.001-4.143-1.856-4.143-4.144V9.144
	c0-2.286,1.852-4.141,4.138-4.144h59.8c2.288-0.003,4.145,1.85,4.148,4.138c0,0.002,0,0.004,0,0.006v41.89
	c0.023,2.288-1.812,4.161-4.1,4.185L69.948,55.219z M10.148,7.734c-0.762,0.001-1.38,0.619-1.381,1.381v41.919
	c0.001,0.762,0.619,1.38,1.381,1.381h59.8c0.763,0,1.381-0.618,1.381-1.381l0,0V9.144c0.002-0.763-0.615-1.382-1.378-1.384
	c-0.001,0-0.002,0-0.003,0L10.148,7.734z"/>
<path id="Path_92132" class="st0" d="M60.072,63.648H20.018c-0.762-0.001-1.38-0.619-1.381-1.381
	c0.001-0.762,0.619-1.38,1.381-1.381h40.054c0.763,0,1.381,0.618,1.381,1.381l0,0C61.453,63.03,60.835,63.648,60.072,63.648
	L60.072,63.648z"/>
<path class="st0" d="M40.046,45.117c-8.275,0-15.007-6.732-15.007-15.007s6.732-15.007,15.007-15.007
	c8.274,0,15.007,6.732,15.007,15.007S48.32,45.117,40.046,45.117z M40.046,18.103c-6.621,0-12.007,5.386-12.007,12.007
	s5.386,12.007,12.007,12.007c6.62,0,12.007-5.387,12.007-12.007S46.666,18.103,40.046,18.103z"/>
<path class="st0" d="M38.486,37.565c-0.239,0-0.478-0.057-0.697-0.172c-0.494-0.259-0.803-0.771-0.803-1.328V24.637
	c0-0.558,0.309-1.069,0.803-1.328s1.09-0.223,1.549,0.094l8.28,5.714c0.406,0.28,0.648,0.741,0.648,1.234s-0.242,0.955-0.648,1.234
	l-8.28,5.714C39.083,37.477,38.785,37.565,38.486,37.565z M39.986,27.495v5.713l4.14-2.857L39.986,27.495z"/>
</svg>
