<?xml version="1.0" encoding="utf-8"?>
<!-- Generator: Adobe Illustrator 27.0.1, SVG Export Plug-In . SVG Version: 6.00 Build 0)  -->
<svg version="1.1" id="Layer_1" xmlns="http://www.w3.org/2000/svg" xmlns:xlink="http://www.w3.org/1999/xlink" x="0px" y="0px"
	 width="80px" height="68px" viewBox="0 0 80 68" style="enable-background:new 0 0 80 68;" xml:space="preserve">
<style type="text/css">
	.st0{fill:#A4DBE8;}
</style>
<path id="icon-reading" class="st0" d="M1.665,60.314c1.021,0.63,2.298,0.679,3.365,0.129c6.141-3.141,18.752-7.357,34.24-0.3
	c0.011,0,0.022,0,0.033,0.008c0.097,0.035,0.198,0.059,0.3,0.069c0.057,0.015,0.115,0.026,0.173,0.033c0.005,0,0.011,0,0.016,0
	c0.05-0.007,0.1-0.018,0.149-0.031l0.063-0.01l0.04,0.007c0.056,0.015,0.113,0.027,0.17,0.034c0.006,0,0.011,0,0.017,0
	c0.054-0.007,0.107-0.017,0.159-0.03c0.105-0.01,0.209-0.034,0.308-0.071c0.011,0,0.024,0,0.035-0.008
	c15.483-7.058,28.1-2.841,34.24,0.3c1.707,0.863,3.791,0.179,4.654-1.528c0.247-0.489,0.375-1.03,0.373-1.578V17.689
	c-0.003-1.919-1.558-3.474-3.477-3.476H73.11v-2.83c0.004-1.18-0.743-2.231-1.858-2.615C55.767,3.487,43.241,11.504,40,13.884
	c-3.242-2.38-15.77-10.4-31.251-5.117c-1.116,0.384-1.863,1.436-1.859,2.616v2.83H3.477C1.558,14.215,0.003,15.77,0,17.689v39.649
	C-0.006,58.553,0.626,59.683,1.665,60.314z M76.523,16.714c0.539,0,0.976,0.437,0.977,0.976v39.648
	c0.004,0.345-0.175,0.666-0.47,0.844c-0.279,0.176-0.631,0.19-0.923,0.036c-8.689-4.427-18.684-5.57-28.148-3.218
	c7.297-3.638,15.775-4.088,23.416-1.242c0.637,0.268,1.37-0.031,1.638-0.668c0.064-0.153,0.098-0.318,0.098-0.484V16.713
	L76.523,16.714z M70.446,11.138c0.1,0.041,0.166,0.139,0.165,0.248v39.48c-4.641-1.382-17.768-3.993-29.56,5.746l0.2-40.528
	C43.674,14.282,55.809,6.138,70.446,11.138z M9.39,11.386c-0.001-0.109,0.065-0.208,0.166-0.249
	c14.6-4.982,26.733,3.123,29.192,4.941l-0.2,40.2c-5.508-4.451-12.389-6.855-19.47-6.8c-3.28,0.001-6.544,0.47-9.692,1.39
	L9.39,11.386z M2.5,17.689c0.001-0.539,0.438-0.976,0.977-0.976H6.89v35.893c0,0.69,0.56,1.25,1.25,1.25
	c0.167,0,0.333-0.034,0.487-0.099c0.137-0.057,11.547-4.726,23.3,1.214c-9.432-2.314-19.381-1.162-28.034,3.246
	C3.601,58.37,3.25,58.356,2.97,58.182c-0.295-0.178-0.474-0.499-0.47-0.844V17.689z"/>
</svg>
