<?xml version="1.0" encoding="utf-8"?>
<!-- Generator: Adobe Illustrator 27.0.1, SVG Export Plug-In . SVG Version: 6.00 Build 0)  -->
<svg version="1.1" xmlns="http://www.w3.org/2000/svg" xmlns:xlink="http://www.w3.org/1999/xlink" x="0px" y="0px" width="166px"
	 height="166px" viewBox="0 0 166 166" style="enable-background:new 0 0 166 166;" xml:space="preserve">
<style type="text/css">
	.st0{fill:none;}
	.st1{fill:#FFFFFF;}
	.st2{fill:#E35205;}
	.st3{fill:#A4DBE8;}
</style>
<g id="base-layer">
	<path class="st0" d="M80.815,4.064c43.528,0,78.815,35.287,78.815,78.815s-35.287,78.815-78.815,78.815S2,126.407,2,82.879
		c0,0,0,0,0,0C2,39.351,37.287,4.064,80.815,4.064z"/>
	<path class="st1" d="M80.815,7.064c-10.236,0-20.165,2.004-29.51,5.957c-4.492,1.9-8.824,4.251-12.877,6.99
		c-4.015,2.713-7.791,5.828-11.222,9.259c-3.432,3.432-6.547,7.207-9.259,11.222c-2.738,4.053-5.09,8.385-6.99,12.877
		C7.004,62.714,5,72.643,5,82.879s2.004,20.165,5.957,29.51c1.9,4.492,4.251,8.824,6.99,12.877
		c2.713,4.015,5.828,7.791,9.259,11.222c3.432,3.432,7.207,6.547,11.222,9.259c4.053,2.738,8.385,5.09,12.877,6.99
		c9.345,3.953,19.273,5.957,29.51,5.957s20.165-2.004,29.51-5.957c4.492-1.9,8.824-4.251,12.877-6.99
		c4.015-2.713,7.791-5.828,11.222-9.259c3.432-3.432,6.547-7.207,9.259-11.222c2.738-4.053,5.09-8.385,6.99-12.877
		c3.953-9.345,5.957-19.273,5.957-29.51s-2.004-20.165-5.957-29.51c-1.9-4.492-4.251-8.824-6.99-12.877
		c-2.713-4.015-5.828-7.791-9.259-11.222c-3.432-3.432-7.207-6.547-11.222-9.259c-4.053-2.738-8.385-5.09-12.877-6.99
		C100.979,9.068,91.051,7.064,80.815,7.064 M80.815,4.064c43.528,0,78.815,35.287,78.815,78.815s-35.286,78.815-78.815,78.815
		S2,126.407,2,82.879S37.286,4.064,80.815,4.064z"/>
	<path id="Path_92358" class="st1" d="M92.314,74.581h-3.2v-1.185h1.185c0.655,0,1.185-0.531,1.185-1.186s-0.531-1.186-1.185-1.186
		h-1.185V69.84h1.185V55.803c-0.001-0.759-0.616-1.374-1.375-1.375c-1.5,0.003-2.831-0.958-3.3-2.383l-1.585-4.735H77.59
		l-1.577,4.73c-0.474,1.424-1.807,2.385-3.308,2.383c-0.759,0.001-1.374,0.616-1.375,1.375v14.041h1.185v1.185H71.33
		c-0.655,0-1.186,0.531-1.186,1.186s0.531,1.186,1.186,1.186l0,0h1.185v1.185h-3.2c-1.506,0-2.727,1.221-2.727,2.727
		c0,0.001,0,0.002,0,0.003v38.409c0,1.506,1.221,2.727,2.727,2.727l0,0h23c1.506,0,2.727-1.221,2.727-2.727V77.31
		c0-1.506-1.221-2.727-2.727-2.727L92.314,74.581z M73.7,56.71c2.125-0.36,3.876-1.866,4.552-3.912l1.043-3.118h3.035l1.043,3.118
		c0.678,2.05,2.436,3.556,4.566,3.912v10.758h-1.185v-9.485c0-0.655-0.531-1.186-1.185-1.186c-0.655,0-1.186,0.531-1.186,1.186
		v9.484h-2.371v-9.484c0-0.655-0.531-1.186-1.186-1.186s-1.186,0.531-1.186,1.186v9.484h-2.383v-9.484
		c-0.019-0.655-0.565-1.17-1.22-1.151c-0.628,0.018-1.133,0.523-1.151,1.151v9.484h-1.185L73.7,56.71z M74.882,69.838h11.855v1.185
		H74.882V69.838z M74.882,73.395h11.855v1.185H74.882V73.395z M68.955,85.251h3.557v23.711h-3.557V85.251z M92.665,88.808h-8.3
		v2.371h8.3v2.371h-8.3v2.371h8.3v2.371h-8.3v2.371h8.3v2.371h-8.3v2.376h8.3v3.557H80.81V85.251h11.855V88.808z M78.442,82.879
		v28.453h14.226v4.387c-0.001,0.196-0.16,0.355-0.356,0.356h-23c-0.194-0.005-0.35-0.161-0.355-0.355v-4.388h5.925V82.879h-5.927
		V77.31c0.005-0.194,0.161-0.351,0.355-0.356h23c0.196,0.001,0.355,0.16,0.356,0.356v5.572L78.442,82.879z"/>
	<path class="st2" d="M116.792,116.03c-0.518,0-1.035-0.199-1.426-0.598L45.378,44.237c-0.774-0.788-0.764-2.054,0.024-2.828
		c0.787-0.774,2.053-0.764,2.828,0.024l69.987,71.195c0.774,0.788,0.764,2.055-0.023,2.828
		C117.805,115.839,117.298,116.03,116.792,116.03z"/>
</g>
<g id="blue-fill_00000046332907367671576340000009097431127495264411_">
	<path id="blue-fill" class="st3" d="M163.345,82.692c-0.327,67.687-76.517,106.336-131.3,66.9l8.281-11.4
		c37.553,27.368,91.239,9.9,105.589-34.3c14.388-44.08-18.778-89.915-65.264-89.8V0.002C125.845-0.342,163.686,37.5,163.345,82.692z
		"/>
</g>
</svg>
