<?xml version="1.0" encoding="utf-8"?>
<!-- Generator: Adobe Illustrator 27.0.1, SVG Export Plug-In . SVG Version: 6.00 Build 0)  -->
<svg version="1.1" id="Layer_1" xmlns="http://www.w3.org/2000/svg" xmlns:xlink="http://www.w3.org/1999/xlink" x="0px" y="0px"
	 width="80px" height="68px" viewBox="0 0 80 68" style="enable-background:new 0 0 80 68;" xml:space="preserve">
<style type="text/css">
	.st0{fill:#A4DBE8;}
</style>
<path class="st0" d="M73.198,0.185H7.154c-2.527,0-4.576,2.049-4.576,4.576v46.307c0,0,0,0.001,0,0.001
	c0,2.527,2.049,4.576,4.576,4.576h23.626c0.618,3.686-1.217,7.403-4.617,9.12h-8.103c-0.842,0-1.525,0.683-1.525,1.526
	c0,0.842,0.683,1.525,1.525,1.525h44.233c0.842,0,1.526-0.683,1.526-1.525c0-0.843-0.683-1.526-1.526-1.526H55.6
	c-3.359-1.743-5.16-5.451-4.524-9.12h22.122c0.016,0,0.031,0,0.047,0c2.527-0.026,4.555-2.096,4.529-4.623V4.76
	C77.774,2.233,75.725,0.185,73.198,0.185z M5.628,4.729c0.001-0.842,0.684-1.525,1.526-1.524l66.049,0.031
	c0.842,0,1.525,0.683,1.525,1.525v33.281h-69.1V4.729C5.628,4.729,5.628,4.729,5.628,4.729z M50.692,64.765H31.017
	c2.153-2.471,3.203-5.782,2.777-9.12h14.121C47.489,58.983,48.539,62.293,50.692,64.765z M74.728,51.025
	c-0.003,0.842-0.688,1.523-1.53,1.52H7.154c-0.842,0.001-1.525-0.681-1.526-1.523v-9.929h69.1v9.929
	C74.728,51.023,74.728,51.023,74.728,51.025z"/>
<path class="st0" d="M33.694,27.578c0.392-0.014,0.763-0.178,1.037-0.458L47.768,13.18c0.005-0.005,0.01-0.011,0.015-0.016
	c0.57-0.622,0.527-1.588-0.095-2.157c-0.622-0.57-1.588-0.527-2.157,0.095L32.581,25c-0.265,0.283-0.413,0.655-0.414,1.043
	C32.165,26.889,32.849,27.576,33.694,27.578z"/>
<path class="st0" d="M34.341,29.198c-0.003,0.828,0.666,1.503,1.494,1.506c0.449,0.021,0.885-0.158,1.19-0.488l8.572-9.152
	c0.577-0.615,0.546-1.581-0.068-2.159c-0.615-0.577-1.581-0.546-2.159,0.068l-8.572,9.152
	C34.507,28.408,34.343,28.794,34.341,29.198z"/>
<circle class="st0" cx="40.176" cy="46.599" r="1.693"/>
</svg>
