<?xml version="1.0" encoding="utf-8"?>
<!-- Generator: Adobe Illustrator 27.0.1, SVG Export Plug-In . SVG Version: 6.00 Build 0)  -->
<svg version="1.1" id="Layer_1" xmlns="http://www.w3.org/2000/svg" xmlns:xlink="http://www.w3.org/1999/xlink" x="0px" y="0px"
	 width="80px" height="68px" viewBox="0 0 80 68" style="enable-background:new 0 0 80 68;" xml:space="preserve">
<style type="text/css">
	.st0{fill:#A4DBE8;}
</style>
<path class="st0" d="M39.998,0c-9.752,0-17.685,7.933-17.686,17.685c0.011,9.74,7.946,17.673,17.686,17.687
	c9.751,0,17.685-7.934,17.685-17.686S49.75,0,39.998,0z M39.998,32.584c-8.217,0-14.902-6.685-14.902-14.902
	c0.01-8.208,6.694-14.895,14.902-14.906l0.491,0v0.012c7.992,0.259,14.412,6.841,14.412,14.895
	C54.901,25.899,48.216,32.584,39.998,32.584z"/>
<path class="st0" d="M73.913,66.137L67.05,45.56c-1.051-2.811-3.683-4.708-6.699-4.816H19.62c-2.999,0.108-5.631,2.005-6.688,4.832
	L6.075,66.137c-0.242,0.728,0.153,1.517,0.88,1.759c0.354,0.12,0.73,0.092,1.062-0.076c0.332-0.166,0.58-0.451,0.697-0.804
	l6.863-20.576c0.699-1.678,2.23-2.783,4.008-2.915l15.436-0.001l-4.499,14.498c-0.153,0.494-0.021,1.028,0.345,1.395l8.146,8.148
	c0.263,0.262,0.611,0.408,0.983,0.408h0c0.371,0,0.72-0.145,0.982-0.407l8.148-8.153c0.367-0.367,0.499-0.901,0.345-1.395
	l-4.497-14.493H60.37c1.814,0.132,3.345,1.236,4.033,2.883l6.875,20.61c0.232,0.739,1.01,1.148,1.744,0.919
	c0.354-0.11,0.644-0.352,0.816-0.681c0.172-0.328,0.206-0.705,0.095-1.059L73.913,66.137z M46.572,58.038l-6.574,6.573l-6.57-6.573
	l4.509-14.514h4.129L46.572,58.038z"/>
<path class="st0" d="M57.083,66.926c0.19,0.726,0.972,1.181,1.699,0.994c0.74-0.193,1.186-0.955,0.993-1.697l-2.133-8.145
	c-0.126-0.442-0.363-0.737-0.688-0.916c-0.208-0.115-0.437-0.173-0.668-0.173c-0.13,0-0.26,0.018-0.389,0.056
	c-0.737,0.214-1.163,0.987-0.95,1.723L57.083,66.926z"/>
<path class="st0" d="M25.061,58.694c0.084-0.357,0.022-0.73-0.174-1.046c-0.196-0.315-0.503-0.535-0.865-0.619
	c-0.106-0.025-0.214-0.037-0.32-0.037c-0.256,0-0.507,0.071-0.73,0.21c-0.315,0.195-0.536,0.503-0.62,0.865l-2.134,8.16
	c-0.194,0.742,0.251,1.502,0.992,1.697c0.698,0.177,1.505-0.264,1.696-0.995l2.135-8.159l0.471,0.136l0,0L25.061,58.694z"/>
</svg>
