<?xml version="1.0" encoding="utf-8"?>
<!-- Generator: Adobe Illustrator 27.0.1, SVG Export Plug-In . SVG Version: 6.00 Build 0)  -->
<svg version="1.1" id="Layer_1" xmlns="http://www.w3.org/2000/svg" xmlns:xlink="http://www.w3.org/1999/xlink" x="0px" y="0px"
	 width="104px" height="68px" viewBox="0 0 104 68" style="enable-background:new 0 0 104 68;" xml:space="preserve">
<style type="text/css">
	.st0{fill:#A4DBE8;}
</style>
<path class="st0" d="M80.22,35.041C80.243,35.057,80.197,35.026,80.22,35.041V12.026c-0.006-3.581-2.908-6.483-6.489-6.489h-4.215
	V4.421C69.512,1.983,67.538,0.007,65.1,0h-1.989c-2.44,0.004-4.417,1.981-4.421,4.421v1.116H37.53V4.421
	C37.526,1.981,35.549,0.004,33.109,0h-1.984c-2.441,0.002-4.421,1.98-4.425,4.421v1.116h-4.213C18.906,5.544,16.006,8.445,16,12.026
	v41.656c0.007,3.581,2.908,6.482,6.489,6.488h33.118l0.011,0.006c3.246,4.512,8.531,7.464,14.5,7.464
	c9.852,0,17.867-8.015,17.867-17.866C87.985,43.637,84.945,38.26,80.22,35.041z M61.747,4.421c0.005-0.751,0.613-1.359,1.364-1.364
	h1.983v0.001c0.751,0.005,1.359,0.613,1.364,1.364v5.455c-0.005,0.751-0.613,1.359-1.364,1.364h-1.983
	c-0.751-0.005-1.359-0.613-1.364-1.364V4.421z M29.761,4.421c0.005-0.751,0.613-1.359,1.364-1.364h1.983v0.001
	c0.751,0.005,1.359,0.613,1.364,1.364v5.455c-0.005,0.751-0.613,1.359-1.364,1.364h-1.983c-0.751-0.005-1.359-0.613-1.364-1.364
	V4.421z M19.058,12.029c0.007-1.891,1.538-3.422,3.429-3.429h4.218v1.279c0.004,2.44,1.981,4.417,4.421,4.421h1.983
	c2.441-0.004,4.418-1.982,4.421-4.423V8.6h21.16v1.277c0.003,2.441,1.98,4.419,4.421,4.423H65.1
	c2.439-0.007,4.413-1.984,4.416-4.423V8.6h4.215c1.889,0.008,3.418,1.537,3.427,3.426v5.861h-58.1V12.029z M22.487,57.11
	c-1.891-0.007-3.422-1.539-3.429-3.43V20.945h58.1h0.001v12.407c0,0,0,0,0,0.022c-2.178-0.9-4.538-1.468-7.041-1.468
	c-9.852,0-17.867,8.015-17.867,17.868c0,2.619,0.583,5.1,1.601,7.343c-0.013-0.006,0,0-0.013-0.006H22.487z M70.118,64.64
	c-8.198,0-14.867-6.669-14.867-14.866c0-8.198,6.669-14.868,14.867-14.868s14.867,6.669,14.867,14.868
	C84.985,57.971,78.316,64.64,70.118,64.64z"/>
<path class="st0" d="M72.449,49.717l5.342-5.342c0.586-0.586,0.586-1.535,0-2.121s-1.535-0.586-2.121,0l-5.342,5.342l-5.343-5.343
	c-0.586-0.586-1.535-0.586-2.121,0s-0.586,1.535,0,2.121l5.343,5.343l-5.341,5.341c-0.586,0.586-0.586,1.535,0,2.121
	c0.293,0.293,0.677,0.439,1.061,0.439s0.768-0.146,1.061-0.439l5.341-5.341l5.341,5.341c0.293,0.293,0.677,0.439,1.061,0.439
	s0.768-0.146,1.061-0.439c0.586-0.586,0.586-1.535,0-2.121L72.449,49.717z"/>
</svg>
