<?xml version="1.0" encoding="utf-8"?>
<!-- Generator: Adobe Illustrator 27.0.1, SVG Export Plug-In . SVG Version: 6.00 Build 0)  -->
<svg version="1.1" id="Layer_1" xmlns="http://www.w3.org/2000/svg" xmlns:xlink="http://www.w3.org/1999/xlink" x="0px" y="0px"
	 width="130px" height="130px" viewBox="0 0 130 130" style="enable-background:new 0 0 130 130;" xml:space="preserve">
<style type="text/css">
	.st0{fill:#A4DBE8;}
</style>
<path class="st0" d="M65,130c-35.841,0-65-29.159-65-65C0,29.159,29.159,0,65,0c35.841,0,65,29.159,65,65
	C130,100.841,100.841,130,65,130z M65,3C30.813,3,3,30.813,3,65c0,34.187,27.813,62,62,62c34.187,0,62-27.813,62-62
	C127,30.813,99.187,3,65,3z"/>
<path class="st0" d="M100.182,88.874L84.771,73.462c-0.855-0.856-2.251-0.86-3.114,0l-2.54,2.541l-3.662-3.662
	c9.316-11.018,8.2-27.576-2.634-37.233c-11.011-9.815-27.954-8.84-37.769,2.17c-9.814,11.011-8.841,27.954,2.17,37.768
	c4.65,4.146,10.571,6.525,16.773,6.762l-0.007,0.022h1.04c0.004,0,0.008,0,0.012,0c6.354,0,12.465-2.254,17.289-6.36l3.659,3.659
	l-2.54,2.545c-0.412,0.412-0.646,0.984-0.642,1.569c0.005,0.58,0.229,1.13,0.642,1.558l15.4,15.399
	c1.513,1.514,3.524,2.348,5.664,2.348c0.001,0,0.001,0,0.002,0c2.14,0,4.15-0.832,5.664-2.345
	C103.303,97.08,103.305,91.998,100.182,88.874z M97.052,97.043c-1.433,1.37-3.673,1.371-5.094,0.011L78.125,83.219l5.08-5.078
	l13.833,13.83C98.432,93.373,98.432,95.653,97.052,97.043z M77.415,55.045c-0.001,5.979-2.329,11.6-6.558,15.829
	c-8.729,8.727-22.93,8.728-31.657-0.001s-8.727-22.93,0.001-31.658c4.228-4.228,9.85-6.556,15.829-6.556
	c5.979,0,11.601,2.329,15.828,6.557S77.415,49.066,77.415,55.045z"/>
<path class="st0" d="M57.095,39.663c-2.313-0.547-4.701-0.161-6.725,1.087c-2.023,1.248-3.439,3.21-3.987,5.523
	c-0.158,0.667-0.238,1.351-0.239,2.044c0.014,1.209,1.009,2.195,2.219,2.196h0.004c1.21-0.004,2.198-0.993,2.202-2.207
	c-0.004-2.464,1.998-4.474,4.462-4.478c0.002,0,0.005,0,0.008,0c1.191,0,2.311,0.463,3.155,1.304
	c0.846,0.843,1.312,1.964,1.314,3.159c0.003,1.74-1.016,3.336-2.583,4.061c-2.468,1.085-4.078,3.529-4.101,6.231v3.07
	c0,1.216,0.989,2.206,2.205,2.206c1.216,0,2.206-0.989,2.206-2.206v-3.051c0.024-0.975,0.618-1.854,1.531-2.25
	c3.818-1.773,5.877-6.032,4.897-10.121C62.898,42.942,60.38,40.426,57.095,39.663z"/>
<path class="st0" d="M56.28,66.64c-0.135-0.101-0.281-0.177-0.358-0.196c-0.152-0.073-0.314-0.123-0.462-0.147
	c-0.712-0.133-1.448,0.088-1.982,0.604c-0.413,0.419-0.64,0.974-0.638,1.546c-0.005,0.289,0.046,0.572,0.156,0.852
	c0.111,0.271,0.274,0.516,0.49,0.732c0.206,0.201,0.445,0.357,0.695,0.458c0.279,0.119,0.571,0.178,0.861,0.178
	c0.571,0,1.133-0.227,1.567-0.66c0.19-0.202,0.344-0.434,0.462-0.698c0.114-0.268,0.174-0.55,0.177-0.856
	c-0.007-0.589-0.241-1.142-0.655-1.553C56.498,66.802,56.393,66.716,56.28,66.64z"/>
</svg>
