<?xml version="1.0" encoding="utf-8"?>
<!-- Generator: Adobe Illustrator 27.0.1, SVG Export Plug-In . SVG Version: 6.00 Build 0)  -->
<svg version="1.1" id="Layer_1" xmlns="http://www.w3.org/2000/svg" xmlns:xlink="http://www.w3.org/1999/xlink" x="0px" y="0px"
	 width="104px" height="68px" viewBox="0 0 104 68" style="enable-background:new 0 0 104 68;" xml:space="preserve">
<style type="text/css">
	.st0{fill:#A4DBE8;}
</style>
<path class="st0" d="M103.222,58.469c-0.125-28.165-23.08-50.994-51.217-50.994c-0.078,0-0.153,0-0.231,0
	c-27.995,0.124-50.871,23-50.995,50.995c0,1.004,0.817,1.821,1.822,1.821h9.5c1.004,0,1.822-0.817,1.822-1.822
	s-0.817-1.822-1.822-1.822H4.469l0.011-0.261c0.48-11.15,4.905-21.816,12.459-30.033l0.176-0.192l5.384,5.385
	c0.718,0.699,1.874,0.683,2.574-0.037c0.694-0.713,0.694-1.83,0-2.542l-5.382-5.382l0.192-0.177
	C28.1,15.851,38.768,11.424,49.92,10.942l0.261-0.011v7.631c-0.001,1.005,0.815,1.823,1.82,1.824c0.001,0,0.002,0,0.002,0
	c0.486,0,0.943-0.189,1.287-0.532c0.345-0.344,0.535-0.801,0.535-1.288v-7.636l0.261,0.011c11.154,0.481,21.821,4.909,30.037,12.466
	l0.191,0.176l-5.365,5.396c-0.351,0.343-0.545,0.798-0.55,1.285c-0.005,0.486,0.181,0.946,0.521,1.293
	c0.702,0.719,1.858,0.729,2.576,0.026l5.395-5.421l0.177,0.193c7.555,8.218,11.979,18.884,12.46,30.035l0.011,0.261h-7.636
	c-1.005,0-1.822,0.817-1.822,1.821c0,1.005,0.817,1.822,1.822,1.822l9.496-0.005C102.404,60.291,103.222,59.474,103.222,58.469z"/>
<path class="st0" d="M45.73,60.292h12.533c1.004,0,1.821-0.817,1.821-1.822c0.033-4.428-3.541-8.055-7.967-8.088
	c-0.44,0.006-0.897,0.03-1.343,0.104l-0.213,0.034l-7.177-22.542c-0.289-0.967-1.306-1.518-2.268-1.23
	c-0.962,0.287-1.513,1.304-1.226,2.267l7.31,22.957l-0.139,0.106c-1.972,1.516-3.151,3.905-3.153,6.393h-0.001
	C43.908,59.475,44.726,60.292,45.73,60.292z M48.133,56.274c0.789-1.386,2.269-2.247,3.862-2.248
	c1.594,0.001,3.074,0.862,3.862,2.248l0.213,0.374h-8.15L48.133,56.274z"/>
</svg>
