<?xml version="1.0" encoding="utf-8"?>
<!-- Generator: Adobe Illustrator 27.0.1, SVG Export Plug-In . SVG Version: 6.00 Build 0)  -->
<svg version="1.1" id="Layer_1" xmlns="http://www.w3.org/2000/svg" xmlns:xlink="http://www.w3.org/1999/xlink" x="0px" y="0px"
	 width="70px" height="70px" viewBox="0 0 70 70" style="enable-background:new 0 0 70 70;" xml:space="preserve">
<style type="text/css">
	.st0{fill:none;}
	.st1{fill:none;stroke:#FFFFFF;stroke-width:2;}
	.st2{fill:#FFFFFF;}
	.st3{fill:#FFFFFF;stroke:#FFFFFF;stroke-width:0.25;}
</style>
<circle class="st0" cx="35" cy="35" r="35"/>
<circle class="st1" cx="35" cy="35" r="34"/>
<path class="st2" d="M11.046,28.837l1.149-1.414c0.644,0.56,1.527,0.868,2.297,0.868c0.827,0,1.205-0.309,1.205-0.799
	c0-0.532-0.49-0.7-1.289-1.022l-1.163-0.504c-0.966-0.378-1.849-1.177-1.849-2.493c0-1.527,1.373-2.76,3.306-2.76
	c1.092,0,2.171,0.406,2.956,1.135l-1.135,1.415c-0.616-0.435-1.247-0.673-1.821-0.673c-0.672,0-1.107,0.267-1.107,0.742
	c0,0.532,0.575,0.715,1.387,1.037l1.134,0.462c1.135,0.448,1.807,1.205,1.807,2.479c0,1.526-1.275,2.857-3.474,2.857
	C13.217,30.168,11.999,29.748,11.046,28.837z"/>
<path class="st2" d="M19.012,25.504c0-3.04,2.045-4.791,4.342-4.791c1.191,0,2.143,0.532,2.773,1.19l-1.148,1.317
	c-0.448-0.421-0.925-0.631-1.569-0.631c-1.205,0-2.171,1.064-2.171,2.83c0,1.82,0.854,2.871,2.129,2.871
	c0.742,0,1.316-0.294,1.751-0.756l1.134,1.288c-0.798,0.91-1.807,1.345-2.956,1.345C20.973,30.168,19.012,28.585,19.012,25.504z"/>
<path class="st2" d="M27.594,20.881h3.348c1.933,0,3.558,0.673,3.558,2.872c0,1.33-0.63,2.185-1.568,2.633L34.962,30h-2.437
	l-1.681-3.208h-1.064V30h-2.185V20.881z M30.774,25.069c1.036,0,1.597-0.448,1.597-1.316c0-0.869-0.561-1.149-1.597-1.149h-0.995
	v2.466H30.774z"/>
<path class="st2" d="M35.826,25.405c0-2.997,1.695-4.692,4.175-4.692s4.174,1.709,4.174,4.692s-1.694,4.763-4.174,4.763
	S35.826,28.389,35.826,25.405z M41.947,25.405c0-1.778-0.742-2.815-1.946-2.815c-1.191,0-1.947,1.037-1.947,2.815
	c0,1.766,0.756,2.886,1.947,2.886C41.205,28.291,41.947,27.171,41.947,25.405z"/>
<path class="st2" d="M45.864,20.881h2.186v7.298h3.544V30h-5.729V20.881z"/>
<path class="st2" d="M53.173,20.881h2.185v7.298h3.544V30h-5.729V20.881z"/>
<path id="noun-arrow-2094738" class="st3" d="M44.13,48.841c0.404-0.339,0.456-0.94,0.118-1.344s-0.94-0.456-1.344-0.118
	c-0.043,0.036-0.082,0.075-0.118,0.118l-6.867,6.859v-14.6c-0.024-0.528-0.472-0.936-1-0.912c-0.494,0.023-0.89,0.418-0.912,0.912
	v14.6l-6.858-6.87c-0.376-0.359-0.968-0.359-1.344,0c-0.371,0.37-0.372,0.971-0.002,1.342c0.001,0.001,0.001,0.001,0.002,0.002
	l8.5,8.5c0.357,0.371,0.948,0.382,1.319,0.025c0.008-0.008,0.017-0.016,0.025-0.025L44.13,48.841z"/>
</svg>
