<?xml version="1.0" encoding="utf-8"?>
<!-- Generator: Adobe Illustrator 27.0.1, SVG Export Plug-In . SVG Version: 6.00 Build 0)  -->
<svg version="1.1" id="Layer_1" xmlns="http://www.w3.org/2000/svg" xmlns:xlink="http://www.w3.org/1999/xlink" x="0px" y="0px"
	 width="35px" height="24px" viewBox="0 0 35 24" style="enable-background:new 0 0 35 24;" xml:space="preserve">
<style type="text/css">
	.st0{fill:#FFFFFF;}
</style>
<g id="Line_123">
	<path class="st0" d="M34,2H1C0.448,2,0,1.552,0,1s0.448-1,1-1h33c0.553,0,1,0.448,1,1S34.553,2,34,2z"/>
</g>
<g id="Line_124">
	<path class="st0" d="M34,13H1c-0.552,0-1-0.448-1-1s0.448-1,1-1h33c0.553,0,1,0.448,1,1S34.553,13,34,13z"/>
</g>
<g id="Line_125">
	<path class="st0" d="M34,24H1c-0.552,0-1-0.447-1-1s0.448-1,1-1h33c0.553,0,1,0.447,1,1S34.553,24,34,24z"/>
</g>
</svg>
