<?xml version="1.0" encoding="utf-8"?>
<!-- Generator: Adobe Illustrator 27.0.1, SVG Export Plug-In . SVG Version: 6.00 Build 0)  -->
<svg version="1.1" id="Layer_1" xmlns="http://www.w3.org/2000/svg" xmlns:xlink="http://www.w3.org/1999/xlink" x="0px" y="0px"
	 width="204px" height="100px" viewBox="0 0 204 100" style="enable-background:new 0 0 204 100;" xml:space="preserve">
<style type="text/css">
	.st0{fill:#FFFFFF;}
</style>
<path class="st0" d="M47.079,49.397c0,1.262-0.058,2.981-0.172,5.16c-0.172,4.529-1.72,8.041-4.644,10.535
	c-2.924,2.494-6.823,3.741-11.696,3.741c-4.588,0-8.299-1.146-11.137-3.44c-2.838-2.293-4.515-5.704-5.031-10.234
	c-0.23-1.204-0.344-2.78-0.344-4.729l-0.172-27.778c0-4.7,1.505-8.441,4.515-11.223c3.01-2.78,7.009-4.171,11.997-4.171
	c4.644,0,8.441,1.405,11.395,4.214c2.952,2.81,4.429,6.536,4.429,11.18v2.58c0,0.288-0.101,0.531-0.301,0.731
	c-0.202,0.201-0.445,0.301-0.731,0.301H35.125c-0.288,0-0.531-0.1-0.731-0.301c-0.201-0.2-0.301-0.443-0.301-0.731v-1.892
	c0-1.548-0.374-2.838-1.118-3.87c-0.746-1.032-1.605-1.548-2.58-1.548c-1.262,0-2.294,0.502-3.096,1.505
	c-0.804,1.004-1.204,2.309-1.204,3.913v8.686c0,0.172,0.057,0.272,0.172,0.301c0.114,0.03,0.229-0.013,0.344-0.129
	c1.892-1.604,4.042-2.408,6.45-2.408c4.012,0,7.237,1.32,9.675,3.956c2.436,2.638,3.769,6.164,3.999,10.578
	C46.963,45.698,47.079,47.391,47.079,49.397z M34.781,48.536c0-1.548-0.116-3.324-0.344-5.332c-0.172-1.317-0.602-2.35-1.29-3.096
	c-0.688-0.744-1.578-1.118-2.666-1.118c-1.148,0-2.079,0.388-2.795,1.161c-0.718,0.774-1.161,1.85-1.333,3.226
	c-0.172,2.235-0.258,3.956-0.258,5.159c0,1.376,0.086,3.154,0.258,5.332c0.172,1.492,0.615,2.638,1.333,3.44
	c0.716,0.804,1.647,1.204,2.795,1.204c1.146,0,2.077-0.43,2.795-1.29c0.716-0.86,1.161-2.064,1.333-3.612
	C34.723,50.859,34.781,49.168,34.781,48.536z"/>
<path class="st0" d="M56.28,64.318c-3.096-3.182-4.644-7.381-4.644-12.599V24.37c0-5.216,1.548-9.417,4.644-12.599
	c3.096-3.182,7.166-4.773,12.212-4.773c3.324,0,6.278,0.718,8.858,2.15c2.58,1.434,4.571,3.47,5.977,6.106
	c1.404,2.638,2.107,5.676,2.107,9.115v27.349c0,3.439-0.703,6.479-2.107,9.116c-1.406,2.638-3.397,4.673-5.977,6.105
	s-5.534,2.15-8.858,2.15C63.446,69.091,59.375,67.5,56.28,64.318z M71.975,56.965c0.888-1.146,1.333-2.666,1.333-4.559V23.683
	c0-1.892-0.445-3.41-1.333-4.558c-0.89-1.146-2.05-1.721-3.483-1.721c-1.434,0-2.58,0.574-3.44,1.721
	c-0.86,1.147-1.29,2.666-1.29,4.558v28.724c0,1.893,0.43,3.412,1.29,4.559c0.86,1.147,2.006,1.72,3.44,1.72
	C69.924,58.685,71.085,58.113,71.975,56.965z"/>
<path class="st0" d="M109.492,18.714c-1.204-0.702-2.157-1.663-2.859-2.885c-0.702-1.221-1.054-2.55-1.054-3.988
	c0-1.438,0.352-2.759,1.054-3.963s1.655-2.165,2.859-2.884s2.509-1.079,3.913-1.079s2.7,0.36,3.888,1.079
	c1.187,0.719,2.123,1.68,2.809,2.884s1.028,2.525,1.028,3.963c0,1.438-0.343,2.768-1.028,3.988
	c-0.686,1.222-1.622,2.183-2.809,2.885c-1.188,0.702-2.483,1.053-3.888,1.053S110.696,19.416,109.492,18.714z M116.239,14.85
	c0.753-0.835,1.129-1.839,1.129-3.01c0-1.17-0.385-2.165-1.154-2.984s-1.705-1.229-2.809-1.229c-1.138,0-2.1,0.41-2.885,1.229
	c-0.786,0.819-1.179,1.814-1.179,2.984c0,1.204,0.393,2.216,1.179,3.035c0.785,0.82,1.747,1.229,2.885,1.229
	C114.542,16.105,115.487,15.687,116.239,14.85z M110.846,39.281c-0.067-0.134-0.05-0.302,0.05-0.502l18.26-34.012
	c0.134-0.267,0.385-0.401,0.753-0.401h3.762c0.234,0,0.385,0.067,0.452,0.201c0.066,0.134,0.05,0.301-0.051,0.502l-18.26,34.011
	c-0.134,0.269-0.385,0.401-0.752,0.401h-3.763C111.063,39.481,110.913,39.415,110.846,39.281z M127.927,38.854
	c-1.188-0.719-2.132-1.688-2.834-2.909c-0.703-1.221-1.054-2.55-1.054-3.988c0-1.438,0.351-2.759,1.054-3.963
	c0.702-1.204,1.646-2.157,2.834-2.859c1.187-0.702,2.483-1.054,3.888-1.054s2.7,0.352,3.888,1.054
	c1.187,0.702,2.132,1.655,2.834,2.859s1.054,2.525,1.054,3.963c0,1.438-0.352,2.768-1.054,3.988s-1.647,2.19-2.834,2.909
	c-1.188,0.719-2.483,1.078-3.888,1.078S129.114,39.573,127.927,38.854z M134.674,34.967c0.769-0.836,1.153-1.839,1.153-3.01
	s-0.394-2.165-1.179-2.985c-0.786-0.818-1.73-1.229-2.834-1.229c-1.138,0-2.091,0.41-2.859,1.229
	c-0.77,0.82-1.154,1.814-1.154,2.985c0,1.204,0.385,2.216,1.154,3.035c0.769,0.819,1.722,1.229,2.859,1.229
	C132.952,36.22,133.905,35.802,134.674,34.967z"/>
<path class="st0" d="M97.633,65.606c-0.77-0.756-1.155-1.764-1.155-3.023v-6.721c0-1.26,0.385-2.268,1.155-3.023
	c0.77-0.756,1.799-1.134,3.087-1.134c1.288,0,2.321,0.378,3.098,1.134c0.776,0.756,1.165,1.764,1.165,3.023v6.721
	c0,1.26-0.389,2.268-1.165,3.023c-0.777,0.756-1.811,1.135-3.098,1.135C99.432,66.74,98.402,66.362,97.633,65.606z M101.665,63.789
	c0.238-0.273,0.357-0.633,0.357-1.082v-6.971c0-0.449-0.119-0.809-0.357-1.082s-0.553-0.41-0.945-0.41
	c-0.392,0-0.704,0.137-0.935,0.41s-0.347,0.633-0.347,1.082v6.971c0,0.449,0.116,0.809,0.347,1.082s0.542,0.41,0.935,0.41
	C101.111,64.199,101.426,64.063,101.665,63.789z"/>
<path class="st0" d="M114.233,54.34c-0.049,0.049-0.108,0.072-0.179,0.072h-4.367c-0.07,0-0.105,0.035-0.105,0.105v3.318
	c0,0.07,0.035,0.105,0.105,0.105h2.498c0.07,0,0.13,0.023,0.179,0.072c0.049,0.051,0.074,0.109,0.074,0.18v2.037
	c0,0.07-0.025,0.129-0.074,0.178s-0.108,0.074-0.179,0.074h-2.498c-0.07,0-0.105,0.035-0.105,0.104v5.734
	c0,0.07-0.024,0.129-0.073,0.178c-0.05,0.049-0.108,0.074-0.179,0.074h-2.457c-0.07,0-0.13-0.025-0.179-0.074
	s-0.073-0.107-0.073-0.178V52.123c0-0.068,0.024-0.129,0.073-0.178s0.108-0.074,0.179-0.074h7.182c0.07,0,0.13,0.025,0.179,0.074
	s0.073,0.109,0.073,0.178v2.037C114.306,54.231,114.282,54.291,114.233,54.34z"/>
<path class="st0" d="M126.193,52.418c0.602,0.377,1.067,0.906,1.396,1.586c0.328,0.678,0.493,1.451,0.493,2.32
	c0,1.301-0.35,2.344-1.05,3.129c-0.7,0.783-1.617,1.176-2.751,1.176h-1.575c-0.07,0-0.105,0.035-0.105,0.105v5.586
	c0,0.07-0.024,0.129-0.073,0.178s-0.108,0.074-0.179,0.074h-2.457c-0.069,0-0.129-0.025-0.178-0.074
	c-0.05-0.049-0.074-0.107-0.074-0.178V52.104c0-0.07,0.024-0.131,0.074-0.18c0.049-0.048,0.108-0.073,0.178-0.073h4.242
	C124.905,51.851,125.59,52.039,126.193,52.418z M124.712,57.805c0.272-0.344,0.409-0.816,0.409-1.418c0-0.615-0.137-1.1-0.409-1.449
	c-0.273-0.35-0.634-0.525-1.082-0.525h-0.924c-0.07,0-0.105,0.035-0.105,0.105v3.695c0,0.07,0.035,0.105,0.105,0.105h0.924
	C124.079,58.319,124.439,58.149,124.712,57.805z"/>
<path class="st0" d="M134.614,66.34l-0.337-2.016c0-0.068-0.042-0.104-0.126-0.104h-2.667c-0.084,0-0.126,0.035-0.126,0.104
	l-0.336,2.016c-0.014,0.154-0.104,0.232-0.272,0.232h-2.457c-0.183,0-0.252-0.092-0.21-0.273l3.087-14.195
	c0.027-0.154,0.119-0.232,0.272-0.232h2.835c0.154,0,0.245,0.078,0.273,0.232l3.066,14.195l0.021,0.084
	c0,0.125-0.077,0.189-0.23,0.189h-2.521C134.718,66.573,134.627,66.494,134.614,66.34z M131.863,61.932h1.89
	c0.069,0,0.098-0.035,0.084-0.105l-0.987-5.732c-0.014-0.043-0.035-0.064-0.062-0.064c-0.028,0-0.05,0.021-0.063,0.064l-0.944,5.732
	C131.779,61.897,131.806,61.932,131.863,61.932z"/>
<path class="st0" d="M145.922,51.946c0.049,0.049,0.073,0.109,0.073,0.178v2.037c0,0.07-0.024,0.131-0.073,0.18
	c-0.05,0.049-0.108,0.072-0.179,0.072h-2.625c-0.07,0-0.105,0.035-0.105,0.105v11.803c0,0.07-0.024,0.129-0.073,0.178
	s-0.108,0.074-0.179,0.074h-2.457c-0.069,0-0.129-0.025-0.178-0.074c-0.05-0.049-0.074-0.107-0.074-0.178V54.518
	c0-0.07-0.035-0.105-0.104-0.105h-2.521c-0.07,0-0.129-0.023-0.178-0.072c-0.05-0.049-0.074-0.109-0.074-0.18v-2.037
	c0-0.068,0.024-0.129,0.074-0.178c0.049-0.049,0.107-0.074,0.178-0.074h8.316C145.814,51.872,145.873,51.897,145.922,51.946z"/>
<path class="st0" d="M147.497,66.498c-0.049-0.049-0.073-0.107-0.073-0.178V52.123c0-0.068,0.024-0.129,0.073-0.178
	s0.108-0.074,0.179-0.074h2.457c0.07,0,0.129,0.025,0.179,0.074c0.049,0.049,0.073,0.109,0.073,0.178v14.197
	c0,0.07-0.024,0.129-0.073,0.178c-0.05,0.049-0.108,0.074-0.179,0.074h-2.457C147.605,66.573,147.545,66.547,147.497,66.498z"/>
<path class="st0" d="M159.887,54.34c-0.05,0.049-0.109,0.072-0.179,0.072h-4.389c-0.07,0-0.105,0.035-0.105,0.105v3.318
	c0,0.07,0.035,0.105,0.105,0.105h2.52c0.07,0,0.129,0.023,0.179,0.072c0.049,0.051,0.073,0.109,0.073,0.18v2.037
	c0,0.07-0.024,0.129-0.073,0.178c-0.05,0.049-0.108,0.074-0.179,0.074h-2.52c-0.07,0-0.105,0.035-0.105,0.104v3.34
	c0,0.07,0.035,0.105,0.105,0.105h4.389c0.069,0,0.129,0.023,0.179,0.072c0.049,0.051,0.073,0.109,0.073,0.18v2.037
	c0,0.07-0.024,0.129-0.073,0.178c-0.05,0.049-0.109,0.074-0.179,0.074h-7.203c-0.07,0-0.13-0.025-0.179-0.074
	s-0.073-0.107-0.073-0.178V52.123c0-0.068,0.024-0.129,0.073-0.178s0.108-0.074,0.179-0.074h7.203c0.069,0,0.129,0.025,0.179,0.074
	c0.049,0.049,0.073,0.109,0.073,0.178v2.037C159.96,54.231,159.936,54.291,159.887,54.34z"/>
<path class="st0" d="M167.531,51.946c0.049-0.049,0.108-0.074,0.179-0.074h2.436c0.07,0,0.129,0.025,0.179,0.074
	c0.049,0.049,0.073,0.109,0.073,0.178v14.197c0,0.07-0.024,0.129-0.073,0.178c-0.05,0.049-0.108,0.074-0.179,0.074h-2.771
	c-0.141,0-0.231-0.07-0.273-0.211l-2.604-8.127c-0.015-0.041-0.039-0.059-0.074-0.053c-0.035,0.008-0.053,0.031-0.053,0.074
	l0.021,8.064c0,0.07-0.024,0.129-0.073,0.178c-0.05,0.049-0.108,0.074-0.179,0.074h-2.437c-0.069,0-0.129-0.025-0.178-0.074
	c-0.05-0.049-0.074-0.107-0.074-0.178V52.123c0-0.068,0.024-0.129,0.074-0.178c0.049-0.049,0.108-0.074,0.178-0.074h2.751
	c0.141,0,0.231,0.07,0.273,0.21l2.625,8.127c0.014,0.041,0.038,0.059,0.073,0.053c0.035-0.008,0.053-0.031,0.053-0.074l-0.021-8.064
	C167.458,52.055,167.481,51.994,167.531,51.946z"/>
<path class="st0" d="M180.571,51.946c0.049,0.049,0.074,0.109,0.074,0.178v2.037c0,0.07-0.025,0.131-0.074,0.18
	s-0.108,0.072-0.179,0.072h-2.625c-0.069,0-0.104,0.035-0.104,0.105v11.803c0,0.07-0.024,0.129-0.073,0.178
	c-0.05,0.049-0.109,0.074-0.179,0.074h-2.457c-0.07,0-0.13-0.025-0.179-0.074s-0.073-0.107-0.073-0.178V54.518
	c0-0.07-0.035-0.105-0.105-0.105h-2.52c-0.07,0-0.13-0.023-0.179-0.072s-0.073-0.109-0.073-0.18v-2.037
	c0-0.068,0.024-0.129,0.073-0.178s0.108-0.074,0.179-0.074h8.315C180.462,51.872,180.522,51.897,180.571,51.946z"/>
<path class="st0" d="M183.71,66.256c-0.616-0.32-1.092-0.773-1.428-1.354s-0.504-1.25-0.504-2.006v-0.609
	c0-0.068,0.024-0.129,0.073-0.178s0.108-0.074,0.179-0.074h2.415c0.069,0,0.129,0.025,0.179,0.074
	c0.049,0.049,0.073,0.109,0.073,0.178v0.463c0,0.434,0.112,0.783,0.336,1.049c0.224,0.268,0.504,0.4,0.84,0.4
	s0.616-0.127,0.84-0.379s0.336-0.58,0.336-0.986c0-0.42-0.14-0.781-0.42-1.082s-0.826-0.746-1.638-1.334
	c-0.7-0.504-1.268-0.951-1.701-1.344c-0.434-0.391-0.805-0.875-1.113-1.449c-0.308-0.572-0.462-1.238-0.462-1.994
	c0-1.189,0.371-2.143,1.113-2.855c0.742-0.715,1.722-1.072,2.94-1.072c1.231,0,2.222,0.371,2.971,1.113s1.124,1.715,1.124,2.92
	v0.504c0,0.07-0.024,0.129-0.073,0.178c-0.05,0.049-0.109,0.074-0.179,0.074h-2.415c-0.07,0-0.13-0.025-0.179-0.074
	s-0.073-0.107-0.073-0.178v-0.568c0-0.434-0.108-0.779-0.325-1.039c-0.218-0.258-0.501-0.389-0.851-0.389
	c-0.336,0-0.609,0.123-0.819,0.367c-0.21,0.246-0.315,0.586-0.315,1.02c0,0.42,0.133,0.791,0.399,1.113
	c0.266,0.322,0.791,0.77,1.575,1.344c0.868,0.645,1.522,1.166,1.963,1.564c0.441,0.398,0.784,0.84,1.029,1.322
	c0.245,0.484,0.367,1.061,0.367,1.732c0,1.232-0.378,2.213-1.134,2.941c-0.756,0.727-1.75,1.092-2.981,1.092
	C185.041,66.74,184.327,66.578,183.71,66.256z"/>
<path class="st0" d="M1.443,95.844c-0.049-0.049-0.074-0.108-0.074-0.179V81.469c0-0.069,0.024-0.129,0.074-0.179
	c0.049-0.049,0.108-0.073,0.178-0.073h3.801c1.274,0,2.296,0.371,3.066,1.113s1.155,1.729,1.155,2.961v6.552
	c0,1.232-0.385,2.22-1.155,2.961c-0.77,0.742-1.792,1.113-3.066,1.113H1.622C1.552,95.917,1.492,95.893,1.443,95.844z M4.436,93.376
	l0.945-0.021c0.378-0.015,0.686-0.176,0.924-0.483c0.238-0.308,0.364-0.714,0.378-1.218v-6.174c0-0.532-0.119-0.952-0.357-1.261
	c-0.238-0.308-0.56-0.462-0.966-0.462H4.436c-0.07,0-0.105,0.035-0.105,0.105v9.407C4.331,93.341,4.366,93.376,4.436,93.376z"/>
<path class="st0" d="M11.439,95.844c-0.049-0.049-0.074-0.108-0.074-0.179V81.469c0-0.069,0.024-0.129,0.074-0.179
	c0.049-0.049,0.108-0.073,0.178-0.073h2.457c0.07,0,0.129,0.024,0.179,0.073c0.049,0.05,0.073,0.109,0.073,0.179v14.196
	c0,0.07-0.024,0.13-0.073,0.179c-0.049,0.049-0.108,0.073-0.179,0.073h-2.457C11.548,95.917,11.488,95.893,11.439,95.844z"/>
<path class="st0" d="M17.833,95.602c-0.616-0.321-1.092-0.773-1.428-1.354c-0.336-0.58-0.504-1.249-0.504-2.005v-0.609
	c0-0.069,0.024-0.129,0.074-0.179c0.049-0.049,0.108-0.073,0.178-0.073h2.415c0.07,0,0.129,0.024,0.179,0.073
	c0.049,0.05,0.073,0.109,0.073,0.179v0.462c0,0.435,0.112,0.784,0.336,1.05c0.224,0.267,0.504,0.399,0.84,0.399
	s0.616-0.126,0.84-0.378c0.224-0.252,0.336-0.581,0.336-0.987c0-0.42-0.14-0.78-0.42-1.081c-0.28-0.301-0.826-0.746-1.638-1.334
	c-0.7-0.504-1.267-0.951-1.701-1.344c-0.434-0.392-0.805-0.875-1.113-1.449c-0.308-0.573-0.462-1.238-0.462-1.995
	c0-1.189,0.371-2.142,1.113-2.855c0.742-0.714,1.722-1.071,2.94-1.071c1.231,0,2.222,0.371,2.971,1.113s1.124,1.715,1.124,2.919
	v0.504c0,0.07-0.024,0.13-0.073,0.179c-0.049,0.049-0.109,0.073-0.179,0.073h-2.415c-0.07,0-0.129-0.024-0.178-0.073
	c-0.049-0.049-0.074-0.108-0.074-0.179v-0.567c0-0.434-0.108-0.78-0.325-1.039c-0.217-0.259-0.501-0.389-0.851-0.389
	c-0.336,0-0.609,0.123-0.819,0.367c-0.21,0.245-0.315,0.585-0.315,1.019c0,0.42,0.133,0.792,0.399,1.113
	c0.266,0.322,0.791,0.771,1.575,1.344c0.868,0.645,1.522,1.166,1.963,1.564c0.441,0.399,0.784,0.841,1.029,1.323
	c0.245,0.483,0.367,1.061,0.367,1.732c0,1.232-0.378,2.213-1.134,2.94s-1.75,1.092-2.982,1.092
	C19.164,96.085,18.449,95.924,17.833,95.602z"/>
<path class="st0" d="M26.454,94.962c-0.763-0.749-1.145-1.754-1.145-3.014v-6.805c0-1.245,0.381-2.239,1.145-2.981
	s1.774-1.113,3.035-1.113c1.274,0,2.292,0.371,3.056,1.113c0.763,0.742,1.144,1.736,1.144,2.981v0.231
	c0,0.07-0.024,0.13-0.073,0.179c-0.049,0.049-0.108,0.073-0.179,0.073l-2.457,0.105c-0.168,0-0.252-0.077-0.252-0.231v-0.546
	c0-0.406-0.112-0.735-0.336-0.987s-0.525-0.378-0.903-0.378c-0.364,0-0.658,0.126-0.882,0.378c-0.224,0.252-0.336,0.581-0.336,0.987
	V92.2c0,0.406,0.112,0.731,0.336,0.977c0.224,0.245,0.518,0.367,0.882,0.367c0.378,0,0.679-0.122,0.903-0.367
	s0.336-0.57,0.336-0.977v-0.567c0-0.069,0.024-0.129,0.074-0.179c0.049-0.049,0.108-0.073,0.178-0.073l2.457,0.105
	c0.07,0,0.129,0.024,0.179,0.073c0.049,0.049,0.073,0.108,0.073,0.179v0.21c0,1.26-0.385,2.265-1.155,3.014
	s-1.785,1.123-3.045,1.123C28.228,96.085,27.217,95.711,26.454,94.962z"/>
<path class="st0" d="M36.208,94.951c-0.77-0.756-1.155-1.765-1.155-3.024v-6.72c0-1.26,0.385-2.268,1.155-3.024
	c0.77-0.756,1.799-1.134,3.087-1.134c1.288,0,2.32,0.378,3.098,1.134c0.777,0.757,1.166,1.765,1.166,3.024v6.72
	c0,1.26-0.389,2.269-1.166,3.024c-0.777,0.756-1.81,1.134-3.098,1.134C38.007,96.085,36.978,95.707,36.208,94.951z M40.24,93.135
	c0.238-0.273,0.357-0.634,0.357-1.082v-6.972c0-0.448-0.119-0.809-0.357-1.082c-0.238-0.272-0.553-0.409-0.945-0.409
	c-0.392,0-0.704,0.137-0.935,0.409c-0.231,0.273-0.347,0.634-0.347,1.082v6.972c0,0.448,0.116,0.809,0.347,1.082
	c0.231,0.272,0.542,0.409,0.935,0.409C39.687,93.544,40.002,93.407,40.24,93.135z"/>
<path class="st0" d="M51.275,81.29c0.049-0.049,0.108-0.073,0.179-0.073h2.436c0.07,0,0.129,0.024,0.178,0.073
	c0.049,0.05,0.074,0.109,0.074,0.179v14.196c0,0.07-0.025,0.13-0.074,0.179c-0.049,0.049-0.108,0.073-0.178,0.073h-2.772
	c-0.14,0-0.231-0.07-0.273-0.21l-2.604-8.127c-0.014-0.042-0.039-0.06-0.074-0.053c-0.035,0.008-0.053,0.031-0.053,0.073
	l0.021,8.064c0,0.07-0.024,0.13-0.073,0.179c-0.049,0.049-0.108,0.073-0.179,0.073h-2.436c-0.07,0-0.129-0.024-0.178-0.073
	c-0.049-0.049-0.074-0.108-0.074-0.179V81.469c0-0.069,0.024-0.129,0.074-0.179c0.049-0.049,0.108-0.073,0.178-0.073h2.751
	c0.14,0,0.231,0.07,0.273,0.21l2.625,8.127c0.014,0.042,0.038,0.06,0.073,0.053c0.035-0.007,0.053-0.031,0.053-0.073l-0.021-8.064
	C51.202,81.4,51.226,81.34,51.275,81.29z"/>
<path class="st0" d="M64.316,81.29c0.049,0.05,0.074,0.109,0.074,0.179v2.037c0,0.07-0.025,0.13-0.074,0.179
	c-0.049,0.049-0.108,0.073-0.179,0.073h-2.625c-0.07,0-0.105,0.035-0.105,0.105v11.802c0,0.07-0.024,0.13-0.073,0.179
	c-0.049,0.049-0.109,0.073-0.179,0.073h-2.457c-0.07,0-0.129-0.024-0.178-0.073c-0.049-0.049-0.074-0.108-0.074-0.179V83.864
	c0-0.07-0.035-0.105-0.105-0.105h-2.52c-0.07,0-0.129-0.024-0.178-0.073c-0.049-0.049-0.074-0.108-0.074-0.179v-2.037
	c0-0.069,0.024-0.129,0.074-0.179c0.049-0.049,0.108-0.073,0.178-0.073h8.316C64.208,81.217,64.267,81.241,64.316,81.29z"/>
<path class="st0" d="M65.891,95.844c-0.049-0.049-0.074-0.108-0.074-0.179V81.469c0-0.069,0.024-0.129,0.074-0.179
	c0.049-0.049,0.108-0.073,0.178-0.073h2.457c0.07,0,0.129,0.024,0.179,0.073c0.049,0.05,0.073,0.109,0.073,0.179v14.196
	c0,0.07-0.024,0.13-0.073,0.179c-0.049,0.049-0.108,0.073-0.179,0.073h-2.457C66,95.917,65.94,95.893,65.891,95.844z"/>
<path class="st0" d="M76.727,81.29c0.049-0.049,0.108-0.073,0.179-0.073h2.436c0.07,0,0.129,0.024,0.178,0.073
	c0.049,0.05,0.074,0.109,0.074,0.179v14.196c0,0.07-0.025,0.13-0.074,0.179c-0.049,0.049-0.108,0.073-0.178,0.073H76.57
	c-0.14,0-0.231-0.07-0.273-0.21l-2.604-8.127c-0.014-0.042-0.039-0.06-0.074-0.053c-0.035,0.008-0.053,0.031-0.053,0.073
	l0.021,8.064c0,0.07-0.024,0.13-0.073,0.179c-0.049,0.049-0.108,0.073-0.179,0.073h-2.436c-0.07,0-0.129-0.024-0.178-0.073
	c-0.049-0.049-0.074-0.108-0.074-0.179V81.469c0-0.069,0.024-0.129,0.074-0.179c0.049-0.049,0.108-0.073,0.178-0.073h2.751
	c0.14,0,0.231,0.07,0.273,0.21l2.625,8.127c0.014,0.042,0.038,0.06,0.073,0.053c0.035-0.007,0.053-0.031,0.053-0.073l-0.021-8.064
	C76.654,81.4,76.678,81.34,76.727,81.29z"/>
<path class="st0" d="M82.522,94.899c-0.763-0.791-1.145-1.845-1.145-3.16v-10.27c0-0.069,0.024-0.129,0.074-0.179
	c0.049-0.049,0.108-0.073,0.178-0.073h2.457c0.07,0,0.129,0.024,0.179,0.073c0.049,0.05,0.073,0.109,0.073,0.179v10.563
	c0,0.448,0.112,0.812,0.336,1.092c0.224,0.28,0.518,0.42,0.882,0.42c0.364,0,0.654-0.14,0.872-0.42
	c0.217-0.28,0.325-0.644,0.325-1.092V81.469c0-0.069,0.024-0.129,0.074-0.179c0.049-0.049,0.108-0.073,0.178-0.073h2.457
	c0.07,0,0.129,0.024,0.179,0.073c0.049,0.05,0.074,0.109,0.074,0.179v10.27c0,1.315-0.382,2.369-1.145,3.16
	c-0.764,0.791-1.768,1.187-3.014,1.187C84.297,96.085,83.286,95.69,82.522,94.899z"/>
<path class="st0" d="M99.008,83.685c-0.049,0.049-0.109,0.073-0.179,0.073H94.44c-0.07,0-0.105,0.035-0.105,0.105v3.317
	c0,0.07,0.035,0.105,0.105,0.105h2.52c0.07,0,0.129,0.024,0.179,0.073c0.049,0.05,0.074,0.108,0.074,0.179v2.037
	c0,0.07-0.025,0.13-0.074,0.179c-0.049,0.049-0.108,0.073-0.179,0.073h-2.52c-0.07,0-0.105,0.035-0.105,0.104v3.339
	c0,0.07,0.035,0.105,0.105,0.105h4.389c0.07,0,0.129,0.024,0.179,0.073c0.049,0.05,0.073,0.108,0.073,0.179v2.037
	c0,0.07-0.024,0.13-0.073,0.179c-0.049,0.049-0.109,0.073-0.179,0.073h-7.203c-0.07,0-0.129-0.024-0.178-0.073
	c-0.049-0.049-0.074-0.108-0.074-0.179V81.469c0-0.069,0.024-0.129,0.074-0.179c0.049-0.049,0.108-0.073,0.178-0.073h7.203
	c0.07,0,0.129,0.024,0.179,0.073c0.049,0.05,0.073,0.109,0.073,0.179v2.037C99.081,83.576,99.057,83.636,99.008,83.685z"/>
<path class="st0" d="M100.645,95.844c-0.049-0.049-0.073-0.108-0.073-0.179V81.469c0-0.069,0.024-0.129,0.073-0.179
	c0.05-0.049,0.108-0.073,0.179-0.073h3.801c1.274,0,2.296,0.371,3.066,1.113c0.77,0.742,1.155,1.729,1.155,2.961v6.552
	c0,1.232-0.386,2.22-1.155,2.961c-0.771,0.742-1.792,1.113-3.066,1.113h-3.801C100.753,95.917,100.695,95.893,100.645,95.844z
	 M103.638,93.376l0.944-0.021c0.379-0.015,0.687-0.176,0.925-0.483c0.237-0.308,0.363-0.714,0.378-1.218v-6.174
	c0-0.532-0.119-0.952-0.357-1.261c-0.238-0.308-0.56-0.462-0.966-0.462h-0.924c-0.07,0-0.105,0.035-0.105,0.105v9.407
	C103.533,93.341,103.568,93.376,103.638,93.376z"/>
<path class="st0" d="M123.095,81.29c0.049,0.05,0.073,0.109,0.073,0.179v2.037c0,0.07-0.024,0.13-0.073,0.179
	c-0.05,0.049-0.109,0.073-0.179,0.073h-2.625c-0.07,0-0.105,0.035-0.105,0.105v11.802c0,0.07-0.024,0.13-0.073,0.179
	s-0.108,0.073-0.179,0.073h-2.457c-0.07,0-0.13-0.024-0.179-0.073s-0.073-0.108-0.073-0.179V83.864c0-0.07-0.035-0.105-0.104-0.105
	H114.6c-0.07,0-0.13-0.024-0.179-0.073s-0.073-0.108-0.073-0.179v-2.037c0-0.069,0.024-0.129,0.073-0.179
	c0.049-0.049,0.108-0.073,0.179-0.073h8.316C122.986,81.217,123.045,81.241,123.095,81.29z"/>
<path class="st0" d="M130.097,95.707l-1.617-5.796c-0.027-0.056-0.062-0.084-0.104-0.084h-0.714c-0.07,0-0.105,0.035-0.105,0.104
	v5.733c0,0.07-0.024,0.13-0.073,0.179s-0.108,0.073-0.179,0.073h-2.457c-0.07,0-0.129-0.024-0.179-0.073
	c-0.049-0.049-0.073-0.108-0.073-0.179V81.469c0-0.069,0.024-0.129,0.073-0.179c0.05-0.049,0.108-0.073,0.179-0.073h4.242
	c0.77,0,1.456,0.186,2.058,0.557c0.603,0.371,1.067,0.893,1.396,1.564s0.494,1.442,0.494,2.311c0,0.826-0.157,1.554-0.473,2.184
	s-0.753,1.12-1.312,1.47c-0.028,0.015-0.049,0.031-0.063,0.053c-0.014,0.021-0.014,0.046,0,0.073l1.933,6.195l0.021,0.084
	c0,0.14-0.077,0.21-0.23,0.21h-2.521C130.237,95.917,130.139,95.847,130.097,95.707z M127.556,83.864v3.591
	c0,0.07,0.035,0.104,0.105,0.104h0.944c0.435,0,0.788-0.171,1.061-0.514c0.273-0.344,0.41-0.802,0.41-1.376
	c0-0.588-0.137-1.054-0.41-1.396c-0.272-0.343-0.626-0.515-1.061-0.515h-0.944C127.591,83.758,127.556,83.793,127.556,83.864z"/>
<path class="st0" d="M142.12,83.685c-0.05,0.049-0.108,0.073-0.179,0.073h-4.389c-0.07,0-0.105,0.035-0.105,0.105v3.317
	c0,0.07,0.035,0.105,0.105,0.105h2.52c0.07,0,0.13,0.024,0.179,0.073c0.049,0.05,0.073,0.108,0.073,0.179v2.037
	c0,0.07-0.024,0.13-0.073,0.179s-0.108,0.073-0.179,0.073h-2.52c-0.07,0-0.105,0.035-0.105,0.104v3.339
	c0,0.07,0.035,0.105,0.105,0.105h4.389c0.07,0,0.129,0.024,0.179,0.073c0.049,0.05,0.073,0.108,0.073,0.179v2.037
	c0,0.07-0.024,0.13-0.073,0.179c-0.05,0.049-0.108,0.073-0.179,0.073h-7.203c-0.07,0-0.129-0.024-0.179-0.073
	c-0.049-0.049-0.073-0.108-0.073-0.179V81.469c0-0.069,0.024-0.129,0.073-0.179c0.05-0.049,0.108-0.073,0.179-0.073h7.203
	c0.07,0,0.129,0.024,0.179,0.073c0.049,0.05,0.073,0.109,0.073,0.179v2.037C142.193,83.576,142.168,83.636,142.12,83.685z"/>
<path class="st0" d="M149.921,95.686l-0.336-2.016c0-0.069-0.042-0.104-0.126-0.104h-2.667c-0.084,0-0.126,0.035-0.126,0.104
	l-0.336,2.016c-0.015,0.154-0.105,0.231-0.273,0.231H143.6c-0.182,0-0.252-0.091-0.21-0.273l3.087-14.195
	c0.028-0.154,0.119-0.231,0.273-0.231h2.835c0.153,0,0.244,0.077,0.272,0.231l3.066,14.195l0.021,0.084
	c0,0.126-0.077,0.189-0.23,0.189h-2.521C150.026,95.917,149.935,95.84,149.921,95.686z M147.17,91.277h1.89
	c0.07,0,0.098-0.035,0.084-0.105l-0.987-5.732c-0.014-0.043-0.034-0.063-0.062-0.063s-0.049,0.021-0.063,0.063l-0.944,5.732
	C147.086,91.241,147.114,91.277,147.17,91.277z"/>
<path class="st0" d="M161.23,81.29c0.049,0.05,0.073,0.109,0.073,0.179v2.037c0,0.07-0.024,0.13-0.073,0.179
	c-0.05,0.049-0.109,0.073-0.179,0.073h-2.625c-0.07,0-0.105,0.035-0.105,0.105v11.802c0,0.07-0.024,0.13-0.073,0.179
	s-0.108,0.073-0.179,0.073h-2.457c-0.07,0-0.13-0.024-0.179-0.073s-0.073-0.108-0.073-0.179V83.864c0-0.07-0.035-0.105-0.104-0.105
	h-2.521c-0.07,0-0.13-0.024-0.179-0.073s-0.073-0.108-0.073-0.179v-2.037c0-0.069,0.024-0.129,0.073-0.179
	c0.049-0.049,0.108-0.073,0.179-0.073h8.316C161.121,81.217,161.18,81.241,161.23,81.29z"/>
<path class="st0" d="M169.766,81.217h2.436c0.07,0,0.13,0.024,0.179,0.073c0.049,0.05,0.074,0.109,0.074,0.179v14.196
	c0,0.07-0.025,0.13-0.074,0.179s-0.108,0.073-0.179,0.073h-2.456c-0.07,0-0.13-0.024-0.179-0.073
	c-0.05-0.049-0.074-0.108-0.074-0.179v-9.429c0-0.056-0.014-0.084-0.042-0.084c-0.027,0-0.056,0.021-0.084,0.062l-1.638,2.898
	c-0.07,0.112-0.126,0.168-0.168,0.168s-0.098-0.056-0.168-0.168l-1.638-2.898c-0.028-0.042-0.057-0.062-0.084-0.062
	c-0.028,0-0.042,0.028-0.042,0.084v9.429c0,0.07-0.024,0.13-0.074,0.179c-0.049,0.049-0.108,0.073-0.178,0.073h-2.457
	c-0.07,0-0.13-0.024-0.179-0.073s-0.073-0.108-0.073-0.179V81.469c0-0.069,0.024-0.129,0.073-0.179
	c0.049-0.049,0.108-0.073,0.179-0.073h2.415c0.14,0,0.244,0.057,0.314,0.168l1.869,3.339c0.042,0.057,0.084,0.057,0.126,0
	l1.806-3.339C169.507,81.274,169.612,81.217,169.766,81.217z"/>
<path class="st0" d="M181.873,83.685c-0.05,0.049-0.108,0.073-0.179,0.073h-4.389c-0.07,0-0.105,0.035-0.105,0.105v3.317
	c0,0.07,0.035,0.105,0.105,0.105h2.52c0.07,0,0.13,0.024,0.179,0.073c0.049,0.05,0.073,0.108,0.073,0.179v2.037
	c0,0.07-0.024,0.13-0.073,0.179s-0.108,0.073-0.179,0.073h-2.52c-0.07,0-0.105,0.035-0.105,0.104v3.339
	c0,0.07,0.035,0.105,0.105,0.105h4.389c0.07,0,0.129,0.024,0.179,0.073c0.049,0.05,0.073,0.108,0.073,0.179v2.037
	c0,0.07-0.024,0.13-0.073,0.179c-0.05,0.049-0.108,0.073-0.179,0.073h-7.203c-0.07,0-0.129-0.024-0.179-0.073
	c-0.049-0.049-0.073-0.108-0.073-0.179V81.469c0-0.069,0.024-0.129,0.073-0.179c0.05-0.049,0.108-0.073,0.179-0.073h7.203
	c0.07,0,0.129,0.024,0.179,0.073c0.049,0.05,0.073,0.109,0.073,0.179v2.037C181.946,83.576,181.921,83.636,181.873,83.685z"/>
<path class="st0" d="M189.516,81.29c0.049-0.049,0.107-0.073,0.178-0.073h2.437c0.069,0,0.129,0.024,0.179,0.073
	c0.049,0.05,0.073,0.109,0.073,0.179v14.196c0,0.07-0.024,0.13-0.073,0.179c-0.05,0.049-0.109,0.073-0.179,0.073h-2.772
	c-0.14,0-0.23-0.07-0.272-0.21l-2.604-8.127c-0.014-0.042-0.038-0.06-0.073-0.053c-0.035,0.008-0.053,0.031-0.053,0.073l0.021,8.064
	c0,0.07-0.024,0.13-0.074,0.179c-0.049,0.049-0.108,0.073-0.178,0.073h-2.437c-0.07,0-0.129-0.024-0.179-0.073
	c-0.049-0.049-0.073-0.108-0.073-0.179V81.469c0-0.069,0.024-0.129,0.073-0.179c0.05-0.049,0.108-0.073,0.179-0.073h2.751
	c0.14,0,0.231,0.07,0.273,0.21l2.625,8.127c0.014,0.042,0.038,0.06,0.073,0.053s0.053-0.031,0.053-0.073l-0.021-8.064
	C189.442,81.4,189.466,81.34,189.516,81.29z"/>
<path class="st0" d="M202.557,81.29c0.049,0.05,0.073,0.109,0.073,0.179v2.037c0,0.07-0.024,0.13-0.073,0.179
	c-0.05,0.049-0.109,0.073-0.179,0.073h-2.625c-0.07,0-0.105,0.035-0.105,0.105v11.802c0,0.07-0.024,0.13-0.073,0.179
	s-0.108,0.073-0.179,0.073h-2.457c-0.07,0-0.13-0.024-0.179-0.073s-0.073-0.108-0.073-0.179V83.864c0-0.07-0.035-0.105-0.104-0.105
	h-2.521c-0.07,0-0.13-0.024-0.179-0.073s-0.073-0.108-0.073-0.179v-2.037c0-0.069,0.024-0.129,0.073-0.179
	c0.049-0.049,0.108-0.073,0.179-0.073h8.316C202.448,81.217,202.507,81.241,202.557,81.29z"/>
</svg>
