<?xml version="1.0" encoding="utf-8"?>
<!-- Generator: Adobe Illustrator 27.0.1, SVG Export Plug-In . SVG Version: 6.00 Build 0)  -->
<svg version="1.1" id="Layer_1" xmlns="http://www.w3.org/2000/svg" xmlns:xlink="http://www.w3.org/1999/xlink" x="0px" y="0px"
	 width="70px" height="70px" viewBox="0 0 70 70" style="enable-background:new 0 0 70 70;" xml:space="preserve">
<style type="text/css">
	.st0{fill:#F25B2C;}
</style>
<path class="st0" d="M67.351,44.996c-0.024-0.042-0.053-0.081-0.085-0.117C55.483,31.575,42.07,29.687,36.832,29.49
	c-0.176-0.016-0.352-0.031-0.536-0.039c-0.01,0-0.095,0-0.104,0c-0.275,0-0.487,0-0.568,0.008c-0.423-0.017-0.814-0.018-1.202,0
	l-0.6-0.008c-0.011,0-0.096,0-0.106,0c-0.187,0.008-0.38,0.025-0.552,0.041c-5.217,0.194-18.624,2.082-30.416,15.386
	c-1.94,2.196-1.94,5.507,0,7.703c11.782,13.304,25.19,15.191,30.364,15.383c0.197,0.02,0.392,0.036,0.597,0.044
	c0.01,0.001,0.096,0.001,0.106,0.001c0.275,0,0.499-0.001,0.571-0.009C34.596,68.01,34.8,68.014,35,68.014
	c0.197,0,0.39-0.004,0.583-0.012l0.6,0.008c0.022,0,0.12-0.001,0.143-0.003l0.518-0.039c5.217-0.193,18.624-2.081,30.408-15.387
	C69.156,50.425,69.189,47.19,67.351,44.996z M19.901,60.87c-5.473-2.514-10.373-6.188-14.318-10.762
	c-0.002-0.002-0.004-0.004-0.006-0.007c-0.694-0.784-0.694-1.968,0.006-2.759c3.946-4.574,8.846-8.249,14.318-10.763
	C14.157,43.639,14.156,53.812,19.901,60.87z M45.76,60.073c-2.487,2.339-5.727,3.812-9.124,4.15
	c-0.239,0.001-0.454,0.01-0.668,0.018c-0.078,0-0.157,0.005-0.236,0.01l-0.074,0.012l-0.363-0.042c-0.129-0.014-0.258-0.014-0.386,0
	l-0.492,0.046c-0.106,0-0.214-0.007-0.32-0.015c-0.018-0.001-0.095-0.002-0.112-0.002c-0.173,0.001-0.376,0.001-0.573-0.012
	c-3.756-0.373-7.251-2.091-9.84-4.835c-5.883-6.256-5.579-16.132,0.677-22.015c2.497-2.348,5.75-3.824,9.089-4.152
	c0.254,0,0.48-0.008,0.705-0.017c0.079,0,0.159-0.005,0.238-0.01l0.072-0.012l0.359,0.042c0.13,0.014,0.264,0.013,0.391,0
	l0.506-0.047c0.092-0.001,0.184,0.002,0.275,0.013c0.027,0.003,0.114,0.004,0.141,0.004c0.172-0.006,0.372-0.001,0.572,0.014
	c3.756,0.372,7.252,2.089,9.841,4.834C52.32,44.315,52.016,54.191,45.76,60.073z M50.125,36.581
	c5.473,2.512,10.374,6.187,14.325,10.768c0.693,0.784,0.693,1.969,0,2.753c-0.002,0.003-0.005,0.005-0.007,0.007
	c-3.944,4.574-8.844,8.25-14.316,10.764C55.872,53.813,55.872,43.64,50.125,36.581z"/>
<path class="st0" d="M35.015,38.342L35.015,38.342c-5.73,0-10.391,4.661-10.391,10.391c0,5.729,4.661,10.39,10.39,10.39
	s10.39-4.661,10.39-10.391C45.397,43.009,40.737,38.349,35.015,38.342z"/>
<path class="st0" d="M43.433,9.669L36.81,2.841c-0.804-0.802-2.112-0.803-2.921,0.006l-6.62,6.827
	c-0.791,0.835-0.791,2.144,0.001,2.98c0.372,0.392,0.875,0.615,1.415,0.629c0.541,0.01,1.053-0.184,1.444-0.556l0.07-0.069l0,0
	l3.092-3.176v11.17c-0.011,0.558,0.196,1.087,0.583,1.489c0.387,0.402,0.907,0.63,1.488,0.641c0.559-0.01,1.079-0.237,1.467-0.64
	s0.596-0.932,0.585-1.481V9.481l3.088,3.172c0.77,0.809,2.052,0.841,2.86,0.072l0.074-0.074
	C44.226,11.817,44.226,10.509,43.433,9.669z M29.822,12.327c0.006-0.006,0.012-0.012,0.018-0.018h0.001l0.29,0.282L29.822,12.327z"
	/>
<path class="st0" d="M65.469,17.587l-6.623-6.828c-0.78-0.78-2.134-0.783-2.922,0.005l-6.619,6.826
	c-0.792,0.836-0.792,2.145,0.001,2.98c0.765,0.808,2.05,0.841,2.93,0.005l0.032-0.033l3.061-3.144v11.166
	c-0.013,0.558,0.193,1.088,0.579,1.491c0.37,0.387,0.864,0.613,1.407,0.642l0.017,0.004l0.066-0.001
	c0.559-0.011,1.079-0.238,1.467-0.64s0.596-0.932,0.585-1.481v-11.18l3.088,3.172c0.372,0.392,0.874,0.616,1.415,0.629
	c0.539,0.015,1.055-0.184,1.445-0.556l0.075-0.075C66.262,19.735,66.262,18.427,65.469,17.587z"/>
<path class="st0" d="M21.392,17.583l-6.621-6.828c-0.389-0.389-0.906-0.604-1.457-0.604s-1.068,0.214-1.463,0.609l-6.629,6.838
	c-0.77,0.858-0.732,2.166,0.086,2.978c0.785,0.779,2.062,0.779,2.846,0l3.098-3.18v11.168c-0.01,0.558,0.197,1.087,0.585,1.49
	c0.387,0.402,0.909,0.629,1.486,0.64c1.152-0.022,2.073-0.977,2.052-2.121V17.398l3.087,3.169c0.768,0.808,2.05,0.842,2.857,0.075
	l0.075-0.074C22.19,19.732,22.19,18.422,21.392,17.583z"/>
</svg>
