<?xml version="1.0" encoding="utf-8"?>
<!-- Generator: Adobe Illustrator 27.0.1, SVG Export Plug-In . SVG Version: 6.00 Build 0)  -->
<svg version="1.1" id="Layer_1" xmlns="http://www.w3.org/2000/svg" xmlns:xlink="http://www.w3.org/1999/xlink" x="0px" y="0px"
	 width="290px" height="100px" viewBox="0 0 290 100" style="enable-background:new 0 0 290 100;" xml:space="preserve">
<style type="text/css">
	.st0{fill:#A6DDE9;}
	.st1{fill:#FFFFFF;}
</style>
<path class="st0" d="M35.359,35.367l2.543-0.587c0.776-0.199,1.257-0.969,1.096-1.753c-0.081-0.392-0.309-0.729-0.643-0.948
	c-0.334-0.22-0.734-0.297-1.133-0.214l-2.536,0.586c-0.776,0.199-1.257,0.969-1.096,1.753c0.146,0.707,0.771,1.196,1.466,1.196
	C35.156,35.398,35.257,35.388,35.359,35.367z"/>
<path class="st0" d="M30.764,46.477l-2.536,0.586c-0.777,0.199-1.257,0.969-1.096,1.753c0.146,0.707,0.771,1.196,1.467,1.196
	c0.1,0,0.201-0.01,0.302-0.031l2.543-0.588c0.777-0.198,1.258-0.968,1.096-1.753C32.373,46.831,31.578,46.309,30.764,46.477z"/>
<path class="st0" d="M27.464,43.752l2.544-0.588c0.777-0.199,1.257-0.969,1.096-1.753c-0.166-0.809-0.96-1.332-1.776-1.163
	l-2.536,0.586c-0.777,0.198-1.258,0.967-1.096,1.753c0.146,0.707,0.771,1.196,1.467,1.196
	C27.261,43.783,27.362,43.773,27.464,43.752z"/>
<path class="st0" d="M36.797,41.597l2.544-0.588c0.777-0.198,1.258-0.967,1.096-1.753c-0.167-0.809-0.962-1.33-1.777-1.163
	l-2.536,0.586c-0.776,0.199-1.257,0.969-1.096,1.753c0.146,0.707,0.771,1.196,1.467,1.196
	C36.595,41.627,36.696,41.618,36.797,41.597z"/>
<path class="st0" d="M58.459,33.998c-0.334-0.22-0.735-0.297-1.133-0.214L54.79,34.37c-0.777,0.199-1.257,0.969-1.096,1.753
	c0.081,0.392,0.309,0.729,0.643,0.949c0.247,0.163,0.531,0.247,0.82,0.247c0.101,0,0.204-0.011,0.306-0.032l2.543-0.587
	c0.776-0.198,1.257-0.968,1.096-1.753C59.021,34.555,58.793,34.218,58.459,33.998z"/>
<path class="st0" d="M49.431,42.168l-2.536,0.586c-0.776,0.199-1.257,0.969-1.096,1.753c0.146,0.707,0.771,1.196,1.467,1.196
	c0.1,0,0.201-0.01,0.302-0.031l2.544-0.588c0.776-0.199,1.257-0.969,1.096-1.753C51.041,42.522,50.246,42,49.431,42.168z"/>
<path class="st0" d="M54.026,31.058l2.543-0.587c0.776-0.199,1.257-0.969,1.096-1.753c-0.081-0.392-0.309-0.729-0.643-0.948
	c-0.334-0.22-0.735-0.297-1.133-0.214l-2.536,0.586c-0.777,0.199-1.257,0.969-1.096,1.753c0.146,0.707,0.771,1.196,1.466,1.196
	C53.823,31.088,53.924,31.079,54.026,31.058z"/>
<path class="st0" d="M41.231,44.537c-0.334-0.22-0.734-0.295-1.133-0.214l-2.536,0.586c-0.776,0.199-1.257,0.969-1.096,1.753
	c0.081,0.392,0.309,0.729,0.643,0.949c0.247,0.163,0.531,0.247,0.82,0.247c0.101,0,0.204-0.011,0.306-0.032l2.543-0.586
	c0.777-0.199,1.257-0.969,1.096-1.753C41.793,45.094,41.565,44.757,41.231,44.537z"/>
<path class="st0" d="M69.574,45.713l-7.176-31.082c-0.662-2.836-3.513-4.616-6.35-3.967l-2.827,0.653l-0.119-0.515
	c-0.463-1.99-2.464-3.238-4.452-2.781l-1.479,0.341c-1.989,0.463-3.237,2.46-2.781,4.452l0.119,0.514l-15.156,3.499l-0.119-0.515
	c-0.463-1.99-2.462-3.238-4.453-2.781L23.3,13.873H23.3c-1.99,0.463-3.238,2.46-2.781,4.453l0.119,0.514l-2.829,0.652
	c-2.836,0.662-4.616,3.51-3.967,6.35l7.176,31.083c0.57,2.441,2.761,4.1,5.172,4.1c0.389,0,0.784-0.042,1.178-0.133l38.24-8.828
	C68.443,51.401,70.223,48.552,69.574,45.713z M30.174,20.383l-0.147-0.637l15.157-3.499l0.147,0.637
	c0.463,1.989,2.459,3.236,4.452,2.781l1.479-0.342c1.99-0.463,3.238-2.46,2.781-4.451l-0.147-0.637l2.826-0.652
	c1.23-0.28,2.47,0.494,2.759,1.723l0.937,4.056l-42.721,9.863L16.76,25.17c-0.28-1.233,0.494-2.47,1.722-2.759l2.83-0.654
	l0.147,0.637c0.463,1.989,2.462,3.236,4.452,2.781l1.481-0.342C29.383,24.371,30.63,22.374,30.174,20.383z M50.587,16.41
	l-1.475,0.341c-0.384,0.089-0.774-0.155-0.864-0.539l-0.94-4.072c-0.087-0.386,0.156-0.774,0.539-0.864l0.953-0.22l0.523-0.118
	c0.384-0.087,0.773,0.155,0.863,0.538l0.94,4.069C51.211,15.932,50.97,16.32,50.587,16.41z M26.718,21.921l-1.477,0.341
	c-0.385,0.088-0.774-0.156-0.864-0.539l-0.94-4.071c-0.087-0.386,0.155-0.773,0.539-0.863l1.19-0.275v0.001l0.288-0.065
	c0.382-0.088,0.773,0.155,0.863,0.538l0.94,4.069C27.343,21.443,27.101,21.83,26.718,21.921z M64.933,49.147l-38.238,8.828
	c-1.231,0.278-2.47-0.495-2.758-1.724l-5.566-24.108l42.719-9.863l5.565,24.107C66.936,47.621,66.162,48.859,64.933,49.147z"/>
<path class="st0" d="M44.693,33.212l2.544-0.587c0.776-0.198,1.257-0.968,1.096-1.753c-0.167-0.809-0.962-1.332-1.777-1.163
	l-2.536,0.586c-0.777,0.199-1.257,0.969-1.096,1.753c0.08,0.392,0.309,0.729,0.643,0.949c0.247,0.163,0.531,0.247,0.82,0.247
	C44.489,33.243,44.591,33.233,44.693,33.212z"/>
<path class="st0" d="M46.13,39.442l2.543-0.586c0.776-0.199,1.257-0.969,1.096-1.753c-0.081-0.392-0.309-0.729-0.643-0.949
	c-0.333-0.22-0.733-0.296-1.133-0.214l-2.536,0.586c-0.777,0.199-1.257,0.969-1.096,1.753c0.081,0.392,0.309,0.729,0.643,0.949
	c0.247,0.163,0.531,0.247,0.82,0.247C45.927,39.474,46.029,39.462,46.13,39.442z"/>
<path class="st1" d="M101.135,50.771c-1.858,1.717-4.327,2.575-7.407,2.575c-2.903,0-5.256-0.858-7.062-2.575
	c-1.805-1.717-2.708-4.027-2.708-6.929V42.25c0-0.177,0.062-0.327,0.186-0.451c0.123-0.124,0.273-0.186,0.451-0.186h6.212
	c0.177,0,0.327,0.063,0.451,0.186c0.123,0.124,0.186,0.274,0.186,0.451v1.168c0,0.956,0.221,1.752,0.664,2.389
	c0.443,0.637,0.982,0.956,1.619,0.956c0.778,0,1.407-0.309,1.885-0.929c0.478-0.619,0.717-1.425,0.717-2.416v-5.31
	c0-0.106-0.036-0.168-0.106-0.186c-0.071-0.017-0.142,0.009-0.212,0.08c-1.133,0.956-2.442,1.434-3.929,1.434
	c-2.478,0-4.469-0.814-5.973-2.442c-1.505-1.627-2.346-3.804-2.522-6.531c-0.106-0.956-0.159-1.999-0.159-3.133
	c0-0.778,0.035-1.84,0.106-3.186c0.106-2.796,1.062-4.964,2.867-6.504c1.805-1.54,4.212-2.31,7.221-2.31
	c2.831,0,5.124,0.708,6.876,2.124c1.752,1.416,2.787,3.522,3.106,6.318c0.141,1.133,0.212,2.107,0.212,2.92l0.053,17.15
	C103.905,46.745,102.994,49.054,101.135,50.771z M96.331,27.86c0-1.309-0.036-2.406-0.106-3.292
	c-0.106-0.92-0.381-1.628-0.823-2.124c-0.444-0.496-1.018-0.743-1.726-0.743c-0.708,0-1.284,0.265-1.726,0.796
	c-0.443,0.531-0.717,1.274-0.823,2.23c-0.071,0.85-0.106,1.893-0.106,3.133c0,0.815,0.053,1.911,0.159,3.292
	c0.141,0.814,0.425,1.452,0.85,1.911c0.425,0.461,0.973,0.69,1.646,0.69c0.672,0,1.23-0.239,1.673-0.717
	c0.442-0.478,0.734-1.142,0.876-1.991C96.295,30.126,96.331,29.064,96.331,27.86z"/>
<path class="st1" d="M110.932,15.755h6.425c0.177,0,0.327,0.063,0.451,0.186c0.123,0.125,0.186,0.275,0.186,0.451v35.892
	c0,0.177-0.063,0.328-0.186,0.451c-0.125,0.125-0.275,0.186-0.451,0.186h-6.212c-0.177,0-0.328-0.061-0.451-0.186
	c-0.125-0.124-0.186-0.274-0.186-0.451v-28.99c0-0.141-0.089-0.212-0.265-0.212l-4.088,0.478h-0.106
	c-0.39,0-0.584-0.194-0.584-0.584l-0.159-4.566c0-0.354,0.159-0.602,0.478-0.743l4.354-1.752
	C110.418,15.808,110.684,15.755,110.932,15.755z"/>
<path class="st1" d="M121.365,40.258c-0.125-0.123-0.186-0.273-0.186-0.451v-5.15c0-0.176,0.062-0.326,0.186-0.451
	c0.123-0.124,0.274-0.186,0.451-0.186h13.752c0.177,0,0.327,0.062,0.451,0.186c0.124,0.125,0.186,0.275,0.186,0.451v5.15
	c0,0.178-0.063,0.328-0.186,0.451c-0.124,0.125-0.274,0.186-0.451,0.186h-13.752C121.639,40.444,121.489,40.383,121.365,40.258z"/>
<path class="st1" d="M143.585,15.755h6.425c0.176,0,0.326,0.063,0.451,0.186c0.124,0.125,0.186,0.275,0.186,0.451v35.892
	c0,0.177-0.062,0.328-0.186,0.451c-0.125,0.125-0.276,0.186-0.451,0.186h-6.212c-0.177,0-0.328-0.061-0.451-0.186
	c-0.125-0.124-0.186-0.274-0.186-0.451v-28.99c0-0.141-0.089-0.212-0.265-0.212l-4.088,0.478H138.7c-0.39,0-0.584-0.194-0.584-0.584
	l-0.159-4.566c0-0.354,0.159-0.602,0.478-0.743l4.354-1.752C143.072,15.808,143.337,15.755,143.585,15.755z"/>
<path class="st1" d="M163.177,46.391c0.034,0.071,0.106,0.106,0.212,0.106h11.097c0.176,0,0.326,0.063,0.45,0.186
	c0.124,0.125,0.186,0.275,0.186,0.451v5.15c0,0.177-0.062,0.328-0.186,0.451c-0.125,0.125-0.274,0.186-0.45,0.186h-19.645
	c-0.178,0-0.328-0.061-0.452-0.186c-0.124-0.124-0.186-0.274-0.186-0.451v-5.363c0-0.319,0.088-0.584,0.266-0.796
	c1.416-1.875,2.406-3.15,2.973-3.823c3.115-3.999,5.327-7.027,6.637-9.079c1.911-3.044,2.867-5.61,2.867-7.699
	c0-1.202-0.238-2.132-0.717-2.787c-0.478-0.654-1.124-0.982-1.938-0.982c-0.814,0-1.47,0.328-1.965,0.982
	c-0.496,0.656-0.726,1.496-0.691,2.522v2.177c0,0.177-0.062,0.327-0.186,0.451c-0.125,0.124-0.274,0.186-0.45,0.186h-6.318
	c-0.178,0-0.328-0.062-0.451-0.186c-0.125-0.124-0.186-0.274-0.186-0.451v-2.495c0.14-2.902,1.185-5.23,3.133-6.982
	c1.946-1.752,4.424-2.628,7.433-2.628c2.973,0,5.37,0.939,7.194,2.814c1.823,1.876,2.734,4.354,2.734,7.433
	c0,1.841-0.292,3.593-0.875,5.256c-0.585,1.664-1.532,3.451-2.841,5.363c-0.992,1.452-2.691,3.717-5.097,6.796l-2.495,3.186
	C163.159,46.25,163.141,46.32,163.177,46.391z"/>
<path class="st1" d="M194.131,33.701c1.168,0.743,2.036,1.787,2.602,3.133c0.707,1.523,1.062,3.31,1.062,5.363
	c0,1.628-0.283,3.257-0.85,4.885c-0.743,1.947-1.929,3.478-3.557,4.593c-1.629,1.115-3.522,1.673-5.682,1.673
	c-2.16,0-4.053-0.549-5.681-1.646c-1.628-1.097-2.814-2.637-3.557-4.619c-0.566-1.451-0.849-3.08-0.849-4.885
	c0-1.982,0.319-3.717,0.955-5.203c0.496-1.345,1.398-2.424,2.708-3.239c0.212-0.106,0.212-0.212,0-0.319
	c-1.239-0.85-2.123-1.911-2.655-3.186c-0.673-1.557-1.009-3.203-1.009-4.938c0-1.911,0.336-3.557,1.009-4.938
	c0.743-1.663,1.919-2.964,3.531-3.902c1.61-0.938,3.46-1.407,5.548-1.407c2.053,0,3.876,0.451,5.47,1.354
	c1.592,0.903,2.778,2.203,3.557,3.902c0.707,1.487,1.062,3.151,1.062,4.991c0,1.735-0.337,3.364-1.009,4.885
	c-0.531,1.274-1.434,2.319-2.708,3.133C193.935,33.471,193.953,33.595,194.131,33.701z M184.998,26.002
	c0,0.814,0.124,1.629,0.373,2.442c0.141,0.708,0.415,1.274,0.823,1.699c0.407,0.425,0.91,0.637,1.513,0.637
	c0.603,0,1.116-0.221,1.541-0.664c0.424-0.443,0.707-1.017,0.849-1.726c0.212-0.707,0.319-1.487,0.319-2.336
	c0-0.92-0.125-1.699-0.372-2.336c-0.177-0.672-0.47-1.212-0.876-1.619c-0.408-0.407-0.894-0.611-1.46-0.611
	c-0.602,0-1.106,0.204-1.513,0.611c-0.408,0.408-0.699,0.982-0.876,1.726C185.105,24.463,184.998,25.188,184.998,26.002z
	 M190.414,41.718c0-1.062-0.106-1.982-0.319-2.761c-0.177-0.778-0.469-1.389-0.875-1.832c-0.408-0.443-0.911-0.664-1.514-0.664
	c-0.636,0-1.167,0.231-1.592,0.69c-0.425,0.461-0.708,1.098-0.85,1.911c-0.177,0.815-0.266,1.664-0.266,2.549
	c0,0.992,0.071,1.841,0.212,2.549c0.141,0.85,0.425,1.523,0.85,2.018c0.425,0.496,0.974,0.743,1.646,0.743s1.231-0.256,1.673-0.77
	c0.443-0.513,0.717-1.213,0.823-2.097C190.343,43.134,190.414,42.356,190.414,41.718z"/>
<path class="st1" d="M208.804,30.333c-0.048-0.048-0.07-0.106-0.07-0.174V16.29c0-0.068,0.023-0.126,0.07-0.174
	c0.047-0.048,0.103-0.072,0.17-0.072h3.63c1.216,0,2.193,0.362,2.928,1.087c0.735,0.725,1.103,1.689,1.103,2.893v6.401
	c0,1.204-0.368,2.168-1.103,2.892c-0.735,0.726-1.712,1.087-2.928,1.087h-3.63C208.907,30.405,208.851,30.382,208.804,30.333z
	 M211.662,27.923l0.903-0.02c0.361-0.014,0.654-0.171,0.882-0.473c0.226-0.301,0.348-0.697,0.361-1.19v-6.032
	c0-0.519-0.114-0.93-0.34-1.231c-0.227-0.301-0.536-0.451-0.923-0.451h-0.882c-0.067,0-0.1,0.034-0.1,0.103v9.19
	C211.562,27.89,211.595,27.923,211.662,27.923z"/>
<path class="st1" d="M223.516,30.18l-0.321-1.97c0-0.068-0.04-0.103-0.12-0.103h-2.547c-0.081,0-0.121,0.035-0.121,0.103
	l-0.321,1.97c-0.014,0.15-0.1,0.226-0.261,0.226h-2.347c-0.174,0-0.241-0.089-0.201-0.267l2.948-13.87
	c0.027-0.15,0.114-0.226,0.261-0.226h2.708c0.147,0,0.234,0.075,0.261,0.226l2.928,13.87l0.019,0.082
	c0,0.123-0.074,0.185-0.221,0.185h-2.407C223.616,30.405,223.529,30.33,223.516,30.18z M220.888,25.871h1.805
	c0.067,0,0.093-0.034,0.08-0.103l-0.943-5.601c-0.013-0.041-0.033-0.062-0.06-0.062c-0.027,0-0.047,0.021-0.059,0.062l-0.903,5.601
	C220.809,25.837,220.835,25.871,220.888,25.871z"/>
<path class="st1" d="M228.941,30.313c-0.048-0.048-0.07-0.105-0.07-0.174v-5.334l-0.02-0.123l-2.807-8.35
	c-0.014-0.027-0.02-0.062-0.02-0.103c0-0.123,0.074-0.185,0.221-0.185h2.467c0.147,0,0.241,0.068,0.281,0.205l1.244,4.903
	c0.013,0.041,0.033,0.062,0.06,0.062c0.026,0,0.047-0.021,0.059-0.062l1.244-4.903c0.04-0.137,0.134-0.205,0.281-0.205h2.467
	c0.08,0,0.14,0.024,0.181,0.072s0.048,0.12,0.02,0.215l-2.828,8.35l-0.02,0.123v5.334c0,0.068-0.023,0.126-0.07,0.174
	c-0.048,0.049-0.104,0.072-0.17,0.072h-2.347C229.045,30.385,228.988,30.361,228.941,30.313z"/>
<path class="st1" d="M236.955,30.098c-0.589-0.314-1.043-0.756-1.365-1.323c-0.321-0.567-0.481-1.221-0.481-1.959V26.22
	c0-0.068,0.023-0.127,0.07-0.174c0.047-0.048,0.103-0.072,0.17-0.072h2.307c0.066,0,0.123,0.024,0.17,0.072
	c0.047,0.048,0.07,0.106,0.07,0.174v0.451c0,0.424,0.107,0.766,0.321,1.026c0.214,0.26,0.481,0.39,0.802,0.39
	s0.588-0.124,0.802-0.369c0.214-0.246,0.321-0.568,0.321-0.964c0-0.41-0.134-0.763-0.4-1.057c-0.267-0.294-0.789-0.728-1.564-1.303
	c-0.669-0.492-1.21-0.93-1.625-1.313s-0.769-0.855-1.063-1.416c-0.294-0.561-0.44-1.21-0.44-1.949c0-1.163,0.354-2.093,1.062-2.79
	c0.71-0.698,1.645-1.046,2.808-1.046c1.177,0,2.123,0.362,2.838,1.087c0.715,0.726,1.073,1.675,1.073,2.852v0.492
	c0,0.069-0.023,0.127-0.07,0.174s-0.104,0.072-0.17,0.072h-2.307c-0.067,0-0.124-0.024-0.17-0.072s-0.07-0.106-0.07-0.174v-0.554
	c0-0.424-0.104-0.763-0.311-1.016c-0.207-0.253-0.478-0.38-0.812-0.38c-0.321,0-0.582,0.12-0.782,0.359s-0.301,0.571-0.301,0.995
	c0,0.41,0.126,0.773,0.381,1.087c0.254,0.315,0.755,0.752,1.504,1.313c0.829,0.629,1.454,1.139,1.875,1.528s0.749,0.821,0.983,1.293
	s0.351,1.036,0.351,1.693c0,1.204-0.361,2.161-1.083,2.872c-0.722,0.711-1.671,1.067-2.848,1.067
	C238.224,30.569,237.542,30.412,236.955,30.098z"/>
<path class="st1" d="M249.208,29.462c-0.736-0.739-1.103-1.724-1.103-2.955v-6.565c0-1.231,0.367-2.216,1.103-2.954
	c0.735-0.739,1.718-1.108,2.947-1.108s2.216,0.369,2.958,1.108c0.742,0.739,1.113,1.723,1.113,2.954v6.565
	c0,1.231-0.371,2.216-1.113,2.955c-0.742,0.738-1.728,1.108-2.958,1.108S249.943,30.2,249.208,29.462z M253.058,27.687
	c0.227-0.267,0.341-0.619,0.341-1.057v-6.811c0-0.438-0.114-0.79-0.341-1.057c-0.227-0.267-0.528-0.4-0.903-0.4
	s-0.672,0.133-0.892,0.4c-0.221,0.267-0.331,0.619-0.331,1.057v6.811c0,0.439,0.11,0.79,0.331,1.057
	c0.221,0.267,0.517,0.4,0.892,0.4S252.831,27.954,253.058,27.687z"/>
<path class="st1" d="M265.063,18.455c-0.048,0.048-0.104,0.072-0.171,0.072h-4.172c-0.067,0-0.1,0.034-0.1,0.103v3.242
	c0,0.068,0.033,0.103,0.1,0.103h2.387c0.067,0,0.123,0.024,0.171,0.072c0.047,0.048,0.07,0.106,0.07,0.174v1.99
	c0,0.068-0.023,0.127-0.07,0.174c-0.048,0.048-0.104,0.072-0.171,0.072h-2.387c-0.067,0-0.1,0.034-0.1,0.103v5.601
	c0,0.068-0.023,0.127-0.07,0.174c-0.047,0.049-0.104,0.072-0.17,0.072h-2.347c-0.067,0-0.124-0.023-0.17-0.072
	c-0.047-0.048-0.07-0.106-0.07-0.174V16.29c0-0.068,0.023-0.126,0.07-0.174c0.047-0.049,0.104-0.072,0.17-0.072h6.859
	c0.067,0,0.123,0.024,0.17,0.072c0.047,0.048,0.07,0.106,0.07,0.174v1.99C265.133,18.349,265.109,18.407,265.063,18.455z"/>
<path class="st1" d="M216.686,37.487c0.047,0.048,0.07,0.106,0.07,0.174v1.99c0,0.068-0.023,0.126-0.07,0.174
	c-0.048,0.049-0.104,0.072-0.17,0.072h-2.507c-0.067,0-0.1,0.035-0.1,0.103v11.53c0,0.068-0.023,0.127-0.07,0.174
	c-0.047,0.049-0.104,0.072-0.17,0.072h-2.347c-0.067,0-0.124-0.023-0.17-0.072c-0.048-0.048-0.07-0.106-0.07-0.174V40
	c0-0.068-0.033-0.103-0.1-0.103h-2.407c-0.067,0-0.124-0.023-0.17-0.072c-0.048-0.048-0.07-0.105-0.07-0.174v-1.99
	c0-0.068,0.023-0.127,0.07-0.174c0.047-0.048,0.104-0.072,0.17-0.072h7.942C216.583,37.415,216.639,37.44,216.686,37.487z"/>
<path class="st1" d="M223.224,37.487c0.047-0.048,0.104-0.072,0.17-0.072h2.347c0.067,0,0.124,0.024,0.17,0.072
	c0.048,0.048,0.07,0.106,0.07,0.174V51.53c0,0.068-0.023,0.127-0.07,0.174c-0.047,0.049-0.104,0.072-0.17,0.072h-2.347
	c-0.067,0-0.124-0.023-0.17-0.072c-0.047-0.048-0.07-0.106-0.07-0.174v-5.601c0-0.068-0.033-0.103-0.1-0.103h-2.005
	c-0.067,0-0.1,0.034-0.1,0.103v5.601c0,0.068-0.023,0.127-0.07,0.174c-0.048,0.049-0.104,0.072-0.17,0.072h-2.347
	c-0.068,0-0.124-0.023-0.17-0.072c-0.048-0.048-0.07-0.106-0.07-0.174V37.661c0-0.068,0.023-0.127,0.07-0.174
	c0.047-0.048,0.103-0.072,0.17-0.072h2.347c0.067,0,0.123,0.024,0.17,0.072c0.047,0.048,0.07,0.106,0.07,0.174v5.58
	c0,0.069,0.033,0.103,0.1,0.103h2.005c0.067,0,0.1-0.033,0.1-0.103v-5.58C223.154,37.593,223.178,37.535,223.224,37.487z"/>
<path class="st1" d="M234.978,39.826c-0.048,0.049-0.104,0.072-0.17,0.072h-4.192c-0.067,0-0.1,0.035-0.1,0.103v3.242
	c0,0.069,0.033,0.103,0.1,0.103h2.407c0.067,0,0.123,0.024,0.17,0.072c0.047,0.049,0.07,0.106,0.07,0.174v1.99
	c0,0.068-0.023,0.127-0.07,0.174c-0.048,0.049-0.104,0.072-0.17,0.072h-2.407c-0.067,0-0.1,0.034-0.1,0.103v3.261
	c0,0.069,0.033,0.103,0.1,0.103h4.192c0.067,0,0.123,0.024,0.17,0.072c0.047,0.049,0.07,0.106,0.07,0.174v1.99
	c0,0.068-0.023,0.127-0.07,0.174c-0.048,0.049-0.104,0.072-0.17,0.072h-6.879c-0.068,0-0.124-0.023-0.171-0.072
	c-0.048-0.048-0.07-0.106-0.07-0.174V37.661c0-0.068,0.023-0.127,0.07-0.174c0.047-0.048,0.103-0.072,0.171-0.072h6.879
	c0.067,0,0.123,0.024,0.17,0.072c0.047,0.048,0.07,0.106,0.07,0.174v1.99C235.048,39.72,235.024,39.778,234.978,39.826z"/>
<path class="st1" d="M243,51.684c-0.048-0.048-0.07-0.105-0.07-0.174v-5.334l-0.02-0.124l-2.807-8.35
	c-0.014-0.027-0.02-0.062-0.02-0.103c0-0.123,0.074-0.185,0.221-0.185h2.467c0.147,0,0.241,0.068,0.281,0.205l1.244,4.902
	c0.013,0.041,0.033,0.062,0.06,0.062c0.026,0,0.047-0.021,0.059-0.062l1.244-4.902c0.04-0.137,0.134-0.205,0.281-0.205h2.467
	c0.08,0,0.14,0.024,0.181,0.072c0.04,0.048,0.048,0.12,0.02,0.215l-2.828,8.35l-0.02,0.124v5.334c0,0.068-0.023,0.126-0.07,0.174
	c-0.048,0.049-0.104,0.072-0.17,0.072h-2.347C243.104,51.756,243.047,51.732,243,51.684z"/>
<path class="st1" d="M257.121,39.826c-0.048,0.049-0.104,0.072-0.17,0.072h-4.192c-0.067,0-0.1,0.035-0.1,0.103v3.242
	c0,0.069,0.033,0.103,0.1,0.103h2.407c0.067,0,0.123,0.024,0.17,0.072c0.047,0.049,0.07,0.106,0.07,0.174v1.99
	c0,0.068-0.023,0.127-0.07,0.174c-0.048,0.049-0.104,0.072-0.17,0.072h-2.407c-0.067,0-0.1,0.034-0.1,0.103v3.261
	c0,0.069,0.033,0.103,0.1,0.103h4.192c0.067,0,0.123,0.024,0.17,0.072c0.047,0.049,0.07,0.106,0.07,0.174v1.99
	c0,0.068-0.023,0.127-0.07,0.174c-0.048,0.049-0.104,0.072-0.17,0.072h-6.879c-0.068,0-0.124-0.023-0.17-0.072
	c-0.048-0.048-0.07-0.106-0.07-0.174V37.661c0-0.068,0.023-0.127,0.07-0.174c0.047-0.048,0.103-0.072,0.17-0.072h6.879
	c0.067,0,0.123,0.024,0.17,0.072c0.047,0.048,0.07,0.106,0.07,0.174v1.99C257.191,39.72,257.167,39.778,257.121,39.826z"/>
<path class="st1" d="M264.571,51.551l-0.321-1.97c0-0.068-0.04-0.103-0.12-0.103h-2.547c-0.081,0-0.121,0.035-0.121,0.103
	l-0.321,1.97c-0.014,0.15-0.1,0.226-0.261,0.226h-2.347c-0.174,0-0.241-0.089-0.201-0.267l2.948-13.87
	c0.027-0.15,0.114-0.226,0.261-0.226h2.708c0.147,0,0.234,0.075,0.261,0.226l2.928,13.87l0.019,0.082
	c0,0.123-0.074,0.185-0.221,0.185h-2.407C264.671,51.776,264.584,51.701,264.571,51.551z M261.943,47.242h1.805
	c0.067,0,0.093-0.034,0.08-0.103l-0.943-5.601c-0.013-0.042-0.033-0.062-0.06-0.062s-0.047,0.02-0.059,0.062l-0.903,5.601
	C261.864,47.208,261.89,47.242,261.943,47.242z"/>
<path class="st1" d="M273.856,51.571l-1.544-5.662c-0.027-0.054-0.06-0.082-0.1-0.082h-0.682c-0.067,0-0.099,0.034-0.099,0.103
	v5.601c0,0.068-0.023,0.127-0.07,0.174c-0.048,0.049-0.104,0.072-0.171,0.072h-2.347c-0.068,0-0.124-0.023-0.171-0.072
	c-0.048-0.048-0.07-0.106-0.07-0.174V37.661c0-0.068,0.023-0.127,0.07-0.174c0.047-0.048,0.103-0.072,0.171-0.072h4.051
	c0.735,0,1.39,0.181,1.966,0.544c0.575,0.362,1.02,0.873,1.334,1.528c0.314,0.656,0.471,1.409,0.471,2.257
	c0,0.807-0.15,1.518-0.451,2.134c-0.301,0.616-0.719,1.094-1.254,1.437c-0.027,0.014-0.048,0.03-0.06,0.051
	c-0.013,0.021-0.013,0.044,0,0.072l1.845,6.052l0.02,0.082c0,0.137-0.074,0.205-0.221,0.205h-2.407
	C273.99,51.776,273.896,51.708,273.856,51.571z M271.43,40v3.508c0,0.068,0.033,0.103,0.099,0.103h0.903
	c0.415,0,0.752-0.168,1.013-0.503c0.261-0.336,0.392-0.783,0.392-1.344c0-0.574-0.13-1.029-0.392-1.364
	c-0.261-0.336-0.598-0.503-1.013-0.503h-0.903C271.463,39.897,271.43,39.932,271.43,40z"/>
<path class="st1" d="M28.982,82.68c0-2.847,1.802-4.613,3.802-4.613c1.009,0,1.675,0.378,2.451,1.009l-0.072-1.495v-3.37h1.495
	v12.83h-1.225l-0.126-1.028h-0.054c-0.685,0.667-1.622,1.244-2.649,1.244C30.405,87.257,28.982,85.599,28.982,82.68z M35.162,84.807
	V80.23c-0.739-0.667-1.406-0.901-2.127-0.901c-1.387,0-2.504,1.333-2.504,3.333c0,2.09,0.865,3.334,2.397,3.334
	C33.739,85.996,34.442,85.599,35.162,84.807z"/>
<path class="st1" d="M38.963,82.662c0-2.846,1.928-4.595,3.928-4.595c2.234,0,3.514,1.585,3.514,4.108
	c0,0.324-0.018,0.595-0.072,0.883H40.44c0.126,1.802,1.225,2.991,2.883,2.991c0.847,0,1.585-0.234,2.198-0.649l0.522,0.956
	c-0.757,0.54-1.693,0.901-2.901,0.901C40.8,87.257,38.963,85.563,38.963,82.662z M45.071,81.905c0-1.73-0.811-2.648-2.144-2.648
	c-1.225,0-2.307,0.973-2.487,2.648H45.071z"/>
<path class="st1" d="M48.546,78.283h1.225l0.126,1.009h0.054c0.793-0.667,1.784-1.225,2.793-1.225c2.252,0,3.478,1.748,3.478,4.469
	c0,2.973-1.802,4.721-3.802,4.721c-0.793,0-1.621-0.378-2.415-1.009l0.036,1.531v2.955h-1.496L48.546,78.283L48.546,78.283z
	 M54.673,82.536c0-1.929-0.667-3.208-2.307-3.208c-0.739,0-1.478,0.395-2.325,1.189v4.577c0.793,0.667,1.549,0.901,2.126,0.901
	C53.611,85.996,54.673,84.699,54.673,82.536z"/>
<path class="st1" d="M57.897,82.662c0-2.846,1.928-4.595,3.928-4.595c2.234,0,3.514,1.585,3.514,4.108
	c0,0.324-0.018,0.595-0.072,0.883h-5.893c0.126,1.802,1.225,2.991,2.883,2.991c0.847,0,1.585-0.234,2.198-0.649l0.522,0.956
	c-0.757,0.54-1.693,0.901-2.901,0.901C59.735,87.257,57.897,85.563,57.897,82.662z M64.006,81.905c0-1.73-0.811-2.648-2.144-2.648
	c-1.225,0-2.307,0.973-2.487,2.648H64.006z"/>
<path class="st1" d="M67.481,78.283h1.225l0.126,1.261h0.054c0.829-0.83,1.73-1.478,2.937-1.478c1.857,0,2.684,1.189,2.684,3.424
	v5.55h-1.495v-5.351c0-1.639-0.504-2.324-1.657-2.324c-0.883,0-1.514,0.45-2.379,1.332v6.343H67.48L67.481,78.283L67.481,78.283z"/>
<path class="st1" d="M76.705,82.68c0-2.847,1.802-4.613,3.802-4.613c1.009,0,1.675,0.378,2.451,1.009l-0.072-1.495v-3.37h1.495
	v12.83h-1.225l-0.126-1.028h-0.054c-0.685,0.667-1.622,1.244-2.649,1.244C78.128,87.257,76.705,85.599,76.705,82.68z M82.885,84.807
	V80.23c-0.739-0.667-1.406-0.901-2.126-0.901c-1.388,0-2.505,1.333-2.505,3.333c0,2.09,0.865,3.334,2.397,3.334
	C81.462,85.996,82.164,85.599,82.885,84.807z"/>
<path class="st1" d="M87.1,75.508c0-0.576,0.414-0.973,0.991-0.973s0.991,0.396,0.991,0.973c0,0.595-0.414,0.973-0.991,0.973
	S87.1,76.103,87.1,75.508z M87.334,78.283h1.496v8.757h-1.496V78.283z"/>
<path class="st1" d="M91.784,78.283h1.225l0.126,1.261h0.054c0.829-0.83,1.729-1.478,2.937-1.478c1.857,0,2.685,1.189,2.685,3.424
	v5.55h-1.496v-5.351c0-1.639-0.504-2.324-1.657-2.324c-0.883,0-1.514,0.45-2.379,1.332v6.343h-1.496L91.784,78.283L91.784,78.283z"
	/>
<path class="st1" d="M100.971,88.717c0-0.739,0.486-1.442,1.279-1.982v-0.072c-0.431-0.27-0.775-0.739-0.775-1.423
	c0-0.739,0.505-1.316,0.956-1.622v-0.072c-0.576-0.469-1.135-1.315-1.135-2.36c0-1.911,1.513-3.118,3.297-3.118
	c0.486,0,0.92,0.09,1.244,0.216h3.045v1.153h-1.784c0.415,0.395,0.703,1.045,0.703,1.784c0,1.874-1.423,3.045-3.208,3.045
	c-0.431,0-0.901-0.107-1.297-0.306c-0.323,0.27-0.558,0.558-0.558,1.045c0,0.541,0.36,0.937,1.531,0.937h1.694
	c2.037,0,3.063,0.649,3.063,2.091c0,1.639-1.711,3.046-4.433,3.046C102.449,91.078,100.971,90.23,100.971,88.717z M107.567,88.267
	c0-0.811-0.613-1.081-1.766-1.081h-1.496c-0.342,0-0.757-0.036-1.135-0.144c-0.631,0.45-0.901,0.973-0.901,1.478
	c0,0.937,0.955,1.513,2.54,1.513C106.468,90.031,107.567,89.167,107.567,88.267z M106.45,81.185c0-1.261-0.829-2.037-1.857-2.037
	c-1.027,0-1.857,0.757-1.857,2.037c0,1.279,0.847,2.072,1.857,2.072S106.45,82.464,106.45,81.185z"/>
<path class="st1" d="M113.69,82.68c0-2.937,1.911-4.613,4.054-4.613c2.145,0,4.072,1.675,4.072,4.613
	c0,2.901-1.929,4.577-4.072,4.577C115.601,87.257,113.69,85.581,113.69,82.68z M120.267,82.68c0-2.018-1.009-3.37-2.523-3.37
	c-1.495,0-2.504,1.352-2.504,3.37c0,2.001,1.009,3.333,2.504,3.333C119.258,86.014,120.267,84.681,120.267,82.68z"/>
<path class="st1" d="M124.103,78.283h1.225l0.126,1.261h0.054c0.83-0.83,1.73-1.478,2.937-1.478c1.857,0,2.685,1.189,2.685,3.424
	v5.55h-1.496v-5.351c0-1.639-0.504-2.324-1.657-2.324c-0.883,0-1.514,0.45-2.379,1.332v6.343h-1.495V78.283z"/>
<path class="st1" d="M136.93,82.68c0-2.847,1.802-4.613,3.802-4.613c1.009,0,1.675,0.378,2.451,1.009l-0.072-1.495v-3.37h1.495
	v12.83h-1.225l-0.126-1.028h-0.055c-0.685,0.667-1.621,1.244-2.648,1.244C138.354,87.257,136.93,85.599,136.93,82.68z
	 M143.112,84.807V80.23c-0.739-0.667-1.406-0.901-2.126-0.901c-1.388,0-2.505,1.333-2.505,3.333c0,2.09,0.866,3.334,2.397,3.334
	C141.688,85.996,142.391,85.599,143.112,84.807z"/>
<path class="st1" d="M147.325,75.508c0-0.576,0.415-0.973,0.992-0.973c0.577,0,0.992,0.396,0.992,0.973
	c0,0.595-0.414,0.973-0.992,0.973C147.74,76.482,147.325,76.103,147.325,75.508z M147.56,78.283h1.495v8.757h-1.495V78.283z"/>
<path class="st1" d="M151.038,85.996l0.685-0.865c0.757,0.631,1.55,0.955,2.631,0.955c1.153,0,1.711-0.595,1.711-1.351
	c0-0.901-0.973-1.279-1.965-1.639c-1.315-0.469-2.576-1.1-2.576-2.54c0-1.406,1.117-2.487,3.027-2.487
	c1.1,0,2.037,0.414,2.721,0.991l-0.685,0.866c-0.613-0.45-1.244-0.703-2.018-0.703c-1.118,0-1.604,0.613-1.604,1.261
	c0,0.793,0.758,1.117,1.857,1.495c1.37,0.486,2.684,1.081,2.684,2.667c0,1.423-1.135,2.612-3.208,2.612
	C153.019,87.257,151.847,86.788,151.038,85.996z"/>
<path class="st1" d="M158.91,82.662c0-2.846,1.929-4.595,3.928-4.595c2.234,0,3.513,1.585,3.513,4.108
	c0,0.324-0.018,0.595-0.072,0.883h-5.892c0.126,1.802,1.225,2.991,2.883,2.991c0.846,0,1.585-0.234,2.198-0.649l0.522,0.956
	c-0.758,0.54-1.694,0.901-2.901,0.901C160.748,87.257,158.91,85.563,158.91,82.662z M165.018,81.905c0-1.73-0.81-2.648-2.144-2.648
	c-1.225,0-2.307,0.973-2.487,2.648H165.018z"/>
<path class="st1" d="M167.701,84.771c0-1.946,1.622-2.883,5.37-3.298c-0.019-1.099-0.379-2.162-1.802-2.162
	c-1.009,0-1.929,0.45-2.612,0.901l-0.577-1.009c0.811-0.54,2.037-1.135,3.442-1.135c2.126,0,3.046,1.423,3.046,3.585v5.388h-1.225
	l-0.144-1.045h-0.055c-0.829,0.703-1.783,1.261-2.883,1.261C168.8,87.257,167.701,86.356,167.701,84.771z M173.071,84.915v-2.379
	c-2.955,0.342-3.911,1.009-3.911,2.145c0,0.973,0.667,1.351,1.514,1.351C171.521,86.032,172.224,85.653,173.071,84.915z"/>
<path class="st1" d="M176.349,85.996l0.685-0.865c0.757,0.631,1.55,0.955,2.631,0.955c1.153,0,1.711-0.595,1.711-1.351
	c0-0.901-0.973-1.279-1.965-1.639c-1.315-0.469-2.576-1.1-2.576-2.54c0-1.406,1.117-2.487,3.027-2.487
	c1.1,0,2.037,0.414,2.721,0.991l-0.685,0.866c-0.613-0.45-1.244-0.703-2.018-0.703c-1.118,0-1.604,0.613-1.604,1.261
	c0,0.793,0.758,1.117,1.857,1.495c1.37,0.486,2.684,1.081,2.684,2.667c0,1.423-1.135,2.612-3.208,2.612
	C178.33,87.257,177.159,86.788,176.349,85.996z"/>
<path class="st1" d="M184.221,82.662c0-2.846,1.929-4.595,3.928-4.595c2.234,0,3.513,1.585,3.513,4.108
	c0,0.324-0.018,0.595-0.072,0.883h-5.892c0.126,1.802,1.225,2.991,2.883,2.991c0.846,0,1.585-0.234,2.198-0.649l0.522,0.956
	c-0.758,0.54-1.694,0.901-2.901,0.901C186.059,87.257,184.221,85.563,184.221,82.662z M190.33,81.905c0-1.73-0.81-2.648-2.144-2.648
	c-1.225,0-2.307,0.973-2.487,2.648H190.33z"/>
<path class="st1" d="M196.435,85.996l0.685-0.865c0.757,0.631,1.55,0.955,2.631,0.955c1.153,0,1.711-0.595,1.711-1.351
	c0-0.901-0.973-1.279-1.965-1.639c-1.315-0.469-2.576-1.1-2.576-2.54c0-1.406,1.117-2.487,3.027-2.487
	c1.1,0,2.037,0.414,2.721,0.991l-0.685,0.866c-0.613-0.45-1.244-0.703-2.018-0.703c-1.118,0-1.604,0.613-1.604,1.261
	c0,0.793,0.758,1.117,1.857,1.495c1.37,0.486,2.684,1.081,2.684,2.667c0,1.423-1.135,2.612-3.208,2.612
	C198.417,87.257,197.245,86.788,196.435,85.996z"/>
<path class="st1" d="M204.307,82.662c0-2.846,1.929-4.595,3.928-4.595c2.234,0,3.513,1.585,3.513,4.108
	c0,0.324-0.018,0.595-0.072,0.883h-5.892c0.126,1.802,1.225,2.991,2.883,2.991c0.846,0,1.585-0.234,2.198-0.649l0.522,0.956
	c-0.758,0.54-1.694,0.901-2.901,0.901C206.146,87.257,204.307,85.563,204.307,82.662z M210.416,81.905
	c0-1.73-0.81-2.648-2.144-2.648c-1.225,0-2.307,0.973-2.487,2.648H210.416z"/>
<path class="st1" d="M212.721,78.283h1.549l1.64,4.955c0.27,0.865,0.54,1.748,0.81,2.595h0.072c0.252-0.847,0.541-1.73,0.811-2.595
	l1.639-4.955h1.478l-3.099,8.757h-1.748L212.721,78.283z"/>
<path class="st1" d="M221.692,82.662c0-2.846,1.929-4.595,3.928-4.595c2.234,0,3.513,1.585,3.513,4.108
	c0,0.324-0.018,0.595-0.072,0.883h-5.892c0.126,1.802,1.225,2.991,2.883,2.991c0.847,0,1.586-0.234,2.199-0.649l0.522,0.956
	c-0.758,0.54-1.694,0.901-2.901,0.901C223.531,87.257,221.692,85.563,221.692,82.662z M227.801,81.905
	c0-1.73-0.81-2.648-2.144-2.648c-1.225,0-2.307,0.973-2.487,2.648H227.801z"/>
<path class="st1" d="M231.278,78.283h1.225l0.126,1.585h0.054c0.613-1.099,1.514-1.802,2.487-1.802c0.396,0,0.667,0.054,0.938,0.18
	l-0.324,1.279c-0.252-0.072-0.45-0.108-0.794-0.108c-0.738,0-1.621,0.522-2.216,2.001v5.622h-1.495L231.278,78.283L231.278,78.283z"
	/>
<path class="st1" d="M237.311,75.508c0-0.576,0.415-0.973,0.992-0.973c0.577,0,0.992,0.396,0.992,0.973
	c0,0.595-0.414,0.973-0.992,0.973C237.726,76.482,237.311,76.103,237.311,75.508z M237.546,78.283h1.495v8.757h-1.495V78.283z"/>
<path class="st1" d="M242.247,84.32v-4.829h-1.296v-1.117l1.369-0.09l0.18-2.811h1.244v2.811h2.379v1.207h-2.379v4.865
	c0,1.063,0.359,1.675,1.351,1.675c0.324,0,0.649-0.055,1.009-0.216l0.306,1.064c-0.468,0.215-1.063,0.378-1.657,0.378
	C242.879,87.257,242.247,86.068,242.247,84.32z"/>
<path class="st1" d="M247.22,90.627l0.324-1.171c0.216,0.072,0.431,0.108,0.649,0.108c0.973,0,1.603-0.775,1.965-1.857l0.198-0.649
	l-3.513-8.775h1.549l1.766,4.828c0.288,0.758,0.577,1.658,0.865,2.469h0.072c0.234-0.794,0.486-1.694,0.722-2.469l1.567-4.828h1.459
	l-3.298,9.477c-0.613,1.73-1.531,3.046-3.28,3.046C247.85,90.807,247.508,90.735,247.22,90.627z"/>
<path class="st1" d="M258.249,79.193h-3.014v-0.578l2.867-4.273h0.966v4.158h0.914v0.694h-0.914v1.848h-0.819V79.193z M258.249,78.5
	v-1.942c0-0.347,0.032-0.924,0.053-1.282h-0.042c-0.168,0.315-0.357,0.61-0.546,0.946l-1.565,2.278
	C256.149,78.5,258.249,78.5,258.249,78.5z"/>
</svg>
