<?xml version="1.0" encoding="utf-8"?>
<!-- Generator: Adobe Illustrator 27.0.1, SVG Export Plug-In . SVG Version: 6.00 Build 0)  -->
<svg version="1.1" id="Layer_1" xmlns="http://www.w3.org/2000/svg" xmlns:xlink="http://www.w3.org/1999/xlink" x="0px" y="0px"
	 width="132px" height="80px" viewBox="0 0 132 80" style="enable-background:new 0 0 132 80;" xml:space="preserve">
<style type="text/css">
	.st0{fill:#FFFFFF;}
</style>
<path class="st0" d="M10.263,72.795c-0.807-0.792-1.21-1.849-1.21-3.168v-7.04c0-1.32,0.403-2.376,1.21-3.168
	s1.884-1.188,3.234-1.188c1.349,0,2.431,0.396,3.245,1.188s1.221,1.848,1.221,3.168v7.04c0,1.319-0.407,2.376-1.221,3.168
	s-1.896,1.188-3.245,1.188C12.147,73.982,11.07,73.587,10.263,72.795z M14.487,70.892c0.249-0.286,0.374-0.663,0.374-1.133v-7.304
	c0-0.47-0.125-0.848-0.374-1.134c-0.25-0.286-0.58-0.429-0.99-0.429s-0.737,0.143-0.979,0.429c-0.242,0.286-0.363,0.664-0.363,1.134
	v7.304c0,0.47,0.121,0.847,0.363,1.133c0.242,0.286,0.568,0.429,0.979,0.429S14.238,71.178,14.487,70.892z"/>
<path class="st0" d="M28.292,60.991c-0.051,0.052-0.114,0.077-0.187,0.077h-4.576c-0.074,0-0.11,0.037-0.11,0.11v3.476
	c0,0.074,0.037,0.11,0.11,0.11h2.618c0.073,0,0.136,0.025,0.187,0.077s0.077,0.113,0.077,0.187v2.135
	c0,0.073-0.026,0.136-0.077,0.187c-0.051,0.052-0.114,0.077-0.187,0.077h-2.618c-0.074,0-0.11,0.037-0.11,0.11v6.006
	c0,0.073-0.025,0.136-0.077,0.187c-0.052,0.052-0.114,0.077-0.187,0.077h-2.574c-0.074,0-0.136-0.025-0.187-0.077
	c-0.051-0.051-0.077-0.113-0.077-0.187V58.671c0-0.073,0.026-0.136,0.077-0.188c0.051-0.051,0.113-0.077,0.187-0.077h7.524
	c0.073,0,0.136,0.026,0.187,0.077c0.051,0.052,0.077,0.114,0.077,0.188v2.134C28.369,60.878,28.343,60.94,28.292,60.991z"/>
<path class="st0" d="M35.332,73.729c-0.051-0.051-0.077-0.113-0.077-0.187V58.671c0-0.073,0.026-0.136,0.077-0.188
	c0.051-0.051,0.113-0.077,0.187-0.077H39.5c1.334,0,2.405,0.39,3.212,1.166c0.807,0.778,1.21,1.812,1.21,3.103v6.864
	c0,1.29-0.404,2.324-1.21,3.102s-1.877,1.166-3.212,1.166h-3.982C35.445,73.807,35.383,73.781,35.332,73.729z M38.467,71.145
	l0.99-0.021c0.396-0.015,0.719-0.184,0.968-0.507c0.249-0.322,0.381-0.748,0.396-1.275v-6.468c0-0.558-0.125-0.998-0.374-1.32
	c-0.25-0.322-0.587-0.484-1.012-0.484h-0.968c-0.074,0-0.11,0.037-0.11,0.11v9.855C38.356,71.108,38.393,71.145,38.467,71.145z"/>
<path class="st0" d="M54.296,60.991c-0.051,0.052-0.114,0.077-0.187,0.077h-4.598c-0.074,0-0.11,0.037-0.11,0.11v3.476
	c0,0.074,0.037,0.11,0.11,0.11h2.64c0.073,0,0.136,0.025,0.187,0.077s0.077,0.113,0.077,0.187v2.135
	c0,0.073-0.026,0.136-0.077,0.187c-0.051,0.052-0.114,0.077-0.187,0.077h-2.64c-0.074,0-0.11,0.037-0.11,0.11v3.497
	c0,0.074,0.037,0.11,0.11,0.11h4.598c0.073,0,0.136,0.026,0.187,0.077c0.051,0.052,0.077,0.113,0.077,0.187v2.135
	c0,0.073-0.026,0.136-0.077,0.187c-0.051,0.052-0.114,0.077-0.187,0.077h-7.546c-0.074,0-0.136-0.025-0.187-0.077
	c-0.051-0.051-0.077-0.113-0.077-0.187V58.671c0-0.073,0.026-0.136,0.077-0.188c0.051-0.051,0.113-0.077,0.187-0.077h7.546
	c0.073,0,0.136,0.026,0.187,0.077c0.051,0.052,0.077,0.114,0.077,0.188v2.134C54.373,60.878,54.347,60.94,54.296,60.991z"/>
<path class="st0" d="M56.649,73.729c-0.051-0.051-0.077-0.113-0.077-0.187V58.671c0-0.073,0.026-0.136,0.077-0.188
	c0.051-0.051,0.113-0.077,0.187-0.077h3.982c1.334,0,2.405,0.39,3.212,1.166c0.807,0.778,1.21,1.812,1.21,3.103v6.864
	c0,1.29-0.404,2.324-1.21,3.102s-1.877,1.166-3.212,1.166h-3.982C56.763,73.807,56.701,73.781,56.649,73.729z M59.785,71.145
	l0.99-0.021c0.396-0.015,0.719-0.184,0.968-0.507c0.249-0.322,0.381-0.748,0.396-1.275v-6.468c0-0.558-0.125-0.998-0.374-1.32
	c-0.25-0.322-0.587-0.484-1.012-0.484h-0.968c-0.074,0-0.11,0.037-0.11,0.11v9.855C59.674,71.108,59.711,71.145,59.785,71.145z"/>
<path class="st0" d="M73.699,72.806c-0.8-0.784-1.199-1.837-1.199-3.157v-7.128c0-1.305,0.399-2.347,1.199-3.124
	c0.799-0.777,1.859-1.166,3.179-1.166c1.335,0,2.401,0.389,3.201,1.166c0.799,0.777,1.199,1.819,1.199,3.124v0.242
	c0,0.073-0.026,0.136-0.077,0.187c-0.052,0.052-0.113,0.077-0.187,0.077l-2.574,0.11c-0.176,0-0.265-0.08-0.265-0.242v-0.572
	c0-0.425-0.117-0.77-0.352-1.033c-0.234-0.265-0.55-0.396-0.946-0.396c-0.381,0-0.689,0.132-0.924,0.396
	c-0.234,0.264-0.352,0.608-0.352,1.033v7.591c0,0.425,0.117,0.767,0.352,1.022c0.234,0.257,0.543,0.385,0.924,0.385
	c0.396,0,0.712-0.128,0.946-0.385c0.234-0.256,0.352-0.598,0.352-1.022v-0.595c0-0.073,0.025-0.135,0.077-0.187
	s0.113-0.077,0.188-0.077l2.574,0.11c0.073,0,0.135,0.025,0.187,0.076c0.051,0.052,0.077,0.114,0.077,0.188v0.22
	c0,1.32-0.403,2.373-1.21,3.157c-0.807,0.785-1.87,1.177-3.19,1.177C75.559,73.982,74.498,73.591,73.699,72.806z"/>
<path class="st0" d="M89.528,73.564l-0.353-2.111c0-0.073-0.044-0.11-0.132-0.11H86.25c-0.088,0-0.132,0.037-0.132,0.11
	l-0.352,2.111c-0.016,0.162-0.11,0.242-0.286,0.242h-2.574c-0.19,0-0.264-0.096-0.22-0.286l3.233-14.872
	c0.029-0.161,0.125-0.242,0.286-0.242h2.97c0.161,0,0.257,0.081,0.286,0.242l3.212,14.872l0.022,0.088
	c0,0.132-0.081,0.198-0.242,0.198h-2.64C89.638,73.807,89.543,73.727,89.528,73.564z M86.646,68.944h1.979
	c0.073,0,0.103-0.036,0.088-0.109l-1.034-6.006c-0.015-0.045-0.036-0.066-0.065-0.066s-0.052,0.021-0.066,0.066l-0.989,6.006
	C86.559,68.908,86.587,68.944,86.646,68.944z"/>
<path class="st0" d="M95.754,73.477c-0.646-0.337-1.144-0.811-1.496-1.419c-0.352-0.608-0.527-1.309-0.527-2.101v-0.639
	c0-0.073,0.025-0.135,0.076-0.187c0.052-0.052,0.114-0.077,0.188-0.077h2.53c0.073,0,0.135,0.025,0.187,0.077
	s0.077,0.113,0.077,0.187v0.484c0,0.455,0.117,0.821,0.352,1.1c0.234,0.279,0.528,0.418,0.881,0.418c0.352,0,0.645-0.132,0.88-0.396
	c0.234-0.265,0.352-0.608,0.352-1.034c0-0.44-0.146-0.817-0.439-1.133c-0.294-0.315-0.866-0.781-1.717-1.397
	c-0.733-0.527-1.327-0.997-1.781-1.407c-0.455-0.411-0.844-0.917-1.166-1.519c-0.323-0.602-0.484-1.298-0.484-2.09
	c0-1.246,0.389-2.244,1.166-2.992s1.804-1.122,3.08-1.122c1.29,0,2.328,0.389,3.113,1.166c0.784,0.777,1.177,1.797,1.177,3.059
	v0.527c0,0.074-0.026,0.136-0.077,0.188c-0.052,0.052-0.113,0.077-0.187,0.077h-2.53c-0.074,0-0.136-0.025-0.188-0.077
	c-0.051-0.052-0.077-0.113-0.077-0.188v-0.594c0-0.454-0.113-0.817-0.341-1.089s-0.524-0.407-0.891-0.407
	c-0.353,0-0.638,0.129-0.858,0.385c-0.22,0.257-0.33,0.613-0.33,1.067c0,0.439,0.14,0.829,0.418,1.166
	c0.279,0.338,0.829,0.807,1.65,1.408c0.909,0.675,1.595,1.221,2.057,1.639s0.821,0.88,1.078,1.386s0.386,1.111,0.386,1.815
	c0,1.291-0.396,2.317-1.188,3.08s-1.834,1.144-3.124,1.144C97.147,73.982,96.399,73.813,95.754,73.477z"/>
<path class="st0" d="M112.375,60.991c-0.053,0.052-0.113,0.077-0.188,0.077h-4.598c-0.073,0-0.11,0.037-0.11,0.11v3.476
	c0,0.074,0.037,0.11,0.11,0.11h2.641c0.072,0,0.135,0.025,0.186,0.077c0.053,0.052,0.078,0.113,0.078,0.187v2.135
	c0,0.073-0.025,0.136-0.078,0.187c-0.051,0.052-0.113,0.077-0.186,0.077h-2.641c-0.073,0-0.11,0.037-0.11,0.11v3.497
	c0,0.074,0.037,0.11,0.11,0.11h4.598c0.074,0,0.135,0.026,0.188,0.077c0.051,0.052,0.076,0.113,0.076,0.187v2.135
	c0,0.073-0.025,0.136-0.076,0.187c-0.053,0.052-0.113,0.077-0.188,0.077h-7.546c-0.073,0-0.136-0.025-0.187-0.077
	c-0.052-0.051-0.077-0.113-0.077-0.187V58.671c0-0.073,0.025-0.136,0.077-0.188c0.051-0.051,0.113-0.077,0.187-0.077h7.546
	c0.074,0,0.135,0.026,0.188,0.077c0.051,0.052,0.076,0.114,0.076,0.188v2.134C112.451,60.878,112.426,60.94,112.375,60.991z"/>
<path class="st0" d="M116.367,73.477c-0.646-0.337-1.144-0.811-1.495-1.419c-0.353-0.608-0.528-1.309-0.528-2.101v-0.639
	c0-0.073,0.025-0.135,0.077-0.187c0.051-0.052,0.113-0.077,0.187-0.077h2.53c0.073,0,0.136,0.025,0.187,0.077
	c0.052,0.052,0.077,0.113,0.077,0.187v0.484c0,0.455,0.117,0.821,0.353,1.1c0.234,0.279,0.527,0.418,0.88,0.418
	c0.352,0,0.646-0.132,0.88-0.396c0.234-0.265,0.352-0.608,0.352-1.034c0-0.44-0.146-0.817-0.439-1.133
	c-0.294-0.315-0.866-0.781-1.716-1.397c-0.734-0.527-1.328-0.997-1.782-1.407c-0.455-0.411-0.844-0.917-1.166-1.519
	c-0.323-0.602-0.484-1.298-0.484-2.09c0-1.246,0.389-2.244,1.166-2.992s1.805-1.122,3.08-1.122c1.291,0,2.328,0.389,3.113,1.166
	c0.784,0.777,1.177,1.797,1.177,3.059v0.527c0,0.074-0.025,0.136-0.077,0.188s-0.113,0.077-0.187,0.077h-2.53
	c-0.073,0-0.136-0.025-0.187-0.077c-0.052-0.052-0.077-0.113-0.077-0.188v-0.594c0-0.454-0.114-0.817-0.341-1.089
	c-0.228-0.271-0.525-0.407-0.892-0.407c-0.352,0-0.638,0.129-0.857,0.385c-0.221,0.257-0.33,0.613-0.33,1.067
	c0,0.439,0.139,0.829,0.418,1.166c0.278,0.338,0.828,0.807,1.649,1.408c0.909,0.675,1.596,1.221,2.058,1.639s0.821,0.88,1.078,1.386
	c0.256,0.506,0.385,1.111,0.385,1.815c0,1.291-0.396,2.317-1.188,3.08s-1.833,1.144-3.124,1.144
	C117.761,73.982,117.013,73.813,116.367,73.477z"/>
<path class="st0" d="M53.716,26.772c1.232,0.784,2.146,1.886,2.744,3.305c0.747,1.605,1.12,3.491,1.12,5.656
	c0,1.717-0.299,3.435-0.896,5.151c-0.784,2.054-2.035,3.668-3.752,4.844c-1.718,1.177-3.715,1.765-5.992,1.765
	c-2.277,0-4.275-0.579-5.992-1.736c-1.718-1.156-2.968-2.78-3.752-4.872c-0.598-1.53-0.896-3.248-0.896-5.151
	c0-2.091,0.336-3.921,1.008-5.488c0.522-1.419,1.475-2.557,2.856-3.416c0.224-0.112,0.224-0.225,0-0.336
	c-1.307-0.896-2.24-2.017-2.8-3.36c-0.71-1.643-1.064-3.378-1.064-5.208c0-2.016,0.354-3.752,1.064-5.208
	c0.784-1.754,2.024-3.126,3.724-4.116c1.699-0.988,3.649-1.483,5.852-1.483c2.165,0,4.088,0.476,5.768,1.428
	c1.68,0.952,2.931,2.324,3.752,4.116c0.747,1.567,1.12,3.323,1.12,5.264c0,1.83-0.355,3.548-1.064,5.152
	c-0.56,1.344-1.512,2.445-2.856,3.304C53.51,26.53,53.529,26.661,53.716,26.772z M44.084,18.653c0,0.858,0.13,1.717,0.392,2.575
	c0.149,0.748,0.438,1.345,0.868,1.792c0.429,0.448,0.96,0.673,1.596,0.673c0.635,0,1.176-0.233,1.624-0.7
	c0.448-0.467,0.747-1.073,0.896-1.82c0.224-0.746,0.336-1.568,0.336-2.464c0-0.971-0.131-1.792-0.392-2.464
	c-0.188-0.709-0.496-1.278-0.924-1.708c-0.43-0.429-0.943-0.645-1.54-0.645c-0.635,0-1.167,0.216-1.596,0.645
	c-0.43,0.43-0.738,1.036-0.924,1.819C44.196,17.029,44.084,17.795,44.084,18.653z M49.796,35.229c0-1.119-0.112-2.09-0.336-2.911
	c-0.187-0.821-0.495-1.465-0.924-1.933c-0.43-0.466-0.961-0.7-1.596-0.7c-0.672,0-1.232,0.243-1.68,0.729
	c-0.448,0.485-0.748,1.157-0.896,2.016c-0.188,0.859-0.28,1.756-0.28,2.688c0,1.045,0.075,1.941,0.224,2.688
	c0.149,0.896,0.448,1.605,0.896,2.128c0.448,0.523,1.026,0.784,1.736,0.784c0.709,0,1.297-0.271,1.764-0.812
	c0.466-0.541,0.756-1.278,0.868-2.212C49.721,36.723,49.796,35.901,49.796,35.229z"/>
<path class="st0" d="M82.611,34.837c0,0.821-0.038,1.941-0.112,3.36c-0.112,2.949-1.12,5.235-3.024,6.859
	c-1.903,1.624-4.442,2.437-7.615,2.437c-2.987,0-5.404-0.747-7.252-2.24c-1.848-1.493-2.94-3.715-3.276-6.664
	c-0.149-0.784-0.224-1.811-0.224-3.08l-0.112-18.088c0-3.061,0.98-5.497,2.94-7.308c1.96-1.811,4.564-2.717,7.812-2.717
	c3.024,0,5.497,0.916,7.42,2.744c1.923,1.83,2.884,4.256,2.884,7.28v1.68c0,0.188-0.065,0.346-0.195,0.477
	c-0.132,0.131-0.29,0.195-0.477,0.195h-6.552c-0.188,0-0.346-0.064-0.477-0.195s-0.195-0.289-0.195-0.477v-1.231
	c0-1.008-0.243-1.849-0.729-2.521s-1.045-1.008-1.68-1.008c-0.821,0-1.494,0.327-2.016,0.98c-0.523,0.653-0.784,1.503-0.784,2.548
	v5.656c0,0.111,0.036,0.177,0.111,0.195c0.075,0.02,0.149-0.009,0.225-0.084c1.231-1.045,2.632-1.567,4.2-1.567
	c2.612,0,4.712,0.858,6.3,2.575c1.586,1.718,2.454,4.014,2.604,6.889C82.536,32.429,82.611,33.53,82.611,34.837z M74.604,34.277
	c0-1.009-0.076-2.165-0.225-3.473c-0.112-0.858-0.392-1.53-0.84-2.016s-1.027-0.729-1.736-0.729c-0.747,0-1.354,0.252-1.819,0.757
	c-0.468,0.504-0.757,1.203-0.868,2.1c-0.112,1.456-0.168,2.576-0.168,3.36c0,0.896,0.056,2.053,0.168,3.472
	c0.111,0.971,0.4,1.718,0.868,2.24c0.466,0.522,1.072,0.783,1.819,0.783s1.354-0.279,1.82-0.84c0.467-0.56,0.756-1.344,0.868-2.352
	C74.565,35.789,74.604,34.688,74.604,34.277z"/>
<path class="st0" d="M87.731,14.857c-0.784-0.457-1.404-1.083-1.862-1.878c-0.457-0.795-0.686-1.66-0.686-2.597
	s0.229-1.797,0.686-2.581c0.458-0.784,1.078-1.409,1.862-1.878c0.784-0.468,1.633-0.702,2.548-0.702s1.759,0.234,2.531,0.702
	c0.773,0.469,1.383,1.094,1.829,1.878s0.67,1.645,0.67,2.581s-0.224,1.802-0.67,2.597s-1.056,1.421-1.829,1.878
	c-0.772,0.457-1.616,0.687-2.531,0.687S88.515,15.314,87.731,14.857z M92.125,12.342c0.49-0.545,0.735-1.198,0.735-1.96
	c0-0.763-0.251-1.41-0.752-1.944c-0.501-0.533-1.11-0.8-1.829-0.8c-0.74,0-1.367,0.267-1.878,0.8
	c-0.512,0.534-0.768,1.182-0.768,1.944c0,0.783,0.256,1.442,0.768,1.976c0.511,0.534,1.138,0.801,1.878,0.801
	S91.635,12.886,92.125,12.342z M88.613,28.25c-0.044-0.087-0.032-0.195,0.033-0.326l11.89-22.147c0.087-0.174,0.25-0.261,0.49-0.261
	h2.449c0.152,0,0.251,0.044,0.294,0.131c0.044,0.087,0.033,0.195-0.032,0.326l-11.89,22.146c-0.088,0.175-0.251,0.262-0.49,0.262
	h-2.45C88.755,28.38,88.657,28.337,88.613,28.25z M99.736,27.972c-0.773-0.468-1.389-1.1-1.846-1.895
	c-0.458-0.795-0.687-1.66-0.687-2.597s0.229-1.797,0.687-2.581c0.457-0.784,1.072-1.404,1.846-1.861
	c0.772-0.458,1.616-0.687,2.531-0.687c0.914,0,1.758,0.229,2.531,0.687c0.772,0.457,1.389,1.077,1.846,1.861
	s0.686,1.645,0.686,2.581s-0.229,1.802-0.686,2.597s-1.073,1.427-1.846,1.895c-0.773,0.468-1.617,0.702-2.531,0.702
	C101.352,28.674,100.509,28.44,99.736,27.972z M104.129,25.441c0.501-0.545,0.752-1.198,0.752-1.96c0-0.763-0.257-1.41-0.768-1.944
	c-0.513-0.533-1.127-0.8-1.846-0.8c-0.741,0-1.361,0.267-1.862,0.8c-0.501,0.534-0.751,1.182-0.751,1.944
	c0,0.783,0.25,1.442,0.751,1.976c0.501,0.534,1.121,0.801,1.862,0.801C103.008,26.257,103.628,25.985,104.129,25.441z"/>
</svg>
