<?xml version="1.0" encoding="utf-8"?>
<!-- Generator: Adobe Illustrator 27.0.1, SVG Export Plug-In . SVG Version: 6.00 Build 0)  -->
<svg version="1.1" id="Layer_1" xmlns="http://www.w3.org/2000/svg" xmlns:xlink="http://www.w3.org/1999/xlink" x="0px" y="0px"
	 width="216px" height="178px" viewBox="0 0 216 178" style="enable-background:new 0 0 216 178;" xml:space="preserve">
<style type="text/css">
	.st0{opacity:0.999;fill:#A4DBE8;enable-background:new    ;}
	.st1{fill:#707070;}
	.st2{fill:#E35205;}
	.st3{fill:#FFFFFF;}
</style>
<path id="Ellipse_192" class="st0" d="M177.968,84.388c-10.189,2.732-20.52,1.112-29.019-3.721
	c-8.641-4.914-19.365-29.301-19.466-32.167c-0.616-17.525,10.872-33.793,28.532-38.528c20.55-5.51,41.675,6.683,47.185,27.232
	C210.71,57.753,198.517,78.878,177.968,84.388z"/>
<path class="st1" d="M82.656,23.758L82.656,23.758c-39.145,0.089-71.417,30.713-73.555,69.8H9.1C9.015,95.184,9,95.786,9,97.414
	c0,40.679,32.977,73.656,73.656,73.656s73.656-32.977,73.656-73.656S123.335,23.758,82.656,23.758z M82.779,159.537
	c-34.242,0-62-27.758-62-62c0-34.242,27.758-62,62-62s62,27.758,62,62C144.779,131.779,117.021,159.537,82.779,159.537z"/>
<path d="M188.414,43.229c-0.373-0.362-9.251-8.868-20.415-8.868c-0.733,0.002-1.476,0.042-2.21,0.116l-5.329-5.835
	c-0.249-0.271-0.602-0.426-0.969-0.426h-3.496c-0.667-2.004-2.765-3.217-4.866-2.738c-1.082,0.247-2.004,0.9-2.594,1.839
	c-0.591,0.94-0.78,2.053-0.533,3.135c0.246,1.083,0.899,2.004,1.839,2.594c0.941,0.592,2.057,0.78,3.136,0.533
	c1.415-0.322,2.562-1.376,3.018-2.738h2.908l3.791,4.151c-8.704,1.997-15.043,8.189-15.105,8.25
	c-0.519,0.504-0.53,1.336,0.016,1.897c0.954,0.905,9.632,8.843,20.397,8.843h0.001c0.739-0.002,1.485-0.041,2.222-0.115l5.329,5.834
	c0.248,0.272,0.602,0.428,0.969,0.428h3.49c0.568,1.71,2.178,2.844,3.943,2.844c0.305,0,0.614-0.034,0.924-0.104
	c2.234-0.509,3.638-2.741,3.129-4.976c-0.51-2.233-2.741-3.638-4.977-3.128c-1.415,0.322-2.563,1.377-3.019,2.739h-2.915
	l-3.785-4.145c8.679-1.995,15.039-8.188,15.102-8.25C188.933,44.606,188.944,43.774,188.414,43.229z M159.917,49.729
	c-3.425-1.333-6.587-3.197-9.425-5.555c2.838-2.357,5.998-4.219,9.422-5.553c-1.094,1.58-1.696,3.448-1.725,5.412
	C158.16,46.096,158.766,48.069,159.917,49.729z M175.185,44.175c0,3.961-3.223,7.184-7.184,7.184s-7.184-3.223-7.184-7.184
	c0.005-3.957,3.228-7.18,7.185-7.185C171.962,36.991,175.185,40.214,175.185,44.175z M176.078,38.618
	c3.427,1.334,6.591,3.197,9.432,5.556c-2.84,2.359-6.004,4.223-9.431,5.557C178.374,46.407,178.385,41.955,176.078,38.618z
	 M153.591,29.533c-0.001,0.844-0.688,1.531-1.532,1.531c-0.408,0-0.793-0.16-1.082-0.449c-0.289-0.29-0.447-0.674-0.447-1.083
	c0-0.409,0.159-0.793,0.448-1.082c0.289-0.289,0.674-0.448,1.082-0.448h0.001C152.902,28.002,153.589,28.687,153.591,29.533z
	 M182.415,58.815c0.002-0.842,0.689-1.528,1.531-1.528h0.108c0.794,0.056,1.422,0.719,1.422,1.527c0,0.844-0.687,1.531-1.53,1.531
	C183.102,60.345,182.415,59.658,182.415,58.815z"/>
<path d="M168.003,38.849L168.003,38.849c-2.937,0-5.325,2.388-5.326,5.325c0.003,2.932,2.392,5.321,5.323,5.325h0.001h0.001
	c2.936,0,5.324-2.388,5.325-5.324C173.327,41.239,170.938,38.85,168.003,38.849z M168.001,41.475c1.489,0,2.7,1.211,2.7,2.7
	s-1.211,2.7-2.7,2.7s-2.7-1.211-2.7-2.7S166.512,41.475,168.001,41.475z"/>
<path d="M183.87,27.346h-4.019c-0.724,0-1.312,0.589-1.312,1.312s0.589,1.312,1.312,1.312h4.018c0.724,0,1.312-0.589,1.312-1.312
	S184.594,27.346,183.87,27.346z"/>
<path d="M177.03,27.346h-1.595c-0.724,0-1.312,0.589-1.312,1.312s0.589,1.312,1.312,1.312h1.596c0.724,0,1.312-0.589,1.312-1.312
	S177.755,27.346,177.03,27.346z"/>
<path d="M183.87,30.93h-4.019c-0.724,0-1.312,0.589-1.312,1.312s0.589,1.312,1.312,1.312h4.018c0.724,0,1.312-0.589,1.312-1.312
	S184.594,30.93,183.87,30.93z"/>
<path d="M177.03,30.93h-1.595c-0.724,0-1.312,0.589-1.312,1.312s0.589,1.312,1.312,1.312h1.596c0.724,0,1.312-0.589,1.312-1.312
	S177.755,30.93,177.03,30.93z"/>
<path d="M160.571,54.797h-4.018c-0.724,0-1.312,0.589-1.312,1.312s0.589,1.312,1.312,1.312h4.018c0.724,0,1.312-0.589,1.312-1.312
	S161.295,54.797,160.571,54.797z"/>
<path d="M153.731,54.797h-1.596c-0.724,0-1.312,0.589-1.312,1.312s0.589,1.312,1.312,1.312h1.596c0.724,0,1.312-0.589,1.312-1.312
	S154.455,54.797,153.731,54.797z"/>
<path d="M160.571,58.377h-4.018c-0.724,0-1.312,0.589-1.312,1.312s0.589,1.312,1.312,1.312h4.018c0.724,0,1.312-0.589,1.312-1.312
	S161.295,58.377,160.571,58.377z"/>
<path d="M153.731,58.377h-1.596c-0.724,0-1.312,0.589-1.312,1.312s0.589,1.312,1.312,1.312h1.596c0.724,0,1.312-0.589,1.312-1.312
	S154.455,58.377,153.731,58.377z"/>
<path class="st2" d="M82.656,23.758v11.78c34.242,0,62,27.758,62,62c0,34.242-27.758,62-62,62s-62-27.758-62-62
	c0-23.354,12.919-43.684,31.994-54.256l-5.703-10.289C22.754,46.403,9,69.752,9,97.414c0,40.679,32.977,73.656,73.656,73.656
	s73.656-32.977,73.656-73.656S123.335,23.758,82.656,23.758z"/>
<path class="st3" d="M69.311,114.268c-1.855,1.714-4.319,2.57-7.394,2.57c-2.897,0-5.247-0.856-7.049-2.57
	c-1.802-1.714-2.703-4.019-2.703-6.917v-1.59c0-0.176,0.062-0.326,0.186-0.45c0.124-0.123,0.273-0.186,0.451-0.186h6.201
	c0.177,0,0.327,0.062,0.451,0.186c0.124,0.124,0.186,0.274,0.186,0.45v1.166c0,0.954,0.22,1.749,0.663,2.386
	c0.441,0.636,0.98,0.953,1.616,0.953c0.777,0,1.405-0.309,1.882-0.927s0.715-1.422,0.715-2.412v-5.3
	c0-0.105-0.036-0.167-0.106-0.186c-0.071-0.018-0.142,0.009-0.212,0.08c-1.131,0.953-2.438,1.431-3.922,1.431
	c-2.473,0-4.461-0.812-5.962-2.438c-1.502-1.624-2.341-3.798-2.518-6.519c-0.106-0.954-0.159-1.996-0.159-3.127
	c0-0.777,0.035-1.837,0.106-3.18c0.106-2.791,1.06-4.956,2.862-6.493c1.802-1.537,4.205-2.306,7.208-2.306
	c2.827,0,5.115,0.708,6.864,2.12c1.749,1.414,2.782,3.517,3.101,6.308c0.141,1.131,0.212,2.103,0.212,2.915l0.053,17.118
	C72.075,110.249,71.166,112.554,69.311,114.268z M64.514,91.398c0-1.308-0.036-2.402-0.106-3.286
	c-0.106-0.919-0.38-1.625-0.822-2.12c-0.442-0.494-1.016-0.742-1.722-0.742c-0.708,0-1.281,0.265-1.723,0.795
	c-0.442,0.53-0.715,1.272-0.821,2.227c-0.071,0.848-0.106,1.891-0.106,3.127c0,0.812,0.053,1.907,0.159,3.285
	c0.141,0.813,0.424,1.449,0.848,1.908c0.424,0.46,0.971,0.689,1.643,0.689c0.671,0,1.227-0.238,1.669-0.716
	c0.441-0.477,0.733-1.14,0.875-1.987C64.479,93.66,64.514,92.6,64.514,91.398z"/>
<path class="st3" d="M84.124,109.896c0.035,0.07,0.106,0.105,0.212,0.105h11.077c0.177,0,0.327,0.062,0.451,0.186
	c0.124,0.124,0.186,0.274,0.186,0.45v5.142c0,0.177-0.062,0.327-0.186,0.45c-0.124,0.124-0.274,0.186-0.451,0.186h-19.61
	c-0.177,0-0.327-0.062-0.45-0.186c-0.125-0.123-0.186-0.273-0.186-0.45v-5.354c0-0.317,0.087-0.583,0.265-0.795
	c1.413-1.872,2.403-3.145,2.968-3.815c3.109-3.993,5.317-7.014,6.625-9.063c1.908-3.038,2.862-5.6,2.862-7.685
	c0-1.201-0.238-2.129-0.715-2.783c-0.477-0.653-1.122-0.98-1.935-0.98c-0.813,0-1.467,0.327-1.961,0.98
	c-0.495,0.654-0.725,1.493-0.689,2.518v2.173c0,0.178-0.062,0.327-0.186,0.451c-0.124,0.124-0.274,0.186-0.451,0.186h-6.307
	c-0.177,0-0.327-0.062-0.451-0.186c-0.124-0.124-0.186-0.273-0.186-0.451v-2.49c0.141-2.897,1.184-5.221,3.127-6.97
	c1.943-1.749,4.417-2.624,7.42-2.624c2.968,0,5.361,0.938,7.182,2.81c1.819,1.873,2.729,4.346,2.729,7.42
	c0,1.838-0.292,3.587-0.875,5.247c-0.583,1.661-1.529,3.445-2.835,5.353c-0.99,1.449-2.686,3.71-5.088,6.784l-2.491,3.18
	C84.105,109.754,84.088,109.824,84.124,109.896z"/>
<path class="st3" d="M99.967,85.95c-0.742-0.433-1.329-1.025-1.763-1.777c-0.432-0.752-0.648-1.571-0.648-2.458
	c0-0.886,0.216-1.7,0.648-2.442c0.434-0.742,1.021-1.334,1.763-1.777s1.546-0.665,2.411-0.665c0.866,0,1.664,0.222,2.396,0.665
	c0.73,0.443,1.309,1.035,1.73,1.777c0.423,0.742,0.634,1.557,0.634,2.442c0,0.887-0.211,1.706-0.634,2.458
	c-0.422,0.752-1,1.345-1.73,1.777c-0.732,0.433-1.53,0.649-2.396,0.649C101.513,86.6,100.709,86.383,99.967,85.95z M104.125,83.569
	c0.464-0.515,0.695-1.133,0.695-1.854c0-0.721-0.237-1.334-0.711-1.84c-0.475-0.504-1.051-0.757-1.731-0.757
	c-0.701,0-1.294,0.253-1.777,0.757c-0.484,0.506-0.727,1.119-0.727,1.84c0,0.742,0.242,1.365,0.727,1.87
	c0.483,0.506,1.076,0.758,1.777,0.758C103.078,84.343,103.661,84.085,104.125,83.569z M100.802,98.625
	c-0.042-0.082-0.031-0.186,0.03-0.309l11.253-20.961c0.083-0.164,0.237-0.247,0.464-0.247h2.319c0.144,0,0.236,0.042,0.277,0.124
	c0.042,0.082,0.031,0.186-0.03,0.309l-11.253,20.961c-0.083,0.165-0.237,0.247-0.464,0.247h-2.318
	C100.935,98.749,100.843,98.708,100.802,98.625z M111.328,98.362c-0.732-0.442-1.314-1.04-1.747-1.793
	c-0.433-0.752-0.649-1.571-0.649-2.458c0-0.886,0.217-1.7,0.649-2.441c0.433-0.742,1.015-1.33,1.747-1.763
	c0.731-0.433,1.53-0.649,2.396-0.649c0.866,0,1.664,0.217,2.396,0.649c0.731,0.433,1.313,1.021,1.746,1.763
	c0.433,0.741,0.649,1.556,0.649,2.441c0,0.887-0.217,1.706-0.649,2.458c-0.433,0.753-1.015,1.351-1.746,1.793
	c-0.732,0.443-1.53,0.665-2.396,0.665C112.858,99.027,112.059,98.806,111.328,98.362z M115.486,95.967
	c0.474-0.515,0.711-1.134,0.711-1.855c0-0.721-0.243-1.334-0.727-1.839c-0.484-0.505-1.066-0.758-1.747-0.758
	c-0.7,0-1.288,0.253-1.762,0.758c-0.475,0.505-0.711,1.118-0.711,1.839c0,0.742,0.236,1.366,0.711,1.871
	c0.474,0.505,1.062,0.757,1.762,0.757S115.012,96.482,115.486,95.967z"/>
</svg>
