<?xml version="1.0" encoding="utf-8"?>
<!-- Generator: Adobe Illustrator 27.0.1, SVG Export Plug-In . SVG Version: 6.00 Build 0)  -->
<svg version="1.1" id="Layer_1" xmlns="http://www.w3.org/2000/svg" xmlns:xlink="http://www.w3.org/1999/xlink" x="0px" y="0px"
	 width="450px" height="316px" viewBox="0 0 450 316" style="enable-background:new 0 0 450 316;" xml:space="preserve">
<style type="text/css">
	.st0{fill:#E35205;}
	.st1{opacity:0.62;fill:#9FDBEF;enable-background:new    ;}
	.st2{fill:#F08463;}
	.st3{fill:#FFFFFF;}
</style>
<path d="M488.5,370.5h-554v-422h554V370.5z M-64.5,369.5h552v-420h-552V369.5z"/>
<circle id="Ellipse_27" class="st0" cx="291.914" cy="158.117" r="158"/>
<circle id="Ellipse_28" class="st1" cx="174.345" cy="159.209" r="88.735"/>
<path id="Intersection_1" class="st2" d="M161.222,246.982c-35.827-52.77-36.444-121.898-1.566-175.3
	c48.339-8.085,94.08,24.548,102.165,72.887c8.085,48.339-24.548,94.08-72.887,102.165
	C179.767,248.268,170.415,248.351,161.222,246.982z"/>
<path class="st3" d="M297.648,178.212c-0.051,0.052-0.113,0.077-0.187,0.077h-4.598c-0.074,0-0.11,0.037-0.11,0.11v3.476
	c0,0.074,0.036,0.11,0.11,0.11h2.64c0.073,0,0.136,0.025,0.187,0.077c0.052,0.052,0.077,0.113,0.077,0.187v2.135
	c0,0.073-0.025,0.136-0.077,0.187c-0.051,0.052-0.113,0.077-0.187,0.077h-2.64c-0.074,0-0.11,0.037-0.11,0.11v3.497
	c0,0.074,0.036,0.11,0.11,0.11h4.598c0.073,0,0.136,0.026,0.187,0.077c0.052,0.052,0.077,0.113,0.077,0.187v2.135
	c0,0.073-0.025,0.136-0.077,0.187c-0.051,0.052-0.113,0.077-0.187,0.077h-7.546c-0.074,0-0.136-0.025-0.188-0.077
	c-0.051-0.051-0.077-0.113-0.077-0.187v-14.872c0-0.073,0.026-0.136,0.077-0.188c0.052-0.051,0.113-0.077,0.188-0.077h7.546
	c0.073,0,0.136,0.026,0.187,0.077c0.052,0.052,0.077,0.114,0.077,0.188v2.134C297.726,178.099,297.7,178.161,297.648,178.212z"/>
<path class="st3" d="M302.609,190.785l-3.146-14.872l-0.022-0.088c0-0.132,0.081-0.198,0.242-0.198h2.838
	c0.177,0,0.271,0.081,0.286,0.242l1.519,9.681c0.014,0.059,0.036,0.088,0.065,0.088s0.052-0.029,0.066-0.088l1.474-9.681
	c0.015-0.161,0.11-0.242,0.286-0.242h2.75c0.19,0,0.264,0.096,0.22,0.286l-3.168,14.872c-0.029,0.162-0.125,0.242-0.286,0.242
	h-2.838C302.734,191.027,302.639,190.947,302.609,190.785z"/>
<path class="st3" d="M315.831,190.785l-0.352-2.111c0-0.073-0.044-0.11-0.132-0.11h-2.794c-0.088,0-0.132,0.037-0.132,0.11
	l-0.353,2.111c-0.015,0.162-0.11,0.242-0.286,0.242h-2.574c-0.19,0-0.264-0.096-0.22-0.286l3.234-14.872
	c0.029-0.161,0.124-0.242,0.286-0.242h2.97c0.161,0,0.256,0.081,0.286,0.242l3.212,14.872l0.021,0.088
	c0,0.132-0.08,0.198-0.241,0.198h-2.641C315.941,191.027,315.846,190.947,315.831,190.785z M312.949,186.165h1.98
	c0.073,0,0.103-0.036,0.088-0.109l-1.034-6.006c-0.015-0.045-0.037-0.066-0.066-0.066s-0.051,0.021-0.065,0.066l-0.99,6.006
	C312.861,186.129,312.891,186.165,312.949,186.165z"/>
<path class="st3" d="M327.733,176.199c0.63,0.396,1.118,0.95,1.463,1.661c0.345,0.712,0.517,1.521,0.517,2.431
	c0,1.364-0.366,2.457-1.1,3.278s-1.694,1.232-2.882,1.232h-1.65c-0.073,0-0.11,0.036-0.11,0.109v5.853
	c0,0.073-0.025,0.136-0.076,0.187c-0.052,0.052-0.114,0.077-0.188,0.077h-2.574c-0.073,0-0.136-0.025-0.187-0.077
	c-0.052-0.051-0.077-0.113-0.077-0.187v-14.895c0-0.073,0.025-0.135,0.077-0.187c0.051-0.052,0.113-0.077,0.187-0.077h4.444
	C326.384,175.605,327.103,175.804,327.733,176.199z M326.182,181.843c0.286-0.359,0.43-0.854,0.43-1.485
	c0-0.646-0.144-1.151-0.43-1.519c-0.285-0.366-0.663-0.55-1.133-0.55h-0.968c-0.073,0-0.11,0.037-0.11,0.11v3.872
	c0,0.073,0.037,0.109,0.11,0.109h0.968C325.519,182.381,325.896,182.202,326.182,181.843z"/>
<path class="st3" d="M332.749,190.016c-0.807-0.792-1.21-1.849-1.21-3.168v-7.04c0-1.32,0.403-2.376,1.21-3.168
	s1.885-1.188,3.234-1.188c1.349,0,2.431,0.396,3.245,1.188c0.813,0.792,1.221,1.848,1.221,3.168v7.04
	c0,1.319-0.407,2.376-1.221,3.168c-0.814,0.792-1.896,1.188-3.245,1.188C334.634,191.203,333.556,190.808,332.749,190.016z
	 M336.974,188.112c0.249-0.286,0.374-0.663,0.374-1.133v-7.304c0-0.47-0.125-0.848-0.374-1.134c-0.25-0.286-0.58-0.429-0.99-0.429
	c-0.411,0-0.737,0.143-0.979,0.429c-0.241,0.286-0.362,0.664-0.362,1.134v7.304c0,0.47,0.121,0.847,0.362,1.133
	c0.242,0.286,0.568,0.429,0.979,0.429C336.394,188.541,336.724,188.398,336.974,188.112z"/>
<path class="st3" d="M348.567,190.808l-1.694-6.072c-0.029-0.059-0.065-0.088-0.109-0.088h-0.748c-0.074,0-0.11,0.037-0.11,0.11
	v6.006c0,0.073-0.025,0.136-0.077,0.187c-0.052,0.052-0.113,0.077-0.187,0.077h-2.574c-0.074,0-0.136-0.025-0.188-0.077
	c-0.051-0.051-0.077-0.113-0.077-0.187v-14.872c0-0.073,0.026-0.136,0.077-0.188c0.052-0.051,0.113-0.077,0.188-0.077h4.443
	c0.807,0,1.525,0.195,2.156,0.583c0.631,0.39,1.118,0.936,1.463,1.64s0.518,1.511,0.518,2.42c0,0.865-0.165,1.628-0.495,2.288
	s-0.789,1.173-1.375,1.54c-0.029,0.015-0.052,0.032-0.066,0.055s-0.015,0.048,0,0.077l2.024,6.49l0.021,0.088
	c0,0.146-0.08,0.22-0.241,0.22h-2.641C348.714,191.027,348.611,190.954,348.567,190.808z M345.905,178.399v3.762
	c0,0.074,0.036,0.11,0.11,0.11h0.989c0.455,0,0.825-0.18,1.111-0.539s0.429-0.84,0.429-1.441c0-0.615-0.143-1.104-0.429-1.463
	s-0.656-0.539-1.111-0.539h-0.989C345.941,178.289,345.905,178.326,345.905,178.399z"/>
<path class="st3" d="M360.095,190.785l-0.353-2.111c0-0.073-0.044-0.11-0.132-0.11h-2.794c-0.088,0-0.132,0.037-0.132,0.11
	l-0.352,2.111c-0.016,0.162-0.11,0.242-0.286,0.242h-2.574c-0.19,0-0.264-0.096-0.22-0.286l3.233-14.872
	c0.029-0.161,0.125-0.242,0.286-0.242h2.97c0.161,0,0.257,0.081,0.286,0.242l3.212,14.872l0.022,0.088
	c0,0.132-0.081,0.198-0.242,0.198h-2.64C360.204,191.027,360.109,190.947,360.095,190.785z M357.213,186.165h1.979
	c0.073,0,0.103-0.036,0.088-0.109l-1.034-6.006c-0.015-0.045-0.036-0.066-0.065-0.066s-0.052,0.021-0.066,0.066l-0.989,6.006
	C357.125,186.129,357.153,186.165,357.213,186.165z"/>
<path class="st3" d="M372.58,175.704c0.051,0.052,0.077,0.114,0.077,0.188v2.134c0,0.073-0.026,0.136-0.077,0.187
	c-0.052,0.052-0.114,0.077-0.188,0.077h-2.75c-0.073,0-0.109,0.037-0.109,0.11v12.364c0,0.073-0.026,0.136-0.077,0.187
	c-0.052,0.052-0.114,0.077-0.188,0.077h-2.573c-0.074,0-0.136-0.025-0.188-0.077c-0.052-0.051-0.077-0.113-0.077-0.187v-12.364
	c0-0.073-0.036-0.11-0.109-0.11h-2.641c-0.073,0-0.136-0.025-0.187-0.077c-0.052-0.051-0.077-0.113-0.077-0.187v-2.134
	c0-0.073,0.025-0.136,0.077-0.188c0.051-0.051,0.113-0.077,0.187-0.077h8.712C372.466,175.627,372.528,175.653,372.58,175.704z"/>
<path class="st3" d="M374.867,190.95c-0.051-0.051-0.077-0.113-0.077-0.187v-14.872c0-0.073,0.026-0.136,0.077-0.188
	c0.052-0.051,0.113-0.077,0.188-0.077h2.574c0.073,0,0.135,0.026,0.187,0.077c0.052,0.052,0.077,0.114,0.077,0.188v14.872
	c0,0.073-0.025,0.136-0.077,0.187c-0.052,0.052-0.113,0.077-0.187,0.077h-2.574C374.98,191.027,374.919,191.002,374.867,190.95z"/>
<path class="st3" d="M383.172,190.785l-3.146-14.872l-0.022-0.088c0-0.132,0.081-0.198,0.242-0.198h2.838
	c0.177,0,0.271,0.081,0.286,0.242l1.519,9.681c0.014,0.059,0.036,0.088,0.065,0.088s0.052-0.029,0.066-0.088l1.474-9.681
	c0.015-0.161,0.11-0.242,0.286-0.242h2.749c0.191,0,0.266,0.096,0.221,0.286l-3.168,14.872c-0.029,0.162-0.125,0.242-0.286,0.242
	h-2.838C383.297,191.027,383.201,190.947,383.172,190.785z"/>
<path class="st3" d="M399.858,178.212c-0.052,0.052-0.113,0.077-0.187,0.077h-4.599c-0.073,0-0.109,0.037-0.109,0.11v3.476
	c0,0.074,0.036,0.11,0.109,0.11h2.641c0.073,0,0.135,0.025,0.187,0.077s0.077,0.113,0.077,0.187v2.135
	c0,0.073-0.025,0.136-0.077,0.187c-0.052,0.052-0.113,0.077-0.187,0.077h-2.641c-0.073,0-0.109,0.037-0.109,0.11v3.497
	c0,0.074,0.036,0.11,0.109,0.11h4.599c0.073,0,0.135,0.026,0.187,0.077c0.052,0.052,0.077,0.113,0.077,0.187v2.135
	c0,0.073-0.025,0.136-0.077,0.187c-0.052,0.052-0.113,0.077-0.187,0.077h-7.546c-0.074,0-0.136-0.025-0.188-0.077
	c-0.052-0.051-0.077-0.113-0.077-0.187v-14.872c0-0.073,0.025-0.136,0.077-0.188c0.052-0.051,0.113-0.077,0.188-0.077h7.546
	c0.073,0,0.135,0.026,0.187,0.077c0.052,0.052,0.077,0.114,0.077,0.188v2.134C399.936,178.099,399.91,178.161,399.858,178.212z"/>
<path class="st3" d="M336.297,152.059c0,1.232-0.056,2.408-0.168,3.528c-0.149,2.875-1.167,5.115-3.052,6.719
	c-1.886,1.605-4.415,2.408-7.589,2.408c-2.986,0-5.395-0.747-7.223-2.24c-1.83-1.493-2.932-3.714-3.305-6.664l-0.168-1.568
	c0-0.447,0.225-0.672,0.672-0.672h6.553c0.447,0,0.689,0.225,0.728,0.672c0,0.225,0.036,0.523,0.112,0.896
	c0.336,1.867,1.213,2.8,2.631,2.8c0.747,0,1.354-0.252,1.82-0.756s0.775-1.204,0.924-2.1c0.113-0.971,0.168-1.997,0.168-3.08
	c0-0.784-0.074-1.736-0.224-2.856c-0.149-0.858-0.458-1.512-0.924-1.96c-0.468-0.448-1.056-0.672-1.765-0.672
	c-1.418,0-2.333,0.653-2.743,1.96c-0.112,0.411-0.355,0.616-0.728,0.616h-6.608c-0.188,0-0.346-0.065-0.476-0.196
	c-0.132-0.13-0.197-0.289-0.197-0.476v-22.681c0-0.187,0.065-0.345,0.197-0.476c0.13-0.131,0.288-0.196,0.476-0.196h19.768
	c0.187,0,0.345,0.065,0.476,0.196s0.197,0.289,0.197,0.476v5.433c0,0.187-0.066,0.346-0.197,0.476
	c-0.131,0.132-0.289,0.196-0.476,0.196h-12.264c-0.188,0-0.28,0.094-0.28,0.28v9.407c0,0.112,0.037,0.188,0.112,0.225
	c0.074,0.037,0.148,0,0.224-0.112c0.635-0.635,1.381-1.12,2.24-1.456c0.858-0.336,1.773-0.504,2.744-0.504
	c2.389,0,4.303,0.784,5.74,2.352c1.437,1.568,2.23,3.752,2.379,6.553C336.222,150.006,336.297,151.164,336.297,152.059z"/>
<path class="st3" d="M342.289,161.774c-2.016-2.072-3.023-4.806-3.023-8.204v-17.808c0-3.396,1.008-6.132,3.023-8.204
	s4.666-3.108,7.951-3.108c2.166,0,4.089,0.468,5.769,1.4c1.681,0.934,2.978,2.259,3.892,3.976c0.915,1.718,1.373,3.696,1.373,5.937
	v17.808c0,2.24-0.458,4.22-1.373,5.936c-0.914,1.718-2.211,3.043-3.892,3.976c-1.68,0.933-3.603,1.4-5.769,1.4
	C346.955,164.883,344.305,163.847,342.289,161.774z M352.509,156.987c0.579-0.746,0.868-1.735,0.868-2.968v-18.704
	c0-1.231-0.289-2.221-0.868-2.968c-0.579-0.746-1.335-1.12-2.269-1.12s-1.68,0.374-2.239,1.12c-0.56,0.747-0.84,1.736-0.84,2.968
	v18.704c0,1.232,0.28,2.222,0.84,2.968c0.56,0.747,1.306,1.12,2.239,1.12S351.93,157.734,352.509,156.987z"/>
<path class="st3" d="M368.921,132.079c-0.784-0.457-1.404-1.083-1.862-1.878c-0.457-0.795-0.686-1.66-0.686-2.597
	s0.229-1.797,0.686-2.581c0.458-0.784,1.078-1.409,1.862-1.878c0.784-0.468,1.633-0.702,2.548-0.702s1.759,0.234,2.531,0.702
	c0.773,0.469,1.383,1.094,1.829,1.878s0.67,1.645,0.67,2.581s-0.224,1.802-0.67,2.597s-1.056,1.421-1.829,1.878
	c-0.772,0.457-1.616,0.687-2.531,0.687S369.705,132.536,368.921,132.079z M373.314,129.564c0.49-0.545,0.735-1.198,0.735-1.96
	c0-0.763-0.251-1.41-0.752-1.944c-0.501-0.533-1.11-0.8-1.829-0.8c-0.74,0-1.367,0.267-1.878,0.8
	c-0.512,0.534-0.768,1.182-0.768,1.944c0,0.783,0.256,1.442,0.768,1.976c0.511,0.534,1.138,0.801,1.878,0.801
	S372.824,130.108,373.314,129.564z M369.803,145.471c-0.044-0.087-0.032-0.195,0.033-0.326l11.89-22.147
	c0.087-0.174,0.25-0.261,0.49-0.261h2.449c0.152,0,0.251,0.044,0.294,0.131c0.044,0.087,0.033,0.195-0.032,0.326l-11.89,22.146
	c-0.088,0.175-0.251,0.262-0.49,0.262h-2.45C369.944,145.602,369.847,145.559,369.803,145.471z M380.926,145.194
	c-0.773-0.468-1.389-1.1-1.846-1.895c-0.458-0.795-0.687-1.66-0.687-2.597s0.229-1.797,0.687-2.581
	c0.457-0.784,1.072-1.404,1.846-1.861c0.772-0.458,1.616-0.687,2.531-0.687c0.914,0,1.758,0.229,2.531,0.687
	c0.772,0.457,1.389,1.077,1.846,1.861s0.686,1.645,0.686,2.581s-0.229,1.802-0.686,2.597s-1.073,1.427-1.846,1.895
	c-0.773,0.468-1.617,0.702-2.531,0.702C382.542,145.896,381.698,145.662,380.926,145.194z M385.318,142.663
	c0.501-0.545,0.752-1.198,0.752-1.96c0-0.763-0.257-1.41-0.768-1.944c-0.513-0.533-1.127-0.8-1.846-0.8
	c-0.741,0-1.361,0.267-1.862,0.8c-0.501,0.534-0.751,1.182-0.751,1.944c0,0.783,0.25,1.442,0.751,1.976
	c0.501,0.534,1.121,0.801,1.862,0.801C384.197,143.479,384.817,143.207,385.318,142.663z"/>
<path class="st3" d="M173.729,175.627h2.552c0.073,0,0.135,0.026,0.187,0.077c0.051,0.052,0.077,0.114,0.077,0.188v14.872
	c0,0.073-0.025,0.136-0.077,0.187c-0.052,0.052-0.114,0.077-0.187,0.077h-2.574c-0.073,0-0.136-0.025-0.187-0.077
	c-0.051-0.051-0.077-0.113-0.077-0.187v-9.878c0-0.059-0.015-0.089-0.044-0.089s-0.059,0.022-0.088,0.066l-1.716,3.036
	c-0.074,0.117-0.132,0.176-0.176,0.176s-0.103-0.059-0.176-0.176l-1.716-3.036c-0.03-0.044-0.059-0.066-0.088-0.066
	s-0.044,0.03-0.044,0.089v9.878c0,0.073-0.026,0.136-0.077,0.187c-0.051,0.052-0.114,0.077-0.187,0.077h-2.574
	c-0.074,0-0.136-0.025-0.187-0.077c-0.052-0.051-0.077-0.113-0.077-0.187v-14.872c0-0.073,0.025-0.136,0.077-0.188
	c0.051-0.051,0.113-0.077,0.187-0.077h2.53c0.146,0,0.257,0.06,0.33,0.177l1.958,3.498c0.044,0.059,0.088,0.059,0.132,0l1.892-3.498
	C173.458,175.687,173.567,175.627,173.729,175.627z"/>
<path class="st3" d="M179.13,190.95c-0.051-0.051-0.077-0.113-0.077-0.187v-14.872c0-0.073,0.026-0.136,0.077-0.188
	c0.051-0.051,0.113-0.077,0.187-0.077h2.574c0.073,0,0.135,0.026,0.187,0.077c0.051,0.052,0.077,0.114,0.077,0.188v14.872
	c0,0.073-0.025,0.136-0.077,0.187c-0.052,0.052-0.114,0.077-0.187,0.077h-2.574C179.243,191.027,179.181,191.002,179.13,190.95z"/>
<path class="st3" d="M184.354,190.939c-0.029-0.059-0.029-0.132,0-0.22l2.992-7.326c0.015-0.044,0.015-0.088,0-0.132l-2.992-7.326
	c-0.015-0.029-0.022-0.073-0.022-0.132c0-0.117,0.073-0.177,0.22-0.177h2.64c0.146,0,0.242,0.074,0.286,0.221l1.474,4.224
	c0.015,0.044,0.037,0.066,0.066,0.066s0.051-0.022,0.066-0.066l1.474-4.224c0.044-0.146,0.139-0.221,0.286-0.221h2.618
	c0.102,0,0.168,0.03,0.198,0.089s0.029,0.132,0,0.22l-2.992,7.326c-0.015,0.044-0.015,0.088,0,0.132l2.992,7.326
	c0.015,0.029,0.022,0.073,0.022,0.132c0,0.117-0.073,0.176-0.22,0.176h-2.618c-0.147,0-0.242-0.073-0.286-0.22l-1.474-4.202
	c-0.015-0.044-0.037-0.066-0.066-0.066s-0.051,0.022-0.066,0.066l-1.496,4.202c-0.044,0.146-0.139,0.22-0.286,0.22h-2.618
	C184.45,191.027,184.384,190.998,184.354,190.939z"/>
<path class="st3" d="M203.835,178.212c-0.051,0.052-0.114,0.077-0.187,0.077h-4.598c-0.074,0-0.11,0.037-0.11,0.11v3.476
	c0,0.074,0.037,0.11,0.11,0.11h2.64c0.073,0,0.136,0.025,0.187,0.077s0.077,0.113,0.077,0.187v2.135
	c0,0.073-0.026,0.136-0.077,0.187c-0.051,0.052-0.114,0.077-0.187,0.077h-2.64c-0.074,0-0.11,0.037-0.11,0.11v3.497
	c0,0.074,0.037,0.11,0.11,0.11h4.598c0.073,0,0.136,0.026,0.187,0.077c0.051,0.052,0.077,0.113,0.077,0.187v2.135
	c0,0.073-0.026,0.136-0.077,0.187c-0.051,0.052-0.114,0.077-0.187,0.077h-7.546c-0.074,0-0.136-0.025-0.187-0.077
	c-0.051-0.051-0.077-0.113-0.077-0.187v-14.872c0-0.073,0.026-0.136,0.077-0.188c0.051-0.051,0.113-0.077,0.187-0.077h7.546
	c0.073,0,0.136,0.026,0.187,0.077c0.051,0.052,0.077,0.114,0.077,0.188v2.134C203.913,178.099,203.887,178.161,203.835,178.212z"/>
<path class="st3" d="M206.189,190.95c-0.051-0.051-0.077-0.113-0.077-0.187v-14.872c0-0.073,0.026-0.136,0.077-0.188
	c0.051-0.051,0.113-0.077,0.187-0.077h3.982c1.334,0,2.405,0.39,3.212,1.166c0.807,0.778,1.21,1.812,1.21,3.103v6.864
	c0,1.29-0.404,2.324-1.21,3.102s-1.877,1.166-3.212,1.166h-3.982C206.303,191.027,206.241,191.002,206.189,190.95z M209.325,188.365
	l0.99-0.021c0.396-0.015,0.719-0.184,0.968-0.507c0.249-0.322,0.381-0.748,0.396-1.275v-6.468c0-0.558-0.125-0.998-0.374-1.32
	c-0.25-0.322-0.587-0.484-1.012-0.484h-0.968c-0.074,0-0.11,0.037-0.11,0.11v9.855C209.214,188.329,209.251,188.365,209.325,188.365
	z"/>
<path class="st3" d="M184.953,151.835c0,1.643-0.075,3.043-0.224,4.199c-0.299,2.688-1.335,4.807-3.108,6.356
	c-1.773,1.55-4.154,2.324-7.14,2.324c-3.099,0-5.619-0.821-7.56-2.464c-1.941-1.643-2.987-3.827-3.136-6.552
	c-0.112-1.008-0.168-2.09-0.168-3.248c0-0.447,0.224-0.672,0.672-0.672h6.552c0.448,0,0.672,0.225,0.672,0.672
	c0,0.859,0.056,1.662,0.168,2.408c0.112,0.972,0.41,1.728,0.896,2.269c0.485,0.541,1.12,0.812,1.904,0.812
	c0.747,0,1.362-0.261,1.848-0.784c0.485-0.522,0.802-1.231,0.952-2.128c0.112-1.306,0.168-2.65,0.168-4.032
	c0-1.754-0.094-3.136-0.28-4.144c-0.149-0.858-0.458-1.521-0.924-1.988c-0.467-0.466-1.055-0.699-1.764-0.699
	c-0.56,0-1.12,0.243-1.68,0.728c-0.224,0.149-0.374,0.224-0.448,0.224c-0.149,0-0.317-0.093-0.504-0.279l-3.36-3.416
	c-0.15-0.149-0.224-0.317-0.224-0.504c0-0.149,0.056-0.299,0.168-0.448l6.776-8.344c0.075-0.075,0.093-0.149,0.056-0.225
	c-0.038-0.074-0.112-0.112-0.224-0.112h-10.08c-0.187,0-0.346-0.064-0.476-0.195c-0.131-0.131-0.196-0.289-0.196-0.477v-5.376
	c0-0.187,0.065-0.345,0.196-0.476c0.13-0.131,0.289-0.196,0.476-0.196h19.264c0.187,0,0.345,0.065,0.476,0.196
	c0.13,0.131,0.196,0.289,0.196,0.476v5.601c0,0.299-0.093,0.579-0.28,0.84l-6.272,7.896c-0.038,0.075-0.056,0.15-0.056,0.225
	c0,0.075,0.037,0.111,0.112,0.111c1.643,0.15,3.033,0.896,4.172,2.24c1.138,1.344,1.838,3.024,2.1,5.04
	C184.859,149.11,184.953,150.491,184.953,151.835z"/>
<path class="st3" d="M210.097,152.059c0,0.821-0.038,1.941-0.112,3.36c-0.112,2.949-1.12,5.235-3.024,6.859
	c-1.904,1.624-4.443,2.437-7.616,2.437c-2.987,0-5.404-0.747-7.252-2.24c-1.848-1.493-2.94-3.714-3.276-6.664
	c-0.149-0.784-0.224-1.811-0.224-3.08l-0.112-18.088c0-3.061,0.98-5.497,2.94-7.308c1.96-1.811,4.564-2.717,7.812-2.717
	c3.024,0,5.497,0.916,7.42,2.744c1.922,1.83,2.884,4.256,2.884,7.28v1.68c0,0.188-0.065,0.346-0.196,0.477
	c-0.131,0.131-0.29,0.195-0.476,0.195h-6.552c-0.187,0-0.346-0.064-0.476-0.195c-0.131-0.131-0.196-0.289-0.196-0.477v-1.231
	c0-1.008-0.243-1.849-0.728-2.521c-0.485-0.672-1.045-1.008-1.68-1.008c-0.821,0-1.494,0.327-2.016,0.98
	c-0.523,0.653-0.784,1.503-0.784,2.548v5.656c0,0.111,0.037,0.177,0.112,0.195c0.075,0.02,0.149-0.009,0.224-0.084
	c1.232-1.045,2.632-1.567,4.2-1.567c2.613,0,4.712,0.858,6.3,2.575c1.586,1.718,2.455,4.014,2.604,6.889
	C210.021,149.651,210.097,150.752,210.097,152.059z M202.089,151.5c0-1.009-0.076-2.165-0.224-3.473
	c-0.112-0.858-0.392-1.53-0.84-2.016c-0.448-0.485-1.027-0.729-1.736-0.729c-0.747,0-1.354,0.252-1.82,0.757
	c-0.467,0.504-0.756,1.203-0.868,2.1c-0.112,1.456-0.168,2.576-0.168,3.36c0,0.896,0.056,2.053,0.168,3.472
	c0.112,0.971,0.401,1.718,0.868,2.24c0.466,0.522,1.073,0.783,1.82,0.783c0.747,0,1.353-0.279,1.82-0.84
	c0.467-0.56,0.756-1.344,0.868-2.352C202.051,153.011,202.089,151.911,202.089,151.5z"/>
<path class="st3" d="M217.173,132.079c-0.784-0.457-1.405-1.083-1.862-1.878c-0.457-0.795-0.686-1.66-0.686-2.597
	s0.229-1.797,0.686-2.581c0.458-0.784,1.078-1.409,1.862-1.878c0.784-0.468,1.633-0.702,2.548-0.702
	c0.915,0,1.758,0.234,2.531,0.702c0.773,0.469,1.383,1.094,1.829,1.878s0.67,1.645,0.67,2.581s-0.224,1.802-0.67,2.597
	s-1.056,1.421-1.829,1.878s-1.617,0.687-2.531,0.687C218.806,132.765,217.957,132.536,217.173,132.079z M221.566,129.564
	c0.49-0.545,0.735-1.198,0.735-1.96c0-0.763-0.251-1.41-0.751-1.944c-0.501-0.533-1.111-0.8-1.829-0.8
	c-0.741,0-1.367,0.267-1.878,0.8c-0.512,0.534-0.768,1.182-0.768,1.944c0,0.783,0.256,1.442,0.768,1.976
	c0.511,0.534,1.138,0.801,1.878,0.801C220.461,130.38,221.077,130.108,221.566,129.564z M218.055,145.471
	c-0.044-0.087-0.033-0.195,0.033-0.326l11.891-22.147c0.086-0.174,0.25-0.261,0.489-0.261h2.45c0.152,0,0.25,0.044,0.294,0.131
	c0.043,0.087,0.032,0.195-0.032,0.326l-11.891,22.146c-0.087,0.175-0.251,0.262-0.49,0.262h-2.45
	C218.196,145.602,218.099,145.559,218.055,145.471z M229.178,145.194c-0.773-0.468-1.389-1.1-1.846-1.895s-0.686-1.66-0.686-2.597
	s0.229-1.797,0.686-2.581s1.072-1.404,1.846-1.861c0.772-0.458,1.617-0.687,2.531-0.687c0.915,0,1.759,0.229,2.532,0.687
	c0.772,0.457,1.388,1.077,1.845,1.861c0.458,0.784,0.687,1.645,0.687,2.581s-0.229,1.802-0.687,2.597
	c-0.457,0.795-1.072,1.427-1.845,1.895c-0.773,0.468-1.617,0.702-2.532,0.702C230.795,145.896,229.95,145.662,229.178,145.194z
	 M233.571,142.663c0.501-0.545,0.751-1.198,0.751-1.96c0-0.763-0.256-1.41-0.768-1.944c-0.512-0.533-1.127-0.8-1.846-0.8
	c-0.74,0-1.361,0.267-1.861,0.8c-0.502,0.534-0.752,1.182-0.752,1.944c0,0.783,0.25,1.442,0.752,1.976
	c0.5,0.534,1.121,0.801,1.861,0.801S233.07,143.207,233.571,142.663z"/>
<path class="st3" d="M8.301,177.166l-0.224-1.344c0-0.047-0.028-0.07-0.084-0.07H6.215c-0.056,0-0.084,0.023-0.084,0.07
	l-0.224,1.344c-0.009,0.104-0.07,0.154-0.182,0.154H4.087c-0.122,0-0.168-0.061-0.14-0.182l2.058-9.465
	c0.019-0.103,0.079-0.153,0.182-0.153h1.89c0.103,0,0.163,0.051,0.182,0.153l2.044,9.465l0.014,0.056
	c0,0.084-0.051,0.126-0.154,0.126h-1.68C8.371,177.32,8.31,177.27,8.301,177.166z M6.467,174.227h1.26
	c0.046,0,0.065-0.023,0.056-0.07l-0.658-3.822c-0.009-0.027-0.023-0.042-0.042-0.042c-0.019,0-0.033,0.015-0.042,0.042l-0.63,3.822
	C6.411,174.203,6.43,174.227,6.467,174.227z"/>
<path class="st3" d="M15.875,168.199c0.504,0.527,0.756,1.221,0.756,2.079v4.284c0,0.653-0.152,1.218-0.455,1.693
	c-0.303,0.477-0.721,0.812-1.253,1.009c-0.038,0.009-0.056,0.032-0.056,0.069v1.19c0,0.047-0.016,0.086-0.049,0.119
	c-0.033,0.032-0.072,0.049-0.119,0.049h-1.638c-0.047,0-0.086-0.017-0.119-0.049c-0.033-0.033-0.049-0.072-0.049-0.119v-1.19
	c0-0.037-0.019-0.061-0.056-0.069c-0.532-0.196-0.95-0.532-1.253-1.009c-0.304-0.476-0.455-1.04-0.455-1.693v-4.284
	c0-0.569,0.114-1.071,0.343-1.505c0.229-0.435,0.551-0.771,0.966-1.008c0.415-0.238,0.894-0.357,1.435-0.357
	C14.704,167.408,15.371,167.672,15.875,168.199z M13.103,174.772c0,0.289,0.07,0.522,0.21,0.7c0.14,0.177,0.327,0.266,0.56,0.266
	c0.233,0,0.422-0.089,0.567-0.266c0.145-0.178,0.217-0.411,0.217-0.7v-4.704c0-0.289-0.072-0.522-0.217-0.7
	c-0.145-0.177-0.334-0.266-0.567-0.266c-0.233,0-0.42,0.089-0.56,0.266c-0.14,0.178-0.21,0.411-0.21,0.7V174.772z"/>
<path class="st3" d="M18.864,176.642c-0.509-0.527-0.763-1.229-0.763-2.107v-6.846c0-0.047,0.016-0.086,0.049-0.119
	c0.033-0.032,0.072-0.049,0.119-0.049h1.638c0.047,0,0.086,0.017,0.119,0.049c0.033,0.033,0.049,0.072,0.049,0.119v7.042
	c0,0.299,0.075,0.541,0.224,0.728c0.149,0.188,0.345,0.28,0.588,0.28s0.437-0.093,0.581-0.28c0.145-0.187,0.217-0.429,0.217-0.728
	v-7.042c0-0.047,0.016-0.086,0.049-0.119c0.033-0.032,0.072-0.049,0.119-0.049h1.638c0.047,0,0.086,0.017,0.119,0.049
	c0.033,0.033,0.049,0.072,0.049,0.119v6.846c0,0.878-0.254,1.58-0.763,2.107c-0.509,0.527-1.179,0.791-2.009,0.791
	C20.047,177.433,19.373,177.169,18.864,176.642z"/>
<path class="st3" d="M30.274,169.165c-0.033,0.033-0.072,0.049-0.119,0.049h-2.926c-0.047,0-0.07,0.023-0.07,0.07v2.212
	c0,0.047,0.023,0.07,0.07,0.07h1.68c0.047,0,0.086,0.017,0.119,0.049c0.033,0.033,0.049,0.072,0.049,0.119v1.358
	c0,0.046-0.016,0.086-0.049,0.118c-0.033,0.033-0.072,0.05-0.119,0.05h-1.68c-0.047,0-0.07,0.023-0.07,0.069v2.227
	c0,0.047,0.023,0.069,0.07,0.069h2.926c0.047,0,0.086,0.017,0.119,0.05c0.033,0.032,0.049,0.072,0.049,0.118v1.358
	c0,0.047-0.016,0.086-0.049,0.119c-0.033,0.032-0.072,0.049-0.119,0.049h-4.802c-0.047,0-0.086-0.017-0.119-0.049
	c-0.033-0.033-0.049-0.072-0.049-0.119v-9.464c0-0.047,0.016-0.086,0.049-0.119c0.033-0.032,0.072-0.049,0.119-0.049h4.802
	c0.047,0,0.086,0.017,0.119,0.049c0.033,0.033,0.049,0.072,0.049,0.119v1.357C30.323,169.093,30.307,169.133,30.274,169.165z"/>
<path class="st3" d="M32.367,176.677c-0.514-0.505-0.77-1.177-0.77-2.017v-4.479c0-0.841,0.256-1.513,0.77-2.017
	c0.513-0.504,1.199-0.756,2.058-0.756c0.858,0,1.547,0.252,2.065,0.756s0.777,1.176,0.777,2.017v4.479
	c0,0.84-0.259,1.512-0.777,2.017c-0.518,0.504-1.207,0.756-2.065,0.756C33.566,177.433,32.88,177.181,32.367,176.677z
	 M35.055,175.465c0.159-0.182,0.238-0.422,0.238-0.721v-4.647c0-0.299-0.079-0.539-0.238-0.722c-0.159-0.182-0.369-0.272-0.63-0.272
	c-0.262,0-0.469,0.091-0.623,0.272c-0.154,0.183-0.231,0.423-0.231,0.722v4.647c0,0.299,0.077,0.539,0.231,0.721
	c0.154,0.183,0.361,0.273,0.623,0.273C34.686,175.738,34.896,175.647,35.055,175.465z"/>
<path class="st3" d="M39.5,176.642c-0.509-0.527-0.763-1.229-0.763-2.107v-6.846c0-0.047,0.016-0.086,0.049-0.119
	c0.033-0.032,0.072-0.049,0.119-0.049h1.638c0.047,0,0.086,0.017,0.119,0.049c0.033,0.033,0.049,0.072,0.049,0.119v7.042
	c0,0.299,0.075,0.541,0.224,0.728c0.149,0.188,0.345,0.28,0.588,0.28s0.437-0.093,0.581-0.28c0.145-0.187,0.217-0.429,0.217-0.728
	v-7.042c0-0.047,0.016-0.086,0.049-0.119c0.033-0.032,0.072-0.049,0.119-0.049h1.638c0.047,0,0.086,0.017,0.119,0.049
	c0.033,0.033,0.049,0.072,0.049,0.119v6.846c0,0.878-0.254,1.58-0.763,2.107c-0.509,0.527-1.179,0.791-2.009,0.791
	C40.683,177.433,40.008,177.169,39.5,176.642z"/>
<path class="st3" d="M46.997,177.11c-0.411-0.215-0.728-0.516-0.952-0.903c-0.224-0.387-0.336-0.833-0.336-1.337v-0.406
	c0-0.046,0.016-0.086,0.049-0.118c0.032-0.033,0.072-0.05,0.119-0.05h1.61c0.046,0,0.086,0.017,0.119,0.05
	c0.033,0.032,0.049,0.072,0.049,0.118v0.309c0,0.289,0.074,0.522,0.224,0.7c0.149,0.177,0.336,0.266,0.56,0.266
	s0.411-0.084,0.56-0.252s0.224-0.387,0.224-0.658c0-0.28-0.093-0.52-0.28-0.721c-0.187-0.201-0.551-0.497-1.092-0.889
	c-0.467-0.337-0.845-0.635-1.134-0.896c-0.29-0.261-0.537-0.583-0.742-0.966c-0.206-0.383-0.308-0.826-0.308-1.33
	c0-0.793,0.247-1.428,0.742-1.904c0.495-0.476,1.148-0.714,1.96-0.714c0.821,0,1.481,0.247,1.981,0.742
	c0.499,0.495,0.749,1.144,0.749,1.946v0.336c0,0.047-0.017,0.086-0.049,0.119c-0.033,0.032-0.073,0.049-0.119,0.049h-1.61
	c-0.047,0-0.086-0.017-0.119-0.049c-0.033-0.033-0.049-0.072-0.049-0.119v-0.378c0-0.29-0.072-0.521-0.217-0.693
	c-0.145-0.173-0.334-0.259-0.567-0.259c-0.224,0-0.406,0.082-0.546,0.245c-0.14,0.163-0.21,0.39-0.21,0.679
	c0,0.28,0.088,0.527,0.266,0.742s0.527,0.513,1.05,0.896c0.579,0.43,1.015,0.777,1.309,1.043c0.294,0.267,0.522,0.561,0.686,0.882
	c0.164,0.322,0.245,0.707,0.245,1.155c0,0.821-0.252,1.475-0.756,1.96s-1.167,0.729-1.988,0.729
	C47.883,177.433,47.407,177.325,46.997,177.11z"/>
<path class="st3" d="M0.298,194.812c-0.033-0.033-0.049-0.072-0.049-0.119v-9.464c0-0.047,0.016-0.086,0.049-0.119
	c0.033-0.032,0.072-0.049,0.119-0.049h2.534c0.849,0,1.531,0.247,2.044,0.742c0.513,0.494,0.77,1.152,0.77,1.974v4.368
	c0,0.821-0.257,1.479-0.77,1.974c-0.513,0.495-1.195,0.742-2.044,0.742H0.417C0.37,194.861,0.331,194.845,0.298,194.812z
	 M2.293,193.167l0.63-0.014c0.252-0.009,0.457-0.116,0.616-0.322c0.159-0.205,0.243-0.476,0.252-0.812v-4.116
	c0-0.354-0.08-0.635-0.238-0.84s-0.374-0.309-0.644-0.309H2.293c-0.047,0-0.07,0.023-0.07,0.07v6.272
	C2.223,193.145,2.246,193.167,2.293,193.167z"/>
<path class="st3" d="M12.38,186.706c-0.033,0.033-0.072,0.049-0.119,0.049H9.335c-0.047,0-0.07,0.023-0.07,0.07v2.212
	c0,0.047,0.023,0.07,0.07,0.07h1.68c0.047,0,0.086,0.017,0.119,0.049c0.033,0.033,0.049,0.072,0.049,0.119v1.358
	c0,0.046-0.016,0.086-0.049,0.118c-0.033,0.033-0.072,0.05-0.119,0.05h-1.68c-0.047,0-0.07,0.023-0.07,0.069v2.227
	c0,0.047,0.023,0.069,0.07,0.069h2.926c0.047,0,0.086,0.017,0.119,0.05c0.033,0.032,0.049,0.072,0.049,0.118v1.358
	c0,0.047-0.016,0.086-0.049,0.119c-0.033,0.032-0.072,0.049-0.119,0.049H7.459c-0.047,0-0.086-0.017-0.119-0.049
	c-0.033-0.033-0.049-0.072-0.049-0.119v-9.464c0-0.047,0.016-0.086,0.049-0.119c0.033-0.032,0.072-0.049,0.119-0.049h4.802
	c0.047,0,0.086,0.017,0.119,0.049c0.033,0.033,0.049,0.072,0.049,0.119v1.357C12.429,186.634,12.413,186.674,12.38,186.706z"/>
<path class="st3" d="M18.917,186.706c-0.033,0.033-0.072,0.049-0.119,0.049h-2.912c-0.047,0-0.07,0.023-0.07,0.07v2.212
	c0,0.047,0.023,0.07,0.07,0.07h1.666c0.046,0,0.086,0.017,0.119,0.049c0.033,0.033,0.049,0.072,0.049,0.119v1.358
	c0,0.046-0.017,0.086-0.049,0.118c-0.033,0.033-0.072,0.05-0.119,0.05h-1.666c-0.047,0-0.07,0.023-0.07,0.069v3.822
	c0,0.047-0.016,0.086-0.049,0.119c-0.033,0.032-0.072,0.049-0.119,0.049h-1.638c-0.047,0-0.086-0.017-0.119-0.049
	c-0.033-0.033-0.049-0.072-0.049-0.119v-9.464c0-0.047,0.016-0.086,0.049-0.119c0.033-0.032,0.072-0.049,0.119-0.049h4.788
	c0.047,0,0.086,0.017,0.119,0.049c0.033,0.033,0.049,0.072,0.049,0.119v1.357C18.967,186.634,18.95,186.674,18.917,186.706z"/>
<path class="st3" d="M20.206,194.812c-0.033-0.033-0.049-0.072-0.049-0.119v-9.464c0-0.047,0.016-0.086,0.049-0.119
	c0.033-0.032,0.072-0.049,0.119-0.049h1.638c0.047,0,0.086,0.017,0.119,0.049c0.033,0.033,0.049,0.072,0.049,0.119v9.464
	c0,0.047-0.016,0.086-0.049,0.119c-0.033,0.032-0.072,0.049-0.119,0.049h-1.638C20.278,194.861,20.238,194.845,20.206,194.812z"/>
<path class="st3" d="M24.419,194.225c-0.509-0.499-0.763-1.169-0.763-2.01v-4.535c0-0.831,0.254-1.493,0.763-1.988
	s1.183-0.742,2.023-0.742c0.849,0,1.528,0.247,2.037,0.742s0.763,1.157,0.763,1.988v0.153c0,0.047-0.017,0.087-0.049,0.119
	c-0.033,0.033-0.073,0.049-0.119,0.049l-1.638,0.07c-0.112,0-0.168-0.051-0.168-0.154v-0.363c0-0.271-0.075-0.49-0.224-0.658
	s-0.35-0.252-0.602-0.252c-0.243,0-0.439,0.084-0.588,0.252s-0.224,0.388-0.224,0.658v4.83c0,0.271,0.074,0.487,0.224,0.65
	s0.345,0.245,0.588,0.245c0.252,0,0.452-0.082,0.602-0.245s0.224-0.38,0.224-0.65v-0.379c0-0.046,0.016-0.086,0.049-0.118
	c0.032-0.033,0.072-0.05,0.119-0.05l1.638,0.07c0.046,0,0.086,0.017,0.119,0.049c0.032,0.033,0.049,0.072,0.049,0.119v0.14
	c0,0.841-0.257,1.511-0.77,2.01s-1.19,0.749-2.03,0.749C25.603,194.974,24.928,194.724,24.419,194.225z"/>
<path class="st3" d="M30.761,194.812c-0.033-0.033-0.049-0.072-0.049-0.119v-9.464c0-0.047,0.016-0.086,0.049-0.119
	c0.033-0.032,0.072-0.049,0.119-0.049h1.638c0.047,0,0.086,0.017,0.119,0.049c0.033,0.033,0.049,0.072,0.049,0.119v9.464
	c0,0.047-0.016,0.086-0.049,0.119c-0.033,0.032-0.072,0.049-0.119,0.049H30.88C30.833,194.861,30.794,194.845,30.761,194.812z"/>
<path class="st3" d="M39.441,186.706c-0.033,0.033-0.072,0.049-0.119,0.049h-2.926c-0.047,0-0.07,0.023-0.07,0.07v2.212
	c0,0.047,0.023,0.07,0.07,0.07h1.68c0.047,0,0.086,0.017,0.119,0.049c0.033,0.033,0.049,0.072,0.049,0.119v1.358
	c0,0.046-0.016,0.086-0.049,0.118c-0.033,0.033-0.072,0.05-0.119,0.05h-1.68c-0.047,0-0.07,0.023-0.07,0.069v2.227
	c0,0.047,0.023,0.069,0.07,0.069h2.926c0.047,0,0.086,0.017,0.119,0.05c0.033,0.032,0.049,0.072,0.049,0.118v1.358
	c0,0.047-0.016,0.086-0.049,0.119c-0.033,0.032-0.072,0.049-0.119,0.049h-4.802c-0.047,0-0.086-0.017-0.119-0.049
	c-0.033-0.033-0.049-0.072-0.049-0.119v-9.464c0-0.047,0.016-0.086,0.049-0.119c0.033-0.032,0.072-0.049,0.119-0.049h4.802
	c0.047,0,0.086,0.017,0.119,0.049c0.033,0.033,0.049,0.072,0.049,0.119v1.357C39.49,186.634,39.474,186.674,39.441,186.706z"/>
<path class="st3" d="M44.957,185.11c0.033-0.032,0.072-0.049,0.119-0.049H46.7c0.046,0,0.086,0.017,0.119,0.049
	c0.033,0.033,0.049,0.072,0.049,0.119v9.464c0,0.047-0.017,0.086-0.049,0.119c-0.033,0.032-0.072,0.049-0.119,0.049h-1.848
	c-0.093,0-0.154-0.047-0.182-0.14l-1.736-5.418c-0.009-0.028-0.026-0.04-0.049-0.035c-0.023,0.005-0.035,0.021-0.035,0.049
	l0.014,5.376c0,0.047-0.017,0.086-0.049,0.119c-0.033,0.032-0.072,0.049-0.119,0.049h-1.624c-0.047,0-0.086-0.017-0.119-0.049
	c-0.033-0.033-0.049-0.072-0.049-0.119v-9.464c0-0.047,0.016-0.086,0.049-0.119c0.033-0.032,0.072-0.049,0.119-0.049h1.834
	c0.093,0,0.154,0.047,0.182,0.14l1.75,5.418c0.009,0.028,0.026,0.04,0.049,0.035c0.023-0.005,0.035-0.021,0.035-0.049l-0.014-5.376
	C44.908,185.183,44.924,185.144,44.957,185.11z"/>
<path class="st3" d="M54.071,185.11c0.033,0.033,0.049,0.072,0.049,0.119v1.357c0,0.047-0.016,0.087-0.049,0.119
	c-0.033,0.033-0.072,0.049-0.119,0.049h-1.75c-0.047,0-0.07,0.023-0.07,0.07v7.868c0,0.047-0.017,0.086-0.049,0.119
	c-0.033,0.032-0.073,0.049-0.119,0.049h-1.638c-0.047,0-0.086-0.017-0.119-0.049c-0.033-0.033-0.049-0.072-0.049-0.119v-7.868
	c0-0.047-0.023-0.07-0.07-0.07h-1.68c-0.047,0-0.086-0.016-0.119-0.049c-0.033-0.032-0.049-0.072-0.049-0.119v-1.357
	c0-0.047,0.016-0.086,0.049-0.119c0.033-0.032,0.072-0.049,0.119-0.049h5.544C53.999,185.062,54.039,185.078,54.071,185.11z"/>
<path class="st3" d="M11.724,129.359h4.477c0.123,0,0.228,0.044,0.314,0.13c0.086,0.087,0.129,0.191,0.129,0.314v25.012
	c0,0.124-0.043,0.229-0.129,0.314c-0.086,0.087-0.191,0.13-0.314,0.13h-4.329c-0.124,0-0.228-0.043-0.314-0.13
	c-0.086-0.086-0.129-0.19-0.129-0.314v-20.202c0-0.098-0.062-0.147-0.185-0.147l-2.849,0.333H8.32c-0.272,0-0.407-0.136-0.407-0.407
	l-0.111-3.182c0-0.246,0.111-0.419,0.333-0.519l3.034-1.221C11.366,129.396,11.551,129.359,11.724,129.359z"/>
<path class="st3" d="M35.237,144.142c0.086,0.086,0.129,0.191,0.129,0.314v3.811c0,0.124-0.043,0.229-0.129,0.314
	c-0.087,0.087-0.191,0.13-0.315,0.13h-1.147c-0.124,0-0.185,0.062-0.185,0.185v5.92c0,0.124-0.043,0.229-0.129,0.314
	c-0.086,0.087-0.191,0.13-0.314,0.13h-4.329c-0.124,0-0.228-0.043-0.314-0.13c-0.086-0.086-0.129-0.19-0.129-0.314v-5.92
	c0-0.123-0.062-0.185-0.185-0.185h-9.25c-0.124,0-0.229-0.043-0.314-0.13c-0.087-0.086-0.129-0.19-0.129-0.314v-3.034
	c0-0.222,0.024-0.406,0.074-0.555l4.921-14.948c0.074-0.246,0.234-0.37,0.481-0.37h4.699c0.148,0,0.259,0.044,0.333,0.13
	c0.074,0.087,0.086,0.216,0.037,0.389L24.6,143.79c-0.025,0.147,0.024,0.222,0.148,0.222h3.441c0.123,0,0.185-0.062,0.185-0.185
	v-3.849c0-0.123,0.043-0.228,0.129-0.314c0.086-0.086,0.191-0.129,0.314-0.129h4.329c0.123,0,0.228,0.043,0.314,0.129
	c0.086,0.087,0.129,0.191,0.129,0.314v3.849c0,0.123,0.062,0.185,0.185,0.185h1.147C35.046,144.012,35.15,144.055,35.237,144.142z"
	/>
<path class="st3" d="M38.196,133.993c-0.518-0.303-0.928-0.716-1.23-1.241s-0.453-1.097-0.453-1.716
	c0-0.618,0.151-1.188,0.453-1.705s0.712-0.932,1.23-1.241c0.518-0.309,1.079-0.464,1.684-0.464s1.162,0.155,1.672,0.464
	c0.511,0.31,0.914,0.724,1.209,1.241c0.294,0.518,0.442,1.087,0.442,1.705c0,0.619-0.148,1.19-0.442,1.716
	c-0.295,0.525-0.698,0.938-1.209,1.241c-0.511,0.302-1.068,0.453-1.672,0.453S38.714,134.295,38.196,133.993z M41.099,132.331
	c0.324-0.359,0.486-0.791,0.486-1.295s-0.166-0.932-0.497-1.284s-0.734-0.528-1.208-0.528c-0.489,0-0.903,0.176-1.241,0.528
	s-0.507,0.78-0.507,1.284c0,0.518,0.169,0.953,0.507,1.306s0.752,0.528,1.241,0.528C40.368,132.87,40.775,132.69,41.099,132.331z
	 M38.779,142.842c-0.029-0.058-0.021-0.13,0.021-0.216l7.856-14.633c0.057-0.115,0.165-0.173,0.324-0.173h1.619
	c0.101,0,0.165,0.029,0.194,0.086c0.028,0.058,0.021,0.13-0.022,0.216l-7.855,14.633c-0.058,0.115-0.166,0.173-0.324,0.173h-1.619
	C38.872,142.928,38.807,142.899,38.779,142.842z M46.127,142.658c-0.511-0.31-0.917-0.727-1.219-1.252
	c-0.302-0.525-0.454-1.097-0.454-1.716c0-0.618,0.151-1.187,0.454-1.705c0.302-0.518,0.708-0.928,1.219-1.23
	c0.51-0.302,1.068-0.453,1.672-0.453c0.604,0,1.162,0.151,1.673,0.453c0.51,0.303,0.917,0.713,1.219,1.23
	c0.302,0.519,0.453,1.087,0.453,1.705c0,0.619-0.151,1.19-0.453,1.716s-0.709,0.942-1.219,1.252
	c-0.511,0.309-1.068,0.464-1.673,0.464C47.196,143.122,46.638,142.967,46.127,142.658z M49.03,140.985
	c0.331-0.359,0.496-0.791,0.496-1.295s-0.169-0.932-0.507-1.284c-0.338-0.353-0.745-0.528-1.22-0.528
	c-0.489,0-0.899,0.176-1.23,0.528c-0.331,0.353-0.497,0.78-0.497,1.284c0,0.518,0.166,0.953,0.497,1.306
	c0.331,0.353,0.741,0.529,1.23,0.529S48.699,141.345,49.03,140.985z"/>
<rect x="67.758" y="161.897" class="st3" width="33.428" height="1"/>
</svg>
