<?xml version="1.0" encoding="utf-8"?>
<!-- Generator: Adobe Illustrator 27.0.1, SVG Export Plug-In . SVG Version: 6.00 Build 0)  -->
<svg version="1.1" id="Layer_1" xmlns="http://www.w3.org/2000/svg" xmlns:xlink="http://www.w3.org/1999/xlink" x="0px" y="0px"
	 width="216px" height="178px" viewBox="0 0 216 178" style="enable-background:new 0 0 216 178;" xml:space="preserve">
<style type="text/css">
	.st0{opacity:0.999;fill:#A4DBE8;enable-background:new    ;}
	.st1{fill:#FFFFFF;}
	.st2{fill:#707070;}
	.st3{fill:#E35205;}
</style>
<path id="Ellipse_193" class="st0" d="M179.141,84.388c-10.275,2.755-20.694,1.084-29.232-3.844s-19.194-29.473-19.265-32.482
	c-0.412-17.357,11.032-33.395,28.545-38.091c20.55-5.51,41.675,6.683,47.185,27.232C211.883,57.753,199.69,78.878,179.141,84.388z"
	/>
<path class="st1" d="M69.503,97.229c1.166,0.741,2.031,1.784,2.597,3.127c0.707,1.52,1.06,3.304,1.06,5.353
	c0,1.626-0.283,3.251-0.848,4.876c-0.742,1.943-1.926,3.472-3.551,4.585c-1.625,1.112-3.516,1.669-5.671,1.669
	c-2.156,0-4.046-0.547-5.671-1.643c-1.625-1.095-2.809-2.632-3.551-4.611c-0.565-1.448-0.848-3.074-0.848-4.876
	c0-1.979,0.318-3.71,0.954-5.194c0.495-1.342,1.396-2.419,2.703-3.232c0.212-0.106,0.212-0.212,0-0.318
	c-1.237-0.848-2.12-1.908-2.65-3.18c-0.672-1.555-1.007-3.197-1.007-4.929c0-1.908,0.335-3.552,1.007-4.93
	c0.742-1.66,1.916-2.959,3.524-3.896c1.607-0.936,3.453-1.404,5.539-1.404c2.049,0,3.869,0.45,5.459,1.352
	c1.59,0.901,2.773,2.199,3.551,3.896c0.707,1.484,1.06,3.146,1.06,4.982c0,1.731-0.336,3.356-1.007,4.876
	c-0.53,1.271-1.431,2.314-2.703,3.127C69.308,96.999,69.326,97.122,69.503,97.229z M60.387,89.543c0,0.813,0.124,1.626,0.371,2.438
	c0.141,0.707,0.415,1.271,0.821,1.695c0.406,0.424,0.909,0.637,1.511,0.637c0.6,0,1.113-0.221,1.537-0.663
	c0.424-0.441,0.707-1.015,0.848-1.723c0.212-0.706,0.318-1.483,0.318-2.332c0-0.918-0.124-1.695-0.371-2.332
	c-0.177-0.67-0.469-1.21-0.875-1.616c-0.407-0.405-0.893-0.609-1.458-0.609c-0.602,0-1.105,0.204-1.511,0.609
	c-0.407,0.406-0.698,0.98-0.875,1.723C60.493,88.006,60.387,88.73,60.387,89.543z M65.793,105.231c0-1.061-0.106-1.979-0.318-2.757
	c-0.177-0.776-0.469-1.386-0.875-1.828c-0.407-0.441-0.91-0.662-1.51-0.662c-0.636,0-1.166,0.229-1.59,0.688
	c-0.424,0.46-0.707,1.096-0.848,1.908c-0.177,0.813-0.265,1.661-0.265,2.544c0,0.989,0.07,1.838,0.212,2.544
	c0.141,0.848,0.424,1.52,0.848,2.014c0.424,0.496,0.971,0.742,1.643,0.742c0.67,0,1.227-0.256,1.669-0.769
	c0.441-0.512,0.715-1.21,0.821-2.093C65.722,106.645,65.793,105.867,65.793,105.231z"/>
<path class="st1" d="M93.379,114.268c-1.855,1.714-4.319,2.57-7.394,2.57c-2.897,0-5.247-0.856-7.049-2.57
	c-1.802-1.714-2.703-4.019-2.703-6.917v-1.59c0-0.176,0.062-0.326,0.186-0.45c0.124-0.123,0.273-0.186,0.451-0.186h6.201
	c0.177,0,0.327,0.062,0.451,0.186c0.124,0.124,0.186,0.274,0.186,0.45v1.166c0,0.954,0.22,1.749,0.663,2.386
	c0.441,0.636,0.98,0.953,1.616,0.953c0.777,0,1.405-0.309,1.882-0.927s0.715-1.422,0.715-2.412v-5.3
	c0-0.105-0.036-0.167-0.106-0.186c-0.071-0.018-0.142,0.009-0.212,0.08c-1.131,0.953-2.438,1.431-3.922,1.431
	c-2.473,0-4.461-0.812-5.962-2.438c-1.502-1.624-2.341-3.798-2.518-6.519c-0.106-0.954-0.159-1.996-0.159-3.127
	c0-0.777,0.035-1.837,0.106-3.18c0.106-2.791,1.06-4.956,2.862-6.493c1.802-1.537,4.205-2.306,7.208-2.306
	c2.827,0,5.115,0.708,6.864,2.12c1.749,1.414,2.782,3.517,3.101,6.308c0.141,1.131,0.212,2.103,0.212,2.915l0.053,17.118
	C96.143,110.249,95.233,112.554,93.379,114.268z M88.582,91.398c0-1.308-0.036-2.402-0.106-3.286
	c-0.106-0.919-0.38-1.625-0.822-2.12c-0.442-0.494-1.016-0.742-1.722-0.742c-0.708,0-1.281,0.265-1.723,0.795
	c-0.442,0.53-0.715,1.272-0.821,2.227c-0.071,0.848-0.106,1.891-0.106,3.127c0,0.812,0.053,1.907,0.159,3.285
	c0.141,0.813,0.424,1.449,0.848,1.908c0.424,0.46,0.971,0.689,1.643,0.689c0.671,0,1.227-0.238,1.669-0.716
	c0.441-0.477,0.733-1.14,0.875-1.987C88.546,93.66,88.582,92.6,88.582,91.398z"/>
<path class="st1" d="M100.843,85.95c-0.742-0.433-1.329-1.025-1.762-1.777c-0.433-0.752-0.649-1.571-0.649-2.458
	c0-0.886,0.216-1.7,0.649-2.442c0.433-0.742,1.021-1.334,1.762-1.777c0.742-0.443,1.546-0.665,2.411-0.665
	c0.866,0,1.664,0.222,2.396,0.665c0.73,0.443,1.309,1.035,1.73,1.777c0.423,0.742,0.634,1.557,0.634,2.442
	c0,0.887-0.211,1.706-0.634,2.458c-0.422,0.752-1,1.345-1.73,1.777c-0.732,0.433-1.53,0.649-2.396,0.649
	C102.389,86.6,101.585,86.383,100.843,85.95z M105.001,83.569c0.464-0.515,0.695-1.133,0.695-1.854c0-0.721-0.237-1.334-0.711-1.84
	c-0.475-0.504-1.051-0.757-1.731-0.757c-0.701,0-1.293,0.253-1.777,0.757c-0.484,0.506-0.727,1.119-0.727,1.84
	c0,0.742,0.242,1.365,0.727,1.87c0.484,0.506,1.077,0.758,1.777,0.758C103.954,84.343,104.537,84.085,105.001,83.569z
	 M101.678,98.625c-0.042-0.082-0.031-0.186,0.031-0.309l11.252-20.961c0.083-0.164,0.237-0.247,0.464-0.247h2.319
	c0.144,0,0.236,0.042,0.277,0.124c0.042,0.082,0.031,0.186-0.03,0.309l-11.253,20.961c-0.083,0.165-0.237,0.247-0.464,0.247h-2.318
	C101.811,98.749,101.719,98.708,101.678,98.625z M112.204,98.362c-0.732-0.442-1.314-1.04-1.747-1.793
	c-0.433-0.752-0.649-1.571-0.649-2.458c0-0.886,0.217-1.7,0.649-2.441c0.433-0.742,1.015-1.33,1.747-1.763
	c0.731-0.433,1.53-0.649,2.396-0.649c0.866,0,1.664,0.217,2.396,0.649c0.731,0.433,1.313,1.021,1.746,1.763
	c0.433,0.741,0.649,1.556,0.649,2.441c0,0.887-0.217,1.706-0.649,2.458c-0.433,0.753-1.015,1.351-1.746,1.793
	c-0.732,0.443-1.53,0.665-2.396,0.665C113.734,99.027,112.935,98.806,112.204,98.362z M116.362,95.967
	c0.474-0.515,0.711-1.134,0.711-1.855c0-0.721-0.243-1.334-0.727-1.839c-0.484-0.505-1.066-0.758-1.747-0.758
	c-0.7,0-1.288,0.253-1.762,0.758c-0.475,0.505-0.711,1.118-0.711,1.839c0,0.742,0.236,1.366,0.711,1.871
	c0.474,0.505,1.062,0.757,1.762,0.757S115.888,96.482,116.362,95.967z"/>
<path class="st2" d="M82.656,23.758L82.656,23.758c-39.145,0.089-71.417,30.713-73.555,69.8H9.1C9.015,95.184,9,95.786,9,97.414
	c0,40.679,32.977,73.656,73.656,73.656s73.656-32.977,73.656-73.656S123.335,23.758,82.656,23.758z M82.779,159.537
	c-34.242,0-62-27.758-62-62c0-34.242,27.758-62,62-62s62,27.758,62,62C144.779,131.779,117.021,159.537,82.779,159.537z"/>
<path d="M176.662,29.416h-28.335c-1.219,0-2.212,0.991-2.213,2.21v19.87c0,1.22,0.993,2.213,2.213,2.213h9.916
	c0.147,1.386-0.567,2.75-1.829,3.413h-3.408c-0.499,0-0.904,0.406-0.904,0.904c0,0.499,0.405,0.905,0.904,0.905h3.743l0.014,0.033
	l0.071-0.033h11.903l0.06,0.028l0.013-0.028h3.173c0.499,0,0.904-0.406,0.904-0.905c0-0.499-0.405-0.904-0.904-0.904h-2.791
	c-1.252-0.67-1.957-2.032-1.805-3.413h9.295h0.002c1.22-0.013,2.202-1.016,2.19-2.233V31.625
	C178.873,30.407,177.88,29.416,176.662,29.416z M159.066,57.122c0.694-0.983,1.04-2.189,0.955-3.413h5.527
	c-0.085,1.224,0.261,2.43,0.955,3.413H159.066z M177.066,51.476c0,0.223-0.182,0.404-0.404,0.404h-28.335
	c-0.223,0-0.404-0.181-0.404-0.404v-4.009h29.144V51.476z M177.066,45.658h-29.144V31.616c0-0.223,0.182-0.404,0.404-0.404
	l28.335,0.01c0.223,0,0.404,0.181,0.404,0.404V45.658z"/>
<path d="M164.088,34.131c-0.178-0.164-0.391-0.244-0.65-0.24c-0.241,0.009-0.465,0.112-0.628,0.289l-5.557,5.96
	c-0.157,0.168-0.244,0.388-0.244,0.618c-0.001,0.242,0.093,0.47,0.264,0.642c0.171,0.172,0.398,0.267,0.641,0.268h0.005h0.004
	c0.233-0.008,0.452-0.104,0.621-0.275l5.595-5.982c0.164-0.178,0.25-0.409,0.24-0.65S164.266,34.295,164.088,34.131z"/>
<path d="M167.749,37.519c-0.176-0.166-0.405-0.257-0.648-0.246c-0.242,0.007-0.467,0.108-0.633,0.285l-3.672,3.918
	c-0.169,0.167-0.267,0.396-0.268,0.63c-0.003,0.239,0.088,0.465,0.255,0.636c0.167,0.17,0.389,0.265,0.627,0.269
	c0.013,0,0.026,0.001,0.039,0.001c0.25,0,0.489-0.103,0.66-0.286l3.677-3.925c0.166-0.176,0.254-0.407,0.247-0.648
	C168.025,37.909,167.925,37.685,167.749,37.519z"/>
<circle cx="162.501" cy="49.578" r="0.976"/>
<path d="M186.851,53.983l0.001,0.104l0.009,0.008c0.054,0.357,0.362,0.631,0.734,0.631h3.946c0.41,0,0.743-0.333,0.743-0.744
	s-0.333-0.744-0.743-0.744h-3.947C187.184,53.24,186.851,53.573,186.851,53.983z"/>
<path d="M193.516,37.45h-7.895c-1.497,0.002-2.716,1.221-2.717,2.717v15.79c0.001,1.497,1.22,2.715,2.717,2.717h7.895
	c1.496-0.001,2.716-1.22,2.718-2.717V40.167C196.231,38.671,195.013,37.452,193.516,37.45z M188.204,40.418h2.728
	c0.471,0,0.896-0.262,1.107-0.684l0.397-0.797h1.079c0.678,0.001,1.229,0.553,1.23,1.23v15.79c-0.001,0.678-0.553,1.229-1.23,1.23
	h-7.895c-0.677-0.001-1.229-0.553-1.23-1.23v-15.79c0.002-0.677,0.554-1.229,1.23-1.23h1.079l0.397,0.797
	C187.309,40.156,187.732,40.418,188.204,40.418z"/>
<path d="M190.446,43.686c-0.225-0.227-0.591-0.231-0.825,0.001l-2.776,2.98c-0.103,0.108-0.158,0.249-0.158,0.397
	c0,0.318,0.26,0.578,0.578,0.578h0.005h0.006c0.146-0.006,0.284-0.067,0.393-0.177l2.809-3.001
	C190.669,44.232,190.656,43.898,190.446,43.686z"/>
<path d="M192.276,45.381c-0.223-0.23-0.588-0.235-0.826-0.006l-1.832,1.956c-0.107,0.106-0.168,0.249-0.17,0.4
	c-0.003,0.153,0.055,0.298,0.162,0.408c0.105,0.109,0.246,0.17,0.397,0.174c0.008,0,0.016,0,0.023,0c0.16,0,0.313-0.067,0.424-0.185
	l1.848-1.973C192.494,45.929,192.482,45.596,192.276,45.381z"/>
<polygon class="st3" points="82.657,23.758 82.656,23.758 82.656,23.758 "/>
<path class="st3" d="M82.658,23.758V35.54c0.04,0,0.08-0.003,0.121-0.003c34.242,0,62,27.758,62,62c0,34.242-27.758,62-62,62
	s-62-27.758-62-62c0-19.062,8.609-36.106,22.143-47.479l-7.557-9.006C20.248,53.75,10.258,72.409,9.101,93.558H9.1
	C9.015,95.184,9,95.786,9,97.414c0,40.679,32.977,73.656,73.656,73.656s73.656-32.977,73.656-73.656
	C156.312,56.736,123.336,23.759,82.658,23.758z"/>
</svg>
