<?xml version="1.0" encoding="utf-8"?>
<!-- Generator: Adobe Illustrator 27.0.1, SVG Export Plug-In . SVG Version: 6.00 Build 0)  -->
<svg version="1.1" id="Layer_1" xmlns="http://www.w3.org/2000/svg" xmlns:xlink="http://www.w3.org/1999/xlink" x="0px" y="0px"
	 width="234px" height="100px" viewBox="0 0 234 100" style="enable-background:new 0 0 234 100;" xml:space="preserve">
<style type="text/css">
	.st0{fill:#FFFFFF;}
</style>
<path class="st0" d="M35.798,50.582c0,1.291-0.059,3.051-0.176,5.279c-0.176,4.636-1.76,8.229-4.752,10.78
	c-2.992,2.552-6.982,3.828-11.968,3.828c-4.694,0-8.492-1.173-11.396-3.521c-2.904-2.346-4.62-5.837-5.148-10.472
	c-0.235-1.231-0.352-2.845-0.352-4.84L1.83,23.214c0-4.81,1.54-8.638,4.62-11.484c3.08-2.845,7.172-4.268,12.276-4.268
	c4.752,0,8.638,1.438,11.66,4.312c3.021,2.875,4.532,6.688,4.532,11.44v2.64c0,0.294-0.103,0.543-0.308,0.748
	c-0.206,0.206-0.455,0.308-0.748,0.308H23.566c-0.294,0-0.543-0.102-0.748-0.308c-0.206-0.205-0.308-0.454-0.308-0.748v-1.936
	c0-1.584-0.382-2.904-1.144-3.96c-0.763-1.057-1.643-1.584-2.64-1.584c-1.291,0-2.347,0.514-3.168,1.54
	c-0.822,1.026-1.232,2.361-1.232,4.004v8.888c0,0.176,0.058,0.279,0.176,0.308c0.117,0.03,0.234-0.014,0.352-0.132
	c1.936-1.642,4.136-2.464,6.6-2.464c4.105,0,7.406,1.351,9.9,4.048c2.493,2.699,3.857,6.308,4.092,10.824
	C35.679,46.798,35.798,48.528,35.798,50.582z M23.214,49.701c0-1.584-0.118-3.401-0.352-5.455c-0.176-1.35-0.616-2.405-1.32-3.169
	c-0.704-0.762-1.614-1.144-2.728-1.144c-1.174,0-2.127,0.396-2.86,1.188c-0.734,0.792-1.188,1.892-1.364,3.3
	c-0.176,2.288-0.264,4.048-0.264,5.279c0,1.408,0.088,3.228,0.264,5.456c0.176,1.526,0.63,2.699,1.364,3.521
	c0.733,0.822,1.686,1.231,2.86,1.231c1.173,0,2.126-0.439,2.86-1.319c0.733-0.88,1.188-2.112,1.364-3.696
	C23.155,52.077,23.214,50.347,23.214,49.701z"/>
<path class="st0" d="M45.213,65.849c-3.168-3.256-4.752-7.553-4.752-12.892V24.973c0-5.338,1.584-9.636,4.752-12.892
	c3.168-3.257,7.333-4.885,12.496-4.885c3.401,0,6.424,0.734,9.064,2.2c2.64,1.468,4.678,3.551,6.116,6.248
	c1.437,2.699,2.156,5.809,2.156,9.328v27.984c0,3.52-0.719,6.63-2.156,9.327c-1.438,2.699-3.476,4.783-6.116,6.248
	c-2.64,1.466-5.663,2.2-9.064,2.2C52.546,70.733,48.381,69.105,45.213,65.849z M61.273,58.325c0.909-1.173,1.364-2.728,1.364-4.663
	V24.269c0-1.936-0.455-3.489-1.364-4.664c-0.91-1.173-2.099-1.76-3.564-1.76c-1.467,0-2.64,0.587-3.52,1.76
	c-0.88,1.175-1.32,2.729-1.32,4.664v29.393c0,1.936,0.44,3.49,1.32,4.663c0.88,1.175,2.053,1.761,3.52,1.761
	C59.174,60.086,60.363,59.5,61.273,58.325z"/>
<path class="st0" d="M99.662,19.184c-1.232-0.719-2.207-1.701-2.926-2.951c-0.719-1.249-1.078-2.609-1.078-4.081
	c0-1.471,0.359-2.823,1.078-4.055s1.694-2.215,2.926-2.951c1.232-0.735,2.566-1.104,4.004-1.104c1.437,0,2.763,0.368,3.978,1.104
	c1.214,0.736,2.173,1.72,2.875,2.951c0.701,1.231,1.052,2.584,1.052,4.055c0,1.472-0.352,2.832-1.052,4.081
	c-0.702,1.25-1.66,2.232-2.875,2.951c-1.215,0.719-2.541,1.078-3.978,1.078C102.229,20.262,100.894,19.903,99.662,19.184z
	 M106.566,15.232c0.77-0.854,1.155-1.882,1.155-3.08c0-1.197-0.394-2.215-1.181-3.054c-0.788-0.838-1.746-1.258-2.875-1.258
	c-1.164,0-2.148,0.42-2.952,1.258c-0.804,0.839-1.206,1.856-1.206,3.054c0,1.232,0.402,2.268,1.206,3.105
	c0.804,0.839,1.788,1.258,2.952,1.258C104.829,16.515,105.796,16.087,106.566,15.232z M101.048,40.23
	c-0.069-0.137-0.051-0.309,0.052-0.514l18.684-34.802c0.137-0.273,0.394-0.41,0.771-0.41h3.85c0.238,0,0.393,0.068,0.462,0.205
	c0.068,0.137,0.051,0.308-0.052,0.514L106.13,40.025c-0.137,0.273-0.394,0.41-0.77,0.41h-3.85
	C101.27,40.435,101.116,40.366,101.048,40.23z M118.526,39.793c-1.215-0.735-2.182-1.728-2.899-2.978
	c-0.719-1.248-1.078-2.608-1.078-4.08s0.359-2.823,1.078-4.056c0.718-1.231,1.685-2.207,2.899-2.926s2.541-1.078,3.979-1.078
	s2.763,0.359,3.978,1.078s2.182,1.694,2.9,2.926c0.719,1.232,1.078,2.584,1.078,4.056s-0.359,2.832-1.078,4.08
	c-0.719,1.25-1.686,2.242-2.9,2.978s-2.54,1.104-3.978,1.104S119.74,40.529,118.526,39.793z M125.43,35.815
	c0.787-0.854,1.181-1.881,1.181-3.079c0-1.197-0.402-2.216-1.206-3.055c-0.805-0.838-1.771-1.257-2.9-1.257
	c-1.164,0-2.139,0.419-2.926,1.257c-0.788,0.839-1.181,1.857-1.181,3.055c0,1.231,0.393,2.267,1.181,3.105
	c0.787,0.839,1.762,1.257,2.926,1.257C123.667,37.098,124.642,36.671,125.43,35.815z"/>
<path class="st0" d="M89.691,66.262c-0.88-0.864-1.32-2.017-1.32-3.456v-7.681c0-1.439,0.44-2.592,1.32-3.456
	c0.879-0.863,2.056-1.296,3.528-1.296c1.472,0,2.652,0.433,3.54,1.296c0.888,0.864,1.332,2.016,1.332,3.456v7.681
	c0,1.439-0.444,2.592-1.332,3.456c-0.888,0.863-2.068,1.296-3.54,1.296C91.747,67.558,90.571,67.126,89.691,66.262z M94.299,64.186
	c0.272-0.312,0.408-0.724,0.408-1.236v-7.968c0-0.512-0.136-0.924-0.408-1.236c-0.272-0.312-0.632-0.468-1.08-0.468
	c-0.448,0-0.804,0.156-1.068,0.468c-0.264,0.312-0.396,0.725-0.396,1.236v7.968c0,0.513,0.132,0.924,0.396,1.236
	c0.264,0.312,0.62,0.468,1.068,0.468C93.667,64.654,94.027,64.498,94.299,64.186z"/>
<path class="st0" d="M108.662,53.385c-0.056,0.057-0.124,0.084-0.204,0.084h-4.992c-0.08,0-0.12,0.041-0.12,0.12v3.792
	c0,0.081,0.04,0.12,0.12,0.12h2.856c0.08,0,0.148,0.028,0.204,0.084c0.056,0.057,0.084,0.124,0.084,0.204v2.328
	c0,0.08-0.028,0.148-0.084,0.204c-0.056,0.057-0.124,0.084-0.204,0.084h-2.856c-0.08,0-0.12,0.04-0.12,0.12v6.552
	c0,0.08-0.028,0.148-0.084,0.204c-0.056,0.057-0.124,0.084-0.204,0.084h-2.808c-0.081,0-0.148-0.027-0.204-0.084
	c-0.056-0.056-0.084-0.124-0.084-0.204V50.855c0-0.08,0.028-0.148,0.084-0.204c0.056-0.056,0.124-0.084,0.204-0.084h8.208
	c0.08,0,0.148,0.028,0.204,0.084s0.084,0.124,0.084,0.204v2.328C108.746,53.262,108.719,53.33,108.662,53.385z"/>
<path class="st0" d="M122.33,51.191c0.688,0.432,1.22,1.036,1.596,1.811c0.376,0.776,0.564,1.66,0.564,2.652
	c0,1.488-0.4,2.68-1.2,3.576c-0.801,0.896-1.849,1.344-3.145,1.344h-1.8c-0.08,0-0.12,0.04-0.12,0.12v6.384
	c0,0.08-0.028,0.148-0.084,0.204c-0.056,0.057-0.124,0.084-0.204,0.084h-2.808c-0.08,0-0.148-0.027-0.204-0.084
	c-0.057-0.056-0.084-0.124-0.084-0.204V50.83c0-0.08,0.027-0.147,0.084-0.204c0.056-0.056,0.124-0.084,0.204-0.084h4.848
	C120.858,50.542,121.642,50.758,122.33,51.191z M120.638,57.346c0.312-0.393,0.468-0.933,0.468-1.62
	c0-0.704-0.155-1.256-0.468-1.656c-0.312-0.399-0.724-0.601-1.236-0.601h-1.056c-0.08,0-0.12,0.041-0.12,0.12v4.225
	c0,0.08,0.04,0.12,0.12,0.12h1.056C119.914,57.934,120.326,57.738,120.638,57.346z"/>
<path class="st0" d="M131.954,67.102l-0.384-2.305c0-0.079-0.048-0.12-0.145-0.12h-3.048c-0.096,0-0.144,0.041-0.144,0.12
	l-0.385,2.305c-0.016,0.176-0.119,0.264-0.312,0.264h-2.808c-0.209,0-0.288-0.104-0.24-0.312l3.527-16.224
	c0.032-0.176,0.136-0.264,0.312-0.264h3.24c0.176,0,0.279,0.088,0.312,0.264l3.504,16.224l0.024,0.096
	c0,0.144-0.088,0.216-0.264,0.216h-2.881C132.074,67.366,131.97,67.278,131.954,67.102z M128.81,62.062h2.16
	c0.08,0,0.112-0.04,0.097-0.12l-1.128-6.552c-0.017-0.049-0.041-0.072-0.072-0.072c-0.032,0-0.057,0.023-0.072,0.072l-1.08,6.552
	C128.714,62.022,128.746,62.062,128.81,62.062z"/>
<path class="st0" d="M144.878,50.651c0.056,0.056,0.084,0.124,0.084,0.204v2.328c0,0.08-0.028,0.147-0.084,0.203
	c-0.057,0.057-0.124,0.084-0.204,0.084h-3c-0.08,0-0.12,0.041-0.12,0.12v13.488c0,0.08-0.028,0.148-0.084,0.204
	c-0.056,0.057-0.124,0.084-0.204,0.084h-2.808c-0.08,0-0.148-0.027-0.204-0.084c-0.057-0.056-0.084-0.124-0.084-0.204V53.59
	c0-0.079-0.04-0.12-0.12-0.12h-2.88c-0.08,0-0.148-0.027-0.204-0.084c-0.057-0.056-0.084-0.123-0.084-0.203v-2.328
	c0-0.08,0.027-0.148,0.084-0.204c0.056-0.056,0.124-0.084,0.204-0.084h9.504C144.754,50.567,144.822,50.595,144.878,50.651z"/>
<path class="st0" d="M146.678,67.282c-0.056-0.056-0.084-0.124-0.084-0.204V50.855c0-0.08,0.028-0.148,0.084-0.204
	s0.124-0.084,0.204-0.084h2.808c0.08,0,0.148,0.028,0.204,0.084c0.057,0.056,0.084,0.124,0.084,0.204v16.223
	c0,0.08-0.027,0.148-0.084,0.204c-0.056,0.057-0.124,0.084-0.204,0.084h-2.808C146.802,67.366,146.734,67.339,146.678,67.282z"/>
<path class="st0" d="M160.837,53.385c-0.056,0.057-0.124,0.084-0.203,0.084h-5.017c-0.08,0-0.12,0.041-0.12,0.12v3.792
	c0,0.081,0.04,0.12,0.12,0.12h2.88c0.08,0,0.148,0.028,0.204,0.084c0.056,0.057,0.084,0.124,0.084,0.204v2.328
	c0,0.08-0.028,0.148-0.084,0.204c-0.056,0.057-0.124,0.084-0.204,0.084h-2.88c-0.08,0-0.12,0.04-0.12,0.12v3.815
	c0,0.081,0.04,0.12,0.12,0.12h5.017c0.079,0,0.147,0.028,0.203,0.084c0.057,0.057,0.084,0.124,0.084,0.204v2.328
	c0,0.08-0.027,0.148-0.084,0.204c-0.056,0.057-0.124,0.084-0.203,0.084h-8.232c-0.08,0-0.148-0.027-0.204-0.084
	c-0.056-0.056-0.084-0.124-0.084-0.204V50.855c0-0.08,0.028-0.148,0.084-0.204s0.124-0.084,0.204-0.084h8.232
	c0.079,0,0.147,0.028,0.203,0.084c0.057,0.056,0.084,0.124,0.084,0.204v2.328C160.921,53.262,160.894,53.33,160.837,53.385z"/>
<path class="st0" d="M169.573,50.651c0.056-0.056,0.124-0.084,0.204-0.084h2.784c0.079,0,0.147,0.028,0.203,0.084
	c0.057,0.056,0.084,0.124,0.084,0.204v16.223c0,0.08-0.027,0.148-0.084,0.204c-0.056,0.057-0.124,0.084-0.203,0.084h-3.168
	c-0.16,0-0.265-0.08-0.312-0.24l-2.976-9.288c-0.017-0.048-0.045-0.067-0.084-0.06c-0.04,0.008-0.061,0.036-0.061,0.084l0.024,9.216
	c0,0.08-0.028,0.148-0.084,0.204c-0.057,0.057-0.124,0.084-0.204,0.084h-2.784c-0.08,0-0.148-0.027-0.204-0.084
	c-0.056-0.056-0.084-0.124-0.084-0.204V50.855c0-0.08,0.028-0.148,0.084-0.204s0.124-0.084,0.204-0.084h3.144
	c0.16,0,0.265,0.08,0.312,0.24l3,9.287c0.016,0.049,0.044,0.068,0.084,0.061s0.06-0.036,0.06-0.084l-0.023-9.215
	C169.49,50.775,169.517,50.706,169.573,50.651z"/>
<path class="st0" d="M184.477,50.651c0.057,0.056,0.084,0.124,0.084,0.204v2.328c0,0.08-0.027,0.147-0.084,0.203
	c-0.056,0.057-0.124,0.084-0.203,0.084h-3c-0.081,0-0.12,0.041-0.12,0.12v13.488c0,0.08-0.028,0.148-0.084,0.204
	c-0.057,0.057-0.124,0.084-0.204,0.084h-2.809c-0.08,0-0.147-0.027-0.203-0.084c-0.057-0.056-0.085-0.124-0.085-0.204V53.59
	c0-0.079-0.04-0.12-0.119-0.12h-2.881c-0.08,0-0.147-0.027-0.203-0.084c-0.057-0.056-0.084-0.123-0.084-0.203v-2.328
	c0-0.08,0.027-0.148,0.084-0.204c0.056-0.056,0.123-0.084,0.203-0.084h9.505C184.353,50.567,184.421,50.595,184.477,50.651z"/>
<path class="st0" d="M188.066,67.006c-0.705-0.367-1.248-0.884-1.633-1.548c-0.384-0.663-0.575-1.428-0.575-2.292v-0.696
	c0-0.079,0.027-0.147,0.084-0.203c0.056-0.057,0.123-0.084,0.203-0.084h2.76c0.08,0,0.148,0.027,0.205,0.084
	c0.057,0.056,0.084,0.124,0.084,0.203v0.528c0,0.496,0.127,0.896,0.385,1.2c0.254,0.304,0.574,0.456,0.959,0.456
	s0.703-0.145,0.961-0.432c0.256-0.288,0.383-0.664,0.383-1.129c0-0.479-0.16-0.892-0.48-1.235s-0.943-0.853-1.871-1.524
	c-0.801-0.576-1.448-1.088-1.943-1.536c-0.497-0.447-0.921-0.999-1.273-1.655c-0.352-0.656-0.527-1.416-0.527-2.28
	c0-1.359,0.424-2.448,1.271-3.263c0.849-0.816,1.969-1.225,3.361-1.225c1.406,0,2.539,0.424,3.395,1.272
	c0.857,0.847,1.285,1.959,1.285,3.335v0.576c0,0.08-0.029,0.147-0.084,0.204c-0.057,0.056-0.125,0.084-0.205,0.084h-2.76
	c-0.08,0-0.148-0.028-0.203-0.084c-0.057-0.057-0.084-0.124-0.084-0.204V54.91c0-0.496-0.125-0.892-0.373-1.188
	s-0.572-0.444-0.971-0.444c-0.385,0-0.697,0.141-0.938,0.42c-0.24,0.28-0.359,0.668-0.359,1.164c0,0.479,0.152,0.904,0.457,1.271
	c0.303,0.369,0.902,0.881,1.799,1.536c0.992,0.736,1.74,1.332,2.244,1.788s0.896,0.96,1.176,1.512c0.279,0.553,0.42,1.213,0.42,1.98
	c0,1.408-0.432,2.528-1.295,3.36c-0.865,0.832-2,1.248-3.408,1.248C189.586,67.558,188.77,67.374,188.066,67.006z"/>
<path class="st0" d="M2.242,95.681c-0.056-0.056-0.084-0.124-0.084-0.204V79.254c0-0.08,0.028-0.148,0.084-0.204
	c0.056-0.056,0.124-0.084,0.204-0.084H6.79c1.456,0,2.624,0.424,3.504,1.271c0.88,0.849,1.32,1.977,1.32,3.385v7.487
	c0,1.408-0.44,2.536-1.32,3.384c-0.88,0.849-2.048,1.272-3.504,1.272H2.446C2.365,95.765,2.298,95.738,2.242,95.681z M5.662,92.861
	l1.08-0.023c0.432-0.016,0.784-0.2,1.056-0.553c0.272-0.352,0.416-0.815,0.432-1.392v-7.056c0-0.608-0.136-1.088-0.408-1.44
	c-0.272-0.352-0.64-0.528-1.104-0.528H5.662c-0.08,0-0.12,0.041-0.12,0.12v10.752C5.542,92.822,5.582,92.861,5.662,92.861z"/>
<path class="st0" d="M13.666,95.681c-0.056-0.056-0.084-0.124-0.084-0.204V79.254c0-0.08,0.028-0.148,0.084-0.204
	c0.056-0.056,0.124-0.084,0.204-0.084h2.808c0.08,0,0.148,0.028,0.204,0.084s0.084,0.124,0.084,0.204v16.224
	c0,0.08-0.028,0.148-0.084,0.204c-0.056,0.057-0.124,0.084-0.204,0.084H13.87C13.789,95.765,13.721,95.738,13.666,95.681z"/>
<path class="st0" d="M20.974,95.405c-0.705-0.367-1.248-0.884-1.632-1.548c-0.384-0.663-0.576-1.428-0.576-2.292v-0.696
	c0-0.079,0.027-0.147,0.084-0.203c0.056-0.057,0.124-0.084,0.204-0.084h2.76c0.08,0,0.147,0.027,0.204,0.084
	c0.056,0.056,0.084,0.124,0.084,0.203v0.528c0,0.496,0.128,0.896,0.384,1.2s0.576,0.456,0.96,0.456c0.384,0,0.704-0.145,0.96-0.432
	c0.256-0.288,0.384-0.664,0.384-1.129c0-0.479-0.16-0.892-0.48-1.235c-0.32-0.344-0.944-0.853-1.872-1.524
	c-0.8-0.576-1.448-1.088-1.944-1.536c-0.497-0.447-0.92-0.999-1.272-1.655s-0.528-1.416-0.528-2.28c0-1.359,0.424-2.448,1.272-3.264
	c0.848-0.816,1.968-1.225,3.36-1.225c1.408,0,2.54,0.424,3.396,1.272c0.856,0.848,1.284,1.96,1.284,3.336v0.576
	c0,0.08-0.028,0.147-0.084,0.204c-0.056,0.056-0.124,0.084-0.204,0.084h-2.76c-0.081,0-0.148-0.028-0.204-0.084
	c-0.056-0.057-0.084-0.124-0.084-0.204v-0.648c0-0.496-0.124-0.892-0.372-1.188s-0.572-0.444-0.972-0.444
	c-0.384,0-0.696,0.141-0.936,0.42c-0.24,0.28-0.36,0.668-0.36,1.164c0,0.479,0.152,0.904,0.456,1.271
	c0.304,0.369,0.904,0.881,1.8,1.536c0.992,0.736,1.74,1.332,2.244,1.788s0.896,0.96,1.176,1.512c0.28,0.553,0.42,1.213,0.42,1.98
	c0,1.408-0.432,2.528-1.296,3.36c-0.864,0.832-2,1.248-3.408,1.248C22.493,95.958,21.677,95.773,20.974,95.405z"/>
<path class="st0" d="M30.825,94.674c-0.872-0.855-1.308-2.004-1.308-3.444v-7.775c0-1.425,0.436-2.561,1.308-3.408
	c0.872-0.849,2.028-1.272,3.468-1.272c1.456,0,2.62,0.424,3.492,1.272c0.872,0.848,1.308,1.983,1.308,3.408v0.264
	c0,0.08-0.028,0.148-0.084,0.204c-0.056,0.056-0.124,0.084-0.204,0.084l-2.808,0.12c-0.192,0-0.288-0.088-0.288-0.265v-0.624
	c0-0.464-0.128-0.84-0.384-1.128c-0.256-0.288-0.6-0.432-1.032-0.432c-0.416,0-0.752,0.144-1.008,0.432
	c-0.256,0.288-0.384,0.664-0.384,1.128v8.28c0,0.464,0.127,0.836,0.384,1.116c0.256,0.28,0.592,0.42,1.008,0.42
	c0.432,0,0.776-0.14,1.032-0.42c0.256-0.28,0.384-0.652,0.384-1.116v-0.648c0-0.079,0.028-0.147,0.084-0.203
	c0.056-0.057,0.124-0.084,0.204-0.084l2.808,0.119c0.08,0,0.148,0.028,0.204,0.084c0.056,0.057,0.084,0.125,0.084,0.204v0.24
	c0,1.44-0.44,2.589-1.32,3.444s-2.04,1.284-3.48,1.284C32.853,95.958,31.698,95.529,30.825,94.674z"/>
<path class="st0" d="M41.973,94.662c-0.88-0.864-1.32-2.017-1.32-3.456v-7.681c0-1.439,0.44-2.592,1.32-3.456
	c0.879-0.863,2.056-1.296,3.528-1.296c1.472,0,2.652,0.433,3.54,1.296c0.888,0.864,1.332,2.017,1.332,3.456v7.681
	c0,1.439-0.444,2.592-1.332,3.456c-0.888,0.863-2.068,1.296-3.54,1.296C44.029,95.958,42.853,95.525,41.973,94.662z M46.581,92.586
	c0.272-0.312,0.408-0.724,0.408-1.236v-7.968c0-0.512-0.136-0.924-0.408-1.236c-0.272-0.312-0.632-0.468-1.08-0.468
	c-0.448,0-0.804,0.156-1.068,0.468c-0.264,0.312-0.396,0.725-0.396,1.236v7.968c0,0.513,0.132,0.924,0.396,1.236
	c0.264,0.312,0.62,0.468,1.068,0.468C45.949,93.053,46.309,92.897,46.581,92.586z"/>
<path class="st0" d="M59.193,79.05c0.056-0.056,0.124-0.084,0.204-0.084h2.784c0.08,0,0.147,0.028,0.204,0.084
	s0.084,0.124,0.084,0.204v16.224c0,0.08-0.028,0.148-0.084,0.204c-0.056,0.057-0.124,0.084-0.204,0.084h-3.168
	c-0.16,0-0.264-0.08-0.312-0.24l-2.976-9.288c-0.016-0.048-0.044-0.067-0.084-0.06c-0.04,0.008-0.06,0.036-0.06,0.084l0.024,9.216
	c0,0.08-0.028,0.148-0.084,0.204c-0.056,0.057-0.124,0.084-0.204,0.084h-2.784c-0.081,0-0.148-0.027-0.204-0.084
	c-0.056-0.056-0.084-0.124-0.084-0.204V79.254c0-0.08,0.028-0.148,0.084-0.204c0.056-0.056,0.124-0.084,0.204-0.084h3.144
	c0.16,0,0.264,0.08,0.312,0.24l3,9.287c0.016,0.049,0.044,0.068,0.084,0.061s0.06-0.036,0.06-0.084l-0.024-9.216
	C59.109,79.174,59.136,79.105,59.193,79.05z"/>
<path class="st0" d="M74.096,79.05c0.056,0.056,0.084,0.124,0.084,0.204v2.328c0,0.08-0.028,0.147-0.084,0.203
	c-0.056,0.057-0.124,0.084-0.204,0.084h-3c-0.081,0-0.12,0.041-0.12,0.12v13.488c0,0.08-0.028,0.148-0.084,0.204
	c-0.056,0.057-0.124,0.084-0.204,0.084h-2.808c-0.08,0-0.148-0.027-0.204-0.084c-0.057-0.056-0.084-0.124-0.084-0.204V81.989
	c0-0.079-0.04-0.12-0.12-0.12h-2.88c-0.08,0-0.148-0.027-0.204-0.084c-0.057-0.056-0.084-0.123-0.084-0.203v-2.328
	c0-0.08,0.027-0.148,0.084-0.204c0.056-0.056,0.124-0.084,0.204-0.084h9.504C73.972,78.966,74.04,78.994,74.096,79.05z"/>
<path class="st0" d="M75.896,95.681c-0.056-0.056-0.084-0.124-0.084-0.204V79.254c0-0.08,0.028-0.148,0.084-0.204
	c0.056-0.056,0.124-0.084,0.204-0.084h2.808c0.08,0,0.148,0.028,0.204,0.084s0.084,0.124,0.084,0.204v16.224
	c0,0.08-0.028,0.148-0.084,0.204c-0.056,0.057-0.124,0.084-0.204,0.084H76.1C76.02,95.765,75.952,95.738,75.896,95.681z"/>
<path class="st0" d="M88.28,79.05c0.056-0.056,0.124-0.084,0.204-0.084h2.784c0.08,0,0.147,0.028,0.204,0.084
	s0.084,0.124,0.084,0.204v16.224c0,0.08-0.028,0.148-0.084,0.204c-0.056,0.057-0.124,0.084-0.204,0.084H88.1
	c-0.16,0-0.264-0.08-0.312-0.24l-2.976-9.288c-0.016-0.048-0.044-0.067-0.084-0.06c-0.04,0.008-0.06,0.036-0.06,0.084l0.024,9.216
	c0,0.08-0.028,0.148-0.084,0.204c-0.056,0.057-0.124,0.084-0.204,0.084H81.62c-0.081,0-0.148-0.027-0.204-0.084
	c-0.056-0.056-0.084-0.124-0.084-0.204V79.254c0-0.08,0.028-0.148,0.084-0.204c0.056-0.056,0.124-0.084,0.204-0.084h3.144
	c0.16,0,0.264,0.08,0.312,0.24l3,9.287c0.016,0.049,0.044,0.068,0.084,0.061s0.06-0.036,0.06-0.084l-0.024-9.216
	C88.196,79.174,88.224,79.105,88.28,79.05z"/>
<path class="st0" d="M94.904,94.601c-0.872-0.903-1.308-2.107-1.308-3.612V79.254c0-0.08,0.028-0.148,0.084-0.204
	s0.124-0.084,0.204-0.084h2.808c0.08,0,0.147,0.028,0.204,0.084c0.056,0.056,0.084,0.124,0.084,0.204v12.071
	c0,0.513,0.128,0.929,0.384,1.248c0.256,0.32,0.592,0.48,1.008,0.48s0.748-0.16,0.996-0.48c0.248-0.319,0.372-0.735,0.372-1.248
	V79.254c0-0.08,0.028-0.148,0.084-0.204s0.124-0.084,0.204-0.084h2.808c0.08,0,0.148,0.028,0.203,0.084
	c0.057,0.056,0.084,0.124,0.084,0.204v11.735c0,1.505-0.436,2.709-1.307,3.612c-0.873,0.904-2.021,1.356-3.445,1.356
	C96.932,95.958,95.776,95.506,94.904,94.601z"/>
<path class="st0" d="M113.744,81.785c-0.057,0.057-0.124,0.084-0.204,0.084h-5.017c-0.08,0-0.119,0.041-0.119,0.12v3.792
	c0,0.081,0.039,0.12,0.119,0.12h2.881c0.079,0,0.147,0.028,0.203,0.084c0.057,0.057,0.084,0.124,0.084,0.204v2.328
	c0,0.08-0.027,0.148-0.084,0.204c-0.056,0.057-0.124,0.084-0.203,0.084h-2.881c-0.08,0-0.119,0.04-0.119,0.12v3.815
	c0,0.081,0.039,0.12,0.119,0.12h5.017c0.08,0,0.147,0.028,0.204,0.084c0.056,0.057,0.084,0.124,0.084,0.204v2.328
	c0,0.08-0.028,0.148-0.084,0.204c-0.057,0.057-0.124,0.084-0.204,0.084h-8.232c-0.08,0-0.147-0.027-0.204-0.084
	c-0.056-0.056-0.084-0.124-0.084-0.204V79.254c0-0.08,0.028-0.148,0.084-0.204c0.057-0.056,0.124-0.084,0.204-0.084h8.232
	c0.08,0,0.147,0.028,0.204,0.084c0.056,0.056,0.084,0.124,0.084,0.204v2.328C113.828,81.662,113.8,81.729,113.744,81.785z"/>
<path class="st0" d="M115.615,95.681c-0.056-0.056-0.084-0.124-0.084-0.204V79.254c0-0.08,0.028-0.148,0.084-0.204
	c0.057-0.056,0.124-0.084,0.204-0.084h4.345c1.455,0,2.623,0.424,3.504,1.271c0.879,0.849,1.319,1.977,1.319,3.385v7.487
	c0,1.408-0.44,2.536-1.319,3.384c-0.881,0.849-2.049,1.272-3.504,1.272h-4.345C115.74,95.765,115.672,95.738,115.615,95.681z
	 M119.035,92.861l1.08-0.023c0.433-0.016,0.784-0.2,1.057-0.553c0.271-0.352,0.416-0.815,0.432-1.392v-7.056
	c0-0.608-0.136-1.088-0.408-1.44c-0.272-0.352-0.64-0.528-1.104-0.528h-1.057c-0.08,0-0.119,0.041-0.119,0.12v10.752
	C118.916,92.822,118.955,92.861,119.035,92.861z"/>
<path class="st0" d="M141.272,79.05c0.056,0.056,0.084,0.124,0.084,0.204v2.328c0,0.08-0.028,0.147-0.084,0.203
	c-0.057,0.057-0.124,0.084-0.204,0.084h-3c-0.08,0-0.12,0.041-0.12,0.12v13.488c0,0.08-0.028,0.148-0.084,0.204
	c-0.057,0.057-0.124,0.084-0.204,0.084h-2.808c-0.081,0-0.148-0.027-0.204-0.084c-0.057-0.056-0.084-0.124-0.084-0.204V81.989
	c0-0.079-0.04-0.12-0.12-0.12h-2.88c-0.08,0-0.148-0.027-0.204-0.084c-0.057-0.056-0.084-0.123-0.084-0.203v-2.328
	c0-0.08,0.027-0.148,0.084-0.204c0.056-0.056,0.124-0.084,0.204-0.084h9.504C141.148,78.966,141.215,78.994,141.272,79.05z"/>
<path class="st0" d="M149.275,95.525l-1.848-6.624c-0.032-0.063-0.072-0.096-0.12-0.096h-0.816c-0.08,0-0.119,0.04-0.119,0.12v6.552
	c0,0.08-0.028,0.148-0.084,0.204c-0.057,0.057-0.125,0.084-0.204,0.084h-2.809c-0.08,0-0.147-0.027-0.204-0.084
	c-0.056-0.056-0.084-0.124-0.084-0.204V79.254c0-0.08,0.028-0.148,0.084-0.204c0.057-0.056,0.124-0.084,0.204-0.084h4.849
	c0.879,0,1.663,0.212,2.352,0.636c0.688,0.424,1.22,1.021,1.596,1.788s0.564,1.648,0.564,2.64c0,0.944-0.18,1.776-0.54,2.496
	c-0.36,0.721-0.86,1.28-1.5,1.681c-0.032,0.016-0.057,0.035-0.072,0.06s-0.016,0.052,0,0.084l2.208,7.08l0.024,0.096
	c0,0.16-0.088,0.24-0.265,0.24h-2.88C149.435,95.765,149.323,95.685,149.275,95.525z M146.371,81.989v4.104
	c0,0.08,0.039,0.12,0.119,0.12h1.08c0.496,0,0.9-0.196,1.212-0.588c0.312-0.393,0.469-0.916,0.469-1.572
	c0-0.672-0.156-1.204-0.469-1.596c-0.312-0.393-0.716-0.589-1.212-0.589h-1.08C146.41,81.869,146.371,81.91,146.371,81.989z"/>
<path class="st0" d="M163.015,81.785c-0.057,0.057-0.124,0.084-0.204,0.084h-5.017c-0.08,0-0.119,0.041-0.119,0.12v3.792
	c0,0.081,0.039,0.12,0.119,0.12h2.881c0.079,0,0.147,0.028,0.203,0.084c0.057,0.057,0.084,0.124,0.084,0.204v2.328
	c0,0.08-0.027,0.148-0.084,0.204c-0.056,0.057-0.124,0.084-0.203,0.084h-2.881c-0.08,0-0.119,0.04-0.119,0.12v3.815
	c0,0.081,0.039,0.12,0.119,0.12h5.017c0.08,0,0.147,0.028,0.204,0.084c0.056,0.057,0.084,0.124,0.084,0.204v2.328
	c0,0.08-0.028,0.148-0.084,0.204c-0.057,0.057-0.124,0.084-0.204,0.084h-8.232c-0.08,0-0.147-0.027-0.204-0.084
	c-0.056-0.056-0.084-0.124-0.084-0.204V79.254c0-0.08,0.028-0.148,0.084-0.204c0.057-0.056,0.124-0.084,0.204-0.084h8.232
	c0.08,0,0.147,0.028,0.204,0.084c0.056,0.056,0.084,0.124,0.084,0.204v2.328C163.099,81.662,163.071,81.729,163.015,81.785z"/>
<path class="st0" d="M171.93,95.502l-0.384-2.305c0-0.079-0.048-0.12-0.144-0.12h-3.049c-0.096,0-0.144,0.041-0.144,0.12
	l-0.384,2.305c-0.017,0.176-0.12,0.264-0.312,0.264h-2.808c-0.208,0-0.288-0.104-0.24-0.312l3.528-16.225
	c0.031-0.176,0.136-0.264,0.312-0.264h3.24c0.176,0,0.279,0.088,0.312,0.264l3.505,16.225l0.023,0.096
	c0,0.144-0.088,0.216-0.264,0.216h-2.88C172.05,95.765,171.946,95.677,171.93,95.502z M168.786,90.462h2.16
	c0.079,0,0.111-0.04,0.096-0.12l-1.128-6.552c-0.017-0.049-0.04-0.072-0.072-0.072s-0.057,0.023-0.072,0.072l-1.08,6.552
	C168.69,90.422,168.722,90.462,168.786,90.462z"/>
<path class="st0" d="M184.855,79.05c0.056,0.056,0.084,0.124,0.084,0.204v2.328c0,0.08-0.028,0.147-0.084,0.203
	c-0.057,0.057-0.124,0.084-0.204,0.084h-3c-0.08,0-0.12,0.041-0.12,0.12v13.488c0,0.08-0.028,0.148-0.084,0.204
	c-0.057,0.057-0.124,0.084-0.204,0.084h-2.808c-0.081,0-0.148-0.027-0.204-0.084c-0.057-0.056-0.084-0.124-0.084-0.204V81.989
	c0-0.079-0.04-0.12-0.12-0.12h-2.88c-0.08,0-0.148-0.027-0.204-0.084c-0.057-0.056-0.084-0.123-0.084-0.203v-2.328
	c0-0.08,0.027-0.148,0.084-0.204c0.056-0.056,0.124-0.084,0.204-0.084h9.504C184.731,78.966,184.798,78.994,184.855,79.05z"/>
<path class="st0" d="M194.61,78.966h2.784c0.08,0,0.147,0.028,0.204,0.084c0.056,0.056,0.084,0.124,0.084,0.204v16.224
	c0,0.08-0.028,0.148-0.084,0.204c-0.057,0.057-0.124,0.084-0.204,0.084h-2.808c-0.08,0-0.148-0.027-0.204-0.084
	c-0.057-0.056-0.084-0.124-0.084-0.204V84.701c0-0.063-0.017-0.096-0.048-0.096c-0.032,0-0.064,0.024-0.097,0.072l-1.872,3.312
	c-0.08,0.129-0.144,0.192-0.191,0.192s-0.112-0.063-0.192-0.192l-1.872-3.312c-0.032-0.048-0.063-0.072-0.096-0.072
	s-0.048,0.032-0.048,0.096v10.776c0,0.08-0.028,0.148-0.084,0.204c-0.057,0.057-0.124,0.084-0.204,0.084h-2.808
	c-0.081,0-0.148-0.027-0.204-0.084c-0.057-0.056-0.084-0.124-0.084-0.204V79.254c0-0.08,0.027-0.148,0.084-0.204
	c0.056-0.056,0.123-0.084,0.204-0.084h2.76c0.159,0,0.279,0.063,0.359,0.191l2.137,3.816c0.048,0.064,0.096,0.064,0.144,0
	l2.064-3.816C194.314,79.029,194.434,78.966,194.61,78.966z"/>
<path class="st0" d="M208.447,81.785c-0.057,0.057-0.124,0.084-0.204,0.084h-5.017c-0.08,0-0.119,0.041-0.119,0.12v3.792
	c0,0.081,0.039,0.12,0.119,0.12h2.881c0.079,0,0.147,0.028,0.203,0.084c0.057,0.057,0.084,0.124,0.084,0.204v2.328
	c0,0.08-0.027,0.148-0.084,0.204c-0.056,0.057-0.124,0.084-0.203,0.084h-2.881c-0.08,0-0.119,0.04-0.119,0.12v3.815
	c0,0.081,0.039,0.12,0.119,0.12h5.017c0.08,0,0.147,0.028,0.204,0.084c0.056,0.057,0.084,0.124,0.084,0.204v2.328
	c0,0.08-0.028,0.148-0.084,0.204c-0.057,0.057-0.124,0.084-0.204,0.084h-8.232c-0.08,0-0.147-0.027-0.204-0.084
	c-0.056-0.056-0.084-0.124-0.084-0.204V79.254c0-0.08,0.028-0.148,0.084-0.204c0.057-0.056,0.124-0.084,0.204-0.084h8.232
	c0.08,0,0.147,0.028,0.204,0.084c0.056,0.056,0.084,0.124,0.084,0.204v2.328C208.531,81.662,208.502,81.729,208.447,81.785z"/>
<path class="st0" d="M217.182,79.05c0.056-0.056,0.124-0.084,0.204-0.084h2.784c0.08,0,0.147,0.028,0.204,0.084
	c0.056,0.056,0.084,0.124,0.084,0.204v16.224c0,0.08-0.028,0.148-0.084,0.204c-0.057,0.057-0.124,0.084-0.204,0.084h-3.168
	c-0.16,0-0.265-0.08-0.312-0.24l-2.976-9.288c-0.017-0.048-0.044-0.067-0.084-0.06s-0.061,0.036-0.061,0.084l0.024,9.216
	c0,0.08-0.028,0.148-0.084,0.204c-0.057,0.057-0.124,0.084-0.204,0.084h-2.784c-0.08,0-0.147-0.027-0.204-0.084
	c-0.056-0.056-0.084-0.124-0.084-0.204V79.254c0-0.08,0.028-0.148,0.084-0.204c0.057-0.056,0.124-0.084,0.204-0.084h3.145
	c0.159,0,0.264,0.08,0.312,0.24l3,9.287c0.016,0.049,0.044,0.068,0.084,0.061s0.061-0.036,0.061-0.084l-0.024-9.216
	C217.098,79.174,217.125,79.105,217.182,79.05z"/>
<path class="st0" d="M232.086,79.05c0.056,0.056,0.084,0.124,0.084,0.204v2.328c0,0.08-0.028,0.147-0.084,0.203
	c-0.057,0.057-0.124,0.084-0.204,0.084h-3c-0.08,0-0.12,0.041-0.12,0.12v13.488c0,0.08-0.028,0.148-0.084,0.204
	c-0.057,0.057-0.124,0.084-0.204,0.084h-2.808c-0.081,0-0.148-0.027-0.204-0.084c-0.057-0.056-0.084-0.124-0.084-0.204V81.989
	c0-0.079-0.04-0.12-0.12-0.12h-2.88c-0.08,0-0.148-0.027-0.204-0.084c-0.057-0.056-0.084-0.123-0.084-0.203v-2.328
	c0-0.08,0.027-0.148,0.084-0.204c0.056-0.056,0.124-0.084,0.204-0.084h9.504C231.962,78.966,232.03,78.994,232.086,79.05z"/>
</svg>
