<?xml version="1.0" encoding="utf-8"?>
<!-- Generator: Adobe Illustrator 27.0.1, SVG Export Plug-In . SVG Version: 6.00 Build 0)  -->
<svg version="1.1" id="Layer_1" xmlns="http://www.w3.org/2000/svg" xmlns:xlink="http://www.w3.org/1999/xlink" x="0px" y="0px"
	 width="30px" height="30px" viewBox="0 0 30 30" style="enable-background:new 0 0 30 30;" xml:space="preserve">
<style type="text/css">
	.st0{fill:none;}
	.st1{fill:#FFFFFF;}
</style>
<g id="Ellipse_268" transform="translate(272 204)">
	<circle class="st0" cx="-257" cy="-189" r="15"/>
	<g>
		<path class="st1" d="M-257-174c-8.271,0-15-6.729-15-15c0-8.271,6.729-15,15-15c8.271,0,15,6.729,15,15
			C-242-180.729-248.729-174-257-174z M-257-201c-6.617,0-12,5.383-12,12c0,6.617,5.383,12,12,12c6.617,0,12-5.383,12-12
			C-245-195.617-250.383-201-257-201z"/>
	</g>
</g>
<polygon class="st1" points="22.061,11.061 19.939,8.939 15.5,13.379 11.061,8.939 8.939,11.061 13.379,15.5 8.939,19.939 
	11.061,22.061 15.5,17.621 19.939,22.061 22.061,19.939 17.621,15.5 "/>
</svg>
