<?xml version="1.0" encoding="utf-8"?>
<!-- Generator: Adobe Illustrator 27.0.1, SVG Export Plug-In . SVG Version: 6.00 Build 0)  -->
<svg version="1.1" id="Layer_1" xmlns="http://www.w3.org/2000/svg" xmlns:xlink="http://www.w3.org/1999/xlink" x="0px" y="0px"
	 width="375px" height="114px" viewBox="0 0 375 114" style="enable-background:new 0 0 375 114;" xml:space="preserve">
<style type="text/css">
	.st0{fill:#A5DCE8;}
	.st1{fill:#FFFFFF;}
</style>
<path class="st0" d="M35.442,55.777l3.891-0.898c1.187-0.304,1.923-1.482,1.676-2.682c-0.124-0.599-0.473-1.115-0.984-1.451
	c-0.511-0.337-1.123-0.455-1.733-0.328l-3.88,0.896c-1.187,0.304-1.923,1.482-1.676,2.682c0.223,1.082,1.179,1.829,2.243,1.829
	C35.132,55.824,35.287,55.809,35.442,55.777z"/>
<path class="st0" d="M28.413,72.773l-3.88,0.896c-1.188,0.305-1.923,1.482-1.676,2.682c0.223,1.082,1.18,1.829,2.244,1.829
	c0.153,0,0.308-0.016,0.462-0.047l3.891-0.899c1.188-0.303,1.924-1.481,1.676-2.682C30.875,73.315,29.658,72.516,28.413,72.773z"/>
<path class="st0" d="M23.364,68.604l3.892-0.899c1.188-0.304,1.923-1.482,1.676-2.682c-0.254-1.237-1.469-2.038-2.717-1.779
	l-3.88,0.896c-1.188,0.303-1.924,1.48-1.676,2.682c0.223,1.082,1.18,1.829,2.244,1.829C23.054,68.651,23.209,68.636,23.364,68.604z"
	/>
<path class="st0" d="M37.643,65.308l3.892-0.899c1.188-0.303,1.924-1.48,1.676-2.682c-0.255-1.238-1.471-2.035-2.718-1.779
	l-3.88,0.896c-1.187,0.304-1.923,1.482-1.676,2.682c0.223,1.082,1.18,1.829,2.244,1.829C37.333,65.354,37.488,65.339,37.643,65.308z
	"/>
<path class="st0" d="M70.781,53.683c-0.511-0.336-1.124-0.454-1.733-0.328l-3.88,0.896c-1.188,0.304-1.923,1.482-1.676,2.682
	c0.124,0.599,0.473,1.115,0.984,1.452c0.378,0.249,0.812,0.378,1.254,0.378c0.155,0,0.312-0.017,0.468-0.049l3.891-0.898
	c1.187-0.303,1.923-1.481,1.676-2.682C71.642,54.535,71.292,54.019,70.781,53.683z"/>
<path class="st0" d="M56.97,66.181l-3.88,0.896c-1.187,0.304-1.923,1.482-1.676,2.682c0.223,1.082,1.18,1.829,2.244,1.829
	c0.153,0,0.308-0.016,0.462-0.047l3.892-0.899c1.187-0.304,1.923-1.482,1.676-2.682C59.433,66.723,58.217,65.924,56.97,66.181z"/>
<path class="st0" d="M64,49.184l3.891-0.898c1.187-0.304,1.923-1.482,1.676-2.682c-0.124-0.599-0.473-1.115-0.984-1.451
	s-1.124-0.454-1.733-0.328l-3.88,0.896c-1.188,0.304-1.923,1.482-1.676,2.682c0.223,1.082,1.179,1.829,2.243,1.829
	C63.689,49.231,63.844,49.216,64,49.184z"/>
<path class="st0" d="M44.425,69.805c-0.511-0.336-1.123-0.452-1.733-0.327l-3.88,0.896c-1.187,0.304-1.923,1.482-1.676,2.682
	c0.124,0.6,0.473,1.115,0.984,1.452c0.378,0.249,0.812,0.378,1.254,0.378c0.155,0,0.312-0.017,0.468-0.049l3.891-0.897
	c1.188-0.305,1.923-1.482,1.676-2.682C45.286,70.657,44.937,70.142,44.425,69.805z"/>
<path class="st0" d="M87.786,71.604l-10.978-47.55c-1.013-4.338-5.374-7.061-9.714-6.069l-4.325,0.999l-0.182-0.788
	c-0.709-3.045-3.77-4.953-6.811-4.255l-2.262,0.522c-3.043,0.708-4.952,3.763-4.255,6.811l0.182,0.787l-23.186,5.353l-0.182-0.788
	c-0.709-3.044-3.766-4.953-6.812-4.255l-2.266,0.523l-0.001,0c-3.044,0.709-4.953,3.764-4.255,6.812l0.182,0.787L8.593,31.49
	c-4.339,1.012-7.062,5.37-6.069,9.714l10.978,47.551c0.872,3.735,4.224,6.273,7.912,6.272c0.595,0,1.199-0.065,1.802-0.203
	l58.501-13.506C86.055,80.306,88.778,75.948,87.786,71.604z M27.511,32.854l-0.225-0.975l23.187-5.353l0.225,0.975
	c0.709,3.043,3.762,4.951,6.811,4.255l2.262-0.523c3.044-0.708,4.953-3.763,4.255-6.81l-0.225-0.975l4.323-0.998
	c1.881-0.429,3.779,0.755,4.221,2.636l1.433,6.205L8.422,46.38L6.99,40.177c-0.429-1.886,0.755-3.779,2.635-4.221l4.33-1
	l0.225,0.975c0.708,3.043,3.766,4.95,6.811,4.255l2.266-0.523C26.3,38.955,28.208,35.9,27.511,32.854z M58.738,26.776l-2.256,0.521
	c-0.587,0.136-1.184-0.237-1.322-0.824l-1.438-6.229c-0.133-0.59,0.238-1.184,0.824-1.322l1.458-0.336l0.8-0.181
	c0.587-0.133,1.183,0.237,1.321,0.823l1.438,6.225C59.694,26.045,59.324,26.638,58.738,26.776z M22.223,35.206l-2.26,0.522
	c-0.589,0.134-1.184-0.238-1.322-0.824l-1.438-6.228c-0.133-0.59,0.237-1.183,0.824-1.321l1.82-0.42l0,0.001l0.441-0.1
	c0.585-0.134,1.183,0.237,1.321,0.823l1.438,6.225C23.18,34.475,22.809,35.068,22.223,35.206z M80.686,76.858L22.189,90.364
	c-1.883,0.425-3.779-0.757-4.22-2.637L9.454,50.846l65.353-15.088l8.514,36.88C83.75,74.523,82.566,76.417,80.686,76.858z"/>
<path class="st0" d="M49.722,52.48l3.892-0.898c1.187-0.303,1.923-1.481,1.676-2.682c-0.255-1.237-1.471-2.037-2.718-1.779
	l-3.88,0.896c-1.188,0.304-1.923,1.482-1.676,2.682c0.123,0.6,0.473,1.115,0.984,1.452c0.378,0.249,0.812,0.378,1.255,0.378
	C49.41,52.528,49.566,52.512,49.722,52.48z"/>
<path class="st0" d="M51.921,62.01l3.891-0.897c1.187-0.304,1.923-1.482,1.676-2.682c-0.124-0.6-0.473-1.115-0.984-1.452
	c-0.51-0.336-1.121-0.453-1.733-0.328l-3.88,0.896c-1.188,0.304-1.923,1.482-1.676,2.682c0.124,0.6,0.473,1.115,0.984,1.452
	c0.378,0.249,0.812,0.378,1.254,0.378C51.609,62.059,51.766,62.042,51.921,62.01z"/>
<path class="st1" d="M125.419,60.594c-2.17,2.005-5.053,3.007-8.649,3.007c-3.39,0-6.138-1.002-8.246-3.007
	s-3.162-4.702-3.162-8.091v-1.86c0-0.207,0.072-0.382,0.217-0.527c0.144-0.145,0.319-0.217,0.527-0.217h7.254
	c0.207,0,0.382,0.073,0.527,0.217c0.144,0.145,0.217,0.32,0.217,0.527v1.364c0,1.116,0.258,2.046,0.775,2.79
	c0.517,0.744,1.147,1.116,1.891,1.116c0.909,0,1.643-0.361,2.201-1.085c0.558-0.723,0.837-1.664,0.837-2.821v-6.2
	c0-0.124-0.042-0.196-0.124-0.217c-0.083-0.02-0.166,0.011-0.248,0.093c-1.323,1.116-2.852,1.674-4.588,1.674
	c-2.894,0-5.219-0.95-6.975-2.852c-1.757-1.9-2.739-4.442-2.945-7.626c-0.124-1.116-0.186-2.334-0.186-3.658
	c0-0.909,0.041-2.149,0.124-3.72c0.124-3.265,1.24-5.797,3.348-7.595c2.108-1.798,4.918-2.697,8.432-2.697
	c3.306,0,5.983,0.827,8.029,2.48c2.046,1.654,3.255,4.113,3.627,7.378c0.165,1.323,0.248,2.46,0.248,3.41l0.062,20.026
	C128.653,55.892,127.589,58.589,125.419,60.594z M119.809,33.84c0-1.528-0.042-2.81-0.124-3.844
	c-0.124-1.074-0.445-1.901-0.961-2.48c-0.518-0.579-1.189-0.868-2.015-0.868c-0.827,0-1.499,0.31-2.015,0.93
	c-0.517,0.62-0.837,1.488-0.961,2.604c-0.083,0.992-0.124,2.211-0.124,3.658c0,0.952,0.062,2.232,0.186,3.844
	c0.165,0.951,0.496,1.695,0.992,2.232c0.496,0.538,1.136,0.806,1.922,0.806c0.785,0,1.436-0.279,1.953-0.837
	c0.516-0.558,0.857-1.333,1.023-2.325C119.767,36.486,119.809,35.246,119.809,33.84z"/>
<path class="st1" d="M136.859,19.705h7.502c0.207,0,0.382,0.073,0.527,0.217c0.144,0.146,0.217,0.321,0.217,0.527V62.36
	c0,0.207-0.073,0.383-0.217,0.527c-0.146,0.146-0.321,0.217-0.527,0.217h-7.254c-0.207,0-0.383-0.071-0.527-0.217
	c-0.146-0.145-0.217-0.32-0.217-0.527V28.508c0-0.165-0.104-0.248-0.31-0.248l-4.774,0.558h-0.124c-0.455,0-0.682-0.227-0.682-0.682
	l-0.186-5.332c0-0.413,0.186-0.703,0.558-0.868l5.084-2.046C136.259,19.767,136.569,19.705,136.859,19.705z"/>
<path class="st1" d="M149.042,48.317c-0.146-0.144-0.217-0.319-0.217-0.527v-6.014c0-0.206,0.072-0.381,0.217-0.527
	c0.144-0.145,0.32-0.217,0.527-0.217h16.058c0.207,0,0.382,0.072,0.527,0.217c0.145,0.146,0.217,0.321,0.217,0.527v6.014
	c0,0.208-0.073,0.383-0.217,0.527c-0.145,0.146-0.32,0.217-0.527,0.217h-16.058C149.361,48.535,149.186,48.463,149.042,48.317z"/>
<path class="st1" d="M174.988,19.705h7.502c0.205,0,0.381,0.073,0.527,0.217c0.145,0.146,0.217,0.321,0.217,0.527V62.36
	c0,0.207-0.072,0.383-0.217,0.527c-0.146,0.146-0.322,0.217-0.527,0.217h-7.254c-0.207,0-0.383-0.071-0.527-0.217
	c-0.146-0.145-0.217-0.32-0.217-0.527V28.508c0-0.165-0.104-0.248-0.31-0.248l-4.774,0.558h-0.124c-0.455,0-0.682-0.227-0.682-0.682
	l-0.186-5.332c0-0.413,0.186-0.703,0.558-0.868l5.084-2.046C174.389,19.767,174.699,19.705,174.988,19.705z"/>
<path class="st1" d="M197.866,55.479c0.04,0.083,0.124,0.124,0.248,0.124h12.958c0.206,0,0.381,0.073,0.526,0.217
	c0.145,0.146,0.217,0.321,0.217,0.527v6.014c0,0.207-0.072,0.383-0.217,0.527c-0.146,0.146-0.32,0.217-0.526,0.217h-22.94
	c-0.208,0-0.383-0.071-0.528-0.217c-0.145-0.145-0.217-0.32-0.217-0.527v-6.262c0-0.372,0.103-0.682,0.311-0.93
	c1.653-2.19,2.81-3.678,3.472-4.464c3.637-4.67,6.221-8.205,7.75-10.602c2.232-3.554,3.348-6.551,3.348-8.99
	c0-1.404-0.278-2.489-0.837-3.255c-0.558-0.764-1.312-1.147-2.263-1.147c-0.951,0-1.716,0.383-2.294,1.147
	c-0.579,0.766-0.848,1.747-0.807,2.945v2.542c0,0.207-0.072,0.382-0.217,0.527c-0.146,0.145-0.32,0.217-0.526,0.217h-7.378
	c-0.208,0-0.383-0.072-0.527-0.217c-0.146-0.145-0.217-0.32-0.217-0.527v-2.914c0.164-3.389,1.384-6.107,3.659-8.153
	c2.272-2.046,5.166-3.069,8.68-3.069c3.472,0,6.271,1.096,8.4,3.286c2.129,2.191,3.193,5.084,3.193,8.68
	c0,2.15-0.341,4.196-1.022,6.138c-0.683,1.943-1.789,4.03-3.317,6.262c-1.158,1.695-3.142,4.34-5.952,7.936l-2.914,3.72
	C197.845,55.314,197.824,55.396,197.866,55.479z"/>
<path class="st1" d="M234.011,40.661c1.364,0.868,2.377,2.087,3.038,3.658c0.826,1.778,1.24,3.865,1.24,6.262
	c0,1.901-0.331,3.803-0.992,5.704c-0.868,2.273-2.253,4.061-4.153,5.363c-1.902,1.302-4.113,1.953-6.635,1.953
	s-4.733-0.641-6.634-1.922c-1.901-1.281-3.286-3.079-4.154-5.394c-0.661-1.694-0.991-3.596-0.991-5.704
	c0-2.314,0.372-4.34,1.115-6.076c0.579-1.57,1.633-2.831,3.162-3.782c0.248-0.124,0.248-0.248,0-0.372
	c-1.447-0.992-2.479-2.232-3.1-3.72c-0.786-1.818-1.178-3.74-1.178-5.766c0-2.232,0.392-4.154,1.178-5.766
	c0.868-1.942,2.241-3.461,4.123-4.557c1.88-1.095,4.04-1.643,6.479-1.643c2.397,0,4.526,0.527,6.387,1.581
	c1.859,1.054,3.244,2.573,4.153,4.557c0.826,1.736,1.24,3.679,1.24,5.828c0,2.026-0.394,3.928-1.178,5.704
	c-0.62,1.488-1.674,2.708-3.162,3.658C233.783,40.392,233.804,40.537,234.011,40.661z M223.347,31.67
	c0,0.951,0.145,1.902,0.435,2.852c0.165,0.827,0.485,1.488,0.961,1.984c0.475,0.496,1.063,0.744,1.767,0.744
	s1.303-0.258,1.799-0.775c0.495-0.517,0.826-1.188,0.991-2.015c0.248-0.826,0.372-1.736,0.372-2.728
	c0-1.074-0.146-1.984-0.434-2.728c-0.207-0.785-0.549-1.415-1.023-1.891c-0.476-0.475-1.044-0.713-1.705-0.713
	c-0.703,0-1.292,0.238-1.767,0.713c-0.476,0.476-0.816,1.147-1.023,2.015C223.471,29.873,223.347,30.72,223.347,31.67z
	 M229.671,50.022c0-1.24-0.124-2.314-0.372-3.224c-0.207-0.909-0.548-1.622-1.022-2.139c-0.476-0.517-1.064-0.775-1.768-0.775
	c-0.743,0-1.363,0.27-1.859,0.806c-0.496,0.538-0.827,1.282-0.992,2.232c-0.207,0.952-0.311,1.943-0.311,2.976
	c0,1.158,0.083,2.15,0.248,2.976c0.165,0.992,0.496,1.778,0.992,2.356c0.496,0.579,1.137,0.868,1.922,0.868s1.437-0.299,1.953-0.899
	c0.517-0.599,0.837-1.416,0.961-2.449C229.588,51.676,229.671,50.767,229.671,50.022z"/>
<path class="st1" d="M248.359,36.541c-0.057-0.056-0.084-0.124-0.084-0.204V20.113c0-0.08,0.027-0.147,0.084-0.204
	c0.056-0.056,0.123-0.084,0.204-0.084h4.344c1.455,0,2.624,0.424,3.504,1.272s1.32,1.976,1.32,3.384v7.488
	c0,1.408-0.44,2.536-1.32,3.383c-0.88,0.849-2.049,1.272-3.504,1.272h-4.344C248.482,36.625,248.415,36.598,248.359,36.541z
	 M251.779,33.721l1.08-0.023c0.432-0.016,0.783-0.2,1.056-0.553c0.271-0.352,0.416-0.815,0.432-1.392v-7.056
	c0-0.607-0.136-1.088-0.407-1.44c-0.272-0.352-0.641-0.528-1.104-0.528h-1.056c-0.08,0-0.12,0.04-0.12,0.12v10.751
	C251.659,33.682,251.699,33.721,251.779,33.721z"/>
<path class="st1" d="M265.963,36.361l-0.384-2.305c0-0.079-0.048-0.12-0.144-0.12h-3.048c-0.097,0-0.145,0.041-0.145,0.12
	l-0.384,2.305c-0.017,0.176-0.12,0.264-0.312,0.264h-2.808c-0.208,0-0.288-0.104-0.24-0.312l3.528-16.225
	c0.032-0.176,0.136-0.264,0.312-0.264h3.24c0.176,0,0.28,0.088,0.312,0.264l3.504,16.225l0.023,0.096
	c0,0.144-0.088,0.216-0.264,0.216h-2.88C266.083,36.625,265.979,36.537,265.963,36.361z M262.819,31.321h2.16
	c0.08,0,0.111-0.04,0.096-0.12l-1.128-6.552c-0.016-0.048-0.04-0.072-0.072-0.072s-0.056,0.024-0.071,0.072l-1.08,6.552
	C262.724,31.281,262.755,31.321,262.819,31.321z"/>
<path class="st1" d="M272.455,36.517c-0.057-0.056-0.084-0.123-0.084-0.203v-6.24l-0.024-0.144l-3.359-9.768
	c-0.017-0.032-0.024-0.072-0.024-0.12c0-0.144,0.088-0.216,0.264-0.216h2.952c0.176,0,0.288,0.08,0.336,0.24l1.488,5.736
	c0.016,0.048,0.04,0.072,0.072,0.072c0.031,0,0.056-0.024,0.071-0.072l1.488-5.736c0.048-0.16,0.16-0.24,0.336-0.24h2.952
	c0.096,0,0.168,0.028,0.216,0.084s0.057,0.14,0.024,0.252l-3.384,9.768l-0.024,0.144v6.24c0,0.08-0.028,0.147-0.084,0.203
	c-0.057,0.057-0.124,0.084-0.204,0.084h-2.808C272.579,36.601,272.511,36.573,272.455,36.517z"/>
<path class="st1" d="M282.044,36.265c-0.705-0.367-1.248-0.884-1.633-1.548c-0.384-0.663-0.575-1.428-0.575-2.292v-0.696
	c0-0.08,0.027-0.148,0.084-0.204c0.056-0.056,0.123-0.084,0.203-0.084h2.761c0.079,0,0.147,0.028,0.204,0.084
	c0.056,0.056,0.084,0.124,0.084,0.204v0.528c0,0.496,0.128,0.896,0.384,1.2s0.576,0.456,0.96,0.456s0.704-0.145,0.96-0.432
	c0.256-0.288,0.384-0.664,0.384-1.128c0-0.48-0.16-0.892-0.479-1.236c-0.32-0.344-0.944-0.852-1.872-1.524
	c-0.801-0.576-1.448-1.088-1.944-1.536s-0.92-1-1.272-1.656c-0.352-0.656-0.527-1.416-0.527-2.28c0-1.36,0.424-2.448,1.271-3.264
	c0.849-0.816,1.969-1.224,3.36-1.224c1.408,0,2.54,0.424,3.396,1.272c0.856,0.849,1.284,1.96,1.284,3.336v0.576
	c0,0.081-0.028,0.148-0.084,0.204c-0.056,0.056-0.124,0.084-0.204,0.084h-2.76c-0.08,0-0.148-0.028-0.204-0.084
	c-0.056-0.056-0.084-0.124-0.084-0.204v-0.648c0-0.496-0.124-0.892-0.372-1.188c-0.248-0.296-0.572-0.444-0.972-0.444
	c-0.384,0-0.696,0.14-0.936,0.42c-0.24,0.28-0.36,0.668-0.36,1.164c0,0.48,0.151,0.904,0.456,1.272
	c0.304,0.368,0.903,0.88,1.8,1.536c0.992,0.736,1.74,1.332,2.244,1.788c0.504,0.456,0.896,0.96,1.176,1.512
	c0.28,0.552,0.42,1.212,0.42,1.98c0,1.408-0.432,2.528-1.296,3.36s-2,1.248-3.408,1.248
	C283.563,36.817,282.747,36.633,282.044,36.265z"/>
<path class="st1" d="M296.707,35.521c-0.881-0.864-1.32-2.017-1.32-3.457v-7.68c0-1.44,0.439-2.592,1.32-3.456
	c0.879-0.864,2.056-1.296,3.527-1.296s2.652,0.432,3.54,1.296c0.888,0.864,1.332,2.016,1.332,3.456v7.68
	c0,1.44-0.444,2.592-1.332,3.457c-0.888,0.863-2.068,1.296-3.54,1.296S297.586,36.385,296.707,35.521z M301.314,33.445
	c0.272-0.312,0.408-0.724,0.408-1.236v-7.968c0-0.512-0.136-0.924-0.408-1.236s-0.632-0.468-1.08-0.468s-0.804,0.156-1.067,0.468
	c-0.265,0.312-0.396,0.724-0.396,1.236v7.968c0,0.513,0.132,0.924,0.396,1.236c0.264,0.312,0.619,0.468,1.067,0.468
	S301.042,33.757,301.314,33.445z"/>
<path class="st1" d="M315.679,22.645c-0.057,0.056-0.124,0.084-0.204,0.084h-4.992c-0.08,0-0.12,0.04-0.12,0.12v3.792
	c0,0.08,0.04,0.12,0.12,0.12h2.856c0.08,0,0.147,0.028,0.204,0.084c0.056,0.056,0.084,0.124,0.084,0.204v2.328
	c0,0.08-0.028,0.148-0.084,0.204c-0.057,0.056-0.124,0.084-0.204,0.084h-2.856c-0.08,0-0.12,0.04-0.12,0.12v6.552
	c0,0.08-0.027,0.148-0.084,0.204c-0.056,0.057-0.124,0.084-0.204,0.084h-2.808c-0.08,0-0.148-0.027-0.204-0.084
	c-0.056-0.056-0.084-0.124-0.084-0.204V20.113c0-0.08,0.028-0.147,0.084-0.204s0.124-0.084,0.204-0.084h8.208
	c0.08,0,0.147,0.028,0.204,0.084c0.056,0.056,0.084,0.124,0.084,0.204v2.328C315.763,22.521,315.734,22.589,315.679,22.645z"/>
<path class="st1" d="M257.791,44.909c0.056,0.056,0.084,0.124,0.084,0.204v2.328c0,0.08-0.028,0.147-0.084,0.203
	c-0.057,0.057-0.124,0.084-0.204,0.084h-3c-0.08,0-0.12,0.041-0.12,0.12v13.488c0,0.08-0.028,0.148-0.084,0.204
	c-0.056,0.057-0.124,0.084-0.204,0.084h-2.808c-0.08,0-0.148-0.027-0.204-0.084c-0.057-0.056-0.084-0.124-0.084-0.204V47.849
	c0-0.079-0.04-0.12-0.12-0.12h-2.88c-0.08,0-0.148-0.027-0.204-0.084c-0.057-0.056-0.084-0.123-0.084-0.203v-2.328
	c0-0.08,0.027-0.148,0.084-0.204c0.056-0.056,0.124-0.084,0.204-0.084h9.504C257.667,44.825,257.734,44.854,257.791,44.909z"/>
<path class="st1" d="M265.614,44.909c0.056-0.056,0.124-0.084,0.204-0.084h2.808c0.08,0,0.148,0.028,0.204,0.084
	c0.057,0.056,0.084,0.124,0.084,0.204v16.224c0,0.08-0.027,0.148-0.084,0.204c-0.056,0.057-0.124,0.084-0.204,0.084h-2.808
	c-0.08,0-0.148-0.027-0.204-0.084c-0.056-0.056-0.084-0.124-0.084-0.204v-6.552c0-0.08-0.04-0.12-0.12-0.12h-2.399
	c-0.08,0-0.12,0.04-0.12,0.12v6.552c0,0.08-0.028,0.148-0.084,0.204c-0.057,0.057-0.124,0.084-0.204,0.084h-2.808
	c-0.081,0-0.148-0.027-0.204-0.084c-0.057-0.056-0.084-0.124-0.084-0.204V45.113c0-0.08,0.027-0.148,0.084-0.204
	c0.056-0.056,0.123-0.084,0.204-0.084h2.808c0.08,0,0.147,0.028,0.204,0.084c0.056,0.056,0.084,0.124,0.084,0.204v6.527
	c0,0.081,0.04,0.12,0.12,0.12h2.399c0.08,0,0.12-0.039,0.12-0.12v-6.527C265.53,45.033,265.559,44.965,265.614,44.909z"/>
<path class="st1" d="M279.679,47.645c-0.057,0.057-0.124,0.084-0.204,0.084h-5.016c-0.08,0-0.12,0.041-0.12,0.12v3.792
	c0,0.081,0.04,0.12,0.12,0.12h2.88c0.08,0,0.147,0.028,0.204,0.084c0.056,0.057,0.084,0.124,0.084,0.204v2.328
	c0,0.08-0.028,0.148-0.084,0.204c-0.057,0.057-0.124,0.084-0.204,0.084h-2.88c-0.08,0-0.12,0.04-0.12,0.12v3.815
	c0,0.081,0.04,0.12,0.12,0.12h5.016c0.08,0,0.147,0.028,0.204,0.084c0.056,0.057,0.084,0.124,0.084,0.204v2.328
	c0,0.08-0.028,0.148-0.084,0.204c-0.057,0.057-0.124,0.084-0.204,0.084h-8.231c-0.081,0-0.148-0.027-0.204-0.084
	c-0.057-0.056-0.084-0.124-0.084-0.204V45.113c0-0.08,0.027-0.148,0.084-0.204c0.056-0.056,0.123-0.084,0.204-0.084h8.231
	c0.08,0,0.147,0.028,0.204,0.084c0.056,0.056,0.084,0.124,0.084,0.204v2.328C279.763,47.521,279.734,47.589,279.679,47.645z"/>
<path class="st1" d="M289.278,61.517c-0.057-0.056-0.084-0.123-0.084-0.203v-6.24l-0.024-0.145l-3.359-9.768
	c-0.017-0.032-0.024-0.072-0.024-0.12c0-0.144,0.088-0.216,0.264-0.216h2.952c0.176,0,0.288,0.08,0.336,0.24l1.488,5.735
	c0.016,0.048,0.04,0.072,0.072,0.072c0.031,0,0.056-0.024,0.071-0.072l1.488-5.735c0.048-0.16,0.16-0.24,0.336-0.24h2.952
	c0.096,0,0.168,0.028,0.216,0.084s0.057,0.14,0.024,0.252l-3.384,9.768l-0.024,0.145v6.24c0,0.08-0.028,0.147-0.084,0.203
	c-0.057,0.057-0.124,0.084-0.204,0.084h-2.808C289.402,61.601,289.334,61.573,289.278,61.517z"/>
<path class="st1" d="M306.175,47.645c-0.057,0.057-0.124,0.084-0.204,0.084h-5.016c-0.08,0-0.12,0.041-0.12,0.12v3.792
	c0,0.081,0.04,0.12,0.12,0.12h2.88c0.08,0,0.147,0.028,0.204,0.084c0.056,0.057,0.084,0.124,0.084,0.204v2.328
	c0,0.08-0.028,0.148-0.084,0.204c-0.057,0.057-0.124,0.084-0.204,0.084h-2.88c-0.08,0-0.12,0.04-0.12,0.12v3.815
	c0,0.081,0.04,0.12,0.12,0.12h5.016c0.08,0,0.147,0.028,0.204,0.084c0.056,0.057,0.084,0.124,0.084,0.204v2.328
	c0,0.08-0.028,0.148-0.084,0.204c-0.057,0.057-0.124,0.084-0.204,0.084h-8.231c-0.081,0-0.148-0.027-0.204-0.084
	c-0.057-0.056-0.084-0.124-0.084-0.204V45.113c0-0.08,0.027-0.148,0.084-0.204c0.056-0.056,0.123-0.084,0.204-0.084h8.231
	c0.08,0,0.147,0.028,0.204,0.084c0.056,0.056,0.084,0.124,0.084,0.204v2.328C306.259,47.521,306.23,47.589,306.175,47.645z"/>
<path class="st1" d="M315.09,61.361l-0.384-2.305c0-0.079-0.048-0.12-0.144-0.12h-3.048c-0.097,0-0.145,0.041-0.145,0.12
	l-0.384,2.305c-0.017,0.176-0.12,0.264-0.312,0.264h-2.808c-0.208,0-0.288-0.104-0.24-0.312l3.528-16.225
	c0.032-0.176,0.136-0.264,0.312-0.264h3.24c0.176,0,0.28,0.088,0.312,0.264l3.504,16.225l0.023,0.096
	c0,0.144-0.088,0.216-0.264,0.216h-2.88C315.21,61.625,315.106,61.537,315.09,61.361z M311.946,56.321h2.16
	c0.08,0,0.111-0.04,0.096-0.12l-1.128-6.552c-0.016-0.049-0.04-0.072-0.072-0.072s-0.056,0.023-0.071,0.072l-1.08,6.552
	C311.851,56.281,311.882,56.321,311.946,56.321z"/>
<path class="st1" d="M326.201,61.385l-1.848-6.624c-0.032-0.063-0.072-0.096-0.12-0.096h-0.816c-0.08,0-0.119,0.04-0.119,0.12v6.552
	c0,0.08-0.028,0.148-0.084,0.204c-0.057,0.057-0.125,0.084-0.204,0.084h-2.808c-0.081,0-0.148-0.027-0.204-0.084
	c-0.057-0.056-0.084-0.124-0.084-0.204V45.113c0-0.08,0.027-0.148,0.084-0.204c0.056-0.056,0.123-0.084,0.204-0.084h4.848
	c0.879,0,1.663,0.212,2.352,0.636c0.688,0.424,1.22,1.021,1.596,1.788s0.564,1.648,0.564,2.64c0,0.944-0.18,1.776-0.54,2.496
	c-0.36,0.721-0.86,1.28-1.5,1.681c-0.032,0.016-0.057,0.035-0.072,0.06s-0.016,0.052,0,0.084l2.208,7.08l0.024,0.096
	c0,0.16-0.088,0.24-0.265,0.24h-2.88C326.361,61.625,326.249,61.545,326.201,61.385z M323.298,47.849v4.104
	c0,0.08,0.039,0.12,0.119,0.12h1.08c0.496,0,0.9-0.196,1.212-0.588c0.312-0.393,0.469-0.916,0.469-1.572
	c0-0.672-0.156-1.204-0.469-1.596c-0.312-0.393-0.716-0.589-1.212-0.589h-1.08C323.337,47.729,323.298,47.77,323.298,47.849z"/>
<path class="st1" d="M108.312,85.61c0-3.161,2-5.121,4.221-5.121c1.12,0,1.86,0.42,2.721,1.12l-0.08-1.66v-3.741h1.66v14.243h-1.36
	l-0.14-1.141h-0.06c-0.76,0.74-1.801,1.381-2.941,1.381C109.892,90.691,108.312,88.851,108.312,85.61z M115.173,87.971V82.89
	c-0.82-0.74-1.561-1-2.361-1c-1.54,0-2.78,1.48-2.78,3.7c0,2.32,0.96,3.701,2.661,3.701
	C113.593,89.291,114.373,88.851,115.173,87.971z"/>
<path class="st1" d="M119.392,85.59c0-3.16,2.14-5.101,4.361-5.101c2.48,0,3.901,1.76,3.901,4.561c0,0.36-0.02,0.66-0.08,0.98
	h-6.542c0.14,2,1.36,3.32,3.201,3.32c0.94,0,1.76-0.26,2.44-0.72l0.58,1.061c-0.84,0.6-1.88,1-3.221,1
	C121.432,90.691,119.392,88.811,119.392,85.59z M126.173,84.75c0-1.921-0.9-2.94-2.38-2.94c-1.36,0-2.561,1.08-2.761,2.94H126.173z"
	/>
<path class="st1" d="M130.031,80.729h1.36l0.14,1.12h0.06c0.88-0.74,1.98-1.36,3.101-1.36c2.5,0,3.861,1.94,3.861,4.961
	c0,3.301-2,5.241-4.221,5.241c-0.88,0-1.8-0.42-2.681-1.12l0.04,1.7v3.28h-1.661V80.729z M136.833,85.45
	c0-2.141-0.74-3.561-2.561-3.561c-0.82,0-1.641,0.439-2.581,1.32v5.081c0.88,0.74,1.72,1,2.36,1
	C135.653,89.291,136.833,87.851,136.833,85.45z"/>
<path class="st1" d="M140.412,85.59c0-3.16,2.14-5.101,4.361-5.101c2.48,0,3.901,1.76,3.901,4.561c0,0.36-0.02,0.66-0.08,0.98
	h-6.542c0.14,2,1.36,3.32,3.201,3.32c0.94,0,1.76-0.26,2.44-0.72l0.58,1.061c-0.84,0.6-1.88,1-3.221,1
	C142.452,90.691,140.412,88.811,140.412,85.59z M147.193,84.75c0-1.921-0.9-2.94-2.38-2.94c-1.36,0-2.561,1.08-2.761,2.94H147.193z"
	/>
<path class="st1" d="M151.051,80.729h1.36l0.14,1.4h0.06c0.92-0.921,1.92-1.641,3.261-1.641c2.061,0,2.98,1.32,2.98,3.801v6.161
	h-1.66V84.51c0-1.82-0.56-2.58-1.84-2.58c-0.98,0-1.681,0.5-2.641,1.479v7.042h-1.661V80.729z"/>
<path class="st1" d="M161.291,85.61c0-3.161,2-5.121,4.221-5.121c1.12,0,1.86,0.42,2.721,1.12l-0.08-1.66v-3.741h1.66v14.243h-1.36
	l-0.14-1.141h-0.06c-0.76,0.74-1.801,1.381-2.941,1.381C162.871,90.691,161.291,88.851,161.291,85.61z M168.152,87.971V82.89
	c-0.82-0.74-1.561-1-2.36-1c-1.541,0-2.781,1.48-2.781,3.7c0,2.32,0.96,3.701,2.661,3.701
	C166.572,89.291,167.352,88.851,168.152,87.971z"/>
<path class="st1" d="M172.831,77.648c0-0.64,0.46-1.08,1.1-1.08s1.1,0.44,1.1,1.08c0,0.66-0.46,1.08-1.1,1.08
	S172.831,78.309,172.831,77.648z M173.091,80.729h1.661v9.722h-1.661V80.729z"/>
<path class="st1" d="M178.031,80.729h1.36l0.14,1.4h0.06c0.92-0.921,1.92-1.641,3.261-1.641c2.061,0,2.981,1.32,2.981,3.801v6.161
	h-1.661V84.51c0-1.82-0.56-2.58-1.84-2.58c-0.98,0-1.681,0.5-2.641,1.479v7.042h-1.661V80.729z"/>
<path class="st1" d="M188.23,92.312c0-0.82,0.54-1.601,1.42-2.2v-0.08c-0.479-0.3-0.86-0.82-0.86-1.58
	c0-0.82,0.561-1.461,1.061-1.801v-0.08c-0.64-0.521-1.26-1.46-1.26-2.62c0-2.121,1.68-3.461,3.66-3.461c0.54,0,1.021,0.1,1.381,0.24
	h3.38v1.28h-1.98c0.461,0.439,0.78,1.16,0.78,1.98c0,2.08-1.58,3.38-3.561,3.38c-0.479,0-1-0.119-1.44-0.34
	c-0.359,0.3-0.62,0.62-0.62,1.16c0,0.601,0.4,1.04,1.7,1.04h1.881c2.261,0,3.4,0.721,3.4,2.321c0,1.82-1.9,3.381-4.921,3.381
	C189.871,94.933,188.23,93.992,188.23,92.312z M195.552,91.812c0-0.9-0.68-1.2-1.96-1.2h-1.661c-0.38,0-0.84-0.04-1.26-0.16
	c-0.7,0.5-1,1.08-1,1.641c0,1.04,1.06,1.68,2.82,1.68C194.332,93.771,195.552,92.812,195.552,91.812z M194.312,83.95
	c0-1.4-0.92-2.261-2.061-2.261c-1.14,0-2.061,0.84-2.061,2.261c0,1.42,0.94,2.3,2.061,2.3S194.312,85.37,194.312,83.95z"/>
<path class="st1" d="M202.35,85.61c0-3.261,2.121-5.121,4.501-5.121c2.381,0,4.521,1.86,4.521,5.121
	c0,3.221-2.141,5.081-4.521,5.081C204.471,90.691,202.35,88.831,202.35,85.61z M209.651,85.61c0-2.24-1.12-3.741-2.801-3.741
	c-1.66,0-2.78,1.501-2.78,3.741c0,2.221,1.12,3.7,2.78,3.7C208.531,89.311,209.651,87.831,209.651,85.61z"/>
<path class="st1" d="M213.91,80.729h1.36l0.14,1.4h0.06c0.921-0.921,1.921-1.641,3.261-1.641c2.061,0,2.981,1.32,2.981,3.801v6.161
	h-1.661V84.51c0-1.82-0.56-2.58-1.84-2.58c-0.98,0-1.681,0.5-2.641,1.479v7.042h-1.66V80.729z"/>
<path class="st1" d="M228.15,85.61c0-3.161,2-5.121,4.221-5.121c1.12,0,1.86,0.42,2.721,1.12l-0.08-1.66v-3.741h1.66v14.243h-1.36
	l-0.14-1.141h-0.061c-0.76,0.74-1.8,1.381-2.94,1.381C229.73,90.691,228.15,88.851,228.15,85.61z M235.012,87.971V82.89
	c-0.82-0.74-1.561-1-2.36-1c-1.541,0-2.781,1.48-2.781,3.7c0,2.32,0.961,3.701,2.661,3.701
	C233.432,89.291,234.212,88.851,235.012,87.971z"/>
<path class="st1" d="M239.689,77.648c0-0.64,0.461-1.08,1.101-1.08c0.641,0,1.101,0.44,1.101,1.08c0,0.66-0.46,1.08-1.101,1.08
	C240.15,78.729,239.689,78.309,239.689,77.648z M239.95,80.729h1.66v9.722h-1.66V80.729z"/>
<path class="st1" d="M243.811,89.291l0.76-0.96c0.84,0.7,1.721,1.06,2.921,1.06c1.28,0,1.9-0.66,1.9-1.5c0-1-1.08-1.42-2.181-1.82
	c-1.46-0.521-2.86-1.221-2.86-2.82c0-1.561,1.24-2.761,3.36-2.761c1.221,0,2.261,0.46,3.021,1.1l-0.76,0.961
	c-0.681-0.5-1.381-0.78-2.24-0.78c-1.241,0-1.781,0.68-1.781,1.4c0,0.88,0.841,1.24,2.061,1.66c1.521,0.54,2.98,1.2,2.98,2.961
	c0,1.58-1.26,2.9-3.561,2.9C246.011,90.691,244.71,90.171,243.811,89.291z"/>
<path class="st1" d="M252.55,85.59c0-3.16,2.141-5.101,4.361-5.101c2.48,0,3.9,1.76,3.9,4.561c0,0.36-0.02,0.66-0.08,0.98h-6.541
	c0.14,2,1.36,3.32,3.201,3.32c0.939,0,1.76-0.26,2.44-0.72l0.58,1.061c-0.841,0.6-1.881,1-3.221,1
	C254.591,90.691,252.55,88.811,252.55,85.59z M259.331,84.75c0-1.921-0.899-2.94-2.38-2.94c-1.36,0-2.561,1.08-2.761,2.94H259.331z"
	/>
<path class="st1" d="M262.31,87.931c0-2.16,1.801-3.201,5.962-3.661c-0.021-1.22-0.421-2.4-2.001-2.4c-1.12,0-2.141,0.5-2.9,1
	l-0.641-1.12c0.9-0.6,2.261-1.26,3.821-1.26c2.36,0,3.381,1.58,3.381,3.98v5.981h-1.36l-0.16-1.16h-0.061
	c-0.92,0.78-1.979,1.4-3.2,1.4C263.53,90.691,262.31,89.691,262.31,87.931z M268.271,88.091V85.45
	c-3.281,0.38-4.342,1.12-4.342,2.381c0,1.08,0.74,1.5,1.681,1.5S267.331,88.911,268.271,88.091z"/>
<path class="st1" d="M271.91,89.291l0.76-0.96c0.84,0.7,1.721,1.06,2.921,1.06c1.28,0,1.9-0.66,1.9-1.5c0-1-1.08-1.42-2.181-1.82
	c-1.46-0.521-2.86-1.221-2.86-2.82c0-1.561,1.24-2.761,3.36-2.761c1.221,0,2.261,0.46,3.021,1.1l-0.76,0.961
	c-0.681-0.5-1.381-0.78-2.24-0.78c-1.241,0-1.781,0.68-1.781,1.4c0,0.88,0.841,1.24,2.061,1.66c1.521,0.54,2.98,1.2,2.98,2.961
	c0,1.58-1.26,2.9-3.561,2.9C274.11,90.691,272.81,90.171,271.91,89.291z"/>
<path class="st1" d="M280.649,85.59c0-3.16,2.141-5.101,4.361-5.101c2.48,0,3.9,1.76,3.9,4.561c0,0.36-0.02,0.66-0.08,0.98h-6.541
	c0.14,2,1.36,3.32,3.201,3.32c0.939,0,1.76-0.26,2.44-0.72l0.58,1.061c-0.841,0.6-1.881,1-3.221,1
	C282.69,90.691,280.649,88.811,280.649,85.59z M287.431,84.75c0-1.921-0.899-2.94-2.38-2.94c-1.36,0-2.561,1.08-2.761,2.94H287.431z
	"/>
<path class="st1" d="M294.209,89.291l0.76-0.96c0.84,0.7,1.721,1.06,2.921,1.06c1.28,0,1.9-0.66,1.9-1.5c0-1-1.08-1.42-2.181-1.82
	c-1.46-0.521-2.86-1.221-2.86-2.82c0-1.561,1.24-2.761,3.36-2.761c1.221,0,2.261,0.46,3.021,1.1l-0.76,0.961
	c-0.681-0.5-1.381-0.78-2.24-0.78c-1.241,0-1.781,0.68-1.781,1.4c0,0.88,0.841,1.24,2.061,1.66c1.521,0.54,2.98,1.2,2.98,2.961
	c0,1.58-1.26,2.9-3.561,2.9C296.409,90.691,295.108,90.171,294.209,89.291z"/>
<path class="st1" d="M302.948,85.59c0-3.16,2.141-5.101,4.361-5.101c2.48,0,3.9,1.76,3.9,4.561c0,0.36-0.02,0.66-0.08,0.98h-6.541
	c0.14,2,1.36,3.32,3.201,3.32c0.939,0,1.76-0.26,2.44-0.72l0.58,1.061c-0.841,0.6-1.881,1-3.221,1
	C304.989,90.691,302.948,88.811,302.948,85.59z M309.729,84.75c0-1.921-0.899-2.94-2.38-2.94c-1.36,0-2.561,1.08-2.761,2.94H309.729
	z"/>
<path class="st1" d="M312.288,80.729h1.72l1.821,5.501c0.3,0.96,0.6,1.94,0.899,2.881h0.08c0.28-0.94,0.601-1.921,0.9-2.881
	l1.82-5.501h1.641l-3.44,9.722h-1.94L312.288,80.729z"/>
<path class="st1" d="M322.248,85.59c0-3.16,2.141-5.101,4.361-5.101c2.48,0,3.9,1.76,3.9,4.561c0,0.36-0.02,0.66-0.08,0.98h-6.541
	c0.14,2,1.36,3.32,3.2,3.32c0.94,0,1.761-0.26,2.441-0.72l0.58,1.061c-0.841,0.6-1.881,1-3.221,1
	C324.289,90.691,322.248,88.811,322.248,85.59z M329.029,84.75c0-1.921-0.899-2.94-2.38-2.94c-1.36,0-2.561,1.08-2.761,2.94H329.029
	z"/>
<path class="st1" d="M332.889,80.729h1.36l0.14,1.76h0.06c0.681-1.22,1.681-2,2.761-2c0.44,0,0.74,0.06,1.041,0.2l-0.36,1.42
	c-0.28-0.08-0.5-0.12-0.881-0.12c-0.819,0-1.8,0.58-2.46,2.221v6.241h-1.66V80.729z"/>
<path class="st1" d="M339.587,77.648c0-0.64,0.461-1.08,1.101-1.08c0.641,0,1.101,0.44,1.101,1.08c0,0.66-0.46,1.08-1.101,1.08
	C340.048,78.729,339.587,78.309,339.587,77.648z M339.848,80.729h1.66v9.722h-1.66V80.729z"/>
<path class="st1" d="M345.067,87.431v-5.361h-1.439v-1.24l1.52-0.1l0.2-3.121h1.381v3.121h2.641v1.34h-2.641v5.401
	c0,1.18,0.399,1.86,1.5,1.86c0.36,0,0.72-0.061,1.12-0.24l0.34,1.181c-0.52,0.239-1.18,0.42-1.84,0.42
	C345.768,90.691,345.067,89.371,345.067,87.431z"/>
<path class="st1" d="M350.587,94.432l0.36-1.3c0.24,0.08,0.479,0.12,0.72,0.12c1.08,0,1.78-0.86,2.181-2.061l0.22-0.721l-3.9-9.741
	h1.72l1.961,5.36c0.32,0.841,0.64,1.841,0.96,2.741h0.08c0.26-0.881,0.54-1.881,0.801-2.741l1.74-5.36h1.62l-3.661,10.521
	c-0.68,1.921-1.7,3.381-3.641,3.381C351.287,94.632,350.907,94.552,350.587,94.432z"/>
<path class="st1" d="M362.831,81.739h-3.346v-0.642l3.183-4.744h1.072v4.616h1.015v0.77h-1.015v2.052h-0.909V81.739z M362.831,80.97
	v-2.156c0-0.385,0.035-1.026,0.059-1.423h-0.047c-0.187,0.35-0.396,0.677-0.606,1.05l-1.737,2.529H362.831z"/>
</svg>
