<?xml version="1.0" encoding="utf-8"?>
<!-- Generator: Adobe Illustrator 27.0.1, SVG Export Plug-In . SVG Version: 6.00 Build 0)  -->
<svg version="1.1" id="Layer_1" xmlns="http://www.w3.org/2000/svg" xmlns:xlink="http://www.w3.org/1999/xlink" x="0px" y="0px"
	 width="44px" height="44px" viewBox="0 0 44 44" style="enable-background:new 0 0 44 44;" xml:space="preserve">
<style type="text/css">
	.st0{fill:#A4DBE8;}
</style>
<path class="st0" d="M23.934,26.232c0-7.841,3.627-13.525,10.486-17.445l2.255,3.822c-4.9,3.234-7.448,6.664-7.448,12.251
	c0.293-0.099,0.588-0.099,0.881-0.099c2.745,0,5.195,1.765,5.195,4.999c0,3.332-2.156,5.391-5.195,5.391
	C26.188,35.151,23.934,32.015,23.934,26.232z"/>
<path class="st0" d="M6.586,26.232c0-7.841,3.626-13.525,10.487-17.445l2.254,3.822c-4.9,3.234-7.448,6.664-7.448,12.251
	c0.294-0.099,0.588-0.099,0.882-0.099c2.744,0,5.194,1.765,5.194,4.999c0,3.332-2.156,5.391-5.194,5.391
	C8.841,35.151,6.586,32.015,6.586,26.232z"/>
</svg>
