<?xml version="1.0" encoding="utf-8"?>
<!-- Generator: Adobe Illustrator 27.0.1, SVG Export Plug-In . SVG Version: 6.00 Build 0)  -->
<svg version="1.1" id="Layer_1" xmlns="http://www.w3.org/2000/svg" xmlns:xlink="http://www.w3.org/1999/xlink" x="0px" y="0px"
	 width="230px" height="186px" viewBox="0 0 230 186" style="enable-background:new 0 0 230 186;" xml:space="preserve">
<style type="text/css">
	.st0{fill:#E35205;}
	.st1{fill:#A4DBE8;}
	.st2{fill:#FFFFFF;}
</style>
<path class="st0" d="M113.603,156.896c1.1,0.699,1.917,1.684,2.45,2.949c0.667,1.434,1,3.117,1,5.051c0,1.533-0.267,3.066-0.8,4.6
	c-0.7,1.834-1.817,3.275-3.35,4.325c-1.534,1.05-3.317,1.575-5.35,1.575c-2.034,0-3.817-0.517-5.35-1.551
	c-1.534-1.032-2.65-2.482-3.35-4.35c-0.533-1.366-0.8-2.9-0.8-4.6c0-1.867,0.3-3.5,0.9-4.9c0.466-1.267,1.316-2.283,2.55-3.05
	c0.2-0.101,0.2-0.2,0-0.3c-1.167-0.801-2-1.801-2.5-3c-0.634-1.467-0.95-3.017-0.95-4.65c0-1.8,0.316-3.35,0.95-4.65
	c0.7-1.566,1.808-2.791,3.325-3.675c1.517-0.883,3.258-1.325,5.225-1.325c1.933,0,3.65,0.426,5.15,1.275s2.617,2.075,3.35,3.675
	c0.667,1.4,1,2.968,1,4.7c0,1.634-0.317,3.167-0.95,4.6c-0.5,1.2-1.349,2.184-2.549,2.95
	C113.419,156.679,113.436,156.795,113.603,156.896z M105.003,149.646c0,0.767,0.116,1.533,0.35,2.3c0.133,0.667,0.392,1.2,0.775,1.6
	c0.383,0.4,0.857,0.601,1.425,0.601c0.566,0,1.05-0.208,1.45-0.625c0.4-0.417,0.666-0.958,0.8-1.625c0.2-0.667,0.3-1.4,0.3-2.2
	c0-0.866-0.117-1.601-0.35-2.2c-0.167-0.633-0.442-1.142-0.825-1.525c-0.384-0.383-0.842-0.574-1.375-0.574
	c-0.567,0-1.042,0.191-1.425,0.574c-0.384,0.384-0.659,0.926-0.825,1.625C105.103,148.195,105.003,148.879,105.003,149.646z
	 M110.103,164.445c0-1-0.1-1.866-0.3-2.601c-0.167-0.732-0.442-1.308-0.825-1.725c-0.383-0.416-0.858-0.625-1.425-0.625
	c-0.6,0-1.1,0.217-1.5,0.65s-0.667,1.033-0.8,1.8c-0.167,0.767-0.25,1.567-0.25,2.399c0,0.934,0.066,1.734,0.2,2.4
	c0.133,0.8,0.4,1.434,0.8,1.9c0.4,0.467,0.916,0.699,1.55,0.699c0.633,0,1.158-0.241,1.575-0.725
	c0.416-0.482,0.675-1.142,0.775-1.975C110.036,165.778,110.103,165.045,110.103,164.445z"/>
<path class="st0" d="M139.402,164.095c0,0.734-0.033,1.734-0.1,3c-0.101,2.634-1,4.676-2.7,6.125c-1.7,1.45-3.967,2.176-6.8,2.176
	c-2.667,0-4.825-0.667-6.476-2c-1.649-1.333-2.625-3.316-2.925-5.95c-0.134-0.7-0.2-1.616-0.2-2.75l-0.1-16.15
	c0-2.732,0.875-4.907,2.625-6.524s4.075-2.426,6.975-2.426c2.7,0,4.908,0.817,6.625,2.45c1.717,1.634,2.575,3.8,2.575,6.5v1.5
	c0,0.167-0.059,0.309-0.175,0.425c-0.117,0.117-0.259,0.176-0.425,0.176h-5.851c-0.167,0-0.309-0.059-0.425-0.176
	c-0.117-0.116-0.175-0.258-0.175-0.425v-1.1c0-0.9-0.217-1.65-0.65-2.25c-0.434-0.601-0.934-0.9-1.5-0.9
	c-0.733,0-1.333,0.292-1.8,0.875c-0.467,0.584-0.7,1.343-0.7,2.275v5.05c0,0.1,0.033,0.158,0.101,0.175
	c0.066,0.018,0.133-0.008,0.2-0.075c1.1-0.933,2.35-1.399,3.75-1.399c2.332,0,4.207,0.767,5.625,2.3
	c1.416,1.533,2.191,3.584,2.324,6.15C139.335,161.945,139.402,162.929,139.402,164.095z M132.253,163.595
	c0-0.899-0.067-1.933-0.2-3.1c-0.101-0.767-0.351-1.366-0.75-1.8c-0.4-0.433-0.917-0.65-1.55-0.65c-0.668,0-1.209,0.226-1.625,0.675
	c-0.418,0.45-0.676,1.075-0.775,1.875c-0.1,1.301-0.15,2.301-0.15,3c0,0.801,0.051,1.834,0.15,3.101c0.1,0.867,0.357,1.533,0.775,2
	c0.416,0.467,0.957,0.7,1.625,0.7c0.666,0,1.207-0.25,1.625-0.75c0.416-0.5,0.675-1.2,0.774-2.101
	C132.219,164.945,132.253,163.962,132.253,163.595z"/>
<path class="st0" d="M143.902,146.256c-0.699-0.408-1.254-0.967-1.662-1.677s-0.612-1.482-0.612-2.319
	c0-0.835,0.204-1.604,0.612-2.304s0.963-1.259,1.662-1.677c0.7-0.418,1.459-0.627,2.275-0.627s1.569,0.209,2.26,0.627
	s1.234,0.977,1.634,1.677c0.398,0.7,0.598,1.469,0.598,2.304c0,0.837-0.199,1.609-0.598,2.319c-0.399,0.71-0.943,1.269-1.634,1.677
	s-1.443,0.612-2.26,0.612S144.603,146.664,143.902,146.256z M147.825,144.01c0.438-0.485,0.656-1.068,0.656-1.75
	c0-0.68-0.224-1.258-0.671-1.735c-0.447-0.476-0.991-0.714-1.633-0.714c-0.661,0-1.221,0.238-1.677,0.714
	c-0.458,0.478-0.686,1.056-0.686,1.735c0,0.7,0.228,1.289,0.686,1.765c0.456,0.477,1.016,0.715,1.677,0.715
	C146.838,144.739,147.388,144.496,147.825,144.01z M144.69,158.214c-0.04-0.078-0.029-0.176,0.028-0.292l10.616-19.774
	c0.078-0.155,0.224-0.232,0.438-0.232h2.188c0.136,0,0.224,0.039,0.263,0.116c0.039,0.078,0.029,0.175-0.029,0.292l-10.616,19.773
	c-0.078,0.156-0.224,0.233-0.438,0.233h-2.188C144.816,158.33,144.729,158.291,144.69,158.214z M154.621,157.966
	c-0.69-0.418-1.24-0.981-1.648-1.691s-0.612-1.482-0.612-2.319c0-0.836,0.204-1.604,0.612-2.304s0.958-1.254,1.648-1.662
	c0.689-0.408,1.443-0.613,2.26-0.613s1.57,0.205,2.261,0.613c0.689,0.408,1.239,0.962,1.647,1.662s0.612,1.468,0.612,2.304
	c0,0.837-0.204,1.609-0.612,2.319s-0.958,1.273-1.647,1.691c-0.69,0.418-1.444,0.627-2.261,0.627S155.311,158.384,154.621,157.966z
	 M158.543,155.705c0.447-0.485,0.671-1.069,0.671-1.75c0-0.68-0.229-1.259-0.685-1.735c-0.457-0.476-1.007-0.714-1.648-0.714
	c-0.661,0-1.215,0.238-1.662,0.714c-0.447,0.477-0.671,1.056-0.671,1.735c0,0.7,0.224,1.288,0.671,1.765s1.001,0.715,1.662,0.715
	S158.096,156.191,158.543,155.705z"/>
<path id="Path_92149" class="st1" d="M224.561,52.076c-2-2.1-49.591-51.522-109.564-51.522S7.435,49.973,5.438,52.076
	c-1.916,2.017-1.916,5.183,0,7.2c2,2.1,49.589,51.522,109.562,51.522s107.567-49.417,109.561-51.522
	C226.476,57.258,226.476,54.094,224.561,52.076z M115,101.528c-47.608,0-88.521-34.35-100.883-45.853
	C26.479,44.175,67.392,9.824,115,9.824s88.521,34.35,100.885,45.851C203.521,67.179,162.608,101.528,115,101.528z"/>
<circle id="Ellipse_269" class="st1" cx="115.298" cy="55.996" r="40.864"/>
<path id="Subtraction_2" class="st0" d="M115.358,96.86L115.358,96.86c-7.827-0.006-15.491-2.248-22.097-6.464
	C79.32,81.534,72.132,65.064,75.093,48.767c1.416-7.808,5.057-15.037,10.482-20.809c7.72-8.174,18.444-12.809,29.665-12.82
	c8.955,0.007,17.665,2.94,24.813,8.357c2.388,1.812,4.569,3.883,6.504,6.176L115.3,55.998l40.538,5.107
	C153.217,81.545,135.886,96.853,115.358,96.86z"/>
<path class="st2" d="M133.644,129.285c-1.104,0-2-0.896-2-2V74.902c0-1.104,0.896-2,2-2s2,0.896,2,2v52.383
	C135.644,128.39,134.748,129.285,133.644,129.285z"/>
</svg>
