<?xml version="1.0" encoding="utf-8"?>
<!-- Generator: Adobe Illustrator 27.0.1, SVG Export Plug-In . SVG Version: 6.00 Build 0)  -->
<svg version="1.1" id="Layer_1" xmlns="http://www.w3.org/2000/svg" xmlns:xlink="http://www.w3.org/1999/xlink" x="0px" y="0px"
	 width="204px" height="174px" viewBox="0 0 204 174" style="enable-background:new 0 0 204 174;" xml:space="preserve">
<style type="text/css">
	.st0{fill:#A4DBE8;}
	.st1{fill:#FFFFFF;}
	.st2{opacity:0.395;fill:#E35205;enable-background:new    ;}
</style>
<ellipse id="Ellipse_211" class="st0" cx="89.323" cy="137.941" rx="3.475" ry="3.475"/>
<ellipse id="Ellipse_212" class="st0" cx="89.323" cy="128.353" rx="3.475" ry="3.475"/>
<ellipse id="Ellipse_213" class="st0" cx="89.323" cy="80.416" rx="3.475" ry="3.475"/>
<ellipse id="Ellipse_214" class="st0" cx="79.945" cy="80.416" rx="3.159" ry="3.159"/>
<ellipse id="Ellipse_215" class="st0" cx="70.165" cy="80.416" rx="2.843" ry="2.843"/>
<ellipse id="Ellipse_216" class="st0" cx="60.384" cy="80.416" rx="2.527" ry="2.527"/>
<ellipse id="Ellipse_217" class="st0" cx="50.604" cy="80.417" rx="2.211" ry="2.211"/>
<ellipse id="Ellipse_218" class="st0" cx="40.824" cy="80.416" rx="1.895" ry="1.895"/>
<ellipse id="Ellipse_219" class="st0" cx="31.044" cy="80.417" rx="1.579" ry="1.579"/>
<path id="Path_92363" class="st0" d="M22.526,80.416c0.002-0.698-0.562-1.264-1.26-1.266S20.002,79.713,20,80.41
	s0.562,1.264,1.26,1.266c0.001,0,0.002,0,0.003,0C21.959,81.676,22.524,81.112,22.526,80.416z"/>
<ellipse id="Ellipse_220" class="st0" cx="89.323" cy="90.003" rx="3.475" ry="3.475"/>
<ellipse id="Ellipse_221" class="st0" cx="79.945" cy="89.823" rx="3.159" ry="3.159"/>
<ellipse id="Ellipse_222" class="st0" cx="70.165" cy="89.643" rx="2.843" ry="2.843"/>
<ellipse id="Ellipse_223" class="st0" cx="60.384" cy="89.462" rx="2.527" ry="2.527"/>
<circle id="Ellipse_224" class="st0" cx="50.604" cy="89.282" r="2.211"/>
<ellipse id="Ellipse_225" class="st0" cx="40.824" cy="89.101" rx="1.895" ry="1.895"/>
<ellipse id="Ellipse_226" class="st0" cx="31.043" cy="88.922" rx="1.579" ry="1.579"/>
<path id="Path_92364" class="st0" d="M22.526,88.74c0-0.698-0.565-1.263-1.263-1.263S20,88.043,20,88.74s0.565,1.263,1.263,1.263
	S22.526,89.438,22.526,88.74L22.526,88.74z"/>
<ellipse id="Ellipse_227" class="st0" cx="89.323" cy="99.591" rx="3.475" ry="3.475"/>
<ellipse id="Ellipse_228" class="st0" cx="79.945" cy="99.41" rx="3.159" ry="3.159"/>
<ellipse id="Ellipse_229" class="st0" cx="70.165" cy="99.23" rx="2.843" ry="2.843"/>
<ellipse id="Ellipse_230" class="st0" cx="60.384" cy="99.05" rx="2.527" ry="2.527"/>
<ellipse id="Ellipse_231" class="st0" cx="50.604" cy="98.869" rx="2.211" ry="2.211"/>
<ellipse id="Ellipse_232" class="st0" cx="40.824" cy="98.689" rx="1.895" ry="1.895"/>
<ellipse id="Ellipse_233" class="st0" cx="31.043" cy="98.508" rx="1.579" ry="1.579"/>
<path id="Path_92365" class="st0" d="M22.526,98.328c0-0.698-0.565-1.263-1.263-1.263S20,97.631,20,98.328s0.565,1.263,1.263,1.263
	S22.526,99.026,22.526,98.328L22.526,98.328z"/>
<ellipse id="Ellipse_234" class="st0" cx="89.323" cy="109.178" rx="3.475" ry="3.475"/>
<ellipse id="Ellipse_235" class="st0" cx="79.945" cy="109.178" rx="3.159" ry="3.159"/>
<ellipse id="Ellipse_236" class="st0" cx="70.165" cy="109.178" rx="2.843" ry="2.843"/>
<ellipse id="Ellipse_237" class="st0" cx="60.385" cy="109.179" rx="2.527" ry="2.527"/>
<ellipse id="Ellipse_238" class="st0" cx="50.604" cy="109.179" rx="2.211" ry="2.211"/>
<ellipse id="Ellipse_239" class="st0" cx="40.824" cy="109.179" rx="1.895" ry="1.895"/>
<ellipse id="Ellipse_240" class="st0" cx="31.044" cy="109.18" rx="1.579" ry="1.579"/>
<path id="Path_92366" class="st0" d="M22.526,109.178c0-0.698-0.565-1.263-1.263-1.263S20,108.481,20,109.178
	s0.565,1.263,1.263,1.263S22.526,109.876,22.526,109.178L22.526,109.178z"/>
<ellipse id="Ellipse_241" class="st0" cx="89.323" cy="118.766" rx="3.475" ry="3.475"/>
<ellipse id="Ellipse_242" class="st0" cx="79.945" cy="118.585" rx="3.159" ry="3.159"/>
<ellipse id="Ellipse_243" class="st0" cx="70.165" cy="118.405" rx="2.843" ry="2.843"/>
<ellipse id="Ellipse_244" class="st0" cx="60.384" cy="118.225" rx="2.527" ry="2.527"/>
<ellipse id="Ellipse_245" class="st0" cx="50.604" cy="118.044" rx="2.211" ry="2.211"/>
<ellipse id="Ellipse_246" class="st0" cx="40.824" cy="117.864" rx="1.895" ry="1.895"/>
<ellipse id="Ellipse_247" class="st0" cx="31.043" cy="117.684" rx="1.579" ry="1.579"/>
<path id="Path_92367" class="st0" d="M22.526,117.503c0-0.698-0.565-1.263-1.263-1.263S20,116.806,20,117.503
	s0.565,1.263,1.263,1.263S22.526,118.201,22.526,117.503L22.526,117.503z"/>
<ellipse id="Ellipse_248" class="st0" cx="89.323" cy="70.828" rx="3.475" ry="3.475"/>
<ellipse id="Ellipse_249" class="st0" cx="89.323" cy="61.241" rx="3.475" ry="3.475"/>
<ellipse id="Ellipse_250" class="st0" cx="98.998" cy="128.353" rx="3.475" ry="3.475"/>
<ellipse id="Ellipse_251" class="st0" cx="98.998" cy="118.766" rx="3.475" ry="3.475"/>
<ellipse id="Ellipse_252" class="st0" cx="98.998" cy="109.178" rx="3.475" ry="3.475"/>
<ellipse id="Ellipse_253" class="st0" cx="98.998" cy="99.591" rx="3.475" ry="3.475"/>
<ellipse id="Ellipse_254" class="st0" cx="98.998" cy="90.003" rx="3.475" ry="3.475"/>
<ellipse id="Ellipse_255" class="st0" cx="98.998" cy="80.416" rx="3.475" ry="3.475"/>
<ellipse id="Ellipse_256" class="st0" cx="98.998" cy="70.828" rx="3.475" ry="3.475"/>
<ellipse id="Ellipse_257" class="st0" cx="108.673" cy="118.766" rx="3.475" ry="3.475"/>
<ellipse id="Ellipse_258" class="st0" cx="108.673" cy="109.178" rx="3.475" ry="3.475"/>
<ellipse id="Ellipse_259" class="st0" cx="108.673" cy="99.591" rx="3.475" ry="3.475"/>
<ellipse id="Ellipse_260" class="st0" cx="108.673" cy="90.003" rx="3.475" ry="3.475"/>
<ellipse id="Ellipse_261" class="st0" cx="108.673" cy="80.416" rx="3.475" ry="3.475"/>
<ellipse id="Ellipse_262" class="st0" cx="118.349" cy="109.178" rx="3.475" ry="3.475"/>
<ellipse id="Ellipse_263" class="st0" cx="118.349" cy="99.591" rx="3.475" ry="3.475"/>
<ellipse id="Ellipse_264" class="st0" cx="118.349" cy="90.003" rx="3.475" ry="3.475"/>
<ellipse id="Ellipse_265" class="st0" cx="128.024" cy="99.591" rx="3.475" ry="3.475"/>
<path class="st1" d="M76,174c-41.907,0-76-34.094-76-76c0-41.907,34.093-76,76-76c41.906,0,76,34.093,76,76
	C152,139.906,117.906,174,76,174z M76,23C34.645,23,1,56.645,1,98c0,41.355,33.645,75,75,75c41.355,0,75-33.645,75-75
	C151,56.645,117.355,23,76,23z"/>
<circle id="Ellipse_267" class="st2" cx="159" cy="45" r="45"/>
</svg>
