<?xml version="1.0" encoding="utf-8"?>
<!-- Generator: Adobe Illustrator 27.0.1, SVG Export Plug-In . SVG Version: 6.00 Build 0)  -->
<svg version="1.1" id="Layer_1" xmlns="http://www.w3.org/2000/svg" xmlns:xlink="http://www.w3.org/1999/xlink" x="0px" y="0px"
	 width="230px" height="150px" viewBox="0 0 230 150" style="enable-background:new 0 0 230 150;" xml:space="preserve">
<style type="text/css">
	.st0{fill:#A4DBE8;}
	.st1{fill:#E35205;}
</style>
<path id="Path_92157" class="st0" d="M195.374,72.117c-1.447-1.524-35.935-37.335-79.394-37.335s-77.948,35.811-79.4,37.335
	c-1.388,1.462-1.388,3.756,0,5.218c1.447,1.525,35.936,37.335,79.4,37.335s77.944-35.81,79.394-37.335
	C196.763,75.873,196.763,73.58,195.374,72.117z M115.98,107.953c-34.5,0-64.147-24.892-73.106-33.227
	C51.833,66.392,81.481,41.5,115.98,41.5s64.144,24.892,73.104,33.226c-8.96,8.336-38.605,33.227-73.105,33.227L115.98,107.953z"/>
<path id="Path_92158" class="st1" d="M131.978,79.653c0,8.837-7.163,16-16,16s-16-7.163-16-16c0-8.836,16-31.792,16-31.792
	S131.978,70.82,131.978,79.653z"/>
<path id="Path_92159" class="st1" d="M115.977,19.504c-1.211-0.001-2.192-0.982-2.192-2.193V3.158
	c0.001-1.21,0.982-2.191,2.192-2.192c1.211,0,2.192,0.981,2.192,2.192l0,0v14.154C118.168,18.523,117.187,19.504,115.977,19.504z"/>
<path id="Path_92160" class="st1" d="M115.977,149.035c-1.21-0.001-2.191-0.982-2.192-2.192v-14.154
	c0.001-1.21,0.982-2.191,2.192-2.192c1.211,0,2.192,0.981,2.192,2.192l0,0v14.153C118.169,148.053,117.188,149.035,115.977,149.035
	C115.977,149.035,115.977,149.035,115.977,149.035z"/>
<path id="Path_92161" class="st1" d="M226.171,76.919h-14.154c-1.211,0-2.192-0.982-2.192-2.192c0-1.211,0.982-2.193,2.192-2.193
	h14.154c1.211,0,2.192,0.982,2.192,2.193C228.363,75.938,227.382,76.919,226.171,76.919L226.171,76.919z"/>
<path id="Path_92162" class="st1" d="M17.982,76.919H3.829c-1.21-0.001-2.191-0.982-2.192-2.192c0-1.211,0.981-2.192,2.192-2.192
	l0,0h14.153c1.211,0,2.192,0.981,2.192,2.192l0,0C20.173,75.938,19.192,76.919,17.982,76.919z"/>
<path id="Path_92163" class="st1" d="M3.829,18.441c-1.211,0-2.192-0.981-2.192-2.192l0,0V3.158c0-1.211,0.981-2.192,2.192-2.192
	l0,0h16.42c1.211,0,2.192,0.981,2.192,2.192l0,0c0,1.211-0.981,2.192-2.192,2.192l0,0H6.022v10.9
	C6.021,17.461,5.039,18.442,3.829,18.441z"/>
<path id="Path_92164" class="st1" d="M226.17,18.441c-1.211,0-2.192-0.981-2.192-2.192l0,0v-10.9h-14.229
	c-1.211,0-2.193-0.982-2.193-2.192c0-1.211,0.982-2.193,2.193-2.193h16.421c1.21,0.001,2.191,0.982,2.192,2.192v13.091
	C228.362,17.459,227.381,18.441,226.17,18.441z"/>
<path id="Path_92165" class="st1" d="M20.254,149.036H3.834c-1.211,0-2.192-0.981-2.192-2.192v-13.09
	c0-1.211,0.981-2.192,2.192-2.192l0,0c1.211,0,2.192,0.981,2.192,2.192l0,0v10.9h14.228c1.21,0.001,2.191,0.982,2.192,2.192
	C22.445,148.055,21.464,149.036,20.254,149.036z"/>
<path id="Path_92166" class="st1" d="M226.17,149.036h-16.421c-1.211,0-2.193-0.982-2.193-2.193s0.982-2.193,2.193-2.193h14.229
	v-10.9c0-1.211,0.982-2.193,2.192-2.193c1.211,0,2.193,0.982,2.193,2.193v13.09c0.001,1.211-0.98,2.194-2.191,2.195
	C226.171,149.036,226.17,149.036,226.17,149.036z"/>
</svg>
