<?xml version="1.0" encoding="utf-8"?>
<!-- Generator: Adobe Illustrator 27.0.1, SVG Export Plug-In . SVG Version: 6.00 Build 0)  -->
<svg version="1.1" id="Layer_1" xmlns="http://www.w3.org/2000/svg" xmlns:xlink="http://www.w3.org/1999/xlink" x="0px" y="0px"
	 width="375px" height="100px" viewBox="0 0 375 100" style="enable-background:new 0 0 375 100;" xml:space="preserve">
<style type="text/css">
	.st0{fill:#FFFFFF;}
	.st1{fill-rule:evenodd;clip-rule:evenodd;fill:#A4DBE8;stroke:#A4DBE8;stroke-width:0.5;}
</style>
<path class="st0" d="M206.988,46.913c-1.3,1.65-3.033,2.709-5.2,3.175c-0.167,0.066-0.25,0.167-0.25,0.301l0.05,2.8
	c0,0.166-0.059,0.308-0.175,0.425c-0.117,0.116-0.259,0.175-0.425,0.175h-4.05c-0.167,0-0.309-0.059-0.425-0.175
	c-0.117-0.117-0.176-0.259-0.176-0.425l0.051-2.9c0-0.134-0.067-0.217-0.2-0.25c-2.067-0.532-3.709-1.583-4.925-3.149
	c-1.218-1.566-1.825-3.45-1.825-5.65v-1.45c0-0.166,0.058-0.308,0.175-0.425c0.116-0.116,0.258-0.175,0.425-0.175h5.75
	c0.167,0,0.308,0.059,0.425,0.175c0.117,0.117,0.176,0.259,0.176,0.425v1.101c0,1.033,0.266,1.867,0.8,2.5
	c0.532,0.633,1.2,0.949,2,0.949s1.466-0.3,2-0.899c0.532-0.601,0.8-1.383,0.8-2.351c0-1-0.334-1.857-1-2.574
	c-0.667-0.717-1.967-1.775-3.9-3.176c-1.667-1.199-3.017-2.266-4.05-3.199s-1.917-2.083-2.649-3.45
	c-0.734-1.366-1.101-2.95-1.101-4.75c0-2.333,0.616-4.3,1.851-5.9c1.232-1.6,2.916-2.649,5.05-3.149
	c0.133-0.033,0.2-0.133,0.2-0.301l-0.051-3.25c0-0.166,0.059-0.308,0.176-0.425c0.116-0.116,0.258-0.175,0.425-0.175h4
	c0.166,0,0.308,0.059,0.425,0.175c0.116,0.117,0.175,0.259,0.175,0.425l-0.05,3.25c0,0.168,0.066,0.268,0.2,0.301
	c2.166,0.5,3.875,1.583,5.125,3.25s1.875,3.684,1.875,6.05v1.2c0,0.167-0.059,0.309-0.175,0.425
	c-0.117,0.117-0.259,0.175-0.426,0.175h-5.75c-0.167,0-0.309-0.058-0.425-0.175c-0.117-0.116-0.175-0.258-0.175-0.425v-1.351
	c0-1.032-0.259-1.857-0.775-2.475c-0.517-0.616-1.191-0.925-2.024-0.925c-0.8,0-1.45,0.292-1.95,0.875s-0.75,1.392-0.75,2.425
	c0,1,0.316,1.884,0.95,2.649c0.633,0.768,1.883,1.834,3.75,3.2c2.066,1.534,3.625,2.775,4.675,3.726c1.05,0.949,1.866,2,2.45,3.149
	c0.583,1.15,0.875,2.525,0.875,4.125C208.938,43.222,208.288,45.264,206.988,46.913z"/>
<path class="st0" d="M230.938,39.088c0,1.101-0.05,2.15-0.15,3.15c-0.133,2.567-1.042,4.567-2.725,6
	c-1.684,1.434-3.942,2.15-6.775,2.15c-2.667,0-4.816-0.667-6.449-2c-1.634-1.333-2.617-3.316-2.95-5.95l-0.15-1.4
	c0-0.399,0.2-0.6,0.601-0.6h5.85c0.4,0,0.616,0.2,0.65,0.6c0,0.2,0.032,0.468,0.1,0.8c0.3,1.668,1.083,2.5,2.35,2.5
	c0.667,0,1.208-0.225,1.625-0.675s0.691-1.075,0.825-1.875c0.101-0.866,0.15-1.782,0.15-2.75c0-0.7-0.067-1.55-0.2-2.55
	c-0.134-0.767-0.408-1.35-0.825-1.75s-0.942-0.6-1.575-0.6c-1.267,0-2.083,0.583-2.449,1.75c-0.101,0.367-0.317,0.55-0.65,0.55h-5.9
	c-0.167,0-0.309-0.058-0.425-0.175c-0.117-0.117-0.175-0.258-0.175-0.426v-20.25c0-0.166,0.058-0.308,0.175-0.425
	c0.116-0.116,0.258-0.175,0.425-0.175h17.65c0.166,0,0.308,0.059,0.425,0.175c0.116,0.117,0.175,0.259,0.175,0.425v4.851
	c0,0.167-0.059,0.309-0.175,0.425c-0.117,0.117-0.259,0.175-0.425,0.175h-10.95c-0.167,0-0.25,0.084-0.25,0.25v8.4
	c0,0.1,0.033,0.167,0.101,0.2c0.066,0.033,0.133,0,0.199-0.101c0.566-0.566,1.233-1,2-1.3s1.583-0.45,2.45-0.45
	c2.133,0,3.842,0.7,5.125,2.101c1.283,1.399,1.991,3.35,2.125,5.85C230.87,37.256,230.938,38.288,230.938,39.088z"/>
<path class="st0" d="M252.887,39.088c0,1.101-0.05,2.15-0.149,3.15c-0.134,2.567-1.042,4.567-2.726,6
	c-1.684,1.434-3.941,2.15-6.774,2.15c-2.667,0-4.817-0.667-6.45-2c-1.634-1.333-2.617-3.316-2.95-5.95l-0.149-1.4
	c0-0.399,0.199-0.6,0.6-0.6h5.85c0.4,0,0.617,0.2,0.65,0.6c0,0.2,0.033,0.468,0.1,0.8c0.301,1.668,1.083,2.5,2.351,2.5
	c0.666,0,1.208-0.225,1.625-0.675c0.416-0.45,0.691-1.075,0.825-1.875c0.1-0.866,0.149-1.782,0.149-2.75c0-0.7-0.067-1.55-0.2-2.55
	c-0.133-0.767-0.408-1.35-0.824-1.75c-0.418-0.4-0.942-0.6-1.575-0.6c-1.268,0-2.084,0.583-2.45,1.75
	c-0.1,0.367-0.317,0.55-0.65,0.55h-5.899c-0.167,0-0.309-0.058-0.425-0.175c-0.117-0.117-0.176-0.258-0.176-0.426v-20.25
	c0-0.166,0.059-0.308,0.176-0.425c0.116-0.116,0.258-0.175,0.425-0.175h17.649c0.167,0,0.309,0.059,0.426,0.175
	c0.116,0.117,0.175,0.259,0.175,0.425v4.851c0,0.167-0.059,0.309-0.175,0.425c-0.117,0.117-0.259,0.175-0.426,0.175h-10.949
	c-0.168,0-0.25,0.084-0.25,0.25v8.4c0,0.1,0.032,0.167,0.1,0.2c0.066,0.033,0.133,0,0.2-0.101c0.566-0.566,1.232-1,2-1.3
	c0.767-0.3,1.583-0.45,2.45-0.45c2.133,0,3.841,0.7,5.125,2.101c1.282,1.399,1.991,3.35,2.125,5.85
	C252.82,37.256,252.887,38.288,252.887,39.088z"/>
<path class="st0" d="M256.812,49.063c-0.75-0.75-1.125-1.691-1.125-2.825c0-1.166,0.367-2.116,1.101-2.85
	c0.732-0.733,1.683-1.101,2.85-1.101s2.116,0.367,2.851,1.101c0.732,0.733,1.1,1.684,1.1,2.85c0,1.134-0.375,2.075-1.125,2.825
	s-1.692,1.125-2.825,1.125C258.503,50.188,257.562,49.813,256.812,49.063z"/>
<path class="st0" d="M288.513,34.963c0.115,0.117,0.174,0.259,0.174,0.426v5.149c0,0.167-0.059,0.309-0.174,0.425
	c-0.117,0.117-0.26,0.176-0.426,0.176h-1.55c-0.168,0-0.25,0.083-0.25,0.25v8c0,0.167-0.059,0.309-0.176,0.425
	c-0.117,0.117-0.258,0.175-0.425,0.175h-5.85c-0.167,0-0.309-0.058-0.425-0.175c-0.117-0.116-0.176-0.258-0.176-0.425v-8
	c0-0.167-0.083-0.25-0.25-0.25h-12.5c-0.167,0-0.309-0.059-0.425-0.176c-0.117-0.116-0.175-0.258-0.175-0.425v-4.1
	c0-0.3,0.033-0.55,0.1-0.75l6.65-20.2c0.1-0.333,0.316-0.5,0.65-0.5h6.35c0.2,0,0.35,0.059,0.45,0.175
	c0.1,0.117,0.116,0.292,0.05,0.525l-6,18.8c-0.033,0.2,0.033,0.3,0.2,0.3h4.649c0.167,0,0.25-0.083,0.25-0.25v-5.2
	c0-0.166,0.059-0.308,0.176-0.425c0.116-0.116,0.258-0.175,0.425-0.175h5.85c0.167,0,0.308,0.059,0.425,0.175
	c0.117,0.117,0.176,0.259,0.176,0.425v5.2c0,0.167,0.082,0.25,0.25,0.25h1.55C288.253,34.788,288.396,34.847,288.513,34.963z"/>
<path class="st0" d="M204.592,87.15c-1.382,1.233-3.17,1.85-5.365,1.85h-6.993c-0.123,0-0.228-0.043-0.314-0.13
	c-0.086-0.086-0.129-0.19-0.129-0.314V63.544c0-0.123,0.043-0.228,0.129-0.314c0.087-0.086,0.191-0.13,0.314-0.13h6.18
	c2.466,0,4.396,0.593,5.79,1.776s2.091,2.948,2.091,5.291c0,2.442-0.839,4.218-2.516,5.328c-0.1,0.074-0.111,0.147-0.037,0.222
	c1.948,1.382,2.923,3.429,2.923,6.143C206.664,84.153,205.973,85.917,204.592,87.15z M197.007,67.762v5.81
	c0,0.123,0.062,0.185,0.185,0.185h1.332c0.839,0,1.492-0.265,1.962-0.795c0.468-0.53,0.702-1.277,0.702-2.239
	c0-1.011-0.228-1.788-0.685-2.331c-0.456-0.542-1.116-0.813-1.979-0.813h-1.332C197.068,67.577,197.007,67.639,197.007,67.762z
	 M200.744,83.598c0.468-0.592,0.703-1.43,0.703-2.516c0-1.085-0.235-1.948-0.703-2.59c-0.469-0.642-1.098-0.962-1.888-0.962h-1.665
	c-0.123,0-0.185,0.062-0.185,0.185v6.586c0,0.124,0.062,0.186,0.185,0.186h1.629C199.634,84.486,200.275,84.19,200.744,83.598z"/>
<path class="st0" d="M209.309,88.87c-0.086-0.086-0.129-0.19-0.129-0.314V63.544c0-0.123,0.043-0.228,0.129-0.314
	c0.087-0.086,0.191-0.13,0.314-0.13h4.329c0.123,0,0.229,0.044,0.314,0.13c0.087,0.087,0.13,0.191,0.13,0.314v25.012
	c0,0.124-0.043,0.229-0.13,0.314c-0.086,0.087-0.191,0.13-0.314,0.13h-4.329C209.5,89,209.396,88.957,209.309,88.87z"/>
<path class="st0" d="M217.818,88.87c-0.086-0.086-0.129-0.19-0.129-0.314V63.544c0-0.123,0.043-0.228,0.129-0.314
	c0.087-0.086,0.191-0.13,0.314-0.13h4.329c0.123,0,0.229,0.044,0.314,0.13c0.087,0.087,0.13,0.191,0.13,0.314v20.794
	c0,0.124,0.062,0.186,0.185,0.186h7.771c0.123,0,0.228,0.043,0.314,0.129c0.086,0.087,0.13,0.191,0.13,0.314v3.589
	c0,0.124-0.044,0.229-0.13,0.314c-0.087,0.087-0.191,0.13-0.314,0.13h-12.729C218.01,89,217.905,88.957,217.818,88.87z"/>
<path class="st0" d="M233.58,88.87c-0.086-0.086-0.129-0.19-0.129-0.314V63.544c0-0.123,0.043-0.228,0.129-0.314
	c0.087-0.086,0.191-0.13,0.314-0.13h4.329c0.123,0,0.229,0.044,0.314,0.13c0.087,0.087,0.13,0.191,0.13,0.314v20.794
	c0,0.124,0.062,0.186,0.185,0.186h7.771c0.123,0,0.228,0.043,0.314,0.129c0.086,0.087,0.13,0.191,0.13,0.314v3.589
	c0,0.124-0.044,0.229-0.13,0.314c-0.087,0.087-0.191,0.13-0.314,0.13h-12.729C233.771,89,233.667,88.957,233.58,88.87z"/>
<path class="st0" d="M249.342,88.87c-0.086-0.086-0.129-0.19-0.129-0.314V63.544c0-0.123,0.043-0.228,0.129-0.314
	c0.087-0.086,0.191-0.13,0.314-0.13h4.329c0.123,0,0.229,0.044,0.314,0.13c0.087,0.087,0.13,0.191,0.13,0.314v25.012
	c0,0.124-0.043,0.229-0.13,0.314c-0.086,0.087-0.191,0.13-0.314,0.13h-4.329C249.533,89,249.429,88.957,249.342,88.87z"/>
<path class="st0" d="M259.388,87.298c-1.357-1.332-2.035-3.107-2.035-5.328V70.13c0-2.22,0.678-3.996,2.035-5.328
	c1.356-1.332,3.169-1.998,5.438-1.998s4.089,0.666,5.458,1.998s2.054,3.108,2.054,5.328v11.84c0,2.221-0.685,3.996-2.054,5.328
	s-3.188,1.998-5.458,1.998S260.744,88.63,259.388,87.298z M266.491,84.098c0.419-0.481,0.629-1.116,0.629-1.905V69.908
	c0-0.789-0.21-1.425-0.629-1.905c-0.42-0.481-0.975-0.722-1.665-0.722s-1.239,0.24-1.646,0.722c-0.406,0.48-0.61,1.116-0.61,1.905
	v12.284c0,0.789,0.204,1.424,0.61,1.905c0.407,0.48,0.956,0.722,1.646,0.722S266.071,84.578,266.491,84.098z"/>
<path class="st0" d="M285.935,63.229c0.087-0.086,0.191-0.13,0.314-0.13h4.292c0.124,0,0.229,0.044,0.315,0.13
	c0.086,0.087,0.129,0.191,0.129,0.314v25.012c0,0.124-0.043,0.229-0.129,0.314c-0.087,0.087-0.191,0.13-0.315,0.13h-4.884
	c-0.247,0-0.407-0.123-0.48-0.37l-4.588-14.319c-0.025-0.073-0.068-0.104-0.13-0.092s-0.093,0.056-0.093,0.129l0.037,14.208
	c0,0.124-0.043,0.229-0.129,0.314c-0.087,0.087-0.191,0.13-0.315,0.13h-4.292c-0.123,0-0.228-0.043-0.314-0.13
	c-0.086-0.086-0.129-0.19-0.129-0.314V63.544c0-0.123,0.043-0.228,0.129-0.314c0.087-0.086,0.191-0.13,0.314-0.13h4.848
	c0.246,0,0.407,0.124,0.48,0.37l4.625,14.319c0.024,0.074,0.068,0.105,0.13,0.093s0.093-0.056,0.093-0.13l-0.037-14.208
	C285.806,63.421,285.849,63.316,285.935,63.229z"/>
<path class="st0" d="M301.148,68.811c0.03,0.03,0.045,0.066,0.045,0.109v1.321c0,0.043-0.015,0.079-0.045,0.109
	s-0.066,0.045-0.109,0.045h-0.397c-0.043,0-0.064,0.021-0.064,0.064v2.053c0,0.043-0.015,0.079-0.045,0.109
	s-0.066,0.045-0.108,0.045h-1.502c-0.043,0-0.079-0.015-0.109-0.045c-0.029-0.03-0.045-0.066-0.045-0.109V70.46
	c0-0.043-0.021-0.064-0.063-0.064h-3.209c-0.043,0-0.079-0.015-0.108-0.045c-0.03-0.03-0.045-0.066-0.045-0.109v-1.052
	c0-0.077,0.008-0.142,0.025-0.192l1.707-5.185c0.025-0.086,0.081-0.129,0.167-0.129h1.629c0.052,0,0.09,0.016,0.116,0.045
	c0.025,0.03,0.029,0.075,0.013,0.135l-1.54,4.825c-0.009,0.052,0.009,0.077,0.052,0.077h1.193c0.042,0,0.063-0.021,0.063-0.064
	v-1.334c0-0.043,0.016-0.079,0.045-0.109c0.03-0.03,0.066-0.045,0.109-0.045h1.502c0.042,0,0.078,0.015,0.108,0.045
	s0.045,0.066,0.045,0.109v1.334c0,0.043,0.021,0.064,0.064,0.064h0.397C301.082,68.766,301.118,68.781,301.148,68.811z"/>
<path id="icon-money" class="st1" d="M164.308,71.07h-6.346v8.49c0,1.215-0.985,2.2-2.2,2.2H76.199c-1.215,0-2.2-0.985-2.2-2.2
	v-47.1c0-1.215,0.985-2.2,2.2-2.2h6.5v-8.5c0-1.215,0.985-2.2,2.2-2.2h79.409c1.215,0,2.2,0.985,2.2,2.2v47.125
	c-0.004,1.21-0.989,2.187-2.199,2.183c0,0-0.001,0-0.001,0V71.07z M154.113,34.103H77.847v43.832h76.266V34.103z M157.961,67.222
	h4.7V23.408H86.543v6.846h69.532c0.021-0.003,0.041,0.004,0.056,0.019l0,0c0.021-0.003,0.041,0.004,0.056,0.019l0,0
	c0.02-0.002,0.04,0.004,0.055,0.018l0,0c0.019,0,0.037,0.019,0.056,0.019l0,0c0.019,0,0.037,0.019,0.055,0.019l0,0
	c0.019,0,0.037,0.019,0.056,0.019l0,0c0.019,0,0.037,0.019,0.056,0.019l0,0c0.019,0,0.037,0.019,0.056,0.019l0,0
	c0.019,0,0.037,0.019,0.056,0.019l0,0c0.019,0,0.037,0.019,0.056,0.019l0,0c0.019,0,0.037,0.018,0.056,0.018l0,0
	c0.019,0,0.037,0.019,0.056,0.019l0,0c0.019,0,0.037,0.018,0.055,0.018l0,0c0.014,0.002,0.027,0.009,0.037,0.019l0,0
	c0.009,0.011,0.023,0.018,0.037,0.019l0,0c0.01,0.01,0.023,0.017,0.037,0.018l0,0c0.009,0.011,0.023,0.018,0.037,0.019l0,0
	c0.019,0.019,0.037,0.019,0.037,0.037l0,0c0.019,0.019,0.037,0.019,0.037,0.037l0,0l0.037,0.037l0,0l0.037,0.037l0,0l0.037,0.037
	l0,0l0.037,0.037l0,0l0.037,0.037l0,0l0.037,0.037l0,0l0.037,0.037l0,0l0.037,0.037l0,0l0.037,0.037l0,0l0.037,0.037l0,0
	l0.037,0.037l0,0l0.037,0.037l0,0l0.037,0.037l0,0l0.037,0.037l0,0c0.019,0.019,0.019,0.037,0.037,0.037l0,0
	c0.001,0.02,0.017,0.036,0.037,0.037l0,0c0.002,0.014,0.009,0.027,0.019,0.037l0,0c0.002,0.014,0.009,0.027,0.019,0.037l0,0
	c0.002,0.014,0.009,0.027,0.019,0.037l0,0c0.002,0.014,0.008,0.027,0.018,0.037l0,0c0,0.019,0.019,0.037,0.019,0.056l0,0
	c0,0.019,0.019,0.037,0.019,0.056l0,0c0,0.018,0.019,0.037,0.019,0.056l0,0c0,0.019,0.019,0.037,0.019,0.056l0,0
	c0,0.019,0.019,0.037,0.019,0.056l0,0c0,0.019,0.019,0.037,0.019,0.056l0,0c0,0.019,0.019,0.037,0.019,0.055l0,0
	c0,0.019,0.019,0.037,0.019,0.056l0,0c-0.003,0.021,0.004,0.041,0.019,0.056l0,0c-0.003,0.021,0.004,0.041,0.019,0.056l0,0
	c-0.003,0.021,0.004,0.041,0.019,0.056l0,0c-0.003,0.021,0.004,0.041,0.019,0.056l0,0v0.056l0,0v0.046l0,0v0.055l0,0v0.056l0,0
	v0.056l0,0v0.056l0,0v0.056l0,0l0.055,34.784L157.961,67.222z M137.683,41.615H94.259c-0.259,0.426-0.518,1.406-0.814,1.813l0,0
	c-1.084,1.51-2.424,2.819-3.959,3.867c-0.407,0.278-1.369,0.537-1.813,0.759v15.93c0.444,0.241,1.406,0.5,1.813,0.759
	c0.764,0.523,1.482,1.112,2.146,1.758c0.668,0.646,1.275,1.352,1.813,2.109l0,0c0.3,0.407,0.555,1.388,0.814,1.813h43.424
	c0.259-0.426,0.518-1.406,0.814-1.813c0.538-0.757,1.145-1.463,1.813-2.109c0.664-0.646,1.382-1.235,2.146-1.758
	c0.407-0.278,1.369-0.518,1.813-0.759v-15.93c-0.444-0.241-1.406-0.5-1.813-0.759c-0.764-0.523-1.482-1.112-2.146-1.758
	c-0.668-0.646-1.275-1.352-1.813-2.109c-0.3-0.407-0.555-0.833-0.814-1.258L137.683,41.615z M93.074,38.229
	c-0.76,0.004-1.45,0.444-1.775,1.131l0,0c-0.294,0.62-0.641,1.215-1.036,1.776l0,0c-0.401,0.565-0.853,1.092-1.351,1.573
	c-0.495,0.487-1.034,0.926-1.61,1.314c-0.582,0.389-1.194,0.73-1.832,1.018c-0.738,0.322-1.201,1.065-1.166,1.869v18.28
	c0.004,0.775,0.46,1.476,1.166,1.795l0,0c0.641,0.281,1.255,0.622,1.832,1.018c0.58,0.382,1.12,0.822,1.61,1.314
	c0.494,0.485,0.946,1.011,1.351,1.573l0,0c0.401,0.556,0.747,1.149,1.036,1.77c0.346,0.729,1.1,1.176,1.906,1.129h45.681
	c0.76-0.003,1.451-0.442,1.776-1.129l0,0c0.586-1.252,1.395-2.387,2.387-3.349c0.495-0.486,1.034-0.926,1.61-1.314
	c0.582-0.389,1.194-0.73,1.832-1.018c0.706-0.319,1.162-1.02,1.166-1.795l0,0v-18.37c-0.002-0.833-0.528-1.574-1.314-1.85
	c-0.585-0.271-1.148-0.587-1.684-0.944c-0.58-0.382-1.12-0.822-1.61-1.314c-0.494-0.485-0.946-1.011-1.351-1.573
	c-0.402-0.557-0.749-1.152-1.036-1.776c-0.346-0.729-1.1-1.176-1.906-1.129L93.074,38.229z M110.559,60.117
	c0.109,1.367,0.73,2.642,1.739,3.571c0.547,0.503,1.188,0.893,1.887,1.147v0.981c0.001,0.981,0.797,1.775,1.778,1.774
	c0.979-0.001,1.773-0.795,1.774-1.774v-0.333l0.019-0.629c2.194-0.756,3.666-2.823,3.663-5.144c0-4.2-2.516-4.792-5.033-5.384
	c-1.147-0.278-2.294-0.555-2.294-1.943c-0.005-0.501,0.195-0.983,0.555-1.332c0.356-0.35,0.833-0.548,1.332-0.555
	c0.501-0.005,0.983,0.195,1.332,0.555c0.35,0.356,0.548,0.833,0.555,1.332c0.001,0.981,0.797,1.775,1.778,1.774
	c0.979-0.001,1.773-0.795,1.774-1.774c0.001-1.443-0.571-2.827-1.591-3.848c-0.582-0.587-1.291-1.031-2.072-1.3l0.019-0.925
	c0.019-0.972-0.754-1.776-1.727-1.795c-0.004,0-0.008,0-0.012,0h-0.074c-0.981,0.001-1.775,0.795-1.776,1.776v0.981
	c-0.772,0.276-1.474,0.72-2.054,1.3c-1.02,1.021-1.592,2.405-1.591,3.848c0,4.2,2.516,4.792,5.033,5.384
	c1.147,0.278,2.313,0.555,2.313,1.943c0.005,0.501-0.195,0.983-0.555,1.332c-0.351,0.357-0.831,0.557-1.332,0.555
	c-0.481,0.006-0.947-0.173-1.3-0.5c-0.344-0.326-0.554-0.768-0.592-1.24c-0.071-0.97-0.914-1.699-1.884-1.628
	c-0.001,0-0.002,0-0.003,0c-0.945,0.025-1.691,0.812-1.666,1.757C110.555,60.054,110.556,60.086,110.559,60.117z"/>
</svg>
