<?xml version="1.0" encoding="utf-8"?>
<!-- Generator: Adobe Illustrator 27.0.1, SVG Export Plug-In . SVG Version: 6.00 Build 0)  -->
<svg version="1.1" id="Layer_1" xmlns="http://www.w3.org/2000/svg" xmlns:xlink="http://www.w3.org/1999/xlink" x="0px" y="0px"
	 width="216px" height="178px" viewBox="0 0 216 178" style="enable-background:new 0 0 216 178;" xml:space="preserve">
<style type="text/css">
	.st0{opacity:0.999;fill:#A4DBE8;enable-background:new    ;}
	.st1{fill:#707070;}
	.st2{fill:#E35205;}
	.st3{fill:#FFFFFF;}
</style>
<path id="Ellipse_191" class="st0" d="M178.349,84.388c-10.272,2.754-20.688,1.085-29.226-3.84
	c-8.542-4.928-19.281-30.074-19.283-33.368c-0.011-17.016,11.34-32.592,28.556-37.208c20.55-5.51,41.675,6.683,47.185,27.232
	C211.091,57.753,198.898,78.878,178.349,84.388z"/>
<path class="st1" d="M82.656,23.758L82.656,23.758c-39.145,0.089-71.417,30.713-73.555,69.8H9.1C9.015,95.184,9,95.786,9,97.414
	c0,40.679,32.977,73.656,73.656,73.656s73.656-32.977,73.656-73.656S123.335,23.758,82.656,23.758z M82.779,159.537
	c-34.242,0-62-27.758-62-62c0-34.242,27.758-62,62-62s62,27.758,62,62C144.779,131.779,117.021,159.537,82.779,159.537z"/>
<path d="M187.603,39.352l-16.109-16.11c-0.76-0.717-1.947-0.716-2.713,0.01l-16.1,16.1c-0.363,0.363-0.563,0.846-0.563,1.359
	c-0.001,0.514,0.199,0.998,0.562,1.361c0.363,0.364,0.847,0.564,1.361,0.565h7.254v25.754l0.006,0.5h0.065
	c0.221,0.82,0.971,1.425,1.859,1.425h13.84c1.062,0,1.925-0.863,1.925-1.925V42.637h7.252c0.513,0,0.995-0.2,1.359-0.563
	C188.352,41.324,188.353,40.103,187.603,39.352z M163.222,38.787h-4.529l11.448-11.449l11.448,11.45h-4.53
	c-1.062,0-1.925,0.863-1.925,1.925v25.753h-9.987V40.712C165.146,39.65,164.283,38.787,163.222,38.787z"/>
<path class="st2" d="M82.656,23.758V35.54c0.041,0,0.082-0.003,0.123-0.003c34.242,0,62,27.758,62,62c0,34.242-27.758,62-62,62
	s-62-27.758-62-62c0-1.128,0.034-2.248,0.094-3.362L9.1,93.558C9.015,95.184,9,95.786,9,97.414
	c0,40.679,32.977,73.656,73.656,73.656s73.656-32.977,73.656-73.656S123.335,23.758,82.656,23.758z"/>
<path class="st3" d="M56.712,116.202c-0.106-0.141-0.125-0.318-0.053-0.53l8.639-29.627c0.07-0.212,0-0.317-0.212-0.317h-5.83
	c-0.177,0-0.265,0.088-0.265,0.265v1.854c0,0.178-0.062,0.327-0.186,0.451c-0.124,0.124-0.274,0.186-0.45,0.186h-4.77
	c-0.177,0-0.327-0.062-0.451-0.186c-0.124-0.124-0.186-0.273-0.186-0.451l0.053-7.896c0-0.177,0.061-0.326,0.186-0.45
	c0.123-0.124,0.273-0.186,0.45-0.186h19.027c0.177,0,0.327,0.062,0.451,0.186c0.124,0.124,0.186,0.273,0.186,0.45v5.406
	c0,0.142-0.036,0.389-0.106,0.741l-8.745,29.786c-0.106,0.354-0.336,0.53-0.689,0.53h-6.572
	C56.977,116.414,56.818,116.344,56.712,116.202z"/>
<path class="st3" d="M95.932,104.86c0,0.777-0.036,1.837-0.106,3.18c-0.106,2.792-1.06,4.955-2.862,6.492
	c-1.802,1.537-4.205,2.306-7.208,2.306c-2.827,0-5.114-0.706-6.863-2.12c-1.749-1.412-2.783-3.515-3.101-6.307
	c-0.142-0.742-0.212-1.714-0.212-2.915l-0.106-17.119c0-2.896,0.927-5.202,2.782-6.916s4.32-2.571,7.394-2.571
	c2.862,0,5.203,0.866,7.022,2.598s2.729,4.027,2.729,6.89v1.59c0,0.178-0.062,0.327-0.185,0.451
	c-0.125,0.124-0.274,0.186-0.451,0.186h-6.201c-0.177,0-0.327-0.062-0.45-0.186c-0.125-0.124-0.186-0.273-0.186-0.451v-1.166
	c0-0.954-0.23-1.749-0.689-2.385c-0.46-0.636-0.99-0.954-1.59-0.954c-0.777,0-1.414,0.31-1.908,0.928
	C83.247,87.008,83,87.812,83,88.801v5.354c0,0.105,0.035,0.168,0.106,0.186c0.07,0.018,0.141-0.009,0.212-0.08
	c1.166-0.988,2.491-1.483,3.975-1.483c2.473,0,4.46,0.812,5.962,2.438c1.501,1.626,2.323,3.799,2.465,6.52
	C95.86,102.581,95.932,103.624,95.932,104.86z M88.353,104.33c0-0.954-0.071-2.049-0.212-3.286
	c-0.106-0.812-0.371-1.448-0.795-1.908c-0.424-0.458-0.972-0.688-1.643-0.688c-0.708,0-1.281,0.238-1.723,0.715
	c-0.442,0.478-0.715,1.14-0.821,1.988c-0.106,1.378-0.159,2.438-0.159,3.18c0,0.848,0.053,1.943,0.159,3.286
	c0.106,0.919,0.379,1.625,0.821,2.12c0.441,0.495,1.015,0.742,1.723,0.742c0.707,0,1.28-0.266,1.723-0.796
	c0.441-0.529,0.715-1.271,0.821-2.226C88.317,105.761,88.353,104.72,88.353,104.33z"/>
<path class="st3" d="M99.892,85.95c-0.742-0.433-1.329-1.025-1.762-1.777c-0.433-0.752-0.649-1.571-0.649-2.458
	c0-0.886,0.216-1.7,0.649-2.442c0.433-0.742,1.021-1.334,1.762-1.777c0.742-0.443,1.546-0.665,2.412-0.665s1.664,0.222,2.396,0.665
	c0.731,0.443,1.309,1.035,1.731,1.777s0.634,1.557,0.634,2.442c0,0.887-0.211,1.706-0.634,2.458s-1,1.345-1.731,1.777
	c-0.732,0.433-1.53,0.649-2.396,0.649S100.634,86.383,99.892,85.95z M104.05,83.569c0.464-0.515,0.696-1.133,0.696-1.854
	c0-0.721-0.237-1.334-0.711-1.84c-0.474-0.504-1.051-0.757-1.731-0.757c-0.701,0-1.294,0.253-1.778,0.757
	c-0.484,0.506-0.727,1.119-0.727,1.84c0,0.742,0.242,1.365,0.727,1.87c0.484,0.506,1.077,0.758,1.778,0.758
	C103.003,84.343,103.586,84.085,104.05,83.569z M100.727,98.625c-0.042-0.082-0.031-0.186,0.031-0.309l11.253-20.961
	c0.082-0.164,0.236-0.247,0.464-0.247h2.318c0.144,0,0.236,0.042,0.278,0.124c0.041,0.082,0.031,0.186-0.031,0.309l-11.253,20.961
	c-0.083,0.165-0.237,0.247-0.464,0.247h-2.318C100.86,98.749,100.768,98.708,100.727,98.625z M111.253,98.362
	c-0.731-0.442-1.313-1.04-1.746-1.793c-0.433-0.752-0.649-1.571-0.649-2.458c0-0.886,0.217-1.7,0.649-2.441
	c0.433-0.742,1.015-1.33,1.746-1.763s1.53-0.649,2.396-0.649c0.865,0,1.664,0.217,2.396,0.649s1.314,1.021,1.747,1.763
	c0.433,0.741,0.649,1.556,0.649,2.441c0,0.887-0.217,1.706-0.649,2.458c-0.433,0.753-1.016,1.351-1.747,1.793
	c-0.731,0.443-1.53,0.665-2.396,0.665C112.783,99.027,111.984,98.806,111.253,98.362z M115.411,95.967
	c0.474-0.515,0.711-1.134,0.711-1.855c0-0.721-0.242-1.334-0.727-1.839s-1.066-0.758-1.746-0.758c-0.701,0-1.288,0.253-1.763,0.758
	c-0.474,0.505-0.711,1.118-0.711,1.839c0,0.742,0.237,1.366,0.711,1.871c0.475,0.505,1.062,0.757,1.763,0.757
	C114.35,96.739,114.937,96.482,115.411,95.967z"/>
</svg>
