<?xml version="1.0" encoding="utf-8"?>
<!-- Generator: Adobe Illustrator 27.0.1, SVG Export Plug-In . SVG Version: 6.00 Build 0)  -->
<svg version="1.1" id="Layer_1" xmlns="http://www.w3.org/2000/svg" xmlns:xlink="http://www.w3.org/1999/xlink" x="0px" y="0px"
	 width="230px" height="160px" viewBox="0 0 230 160" style="enable-background:new 0 0 230 160;" xml:space="preserve">
<style type="text/css">
	.st0{fill:#A4DBE8;}
	.st1{fill:#E35205;}
</style>
<path id="Path_92153" class="st0" d="M82.836,112.608c0,17.786,14.419,32.205,32.205,32.205s32.205-14.419,32.205-32.205
	c0-17.786-14.418-32.204-32.204-32.205C97.264,80.423,82.857,94.83,82.836,112.608z M138.943,112.608c0,13.2-10.7,23.9-23.9,23.9
	s-23.9-10.7-23.9-23.9s10.7-23.9,23.9-23.9C128.236,88.725,138.926,99.415,138.943,112.608z"/>
<path id="Path_92154" class="st0" d="M110.89,97.033c0,2.293,1.859,4.152,4.152,4.152l0,0c6.306,0.007,11.418,5.117,11.426,11.423
	c-0.05,2.292,1.767,4.191,4.059,4.241s4.191-1.767,4.241-4.059c0.001-0.061,0.001-0.121,0-0.182
	c-0.012-10.89-8.836-19.715-19.726-19.729c-2.293-0.001-4.151,1.857-4.152,4.15C110.89,97.03,110.89,97.032,110.89,97.033z"/>
<path id="Path_92372" class="st0" d="M207.861,109.555c-1.692-1.782-42.014-43.65-92.825-43.65s-91.126,41.871-92.818,43.65
	c-1.624,1.709-1.624,4.391,0,6.1c1.692,1.783,42.013,43.65,92.823,43.65s91.133-41.864,92.82-43.65
	C209.483,113.945,209.483,111.265,207.861,109.555z M115.041,151.455c-40.334,0-75-29.1-85.47-38.847
	c10.473-9.744,45.136-38.846,85.47-38.846s75,29.1,85.471,38.846C190.038,122.355,155.375,151.455,115.041,151.455z"/>
<path id="Path_92374" class="st1" d="M104.4,20.347l6.856-7.115v29.781c-0.041,2.108,1.634,3.85,3.742,3.891
	c0.002,0,0.005,0,0.007,0c2.109-0.04,3.787-1.782,3.747-3.891v-29.78l6.856,7.115c1.393,1.464,3.708,1.521,5.172,0.128
	c0.044-0.042,0.087-0.085,0.128-0.128c1.458-1.544,1.458-3.956,0-5.5L117.649,1.099c-1.464-1.462-3.836-1.462-5.3,0L99.097,14.848
	c-1.46,1.543-1.46,3.957,0,5.5c1.391,1.464,3.705,1.522,5.169,0.131c0.045-0.043,0.089-0.086,0.131-0.131"/>
<path id="Path_92375" class="st1" d="M157.296,39.349l6.856-7.115v29.781c-0.041,2.108,1.635,3.85,3.744,3.891
	c0.002,0,0.004,0,0.005,0c2.109-0.04,3.787-1.782,3.747-3.891V32.238l6.856,7.115c1.393,1.464,3.708,1.521,5.172,0.128
	c0.044-0.042,0.087-0.085,0.128-0.128c1.46-1.543,1.46-3.957,0-5.5l-13.259-13.749c-1.464-1.462-3.836-1.462-5.3,0l-13.251,13.745
	c-1.46,1.543-1.46,3.957,0,5.5c1.391,1.464,3.705,1.522,5.169,0.131c0.045-0.043,0.089-0.086,0.131-0.131"/>
<path id="Path_92376" class="st1" d="M51.502,39.344l6.856-7.108v29.781c-0.041,2.108,1.635,3.85,3.744,3.891
	c0.002,0,0.004,0,0.005,0c2.109-0.04,3.787-1.782,3.747-3.891V32.235l6.856,7.108c1.387,1.464,3.698,1.526,5.161,0.139
	c0.047-0.045,0.094-0.091,0.139-0.139c1.464-1.541,1.464-3.959,0-5.5L64.757,20.094c-1.462-1.464-3.834-1.465-5.298-0.002
	c-0.001,0.001-0.002,0.002-0.002,0.002L46.201,33.85c-1.419,1.582-1.347,3.998,0.162,5.494
	C47.785,40.756,50.08,40.756,51.502,39.344"/>
</svg>
