<?xml version="1.0" encoding="utf-8"?>
<!-- Generator: Adobe Illustrator 27.0.1, SVG Export Plug-In . SVG Version: 6.00 Build 0)  -->
<svg version="1.1" id="Layer_1" xmlns="http://www.w3.org/2000/svg" xmlns:xlink="http://www.w3.org/1999/xlink" x="0px" y="0px"
	 width="164px" height="14px" viewBox="0 0 164 14" style="enable-background:new 0 0 164 14;" xml:space="preserve">
<style type="text/css">
	.st0{fill:#FFFFFF;}
</style>
<path id="Path_37" class="st0" d="M6.22,13.158H0V1.21h5.79c2.77,0,4.61,1.206,4.61,3.213c-0.051,1.192-0.855,2.219-2,2.554
	c1.471,0.147,2.611,1.35,2.68,2.827C11.08,11.914,9.2,13.158,6.22,13.158z M4.81,3.877H4.13V6.11h0.68c1.19,0,1.82-0.377,1.82-1.159
	S5.97,3.877,4.81,3.877z M5.48,8.277H4.13v2.224h1.35c1.23,0,1.68-0.424,1.68-1.168S6.56,8.277,5.48,8.277z"/>
<path id="Path_38" class="st0" d="M23.35,13.158l-0.7-2.177h-3.88l-0.71,2.177h-4.22L18.42,1.21h4.8l4.58,11.948H23.35z
	 M20.71,5.083l-1,3.034h2L20.71,5.083z"/>
<path id="Path_39" class="st0" d="M35.481,13.368c-3.67,0-6.43-1.7-6.43-5.659v-6.5h4.43v6.876c0,1.105,0.895,2,2,2s2-0.895,2-2
	V1.21h4.42v6.461C41.871,11.67,39.121,13.368,35.481,13.368z"/>
<path id="Path_40" class="st0" d="M50.021,13.368c-1.889,0.036-3.738-0.551-5.26-1.671l1.79-2.53c0.977,0.79,2.184,1.241,3.44,1.284
	c0.64,0,1.09-0.245,1.09-0.651c0-0.576-0.5-0.784-2.13-1.227c-2.4-0.68-3.62-1.6-3.62-3.569c0-2.6,2.25-3.993,5.46-3.993
	c1.521-0.018,3.015,0.405,4.3,1.218l-1.74,2.601c-0.793-0.572-1.742-0.886-2.72-0.9c-0.83,0-1.15,0.321-1.15,0.661
	s0.32,0.614,2.06,1.067c2.39,0.623,3.69,1.463,3.69,3.71C55.201,11.763,53.211,13.368,50.021,13.368z"/>
<path id="Path_41" class="st0" d="M64.957,13.368c-4,0-6.91-2.549-6.91-6.127c0.015-1.74,0.773-3.39,2.082-4.536
	c1.353-1.19,3.119-1.801,4.918-1.7c1.708,0.007,3.359,0.618,4.66,1.725l-2.18,2.67c-0.681-0.7-1.614-1.096-2.59-1.1
	c-1.43,0.016-2.577,1.188-2.561,2.619c0.001,0.071,0.004,0.141,0.011,0.211c-0.142,1.494,0.953,2.821,2.448,2.964
	c0.12,0.011,0.241,0.015,0.362,0.01c0.982-0.028,1.923-0.399,2.66-1.048l2.12,2.606C68.569,12.827,66.783,13.434,64.957,13.368z"/>
<path id="Path_42" class="st0" d="M80.994,13.158V8.993h-3.33v4.165h-4.43V1.21h4.43v4.41h3.33V1.21h4.43v11.948H80.994z"/>
<path id="Path_43" class="st0" d="M108.335,13.158V1.21h4.25v8.914h4.34v3.034H108.335z"/>
<path id="Path_44" class="st0" d="M125.584,13.368c-4.16,0-7.11-2.587-7.11-6.155s3-6.2,7.15-6.2c4.15,0,7.11,2.6,7.11,6.165
	S129.734,13.368,125.584,13.368z M125.584,4.192c-0.786,0.02-1.531,0.353-2.07,0.925c-0.52,0.552-0.776,1.303-0.7,2.058
	c-0.049,0.759,0.219,1.504,0.742,2.057c0.541,0.572,1.282,0.914,2.068,0.955c0.784-0.021,1.527-0.352,2.066-0.922
	c0.518-0.551,0.774-1.299,0.7-2.052c0.052-0.761-0.216-1.508-0.739-2.063c-0.542-0.574-1.283-0.917-2.071-0.958L125.584,4.192z"/>
<path id="Path_45" class="st0" d="M144.349,13.158V7.33l-2.05,3.477h-2l-2.1-3.477v5.823h-4.18V1.21h4.3l3,4.777l2.8-4.777h4.65
	v11.948H144.349z"/>
<path id="Path_46" class="st0" d="M159.179,13.158h-6.26V1.21h5.79c2.78,0,4.61,1.206,4.61,3.213c-0.051,1.192-0.855,2.219-2,2.554
	c1.473,0.143,2.616,1.349,2.68,2.827C164.039,11.914,162.159,13.158,159.179,13.158z M157.769,3.877h-0.67V6.11h0.67
	c1.2,0,1.82-0.377,1.82-1.159S158.919,3.877,157.769,3.877z M158.439,8.277h-1.34v2.224h1.34c1.23,0,1.69-0.424,1.69-1.168
	S159.529,8.278,158.439,8.277L158.439,8.277z"/>
<polygon class="st0" points="98.989,5.143 98.989,1.22 94.719,1.22 94.719,5.143 94.709,5.143 90.452,5.143 90.452,9.253 
	94.709,9.253 94.719,9.253 94.719,13.168 98.989,13.168 98.989,9.253 103.207,9.253 103.207,5.143 "/>
</svg>
