<?xml version="1.0" encoding="utf-8"?>
<!-- Generator: Adobe Illustrator 27.0.1, SVG Export Plug-In . SVG Version: 6.00 Build 0)  -->
<svg version="1.1" id="Layer_1" xmlns="http://www.w3.org/2000/svg" xmlns:xlink="http://www.w3.org/1999/xlink" x="0px" y="0px"
	 width="40px" height="40px" viewBox="0 0 40 40" style="enable-background:new 0 0 40 40;" xml:space="preserve">
<style type="text/css">
	.st0{fill:#E35205;}
</style>
<path class="st0" d="M20,39.5C9.248,39.5,0.5,30.752,0.5,20C0.5,9.248,9.248,0.5,20,0.5c10.752,0,19.5,8.748,19.5,19.5
	C39.5,30.752,30.752,39.5,20,39.5z M20,4.5C11.453,4.5,4.5,11.453,4.5,20S11.453,35.5,20,35.5S35.5,28.547,35.5,20
	S28.547,4.5,20,4.5z"/>
<polygon class="st0" points="28.914,13.914 26.086,11.086 20,17.172 13.914,11.086 11.086,13.914 17.172,20 11.086,26.086 
	13.914,28.914 20,22.828 26.086,28.914 28.914,26.086 22.828,20 "/>
</svg>
